#N canvas 4 53 1247 711 10;
#X text 33 194 audio;
#X obj 33 257 lop~ 115;
#X obj 34 296 *~;
#X obj 122 367 *~;
#X obj 103 272 lop~ 240;
#X obj 121 332 hip~ 115;
#X obj 245 367 *~;
#X obj 214 329 hip~ 240;
#X obj 195 280 lop~ 455;
#X obj 308 367 *~;
#X obj 284 321 hip~ 455;
#X obj 272 282 lop~ 800;
#X obj 367 367 *~;
#X obj 356 311 hip~ 800;
#X obj 366 275 lop~ 1500;
#X obj 426 367 *~;
#X obj 423 315 hip~ 1500;
#X obj 449 290 lop~ 4500;
#X obj 487 367 *~;
#X obj 507 324 hip~ 4500;
#X obj 515 294 lop~ 9000;
#X obj 551 367 *~;
#X obj 581 301 hip~ 9000;
#X obj 560 269 lop~ 13000;
#X obj 620 367 *~;
#X obj 654 331 hip~ 13000;
#X obj 654 259 lop~ 15000;
#X obj 689 367 *~;
#X obj 808 299 hip~ 15000;
#X obj 43 79 inlet~;
#X obj 175 186 / 100;
#X obj 229 187 / 100;
#X obj 299 187 / 100;
#X obj 355 186 / 100;
#X obj 425 186 / 100;
#X obj 481 185 / 100;
#X obj 551 185 / 100;
#X obj 608 186 / 100;
#X obj 677 186 / 100;
#X obj -32 649 vu 15 120 empty empty -1 -8 0 8 -66577 -1 1 0;
#X obj -83 780 outlet;
#X obj 21 642 vsl 15 128 0 100 0 0 empty empty empty 0 -8 0 8 -262144
-1 -1 5715 1;
#X obj -33 586 int;
#X floatatom -33 609 5 0 0 0 - - -;
#X obj -59 259 lop~ 90;
#X floatatom 20 780 5 0 0 0 - - -;
#X floatatom -33 781 5 0 0 0 - - -;
#X obj -59 558 env~ 8192;
#X msg -52 12 \; pd dsp 0;
#X msg -52 50 \; pd dsp 1;
#X obj 789 68 vsl 15 128 0 2 0 0 empty empty 60 0 -8 0 8 -262144 -1
-1 0 1;
#X obj 812 68 vsl 15 128 0 127 0 0 empty empty 170 0 -8 0 8 -262144
-1 -1 0 1;
#X obj 837 68 vsl 15 128 0 127 0 0 empty empty 310 0 -8 0 8 -262144
-1 -1 0 1;
#X obj 861 68 vsl 15 128 0 127 0 0 empty empty 600 0 -8 0 8 -262144
-1 -1 0 1;
#X obj 886 69 vsl 15 128 0 127 0 0 empty empty 1kh 0 -8 0 8 -262144
-1 -1 0 1;
#X obj 908 69 vsl 15 128 0 127 0 0 empty empty 3kh 0 -8 0 8 -262144
-1 -1 0 1;
#X obj 928 69 vsl 15 128 0 127 0 0 empty empty 6kh 0 -8 0 8 -262144
-1 -1 0 1;
#X obj 951 69 vsl 15 128 0 127 0 0 empty empty 12kh 0 -8 0 8 -262144
-1 -1 0 1;
#X obj 975 69 vsl 15 128 0 127 0 0 empty empty 14kh 0 -8 0 8 -262144
-1 -1 0 1;
#X obj 999 69 vsl 15 128 0 127 0 0 empty empty 16kh 0 -8 0 8 -262144
-1 -1 0 1;
#X floatatom 229 104 5 0 0 0 - - -;
#X obj -60 296 *~;
#X obj 62 476 vu 15 120 empty empty -1 -8 0 8 -66577 -1 1 0;
#X obj 11 607 outlet;
#X obj 115 469 vsl 15 128 0 100 0 0 empty empty empty 0 -8 0 8 -262144
-1 -1 5715 1;
#X obj 61 413 int;
#X floatatom 61 436 5 0 0 0 - - -;
#X floatatom 114 607 5 0 0 0 - - -;
#X floatatom 61 608 5 0 0 0 - - -;
#X obj 35 385 env~ 8192;
#X obj 166 603 vu 15 120 empty empty -1 -8 0 8 -66577 -1 1 0;
#X obj 115 734 outlet;
#X obj 219 596 vsl 15 128 0 25 0 0 empty empty empty 0 -8 0 8 -262144
-1 -1 8636 1;
#X obj 165 540 int;
#X floatatom 165 563 5 0 0 0 - - -;
#X floatatom 218 734 5 0 0 0 - - -;
#X floatatom 165 735 5 0 0 0 - - -;
#X obj 139 512 env~ 8192;
#X obj 296 520 vu 15 120 empty empty -1 -8 0 8 -66577 -1 1 0;
#X obj 245 651 outlet;
#X obj 349 513 vsl 15 128 0 25 0 0 empty empty empty 0 -8 0 8 -262144
-1 -1 7112 1;
#X obj 295 457 int;
#X floatatom 295 480 5 0 0 0 - - -;
#X floatatom 348 651 5 0 0 0 - - -;
#X floatatom 295 652 5 0 0 0 - - -;
#X obj 269 429 env~ 8192;
#X obj 105 187 / 100;
#X obj 398 579 vu 15 120 empty empty -1 -8 0 8 -66577 -1 1 0;
#X obj 347 710 outlet;
#X obj 451 572 vsl 15 128 0 25 0 0 empty empty empty 0 -8 0 8 -262144
-1 -1 6096 1;
#X obj 397 516 int;
#X floatatom 397 539 5 0 0 0 - - -;
#X floatatom 450 710 5 0 0 0 - - -;
#X floatatom 397 711 5 0 0 0 - - -;
#X obj 371 488 env~ 8192;
#X obj 524 556 vu 15 120 empty empty -1 -8 0 8 -66577 -1 1 0;
#X obj 473 687 outlet;
#X obj 577 549 vsl 15 128 0 25 0 0 empty empty empty 0 -8 0 8 -262144
-1 -1 6096 1;
#X obj 523 493 int;
#X floatatom 523 516 5 0 0 0 - - -;
#X floatatom 576 687 5 0 0 0 - - -;
#X floatatom 523 688 5 0 0 0 - - -;
#X obj 497 465 env~ 8192;
#X obj 641 580 vu 15 120 empty empty -1 -8 0 8 -66577 -1 1 0;
#X obj 590 711 outlet;
#X obj 694 573 vsl 15 128 0 25 0 0 empty empty empty 0 -8 0 8 -262144
-1 -1 7620 1;
#X obj 640 517 int;
#X floatatom 640 540 5 0 0 0 - - -;
#X floatatom 693 711 5 0 0 0 - - -;
#X floatatom 640 712 5 0 0 0 - - -;
#X obj 614 489 env~ 8192;
#X obj 774 549 vu 15 120 empty empty -1 -8 0 8 -66577 -1 1 0;
#X obj 723 680 outlet;
#X obj 827 542 vsl 15 128 0 25 0 0 empty empty empty 0 -8 0 8 -262144
-1 -1 7620 1;
#X obj 773 486 int;
#X floatatom 773 509 5 0 0 0 - - -;
#X floatatom 826 680 5 0 0 0 - - -;
#X floatatom 773 681 5 0 0 0 - - -;
#X obj 747 458 env~ 8192;
#X obj 934 560 vu 15 120 empty empty -1 -8 0 8 -66577 -1 1 0;
#X obj 883 691 outlet;
#X obj 987 553 vsl 15 128 0 25 0 0 empty empty empty 0 -8 0 8 -262144
-1 -1 7620 1;
#X obj 933 497 int;
#X floatatom 933 520 5 0 0 0 - - -;
#X floatatom 986 691 5 0 0 0 - - -;
#X floatatom 933 692 5 0 0 0 - - -;
#X obj 907 469 env~ 8192;
#X obj 1067 532 vu 15 120 empty empty -1 -8 0 8 -66577 -1 1 0;
#X obj 1016 663 outlet;
#X obj 1120 525 vsl 15 128 0 25 0 0 empty empty empty 0 -8 0 8 -262144
-1 -1 7620 1;
#X obj 1066 469 int;
#X floatatom 1066 492 5 0 0 0 - - -;
#X floatatom 1119 663 5 0 0 0 - - -;
#X floatatom 1066 664 5 0 0 0 - - -;
#X obj 1040 441 env~ 8192;
#X floatatom 7 458 5 0 0 0 - - -;
#X obj 233 39 loadbang;
#X obj 317 37 inlet;
#X obj -45 395 outlet~;
#X obj 400 438 outlet~;
#X obj 1063 341 outlet~;
#X obj 362 78 r mic_volume;
#X obj 367 106 / 10;
#X msg 229 64 0.5;
#X connect 1 0 2 0;
#X connect 2 0 69 0;
#X connect 2 0 138 0;
#X connect 3 0 77 0;
#X connect 3 0 138 0;
#X connect 4 0 5 0;
#X connect 5 0 3 0;
#X connect 6 0 85 0;
#X connect 6 0 139 0;
#X connect 7 0 6 0;
#X connect 8 0 7 0;
#X connect 9 0 94 0;
#X connect 9 0 139 0;
#X connect 10 0 9 0;
#X connect 11 0 10 0;
#X connect 12 0 102 0;
#X connect 12 0 139 0;
#X connect 13 0 12 0;
#X connect 14 0 13 0;
#X connect 15 0 140 0;
#X connect 16 0 15 0;
#X connect 17 0 16 0;
#X connect 18 0 110 0;
#X connect 18 0 140 0;
#X connect 19 0 18 0;
#X connect 20 0 19 0;
#X connect 21 0 118 0;
#X connect 21 0 140 0;
#X connect 22 0 21 0;
#X connect 23 0 22 0;
#X connect 24 0 126 0;
#X connect 25 0 24 0;
#X connect 26 0 25 0;
#X connect 27 0 134 0;
#X connect 28 0 27 0;
#X connect 29 0 1 0;
#X connect 29 0 4 0;
#X connect 29 0 8 0;
#X connect 29 0 11 0;
#X connect 29 0 14 0;
#X connect 29 0 17 0;
#X connect 29 0 20 0;
#X connect 29 0 23 0;
#X connect 29 0 26 0;
#X connect 29 0 28 0;
#X connect 29 0 44 0;
#X connect 30 0 3 1;
#X connect 31 0 6 1;
#X connect 32 0 9 1;
#X connect 33 0 12 1;
#X connect 34 0 15 1;
#X connect 35 0 18 1;
#X connect 36 0 21 1;
#X connect 37 0 24 1;
#X connect 38 0 27 1;
#X connect 39 0 40 0;
#X connect 39 0 46 0;
#X connect 41 0 45 0;
#X connect 42 0 43 0;
#X connect 43 0 41 0;
#X connect 43 0 39 0;
#X connect 44 0 61 0;
#X connect 47 0 42 0;
#X connect 47 0 135 0;
#X connect 60 0 30 0;
#X connect 60 0 31 0;
#X connect 60 0 33 0;
#X connect 60 0 34 0;
#X connect 60 0 35 0;
#X connect 60 0 36 0;
#X connect 60 0 37 0;
#X connect 60 0 38 0;
#X connect 60 0 86 0;
#X connect 60 0 32 0;
#X connect 61 0 47 0;
#X connect 61 0 138 0;
#X connect 62 0 63 0;
#X connect 62 0 68 0;
#X connect 64 0 67 0;
#X connect 65 0 66 0;
#X connect 66 0 64 0;
#X connect 66 0 62 0;
#X connect 69 0 65 0;
#X connect 70 0 71 0;
#X connect 70 0 76 0;
#X connect 72 0 75 0;
#X connect 73 0 74 0;
#X connect 74 0 72 0;
#X connect 74 0 70 0;
#X connect 77 0 73 0;
#X connect 78 0 79 0;
#X connect 78 0 84 0;
#X connect 80 0 83 0;
#X connect 81 0 82 0;
#X connect 82 0 80 0;
#X connect 82 0 78 0;
#X connect 85 0 81 0;
#X connect 86 0 2 1;
#X connect 86 0 61 1;
#X connect 87 0 88 0;
#X connect 87 0 93 0;
#X connect 89 0 92 0;
#X connect 90 0 91 0;
#X connect 91 0 89 0;
#X connect 91 0 87 0;
#X connect 94 0 90 0;
#X connect 95 0 96 0;
#X connect 95 0 101 0;
#X connect 97 0 100 0;
#X connect 98 0 99 0;
#X connect 99 0 97 0;
#X connect 99 0 95 0;
#X connect 102 0 98 0;
#X connect 103 0 104 0;
#X connect 103 0 109 0;
#X connect 105 0 108 0;
#X connect 106 0 107 0;
#X connect 107 0 105 0;
#X connect 107 0 103 0;
#X connect 110 0 106 0;
#X connect 111 0 112 0;
#X connect 111 0 117 0;
#X connect 113 0 116 0;
#X connect 114 0 115 0;
#X connect 115 0 113 0;
#X connect 115 0 111 0;
#X connect 118 0 114 0;
#X connect 119 0 120 0;
#X connect 119 0 125 0;
#X connect 121 0 124 0;
#X connect 122 0 123 0;
#X connect 123 0 121 0;
#X connect 123 0 119 0;
#X connect 126 0 122 0;
#X connect 127 0 128 0;
#X connect 127 0 133 0;
#X connect 129 0 132 0;
#X connect 130 0 131 0;
#X connect 131 0 129 0;
#X connect 131 0 127 0;
#X connect 134 0 130 0;
#X connect 136 0 143 0;
#X connect 137 0 60 0;
#X connect 141 0 142 0;
#X connect 142 0 60 0;
#X connect 143 0 60 0;
