#N canvas 0 0 450 300 10;
#X obj 68 130 moses 0;
#X obj 101 153 moses 6;
#X obj 70 151 t b;
#X msg 71 172 0;
#X obj 139 175 t b;
#X msg 141 196 0;
#X obj 108 244 outlet;
#X obj 65 112 inlet;
#X connect 0 0 2 0;
#X connect 0 1 1 0;
#X connect 1 0 6 0;
#X connect 1 1 4 0;
#X connect 2 0 3 0;
#X connect 3 0 6 0;
#X connect 4 0 5 0;
#X connect 5 0 6 0;
#X connect 7 0 0 0;
