#N canvas 166 206 450 300 10;
#X obj -72 -56 inlet;
#N canvas 0 159 1001 319 \$0-network 0;
#X obj 151 41 mrpeach/packOSC;
#X obj 122 -109 inlet;
#X obj -70 29 list prepend connect;
#X obj -70 52 list trim;
#X msg 19 84 disconnect;
#X obj -70 -18 inlet;
#X obj 63 -12 inlet;
#X text 151 -35 data in;
#X text 317 29 data out;
#X obj 151 66 list prepend send;
#X obj 152 90 list trim;
#X obj 325 8 outlet;
#X obj 151 13 spigot 0;
#X obj -70 9 t a b;
#X msg 191 -8 1;
#X obj 63 12 t b b;
#X msg 220 -8 0;
#N canvas 0 0 450 300 \$0-receiver 0;
#X restore 325 -19 pd \$0-receiver;
#N canvas 401 54 623 504 Dyn-creation-receiver 0;
#X obj -213 283 s pd-\$0-receiver;
#X msg -173 100 obj 10 10 mrpeach/udpreceive \$1;
#X msg -142 120 obj 10 40 mrpeach/unpackOSC;
#X msg -135 141 obj 10 70 mrpeach/pipelist;
#X msg -117 162 obj 10 100 outlet;
#X msg -82 188 connect 0 0 1 0;
#X msg -79 209 connect 1 0 2 0;
#X msg -78 232 connect 1 1 2 1;
#X msg -79 253 connect 2 0 3 0;
#X obj -268 -3 \$2;
#X obj -265 18 sel 0 1;
#X msg -338 215 selectall \, clear;
#X obj -317 304 \$0;
#X obj -330 346 s;
#X obj -315 327 makefilename pd-%d-network;
#X obj -318 285 loadbang;
#X obj -269 -26 loadbang;
#X obj -175 77 \$1;
#X obj -301 91 t b b b b b b b;
#X obj -268 41 t b b;
#X msg -149 79 obj 10 10 mrpeach/tcpreceive \$1;
#X obj -231 41 t b b;
#X obj -147 55 \$1;
#X obj -257 305 bng 15 250 50 0 empty empty empty 17 7 0 10 -262144
-1 -1;
#X msg -328 264 connect 17 0 11 0;
#X connect 1 0 0 0;
#X connect 2 0 0 0;
#X connect 3 0 0 0;
#X connect 4 0 0 0;
#X connect 5 0 0 0;
#X connect 6 0 0 0;
#X connect 7 0 0 0;
#X connect 8 0 0 0;
#X connect 9 0 10 0;
#X connect 10 0 19 0;
#X connect 10 1 21 0;
#X connect 11 0 0 0;
#X connect 12 0 14 0;
#X connect 14 0 13 1;
#X connect 15 0 12 0;
#X connect 16 0 9 0;
#X connect 17 0 1 0;
#X connect 18 0 8 0;
#X connect 18 0 24 0;
#X connect 18 1 7 0;
#X connect 18 2 6 0;
#X connect 18 3 5 0;
#X connect 18 4 4 0;
#X connect 18 5 3 0;
#X connect 18 6 2 0;
#X connect 19 0 18 0;
#X connect 19 1 17 0;
#X connect 20 0 0 0;
#X connect 21 0 18 0;
#X connect 21 1 22 0;
#X connect 22 0 20 0;
#X connect 23 0 12 0;
#X connect 24 0 13 0;
#X restore 548 20 pd Dyn-creation-receiver;
#N canvas 551 89 450 425 Dyn-creation-sender 0;
#X obj -145 359 s pd-\$0-sender;
#X obj -189 -32 \$2;
#X obj -186 -11 sel 0 1;
#X obj -189 -55 loadbang;
#X msg -153 36 obj 10 10 inlet;
#X obj -189 12 t b b b;
#X obj -193 41 bng 15 250 50 0 empty empty empty 17 7 0 10 -262144
-1 -1;
#X msg -87 294 selectall \, clear;
#X msg -178 220 connect 0 0 1 0;
#X obj -17 0 t b b b;
#X msg -169 103 obj 10 40 mrpeach/udpsend;
#X msg -14 45 obj 10 40 mrpeach/tcpsend;
#X obj 61 320 \$0;
#X obj 48 362 s;
#X obj 63 343 makefilename pd-%d-network;
#X obj 60 301 loadbang;
#X obj 121 321 bng 15 250 50 0 empty empty empty 17 7 0 10 -262144
-1 -1;
#X msg 46 276 connect 4 0 20 0;
#X msg 45 256 connect 10 0 20 0;
#X msg 48 229 connect 3 0 20 0;
#X obj 53 157 t b b b;
#X obj 53 136 del 100;
#X connect 1 0 2 0;
#X connect 2 0 5 0;
#X connect 2 1 9 0;
#X connect 3 0 1 0;
#X connect 4 0 0 0;
#X connect 5 0 8 0;
#X connect 5 0 21 0;
#X connect 5 1 10 0;
#X connect 5 2 4 0;
#X connect 7 0 0 0;
#X connect 8 0 0 0;
#X connect 9 0 8 0;
#X connect 9 1 11 0;
#X connect 9 2 4 0;
#X connect 10 0 0 0;
#X connect 11 0 0 0;
#X connect 12 0 14 0;
#X connect 14 0 13 1;
#X connect 15 0 12 0;
#X connect 16 0 12 0;
#X connect 17 0 13 0;
#X connect 18 0 13 0;
#X connect 19 0 13 0;
#X connect 20 0 19 0;
#X connect 20 1 18 0;
#X connect 20 2 17 0;
#X connect 21 0 20 0;
#X restore 551 49 pd Dyn-creation-sender;
#N canvas 0 0 450 300 \$0-sender 0;
#X obj 10 10 inlet;
#X obj 10 40 mrpeach/udpsend;
#X obj 10 10 inlet;
#X obj 10 40 mrpeach/udpsend;
#X connect 0 0 1 0;
#X connect 0 0 1 0;
#X restore 100 182 pd \$0-sender;
#X connect 0 0 9 0;
#X connect 1 0 12 0;
#X connect 1 0 12 0;
#X connect 1 0 12 0;
#X connect 1 0 12 0;
#X connect 2 0 3 0;
#X connect 3 0 20 1;
#X connect 3 0 20 0;
#X connect 4 0 20 1;
#X connect 4 0 20 0;
#X connect 5 0 13 0;
#X connect 6 0 15 0;
#X connect 9 0 10 0;
#X connect 10 0 20 1;
#X connect 10 0 20 0;
#X connect 12 0 0 0;
#X connect 13 0 2 0;
#X connect 13 1 14 0;
#X connect 14 0 12 1;
#X connect 15 0 4 0;
#X connect 15 1 16 0;
#X connect 16 0 12 1;
#X restore -50 31 pd \$0-network;
#X obj -52 78 outlet;
#X obj -72 -28 route connect disconnect list;
#X obj 44 -1 route connect;
#X text 90 213 2011 Luca Carrubba e Gabroral Complex;
#X connect 0 0 3 0;
#X connect 1 0 2 0;
#X connect 3 0 1 0;
#X connect 3 1 1 1;
#X connect 3 2 4 0;
#X connect 3 3 1 2;
#X connect 4 0 1 0;
