#N canvas 4 109 450 448 10;
#X obj 239 306 unpack float float float;
#X obj 134 16 inlet;
#X obj 134 114 select 0;
#X obj 134 41 route float bang;
#X obj 239 231 cyclone/gate 2;
#N canvas 82 322 454 304 capture 1;
#X obj 216 104 loadbang;
#X obj 250 191 route motion;
#X msg 188 148 capture \$1;
#X msg 188 127 1;
#X msg 124 127 0;
#X obj 102 46 inlet;
#X obj 197 46 inlet;
#X obj 250 227 outlet;
#X obj 197 67 bang;
#X obj 102 70 bang;
#X obj 188 169 toxy/tot ..parent;
#X connect 0 0 3 0;
#X connect 1 0 7 0;
#X connect 2 0 10 0;
#X connect 3 0 2 0;
#X connect 4 0 2 0;
#X connect 5 0 9 0;
#X connect 6 0 8 0;
#X connect 8 0 3 0;
#X connect 9 0 4 0;
#X connect 10 2 1 0;
#X restore 175 169 pd capture motion;
#X obj 134 93 trigger float bang;
#X msg 239 114 1;
#X obj 274 93 trigger bang bang;
#X msg 373 113 2;
#X obj 205 391 outlet;
#X obj 335 391 outlet;
#X connect 0 0 10 0;
#X connect 0 1 11 0;
#X connect 1 0 3 0;
#X connect 2 0 5 0;
#X connect 2 1 5 1;
#X connect 3 0 6 0;
#X connect 3 1 8 0;
#X connect 4 0 0 0;
#X connect 4 1 5 0;
#X connect 4 1 0 0;
#X connect 5 0 4 1;
#X connect 6 0 2 0;
#X connect 6 1 7 0;
#X connect 7 0 4 0;
#X connect 8 0 5 1;
#X connect 8 1 9 0;
#X connect 9 0 4 0;
