#N canvas 552 143 450 411 10;
#X obj 155 142 inlet;
#X obj 156 191 route \$1;
#X obj 146 308 outlet;
#X obj 205 309 outlet;
#X obj 156 168 route /trigger;
#X obj 275 287 outlet;
#X text 147 331 x;
#X text 213 334 y;
#X text 266 310 cursor id;
#X obj 325 203 sel \$2;
#X obj 153 276 f;
#X obj 199 278 f;
#X text 245 70 \$1 trigger id;
#X text 245 94 \$2 cursor id;
#X obj 157 219 unpack 0 0 0 0;
#X connect 0 0 4 0;
#X connect 1 0 14 0;
#X connect 4 0 1 0;
#X connect 9 0 10 0;
#X connect 9 0 11 0;
#X connect 10 0 2 0;
#X connect 11 0 3 0;
#X connect 14 0 10 1;
#X connect 14 1 11 1;
#X connect 14 3 5 0;
#X connect 14 3 9 0;
