#N canvas 3 82 631 416 10;
#X obj 174 165 spigot 1;
#X obj 235 166 spigot 1;
#X obj 30 -3 route fixed mobile;
#X msg 208 124 1;
#X obj 31 -41 inlet;
#X obj 116 345 outlet;
#X obj 128 46 gems.fit window;
#X msg 214 26 fill;
#X obj 228 -14 loadbang;
#X msg 240 125 0;
#X obj 174 224 outlet;
#X obj 237 221 outlet;
#X obj 82 75 unpack 0 0;
#X obj 82 31 t a b;
#X obj 114 290 pix_texture;
#X connect 0 0 10 0;
#X connect 1 0 11 0;
#X connect 2 0 3 0;
#X connect 2 1 13 0;
#X connect 2 2 6 0;
#X connect 3 0 0 1;
#X connect 3 0 1 1;
#X connect 4 0 2 0;
#X connect 6 0 14 0;
#X connect 6 1 0 0;
#X connect 6 2 1 0;
#X connect 7 0 6 2;
#X connect 8 0 7 0;
#X connect 9 0 0 1;
#X connect 9 0 1 1;
#X connect 12 0 10 0;
#X connect 12 1 11 0;
#X connect 13 0 12 0;
#X connect 13 1 9 0;
#X connect 14 0 5 0;
