#N canvas 153 233 712 538 10;
#X obj 140 187 colorRGB;
#X obj 133 -81 inlet;
#X obj 141 224 outlet;
#X obj 141 148 alpha;
#X obj 249 172 line;
#X msg 244 99 \$1 \$2;
#X msg 141 74 1 0;
#X msg 181 72 0 0;
#X obj 364 6 s \$0-debug;
#X obj 330 228 r \$0-debug;
#X msg 253 28 0 0;
#X obj 227 4 t f b;
#X msg 223 52 1 \$1;
#X obj 278 6 t f b;
#X msg 304 30 1 0;
#X msg 274 54 0 \$1;
#X msg 364 90 0 0;
#X msg 348 106 1 \$1;
#X obj 311 69 t b f f b;
#X obj 320 101 del;
#X obj 324 151 f;
#X msg 317 184 0 \$1;
#X obj 389 59 t b f f b;
#X obj 398 91 del;
#X obj 402 141 f;
#X obj 254 263 debug screenline;
#X msg 450 81 1 0;
#X msg 426 96 0 \$1;
#X msg 403 166 1 \$1;
#X obj 141 -43 route on off fadeIn fadeOut fadeInOut fadeOutIn debug
alpha colors;
#X obj 481 51 unpack f f f;
#X obj 189 127 tgl 15 0 empty empty empty 17 7 0 10 -262144 -1 -1 1
1;
#X connect 0 0 2 0;
#X connect 1 0 29 0;
#X connect 3 0 0 0;
#X connect 4 0 0 4;
#X connect 4 0 25 0;
#X connect 5 0 4 0;
#X connect 6 0 4 0;
#X connect 7 0 4 0;
#X connect 9 0 25 1;
#X connect 10 0 4 0;
#X connect 11 0 12 0;
#X connect 11 1 10 0;
#X connect 12 0 4 0;
#X connect 13 0 15 0;
#X connect 13 1 14 0;
#X connect 15 0 4 0;
#X connect 16 0 4 0;
#X connect 17 0 4 0;
#X connect 18 0 19 0;
#X connect 18 1 19 1;
#X connect 18 1 20 1;
#X connect 18 2 17 0;
#X connect 18 3 16 0;
#X connect 19 0 20 0;
#X connect 20 0 21 0;
#X connect 21 0 4 0;
#X connect 22 0 23 0;
#X connect 22 1 23 1;
#X connect 22 1 24 1;
#X connect 22 2 27 0;
#X connect 22 3 26 0;
#X connect 23 0 24 0;
#X connect 24 0 28 0;
#X connect 26 0 4 1;
#X connect 27 0 4 0;
#X connect 28 0 4 0;
#X connect 29 0 6 0;
#X connect 29 1 7 0;
#X connect 29 2 11 0;
#X connect 29 3 13 0;
#X connect 29 4 18 0;
#X connect 29 5 22 0;
#X connect 29 6 8 0;
#X connect 29 7 0 4;
#X connect 29 8 30 0;
#X connect 29 9 3 0;
#X connect 30 0 0 1;
#X connect 30 1 0 2;
#X connect 30 2 0 3;
#X connect 31 0 3 1;
