#N canvas 1 84 1045 377 10;
#X obj 136 174 tgl 15 0 empty empty empty 0 -6 0 8 -262144 -1 -1 0
1;
#X text 134 129 The right control key.;
#X obj 136 147 input.key.r \$1;
#X obj 167 286 outlet;
#X obj 146 198 t b f;
#X obj 144 257 pack s f;
#X obj 145 225 f \$1;
#X connect 0 0 4 0;
#X connect 2 0 0 0;
#X connect 4 0 6 0;
#X connect 4 1 5 1;
#X connect 5 0 3 0;
#X connect 6 0 5 0;
