#N canvas 15 232 1251 668 10;
#X floatatom 288 25 5 0 0 0 - - -;
#X floatatom 215 32 5 0 0 0 - - -;
#X obj 110 281 - 0;
#X obj 225 285 - 0;
#X obj 551 146 gemhead;
#X obj 491 269 translateXYZ;
#X obj 170 191 spigot 0;
#X obj 292 185 spigot 0;
#X obj 139 139 t f f;
#X obj 236 138 t f f;
#X obj 390 116 &&;
#X obj 393 153 tgl 15 0 empty empty empty 17 7 0 10 -262144 -1 -1 0
1;
#X obj 435 76 inlet;
#X obj 183 466 outlet;
#X obj 268 457 outlet;
#X obj 60 62 loadbang;
#X obj 161 236 f \$1;
#X obj 292 231 f \$2;
#X obj 437 161 sel 0 1;
#X obj 366 65 t b f;
#X obj 268 426 pack f f 0;
#X obj 23 126 r reset;
#X obj 22 212 f \$1;
#X obj 59 214 f \$2;
#X obj 26 175 t b b;
#X floatatom 428 362 5 0 0 0 - - -;
#X floatatom 423 468 5 0 0 0 - - -;
#X obj 421 414 min 30;
#X obj 486 315 circle 0.03;
#X obj 488 244 color 1 1 1;
#X msg 531 205 0.03;
#X msg 551 176 0.045;
#X obj 533 387 f \$1;
#X obj 575 328 loadbang;
#X obj 622 388 f \$2;
#X obj 511 598 curve 2;
#X obj 542 530 pack f f;
#X msg 545 556 \$1 \$2 0;
#X obj 628 525 pack f f;
#X msg 629 558 \$1 \$2 0;
#X obj 567 359 t b b;
#X obj 468 469 gemhead;
#X obj 439 512 translateXYZ;
#X floatatom 372 299 5 0 0 0 - - -;
#X floatatom 489 435 5 0 0 0 - - -;
#X floatatom 727 431 5 0 0 0 - - -;
#X floatatom 681 305 5 0 0 0 - - -;
#X obj 715 345 t b f;
#X obj 647 482 * 0.5;
#X obj 558 484 * 0.5;
#X obj 632 296 bng 15 250 50 0 empty empty empty 17 7 0 10 -262144
-1 -1;
#X obj 643 445 * 0.2;
#X obj 557 441 * 0.2;
#X obj 153 375 pytagoras;
#X floatatom 110 427 5 0 0 0 - - -;
#X obj 652 52 tgl 15 0 empty empty empty 17 7 0 10 -262144 -1 -1 0
1;
#X obj 633 15 inlet;
#X obj 62 91 t b b;
#X obj 160 64 spigot 1;
#X obj 261 63 spigot 1;
#X obj 163 90 f \$1;
#X obj 260 94 f \$2;
#X obj 437 101 route float bang;
#X obj 482 137 t b b;
#X obj 217 -1 unpack f f;
#X obj 216 -25 route position b1;
#X obj 537 14 inlet;
#N canvas 81 241 627 396 mover 0;
#X obj 104 215 +;
#X obj 161 215 +;
#X obj 126 111 unpack f f;
#X obj 99 260 pack f f;
#X obj 128 50 inlet;
#X obj 284 73 inlet;
#X obj 339 179 unpack f f;
#X obj 105 295 outlet;
#X obj 113 167 f;
#X obj 177 166 f;
#X obj 292 116 route bang list;
#X connect 0 0 3 0;
#X connect 1 0 3 1;
#X connect 2 0 8 1;
#X connect 2 1 9 1;
#X connect 3 0 7 0;
#X connect 4 0 2 0;
#X connect 5 0 10 0;
#X connect 6 0 0 0;
#X connect 6 1 1 0;
#X connect 8 0 0 1;
#X connect 9 0 1 1;
#X connect 10 0 9 0;
#X connect 10 0 8 0;
#X connect 10 1 6 0;
#X restore 184 592 pd mover;
#X obj 187 517 pack f f;
#X obj 184 620 unpack f f;
#X obj 788 -4 inlet;
#X obj 789 21 unpack f f;
#X obj 1081 99 inlet;
#X obj 1078 146 s \$0-gmouse;
#X obj 210 -47 r \$0-gmouse;
#X connect 2 0 53 0;
#X connect 3 0 53 1;
#X connect 4 0 29 0;
#X connect 5 0 28 0;
#X connect 6 0 16 0;
#X connect 7 0 17 0;
#X connect 8 0 2 0;
#X connect 8 1 6 0;
#X connect 9 0 3 0;
#X connect 9 1 7 0;
#X connect 10 0 7 1;
#X connect 10 0 6 1;
#X connect 10 0 11 0;
#X connect 12 0 10 1;
#X connect 12 0 62 0;
#X connect 15 0 57 0;
#X connect 16 0 2 1;
#X connect 16 0 5 1;
#X connect 16 0 20 0;
#X connect 16 0 42 1;
#X connect 16 0 68 0;
#X connect 17 0 3 1;
#X connect 17 0 5 2;
#X connect 17 0 20 1;
#X connect 17 0 42 2;
#X connect 17 0 43 0;
#X connect 17 0 68 1;
#X connect 18 0 30 0;
#X connect 18 1 31 0;
#X connect 19 0 60 0;
#X connect 19 0 61 0;
#X connect 19 1 10 0;
#X connect 20 0 14 0;
#X connect 21 0 24 0;
#X connect 22 0 16 0;
#X connect 23 0 17 0;
#X connect 24 0 22 0;
#X connect 24 1 23 0;
#X connect 25 0 27 0;
#X connect 27 0 26 0;
#X connect 29 0 5 0;
#X connect 30 0 28 1;
#X connect 31 0 28 1;
#X connect 32 0 44 0;
#X connect 32 0 52 0;
#X connect 33 0 40 0;
#X connect 34 0 51 0;
#X connect 36 0 37 0;
#X connect 37 0 35 1;
#X connect 38 0 39 0;
#X connect 39 0 35 2;
#X connect 40 0 32 0;
#X connect 40 1 34 0;
#X connect 41 0 42 0;
#X connect 42 0 35 0;
#X connect 46 0 47 0;
#X connect 47 0 32 0;
#X connect 47 0 34 0;
#X connect 47 1 51 1;
#X connect 47 1 52 1;
#X connect 48 0 38 1;
#X connect 49 0 38 0;
#X connect 50 0 40 0;
#X connect 51 0 36 1;
#X connect 51 0 48 0;
#X connect 52 0 36 0;
#X connect 52 0 49 0;
#X connect 53 0 13 0;
#X connect 53 0 54 0;
#X connect 56 0 4 0;
#X connect 56 0 41 0;
#X connect 56 0 55 0;
#X connect 56 0 58 1;
#X connect 56 0 59 1;
#X connect 57 0 16 0;
#X connect 57 1 17 0;
#X connect 58 0 60 0;
#X connect 59 0 61 0;
#X connect 60 0 8 0;
#X connect 61 0 9 0;
#X connect 62 0 18 0;
#X connect 62 1 63 0;
#X connect 63 0 16 0;
#X connect 63 1 17 0;
#X connect 64 0 58 0;
#X connect 64 0 1 0;
#X connect 64 1 59 0;
#X connect 64 1 0 0;
#X connect 65 0 64 0;
#X connect 65 1 19 0;
#X connect 66 0 67 1;
#X connect 67 0 69 0;
#X connect 68 0 67 0;
#X connect 69 0 16 0;
#X connect 69 1 17 0;
#X connect 70 0 71 0;
#X connect 71 0 16 0;
#X connect 71 1 17 0;
#X connect 72 0 73 0;
#X connect 74 0 65 0;
