#N canvas 1 28 1278 736 10;
#N canvas 698 287 556 429 comparing 0;
#X obj 97 39 inlet;
#X obj 182 482 outlet;
#X floatatom 66 180 5 0 0 0 - - -;
#X obj 100 66 t l l;
#X obj 200 287 change;
#X obj 233 310 change;
#X obj 265 336 change;
#X obj 297 355 change;
#X obj 198 318 tgl 15 0 empty empty empty 17 7 0 10 -262144 -1 -1 0
1;
#X obj 231 343 tgl 15 0 empty empty empty 17 7 0 10 -262144 -1 -1 0
1;
#X obj 274 367 tgl 15 0 empty empty empty 17 7 0 10 -262144 -1 -1 0
1;
#X obj 305 387 tgl 15 0 empty empty empty 17 7 0 10 -262144 -1 -1 0
1;
#X obj 207 377 t b f;
#X obj 227 399 t b f;
#X obj 251 400 t b f;
#X obj 101 132 minmax;
#X obj 202 129 moses 1;
#X obj 237 152 moses 1;
#X obj 271 174 moses 1;
#X obj 300 197 moses 1;
#X obj 372 47 loadbang;
#X msg 364 75 0.4;
#X obj 340 224 moses 1;
#X obj 203 105 unpack f f f f f;
#X obj 341 382 change;
#X obj 349 414 tgl 15 0 empty empty empty 17 7 0 10 -262144 -1 -1 0
1;
#X obj 184 451 pack f f f f f;
#X obj 300 411 t b f;
#X obj 213 38 r reset;
#X obj 199 258 == 1;
#X obj 229 258 == 1;
#X obj 259 256 == 1;
#X obj 290 260 == 1;
#X obj 330 261 == 1;
#X connect 0 0 3 0;
#X connect 3 0 15 0;
#X connect 3 1 23 0;
#X connect 4 0 8 0;
#X connect 4 0 26 0;
#X connect 5 0 9 0;
#X connect 5 0 12 0;
#X connect 6 0 10 0;
#X connect 6 0 13 0;
#X connect 7 0 11 0;
#X connect 7 0 14 0;
#X connect 12 0 26 0;
#X connect 12 1 26 1;
#X connect 13 0 26 0;
#X connect 13 1 26 2;
#X connect 14 0 26 0;
#X connect 14 1 26 3;
#X connect 15 0 2 0;
#X connect 15 0 29 0;
#X connect 15 0 30 0;
#X connect 15 0 31 0;
#X connect 15 0 32 0;
#X connect 15 0 33 0;
#X connect 16 0 29 1;
#X connect 17 0 30 1;
#X connect 18 0 31 1;
#X connect 19 0 32 1;
#X connect 20 0 21 0;
#X connect 21 0 16 1;
#X connect 21 0 17 1;
#X connect 21 0 18 1;
#X connect 21 0 19 1;
#X connect 21 0 22 1;
#X connect 22 0 33 1;
#X connect 23 0 16 0;
#X connect 23 1 17 0;
#X connect 23 2 18 0;
#X connect 23 3 19 0;
#X connect 23 4 22 0;
#X connect 24 0 25 0;
#X connect 24 0 27 0;
#X connect 26 0 1 0;
#X connect 27 0 26 0;
#X connect 27 1 26 4;
#X connect 29 0 4 0;
#X connect 30 0 5 0;
#X connect 31 0 6 0;
#X connect 32 0 7 0;
#X connect 33 0 24 0;
#X restore 283 193 pd comparing;
#X obj 852 188 polygon 4;
#X obj 270 109 tgl 15 0 empty empty empty 17 7 0 10 -262144 -1 -1 0
1;
#X obj 291 110 tgl 15 0 empty empty empty 17 7 0 10 -262144 -1 -1 0
1;
#X obj 311 110 tgl 15 0 empty empty empty 17 7 0 10 -262144 -1 -1 0
1;
#X obj 335 110 tgl 15 0 empty empty empty 17 7 0 10 -262144 -1 -1 0
1;
#X msg 914 133 draw line;
#X obj 908 108 loadbang;
#X obj 677 605 curve3d 1 1;
#X msg 714 266 set 1 1 \$1 \$2 \$3;
#X msg 741 239 set 1 0 \$1 \$2 \$3;
#X obj 831 125 gemhead 6;
#X msg 659 336 set 0 0 \$1 \$2 \$3;
#X msg 687 295 set 0 1 \$1 \$2 \$3;
#X obj 751 372 inlet;
#X obj 655 496 pix_gain;
#X obj 657 548 pix_texture;
#X obj 643 429 inlet;
#X obj 543 445 unpack f f;
#X obj 107 309 f;
#X obj 158 314 f;
#X obj 82 335 -;
#X obj 138 337 -;
#X obj 86 362 pytagoras;
#X floatatom 77 425 5 0 0 0 - - -;
#X obj 331 65 unpack f f f f f;
#X obj 279 158 pack f f f f f;
#X obj 91 401 t b f;
#X obj 357 113 tgl 15 0 empty empty empty 17 7 0 10 -262144 -1 -1 0
1;
#X obj 530 489 translateXYZ;
#X msg 546 540 draw line;
#X obj 525 564 circle 0.08;
#X obj 354 510 sel 1;
#X obj 447 603 s select;
#X obj 446 579 f \$0;
#X obj 871 478 sel \$0;
#X obj 871 453 r select;
#X obj 878 555 s \$0-sel;
#X obj 448 22 r \$0-sel;
#X msg 910 516 0;
#X msg 868 514 1;
#X obj 548 519 loadbang;
#X obj 445 547 spigot 0;
#X obj 494 55 f;
#X obj 540 23 sel 1;
#X obj 929 482 r reset;
#X obj 409 42 tgl 15 0 empty empty empty 17 7 0 10 -262144 -1 -1 1
1;
#X obj 340 420 < 0.3;
#X msg 692 524 quality \$1;
#X obj 751 402 route gain quality;
#X obj 523 401 gemhead 20;
#X obj 763 60 r \$0-sel;
#X obj 802 94 f;
#X obj 832 70 sel 1;
#N canvas 7 98 450 300 stred 0;
#X obj 105 59 inlet;
#X obj 166 62 inlet;
#X obj 228 67 inlet;
#X obj 292 67 inlet;
#X obj 139 167 stred_bodov;
#X obj 213 215 stred_bodov;
#X obj 144 248 stred_bodov;
#X obj 143 277 outlet;
#X connect 0 0 4 0;
#X connect 1 0 5 0;
#X connect 2 0 4 1;
#X connect 3 0 5 1;
#X connect 4 0 6 0;
#X connect 5 0 6 1;
#X connect 6 0 7 0;
#X restore 420 320 pd stred;
#N canvas 511 233 593 461 graphique_center 0;
#X obj 227 64 inlet;
#X obj 227 86 unpack f f;
#X obj 395 64 inlet;
#X obj 70 166 translateXYZ;
#X obj 72 186 circle 0.03;
#X obj 70 335 translateXYZ;
#X obj 68 306 color 0 0 0;
#X obj 70 358 circle 0.08;
#X obj 63 128 gemhead 20;
#X obj 67 271 gemhead 19;
#X obj 339 168 sel 0 1;
#X msg 329 243 0.03;
#X msg 354 220 0.045;
#X obj 238 274 r \$0-sel;
#X obj 238 296 sel 0 1;
#X msg 242 340 0.1;
#X msg 223 376 0.07;
#X obj 62 95 r \$0-vertex_switch;
#X connect 0 0 1 0;
#X connect 1 0 3 1;
#X connect 1 0 5 1;
#X connect 1 1 3 2;
#X connect 1 1 5 2;
#X connect 2 0 10 0;
#X connect 3 0 4 0;
#X connect 5 0 7 0;
#X connect 6 0 5 0;
#X connect 8 0 3 0;
#X connect 9 0 6 0;
#X connect 10 0 11 0;
#X connect 10 1 12 0;
#X connect 11 0 4 1;
#X connect 12 0 4 1;
#X connect 13 0 14 0;
#X connect 14 0 16 0;
#X connect 14 1 15 0;
#X connect 15 0 7 1;
#X connect 16 0 7 1;
#X connect 17 0 8 0;
#X connect 17 0 9 0;
#X restore 149 460 pd graphique_center;
#X obj 117 282 unpack f f;
#X obj 560 67 f;
#X obj 316 568 &&;
#X obj 73 208 unpack f f;
#X floatatom 95 239 5 0 0 0 - - -;
#X obj 82 177 route position;
#X obj 297 483 route position b1;
#N canvas 299 282 792 419 relativer 0;
#X obj 223 177 f;
#X obj 195 252 -;
#X obj 271 176 f;
#X obj 250 247 -;
#X obj 199 134 unpack f f;
#X obj 148 43 route position b1;
#X obj 324 37 inlet;
#X obj 324 68 sel 1;
#X obj 310 105 t b b;
#X obj 205 283 pack f f;
#X obj 206 326 outlet;
#X obj 145 211 spigot 0;
#X obj 249 217 spigot 0;
#X obj 148 21 r \$0-gmouse;
#X connect 0 0 1 1;
#X connect 1 0 9 0;
#X connect 2 0 3 1;
#X connect 3 0 9 1;
#X connect 4 0 0 1;
#X connect 4 0 11 0;
#X connect 4 1 2 1;
#X connect 4 1 12 0;
#X connect 5 0 4 0;
#X connect 6 0 7 0;
#X connect 6 0 11 1;
#X connect 6 0 12 1;
#X connect 7 0 8 0;
#X connect 7 0 10 0;
#X connect 8 0 0 0;
#X connect 8 1 2 0;
#X connect 9 0 10 0;
#X connect 11 0 1 0;
#X connect 12 0 3 0;
#X connect 13 0 5 0;
#X restore 316 595 pd relativer;
#X obj 295 2 r select_none;
#X msg 295 24 0;
#X obj 645 472 pix_separator;
#X obj 567 644 tgl 10 0 empty empty empty 17 7 0 10 -262144 -1 -1 1
1;
#X obj 521 608 r \$0-sel;
#X obj 451 216 outlet;
#X msg 451 192 \$1 \$2;
#X obj 550 224 outlet;
#X msg 550 200 \$1 \$2;
#X obj 614 223 outlet;
#X msg 614 199 \$1 \$2;
#X obj 755 217 outlet;
#X msg 755 193 \$1 \$2;
#X obj 662 4 inlet;
#X obj 672 14 inlet;
#X obj 682 24 inlet;
#X obj 692 34 inlet;
#X obj 374 112 vertex -1 -1;
#X obj 1126 33 inlet;
#X obj 1131 67 s \$0-vertex_switch;
#X obj 539 2 r \$0-vertex_switch;
#X obj 831 48 r \$0-vertex_switch;
#X obj 1192 96 inlet;
#X obj 1115 162 s \$0-gmouse;
#X obj 88 122 r \$0-gmouse;
#X obj 297 462 r \$0-gmouse;
#X obj 667 111 vertex 1 -1;
#X obj 475 113 vertex -1 1;
#X obj 558 112 vertex 1 1;
#X obj 443 -43 r \$0-gmouse;
#X connect 0 0 25 0;
#X connect 6 0 1 0;
#X connect 7 0 6 0;
#X connect 9 0 8 0;
#X connect 10 0 8 0;
#X connect 11 0 1 0;
#X connect 12 0 8 0;
#X connect 13 0 8 0;
#X connect 14 0 49 0;
#X connect 15 0 16 0;
#X connect 16 0 8 0;
#X connect 17 0 66 0;
#X connect 18 0 29 1;
#X connect 18 1 29 2;
#X connect 19 0 21 1;
#X connect 20 0 22 1;
#X connect 21 0 23 0;
#X connect 22 0 23 1;
#X connect 23 0 24 0;
#X connect 23 0 27 0;
#X connect 23 0 47 0;
#X connect 25 0 2 0;
#X connect 25 0 81 0;
#X connect 25 1 3 0;
#X connect 25 1 91 0;
#X connect 25 2 4 0;
#X connect 25 2 92 0;
#X connect 25 3 5 0;
#X connect 25 3 90 0;
#X connect 25 4 28 0;
#X connect 26 0 0 0;
#X connect 27 0 26 0;
#X connect 27 1 26 4;
#X connect 29 0 31 0;
#X connect 30 0 31 0;
#X connect 32 0 42 0;
#X connect 34 0 33 0;
#X connect 35 0 40 0;
#X connect 35 1 39 0;
#X connect 36 0 35 0;
#X connect 38 0 43 0;
#X connect 38 0 46 0;
#X connect 39 0 37 0;
#X connect 40 0 37 0;
#X connect 41 0 30 0;
#X connect 42 0 34 0;
#X connect 43 0 57 0;
#X connect 44 0 43 0;
#X connect 44 1 57 0;
#X connect 45 0 39 0;
#X connect 47 0 42 1;
#X connect 47 0 55 1;
#X connect 47 0 58 1;
#X connect 48 0 16 0;
#X connect 49 0 15 1;
#X connect 49 1 48 0;
#X connect 50 0 29 0;
#X connect 51 0 52 0;
#X connect 52 0 11 0;
#X connect 53 0 52 0;
#X connect 53 1 11 0;
#X connect 54 0 55 0;
#X connect 54 0 56 0;
#X connect 54 0 18 0;
#X connect 56 0 19 0;
#X connect 56 1 20 0;
#X connect 57 0 50 0;
#X connect 57 0 81 2;
#X connect 57 0 90 2;
#X connect 57 0 91 2;
#X connect 57 0 92 2;
#X connect 58 0 63 0;
#X connect 59 0 21 0;
#X connect 59 0 60 0;
#X connect 59 1 22 0;
#X connect 61 0 59 0;
#X connect 62 1 32 0;
#X connect 62 1 58 0;
#X connect 63 0 81 1;
#X connect 63 0 90 1;
#X connect 63 0 91 1;
#X connect 63 0 92 1;
#X connect 64 0 65 0;
#X connect 65 0 43 0;
#X connect 66 0 15 0;
#X connect 68 0 67 0;
#X connect 70 0 69 0;
#X connect 72 0 71 0;
#X connect 74 0 73 0;
#X connect 76 0 75 0;
#X connect 77 0 81 3;
#X connect 78 0 91 3;
#X connect 79 0 92 3;
#X connect 80 0 90 3;
#X connect 81 0 26 0;
#X connect 81 1 1 1;
#X connect 81 1 12 0;
#X connect 81 1 54 0;
#X connect 81 1 70 0;
#X connect 82 0 83 0;
#X connect 84 0 44 0;
#X connect 85 0 53 0;
#X connect 86 0 87 0;
#X connect 88 0 61 0;
#X connect 89 0 62 0;
#X connect 90 0 26 3;
#X connect 90 1 1 4;
#X connect 90 1 10 0;
#X connect 90 1 54 3;
#X connect 90 1 76 0;
#X connect 91 0 26 1;
#X connect 91 1 1 2;
#X connect 91 1 13 0;
#X connect 91 1 54 1;
#X connect 91 1 72 0;
#X connect 92 0 26 2;
#X connect 92 1 1 3;
#X connect 92 1 9 0;
#X connect 92 1 54 2;
#X connect 92 1 74 0;
#X connect 93 0 81 4;
#X connect 93 0 91 4;
#X connect 93 0 92 4;
#X connect 93 0 90 4;
#X coords 0 -1 1 1 80 13 1 500 640;
