#N canvas 788 218 739 493 10;
#X obj 370 222 vsl 15 100 0 1 0 0 empty empty empty 0 -9 0 10 -262144
-1 -1 0 1;
#X obj 303 432 pix_coordinate;
#X msg 375 409 \$1 \$1 0 \$1 0 0 \$1 0;
#X msg 409 350 load 0 1;
#X obj 416 322 loadbang;
#X obj 423 131 loadbang;
#X msg 416 159 load 0 100;
#X obj 369 384 autoscale 1 0.2;
#X obj 298 147 inlet;
#X obj 303 464 outlet;
#X obj 360 24 inlet;
#X obj 361 78 route zoom reset;
#X obj 376 194 autoscale 0.5 1;
#X msg 400 112 0.5;
#X connect 0 0 7 0;
#X connect 1 0 9 0;
#X connect 2 0 1 1;
#X connect 3 0 7 0;
#X connect 4 0 3 0;
#X connect 5 0 6 0;
#X connect 6 0 12 0;
#X connect 7 0 2 0;
#X connect 8 0 1 0;
#X connect 10 0 11 0;
#X connect 11 0 12 0;
#X connect 11 1 13 0;
#X connect 12 0 0 0;
#X connect 13 0 12 0;
