#N canvas 0 24 1001 490 10;
#X declare -path utils/mediagrid;
#X declare -lib py;
#X declare -lib tof;
#X declare -lib moocow;
#X declare -lib py;
#X declare -path utils;
#X declare -path source;
#X declare -path effect;
#X declare -path process;
#X declare -path output;
#X declare -path utils/OSCizer;
#X declare -path process/sequencer;
#X declare -path abs;
#X declare -path utils/pdmtl;
#X declare -path utils/pdmtl;
#X declare -path utils/OSCizer;
#X declare -path utils;
#X declare -path utils/pdmtl;
#X declare -path utils/OSCizer;
#X declare -path utils;
#X declare -path abs;
#X declare -path utils/pdmtl;
#X obj 806 -305 tgl 15 0 empty empty empty 17 7 0 10 -262144 -1 -1
1 1;
#N canvas 210 139 618 317 (subpatch) 0;
#X text 411 153 port;
#X obj 442 179 s \$0-OSC.port;
#X obj 494 204 s osc-status;
#X obj 492 151 tgl 15 0 empty empty empty 17 7 0 10 -262144 -1 -1 0
1;
#X obj 607 163 declare -path utils/mediagrid;
#X obj 616 247 import py;
#X obj 615 272 import tof;
#X obj 613 291 import moocow;
#X msg 558 387 \; pd dsp 1;
#X obj 670 358 loadbang;
#N canvas 294 451 450 300 network 0;
#X msg 163 -74 disconnect;
#X obj 82 5 OSCnetwork 8889;
#X obj 82 25 s incoming;
#X msg 155 -43 connect localhost 5978;
#X obj 83 -34 r outcoming;
#X obj 150 -132 r osc-status;
#X obj 148 -110 sel 1;
#X obj 309 -74 bng 15 250 50 0 empty empty empty 17 7 0 10 -262144
-1 -1;
#X msg 309 -2 connect \$2 \$3;
#X obj 313 -28 pack f s f;
#X obj 337 -75 r \$0-OSC.ip;
#X obj 371 -50 r \$0-OSC.port;
#X connect 0 0 1 0;
#X connect 1 0 2 0;
#X connect 3 0 1 0;
#X connect 4 0 1 0;
#X connect 5 0 6 0;
#X connect 6 0 7 0;
#X connect 6 1 0 0;
#X connect 7 0 9 0;
#X connect 8 0 1 0;
#X connect 9 0 8 0;
#X connect 10 0 9 1;
#X connect 11 0 9 2;
#X restore 612 316 pd network;
#N canvas 8 217 450 300 utils 0;
#N canvas 491 233 450 300 formattext 0;
#X obj 158 135 utils/formattext;
#X obj 162 79 r text-formattext;
#X obj 161 101 t a a;
#X obj 163 207 pack s f;
#X msg 151 240 \; \$2-text-formatted \$1;
#X obj 228 115 unpack s f;
#X obj 87 201 print ggg;
#X connect 0 0 3 0;
#X connect 1 0 2 0;
#X connect 2 0 0 0;
#X connect 2 1 5 0;
#X connect 3 0 4 0;
#X connect 3 0 6 0;
#X connect 5 1 3 1;
#X restore 191 80 pd formattext;
#N canvas 915 190 876 600 textpages 0;
#X obj 125 147 utils/loadfonts;
#X obj 113 97 bng 15 250 50 0 empty empty empty 17 7 0 10 -262144 -1
-1;
#X obj -10 309 coll /tmp/fonts/fonts.coll;
#C restore;
#X msg 30 195 write /tmp/fonts/fonts.coll;
#X msg 46 166 clear;
#X obj 92 173 del 1000;
#X obj 103 126 t b b;
#X obj 14 133 t b b b;
#X obj 232 168 unpack f s;
#X obj 233 187 / 30;
#X obj 232 206 i;
#X obj 233 225 + 1;
#X obj 217 253 f;
#X text 242 253 number of pages;
#X obj 203 22 r text-pages;
#X obj 211 307 pack f f;
#X msg 346 462 \; \$2-text-hradio-number number \$1;
#X obj 212 116 t b f f;
#X obj 60 444 pack s f;
#X msg 53 470 \; \$2-text-font-popup-rcv append \$1;
#X obj 458 48 r text-font-list;
#X obj 457 71 unpack f f f;
#X text 269 310 questo manda il numero di pagine torali a hradio del
text player;
#X obj 486 155 until;
#X obj 487 184 counter 0 256;
#X msg 547 95 max \$1;
#X msg 499 98 min \$1;
#X msg 481 127 30;
#X text 14 85 questo inizializzo il font.coll ovvero il contenitore
delle font;
#X obj 456 91 t b f;
#X obj 81 48 bng 15 250 50 0 empty empty empty 17 7 0 10 -262144 -1
-1;
#X obj 14 111 loadbang;
#X text 388 360 limite a 24 altrimenti esce fuori dal gop e non funge
;
#X obj 346 535;
#X obj 414 428;
#X obj 358 289 print;
#N canvas 0 0 450 300 24limit 0;
#X obj 611 236 f;
#X obj 601 197 t f f;
#X obj 685 217 sel 1;
#X obj 713 240 t b;
#X obj 592 169 inlet;
#X obj 663 300 outlet;
#X obj 685 195 > 16;
#X msg 683 250 16;
#X connect 0 0 5 0;
#X connect 1 0 6 0;
#X connect 1 1 0 1;
#X connect 2 0 7 0;
#X connect 2 1 3 0;
#X connect 3 0 0 0;
#X connect 4 0 1 0;
#X connect 6 0 2 0;
#X connect 7 0 5 0;
#X restore 356 254 pd 24limit;
#X connect 0 0 2 0;
#X connect 0 0 8 0;
#X connect 1 0 6 0;
#X connect 2 0 18 0;
#X connect 3 0 2 0;
#X connect 4 0 2 0;
#X connect 5 0 3 0;
#X connect 6 0 5 0;
#X connect 6 1 0 0;
#X connect 7 0 1 0;
#X connect 7 1 3 0;
#X connect 7 2 4 0;
#X connect 8 0 9 0;
#X connect 9 0 10 0;
#X connect 10 0 11 0;
#X connect 11 0 12 1;
#X connect 12 0 36 0;
#X connect 14 0 17 0;
#X connect 15 0 16 0;
#X connect 17 0 12 0;
#X connect 17 1 15 1;
#X connect 18 0 19 0;
#X connect 20 0 21 0;
#X connect 21 0 29 0;
#X connect 21 1 26 0;
#X connect 21 2 25 0;
#X connect 23 0 24 0;
#X connect 24 0 2 0;
#X connect 25 0 24 0;
#X connect 26 0 24 0;
#X connect 27 0 23 0;
#X connect 29 0 27 0;
#X connect 29 1 18 1;
#X connect 30 0 7 0;
#X connect 31 0 7 0;
#X connect 36 0 35 0;
#X connect 36 0 15 0;
#X restore 112 82 pd textpages;
#X restore 614 335 pd utils;
#X obj 608 142 declare -path utils;
#X obj 374 87 loadbang;
#X msg 377 122 symbol localhost;
#X msg 476 96 5978;
#X obj 608 101 declare -path source;
#X obj 608 122 declare -path effect;
#X obj 609 81 declare -path process;
#X obj 608 184 declare -path output;
#X obj 611 203 declare -path utils/OSCizer;
#X obj 1 1 cnv 15 350 25 empty empty OSC_communication_settings 20
12 0 14 -233017 -262144 0;
#X obj 0 27 cnv 15 350 60 empty empty empty 20 12 0 14 -1 -262144 0
;
#X symbolatom 71 55 10 0 0 0 ip - #0-OSC.ip;
#X obj 21 49 cnv 15 10 10 empty empty Ip 20 12 0 14 -1 -258113 0;
#X floatatom 213 55 5 0 0 0 - - -;
#X obj 140 50 cnv 15 10 10 empty empty Port 20 12 0 14 -1 -258113 0
;
#X obj 271 57 tgl 15 0 empty empty Connect 17 7 0 10 -128992 -262144
-258113 0 1;
#X obj 605 53 declare -path process/sequencer;
#X connect 3 0 2 0;
#X connect 9 0 8 0;
#X connect 13 0 14 0;
#X connect 13 0 15 0;
#X connect 14 0 23 0;
#X connect 15 0 25 0;
#X connect 25 0 1 0;
#X connect 27 0 3 0;
#X coords 0 1 100 -1 351 86 1 0 0;
#X restore 805 -269 graph;
#X obj 65 208 screen;
#N canvas 3 0 450 511 readme 0;
#X text 40 25 This is a very very alpha puredata collection of abstractions.
It was made as part of gemQ project - www.gemq.info. For credits see
the credits.txt file or specific credit in any patch;
#X obj 16 112 cnv 15 400 20 empty empty How_does_it_works? 20 12 0
14 -233017 -66577 0;
#X obj 17 271 cnv 15 400 20 empty empty Modules 20 12 0 14 -233017
-66577 0;
#X text 68 436 Source;
#X obj 21 440 cnv 15 400 20 empty empty Source 20 12 0 14 -233017 -66577
0;
#X text 30 473 video;
#X text 30 494 cam;
#X text 32 515 text;
#X text 31 534 img;
#X text 32 552 keyboard;
#X text 34 569 mouse;
#X text 35 588 getAudio;
#X obj 26 620 cnv 15 400 20 empty empty Effect 20 12 0 14 -233017 -66577
0;
#X text 28 646 Chromakey;
#X text 28 662 freeframe;
#X text 29 678 motionblur;
#X text 30 694 videodelay;
#X text 34 713 multicrop;
#X text 30 735 videofeedback (this is a global effect outside from
the render chain);
#X obj 32 779 cnv 15 400 20 empty empty Process 20 12 0 14 -233017
-66577 0;
#X text 44 808 iterator;
#X text 45 826 colorTrackReciver - this module works together with
colortrack app;
#X text 47 854 mTracking;
#X text 44 872 transitions;
#X text 46 882 crop;
#X text 47 896 moving;
#X text 48 913 rotating;
#X obj 42 943 cnv 15 400 20 empty empty Output 20 12 0 14 -233017 -66577
0;
#X text 58 980 screen;
#X text 59 995 mask;
#X text 58 1014 soundSystem;
#X text 32 154 chose your module and build your interactive system.
if you wanna save your patch save it in the root directory of pantaliQa.
If you wanna create a patch from scratch just copy gems.win object
and OSC_communication_settings from template patch in your blank patch
\, save it \, close and reopen it. Now you can start!;
#X text 30 302 There are 4 different kind of moule: source \, effect
\, process \, output. And a special one \, App \, that you can't use
directly inside this framework but they are designed to interact with
some dedicated modules. To get some video output you need at least
a source and an output. You will put every else module in the middle.
A module can have 3 different kind of inlet/outlet: orange \, green
\, blue. Orange is for video chain stuff. Green for data control messages.
Blue for audio data;
#X text 111 1042 that's all for the moment...enjoy!;
#X text 47 926 sequencer;
#X restore 826 -311 pd readme;
#X msg 320 56 status \$1;
#X obj 63 -253 playlist all 150 100 {Helvetica 10 bold} #457782 yellow
black red;
#X msg 7 -145 video \$1;
#X obj -14 -294 loadbang;
#X obj 191 -511 key;
#X obj 192 -490 sel 113 119;
#N canvas 0 0 450 300 zoom 0;
#X msg 145 188 fixed;
#X msg 174 148 mobile 0 0;
#X obj 149 164 delay 500;
#X obj 148 126 t b b;
#X obj 150 234 outlet;
#X obj 150 103 inlet;
#X obj 266 113 key;
#X obj 370 158 sel 122;
#X connect 0 0 4 0;
#X connect 1 0 4 0;
#X connect 2 0 0 0;
#X connect 3 0 2 0;
#X connect 3 1 1 0;
#X connect 5 0 3 0;
#X connect 6 0 7 0;
#X connect 7 0 3 0;
#X restore 294 184 pd zoom;
#X obj 293 168 bng 15 250 50 0 empty empty empty 17 7 0 10 -262144
-1 -1;
#N canvas 0 0 450 300 scratch 0;
#X obj 198 -66 spigot 0;
#X obj 196 -113 random 100;
#X obj 199 -141 inlet;
#X obj 197 -13 outlet;
#X obj 269 -87 inlet;
#X obj 249 -146 inlet;
#X connect 0 0 3 0;
#X connect 1 0 0 0;
#X connect 2 0 1 0;
#X connect 4 0 0 1;
#X connect 5 0 1 1;
#X restore 313 -152 pd scratch;
#X obj 367 -230 key;
#X obj 367 -187 tgl 15 0 empty empty empty 17 7 0 10 -262144 -1 -1
1 1;
#X floatatom 408 -143 5 0 0 0 - - -;
#X obj 320 -8 key;
#X obj 320 35 tgl 15 0 empty empty empty 17 7 0 10 -262144 -1 -1 1
1;
#N canvas 0 0 450 300 effect 0;
#X obj 196 -93 / 100;
#X obj 198 -66 spigot 0;
#X obj 196 -113 random 100;
#X obj 199 -141 inlet;
#X obj 197 -13 outlet;
#X obj 269 -87 inlet;
#X msg 200 -41 range \$1;
#X connect 0 0 1 0;
#X connect 1 0 6 0;
#X connect 2 0 0 0;
#X connect 3 0 2 0;
#X connect 5 0 1 1;
#X connect 6 0 4 0;
#X restore 392 57 pd effect;
#X obj 367 -208 sel 116;
#X obj 320 14 sel 101 114;
#X obj 443 32 tgl 15 0 empty empty empty 17 7 0 10 -262144 -1 -1 1
1;
#X msg 194 -407 up;
#X msg 238 -404 down;
#X obj 210 -429 t b b;
#X obj 169 -433 t b b;
#X floatatom 182 -318 5 0 0 0 - - -;
#X obj 177 -350 counter 0 40;
#X msg 282 -311 seek \$1;
#X msg 53 -284 location /home/minibug/Video/live/convertiti/1/;
#X msg 410 168 on;
#X obj 410 142 loadbang;
#X obj 401 -494 dirpanel;
#X msg 405 -469 putdir \$1;
#X obj 400 -528 bng 15 250 50 0 empty empty empty 17 7 0 10 -262144
-1 -1;
#X obj 643 -239 startbang;
#X msg 30 -63 open \$1;
#X obj 99 -33 pix_film;
#X obj 106 -67 gemhead;
#X msg 185 -46 auto 1;
#X obj 171 -28 t b;
#X msg 214 -16 0;
#X obj 74 66 freeframe;
#X obj 184 -69 loadbang;
#X obj 126 -8 unpack 0 0 0;
#X obj 343 -414 get_audio;
#X floatatom 129 28 5 0 0 0 - - -;
#X msg 835 175 status \$1;
#X obj 578 -134 playlist all 150 100 {Helvetica 10 bold} #457782 yellow
black red;
#X msg 522 -26 video \$1;
#X obj 501 -175 loadbang;
#X obj 706 -392 key;
#N canvas 0 0 450 300 scratch 0;
#X obj 198 -66 spigot 0;
#X obj 196 -113 random 100;
#X obj 199 -141 inlet;
#X obj 197 -13 outlet;
#X obj 269 -87 inlet;
#X obj 249 -146 inlet;
#X connect 0 0 3 0;
#X connect 1 0 0 0;
#X connect 2 0 1 0;
#X connect 4 0 0 1;
#X connect 5 0 1 1;
#X restore 828 -33 pd scratch;
#X obj 882 -111 key;
#X obj 882 -68 tgl 15 0 empty empty empty 17 7 0 10 -262144 -1 -1 0
1;
#X floatatom 923 -24 5 0 0 0 - - -;
#X obj 835 111 key;
#X obj 835 154 tgl 15 0 empty empty empty 17 7 0 10 -262144 -1 -1 1
1;
#N canvas 0 0 450 300 effect 0;
#X obj 196 -93 / 100;
#X obj 198 -66 spigot 0;
#X obj 196 -113 random 100;
#X obj 199 -141 inlet;
#X obj 197 -13 outlet;
#X obj 269 -87 inlet;
#X msg 200 -41 range \$1;
#X connect 0 0 1 0;
#X connect 1 0 6 0;
#X connect 2 0 0 0;
#X connect 3 0 2 0;
#X connect 5 0 1 1;
#X connect 6 0 4 0;
#X restore 907 176 pd effect;
#X obj 958 151 tgl 15 0 empty empty empty 17 7 0 10 -262144 -1 -1 0
1;
#X msg 709 -288 up;
#X msg 753 -285 down;
#X obj 725 -310 t b b;
#X obj 684 -314 t b b;
#X floatatom 697 -199 5 0 0 0 - - -;
#X obj 692 -231 counter 0 40;
#X msg 797 -192 seek \$1;
#X msg 568 -165 location /home/minibug/Video/live/convertiti/1/;
#X msg 545 56 open \$1;
#X obj 614 86 pix_film;
#X obj 621 52 gemhead;
#X msg 700 73 auto 1;
#X obj 686 91 t b;
#X msg 729 103 0;
#X obj 589 185 freeframe;
#X obj 699 50 loadbang;
#X obj 641 111 unpack 0 0 0;
#X floatatom 644 147 5 0 0 0 - - -;
#X floatatom 759 -398 5 0 0 0 - - -;
#X obj 707 -371 sel 97 115;
#X obj 882 -89 sel 103;
#X obj 835 133 sel 100 102;
#X obj 584 387 screen;
#N canvas 0 0 450 300 zoom 0;
#X msg 145 188 fixed;
#X msg 174 148 mobile 0 0;
#X obj 149 164 delay 500;
#X obj 148 126 t b b;
#X obj 150 234 outlet;
#X obj 150 103 inlet;
#X obj 266 113 key;
#X floatatom 269 214 5 0 0 0 - - -;
#X obj 370 158 sel 120;
#X connect 0 0 4 0;
#X connect 1 0 4 0;
#X connect 2 0 0 0;
#X connect 3 0 2 0;
#X connect 3 1 1 0;
#X connect 5 0 3 0;
#X connect 6 0 7 0;
#X connect 6 0 8 0;
#X connect 8 0 3 0;
#X restore 864 349 pd zoom;
#X obj 863 333 bng 15 250 50 0 empty empty empty 17 7 0 10 -262144
-1 -1;
#X msg 980 333 on;
#X obj 980 307 loadbang;
#X obj 449 356 key 32;
#X obj 447 378 sel 32;
#X obj 449 407 tgl 15 0 empty empty empty 17 7 0 10 -262144 -1 -1 1
1;
#X obj 415 460 expr 1-$f1;
#X obj 366 528 line;
#X floatatom 310 536 5 0 0 0 - - -;
#X msg 318 484 0 0;
#X obj 320 460 loadbang;
#X obj 444 522 line;
#X floatatom 470 536 5 0 0 0 - - -;
#X msg 449 488 \$1 500;
#X msg 361 572 alpha \$1;
#X msg 453 572 alpha \$1;
#X msg 387 482 \$1 500;
#X obj 64 613 sequencer;
#X obj 817 647 key;
#X obj 821 691 tgl 15 0 empty empty empty 17 7 0 10 -262144 -1 -1 0
1;
#X msg 820 716 status \$1;
#X obj 426 285 hsl 128 15 0 1 0 0 empty empty empty -2 -8 0 10 -262144
-1 -1 8600 1;
#X msg 813 778 record \$1;
#X floatatom 921 684 5 0 0 0 - - -;
#X obj 819 669 sel 27 44 46;
#X obj 853 691 tgl 15 0 empty empty empty 17 7 0 10 -262144 -1 -1 0
1;
#X msg 879 800 mBank \$1;
#X obj 875 731 sel 49 50 51 52 53 54 55 56;
#X msg 884 776 1;
#X msg 920 776 2;
#X msg 957 778 3;
#X msg 1024 775 4;
#X obj 806 -288 gems.win 800 600 @border 1 @offset 1024 0;
#X connect 0 0 116 0;
#X connect 4 0 42 1;
#X connect 5 0 6 0;
#X connect 5 0 36 0;
#X connect 7 0 29 0;
#X connect 8 0 9 0;
#X connect 9 0 24 0;
#X connect 9 1 25 0;
#X connect 10 0 2 1;
#X connect 11 0 10 0;
#X connect 12 0 37 1;
#X connect 13 0 15 0;
#X connect 13 0 19 0;
#X connect 14 0 12 2;
#X connect 16 0 20 0;
#X connect 17 0 4 0;
#X connect 18 0 42 1;
#X connect 19 0 14 0;
#X connect 20 0 17 0;
#X connect 20 1 21 0;
#X connect 21 0 18 1;
#X connect 22 0 27 0;
#X connect 23 0 27 0;
#X connect 24 0 27 0;
#X connect 24 1 23 0;
#X connect 25 0 27 0;
#X connect 25 1 22 0;
#X connect 26 0 28 0;
#X connect 27 0 26 0;
#X connect 28 0 5 0;
#X connect 29 0 5 0;
#X connect 30 0 2 1;
#X connect 31 0 30 0;
#X connect 32 0 33 0;
#X connect 34 0 32 0;
#X connect 35 0 0 0;
#X connect 36 0 37 0;
#X connect 37 0 42 0;
#X connect 37 1 44 0;
#X connect 37 2 40 0;
#X connect 38 0 37 0;
#X connect 39 0 37 0;
#X connect 40 0 41 0;
#X connect 41 0 37 1;
#X connect 42 0 2 0;
#X connect 43 0 39 0;
#X connect 44 0 12 1;
#X connect 44 0 46 0;
#X connect 45 3 12 0;
#X connect 45 3 58 0;
#X connect 45 4 52 0;
#X connect 45 4 12 0;
#X connect 45 5 18 0;
#X connect 45 5 12 0;
#X connect 47 0 74 1;
#X connect 48 0 49 0;
#X connect 48 0 68 0;
#X connect 50 0 67 0;
#X connect 51 0 78 0;
#X connect 51 0 79 0;
#X connect 52 0 69 1;
#X connect 53 0 55 0;
#X connect 53 0 80 0;
#X connect 54 0 52 2;
#X connect 56 0 81 0;
#X connect 57 0 47 0;
#X connect 58 0 74 1;
#X connect 59 0 58 1;
#X connect 60 0 65 0;
#X connect 61 0 65 0;
#X connect 62 0 65 0;
#X connect 62 1 61 0;
#X connect 63 0 65 0;
#X connect 63 1 60 0;
#X connect 64 0 66 0;
#X connect 65 0 64 0;
#X connect 66 0 48 0;
#X connect 67 0 48 0;
#X connect 68 0 69 0;
#X connect 69 0 74 0;
#X connect 69 1 76 0;
#X connect 69 2 72 0;
#X connect 70 0 69 0;
#X connect 71 0 69 0;
#X connect 72 0 73 0;
#X connect 73 0 69 1;
#X connect 74 0 82 0;
#X connect 75 0 71 0;
#X connect 76 0 52 1;
#X connect 76 0 77 0;
#X connect 79 0 62 0;
#X connect 79 1 63 0;
#X connect 80 0 54 0;
#X connect 81 0 57 0;
#X connect 81 1 59 0;
#X connect 83 0 82 1;
#X connect 84 0 83 0;
#X connect 85 0 82 1;
#X connect 86 0 85 0;
#X connect 87 0 88 0;
#X connect 88 0 89 0;
#X connect 89 0 90 0;
#X connect 89 0 97 0;
#X connect 90 0 100 0;
#X connect 91 0 92 0;
#X connect 91 0 98 0;
#X connect 93 0 91 0;
#X connect 93 0 95 0;
#X connect 94 0 93 0;
#X connect 95 0 96 0;
#X connect 95 0 99 0;
#X connect 97 0 95 0;
#X connect 98 0 2 1;
#X connect 99 0 82 1;
#X connect 100 0 91 0;
#X connect 102 0 107 0;
#X connect 102 0 108 0;
#X connect 102 0 101 1;
#X connect 103 0 104 0;
#X connect 104 0 101 1;
#X connect 105 0 90 0;
#X connect 105 0 97 0;
#X connect 106 0 101 1;
#X connect 108 0 103 0;
#X connect 108 2 109 0;
#X connect 108 3 111 0;
#X connect 109 0 106 0;
#X connect 110 0 101 1;
#X connect 111 0 112 0;
#X connect 111 1 113 0;
#X connect 111 2 114 0;
#X connect 111 3 115 0;
#X connect 112 0 110 0;
#X connect 113 0 110 0;
#X connect 114 0 110 0;
#X connect 115 0 110 0;
