#N canvas 532 81 675 683 10;
#X declare -lib tof;
#X declare -lib moocow;
#X declare -lib py;
#X declare -path utils/mediagrid;
#X declare -lib py;
#X declare -path utils;
#X declare -path source;
#X declare -path effect;
#X declare -path process;
#X declare -path output;
#X declare -path utils/OSCizer;
#X declare -path process/sequencer;
#X declare -lib gridflow;
#X declare -path gui/mediagrid;
#X declare -path gui/explorer;
#X declare -path abs;
#X declare -path utils/pdmtl;
#X declare -path utils/OSCizer;
#X declare -path abs;
#X declare -path utils/pdmtl;
#X declare -path utils/midiLearn;
#N canvas 6 93 798 511 Q 0;
#N canvas 114 407 356 357 \$0-pantaliQa 1;
#X obj -55 -262 cnv 15 352 350 empty empty empty 20 12 0 14 -33289
-66577 0;
#N canvas 370 172 871 585 (subpatch) 0;
#X obj 615 272 import tof;
#X obj 613 291 import moocow;
#X msg 558 387 \; pd dsp 1;
#X obj 559 355 loadbang;
#N canvas 813 84 450 445 network 0;
#X msg 205 -62 disconnect;
#X msg 155 -12 connect localhost 5978;
#X obj 45 -118 r outcoming;
#X obj 150 -132 r osc-status;
#X obj 148 -110 sel 1;
#X obj 309 -74 bng 15 250 50 0 empty empty empty 17 7 0 10 -262144
-1 -1;
#X msg 309 -2 connect \$2 \$3;
#X obj 313 -28 pack f s f;
#X obj 337 -75 r \$0-OSC.ip;
#X obj 194 146 r \$0-OSC.port;
#X obj 85 141 s incoming;
#X obj 39 -82 unpack s f;
#X obj 82 65 route incoming;
#X obj 84 112 prepend incoming;
#X obj 82 43 OSCnetwork 8889;
#X obj 39 -60 makefilename /pantaliQa%s;
#X msg 45 -15 \$1 \$2;
#X obj 43 -38 pack s f;
#X obj 83 86 mrpeach/routeOSC /pantaliQa;
#X obj 160 191 mrpeach/udpreceive;
#X obj 157 172 prepend port;
#X obj 164 219 mrpeach/unpackOSC;
#X obj 162 254 mrpeach/pipelist;
#X obj 157 283 s incomingOSC;
#X connect 0 0 14 0;
#X connect 1 0 14 0;
#X connect 2 0 11 0;
#X connect 3 0 4 0;
#X connect 4 0 5 0;
#X connect 4 1 0 0;
#X connect 5 0 7 0;
#X connect 6 0 14 0;
#X connect 7 0 6 0;
#X connect 8 0 7 1;
#X connect 9 0 20 0;
#X connect 11 0 15 0;
#X connect 11 1 17 1;
#X connect 12 0 18 0;
#X connect 14 0 12 0;
#X connect 15 0 17 0;
#X connect 16 0 14 0;
#X connect 17 0 16 0;
#X connect 18 0 13 0;
#X connect 19 0 21 0;
#X connect 20 0 19 0;
#X connect 21 0 22 0;
#X connect 21 1 22 1;
#X connect 22 0 23 0;
#X restore 612 316 pd network;
#N canvas 8 217 450 300 utils 0;
#N canvas 491 233 450 300 formattext 0;
#X obj 158 135 utils/formattext;
#X obj 162 79 r text-formattext;
#X obj 161 101 t a a;
#X obj 163 207 pack s f;
#X msg 151 240 \; \$2-text-formatted \$1;
#X obj 228 115 unpack s f;
#X obj 87 201 print ggg;
#X connect 0 0 3 0;
#X connect 1 0 2 0;
#X connect 2 0 0 0;
#X connect 2 1 5 0;
#X connect 3 0 4 0;
#X connect 3 0 6 0;
#X connect 5 1 3 1;
#X restore 191 80 pd formattext;
#N canvas 915 190 876 600 textpages 0;
#X obj 125 147 utils/loadfonts;
#X obj 113 97 bng 15 250 50 0 empty empty empty 17 7 0 10 -262144 -1
-1;
#X obj -10 309 coll /tmp/fonts/fonts.coll;
#C restore;
#X msg 30 195 write /tmp/fonts/fonts.coll;
#X msg 46 166 clear;
#X obj 92 173 del 1000;
#X obj 103 126 t b b;
#X obj 14 133 t b b b;
#X obj 232 168 unpack f s;
#X obj 233 187 / 30;
#X obj 232 206 i;
#X obj 233 225 + 1;
#X obj 217 253 f;
#X text 242 253 number of pages;
#X obj 203 22 r text-pages;
#X obj 211 307 pack f f;
#X msg 346 462 \; \$2-text-hradio-number number \$1;
#X obj 212 116 t b f f;
#X obj 60 444 pack s f;
#X msg 53 470 \; \$2-text-font-popup-rcv append \$1;
#X obj 458 48 r text-font-list;
#X obj 457 71 unpack f f f;
#X text 269 310 questo manda il numero di pagine torali a hradio del
text player;
#X obj 486 155 until;
#X obj 487 184 counter 0 256;
#X msg 547 95 max \$1;
#X msg 499 98 min \$1;
#X msg 481 127 30;
#X text 14 85 questo inizializzo il font.coll ovvero il contenitore
delle font;
#X obj 456 91 t b f;
#X obj 81 48 bng 15 250 50 0 empty empty empty 17 7 0 10 -262144 -1
-1;
#X obj 14 111 loadbang;
#X text 388 360 limite a 24 altrimenti esce fuori dal gop e non funge
;
#X obj 346 535;
#X obj 414 428;
#X obj 358 289 print;
#N canvas 0 0 450 300 24limit 0;
#X obj 611 236 f;
#X obj 601 197 t f f;
#X obj 685 217 sel 1;
#X obj 713 240 t b;
#X obj 592 169 inlet;
#X obj 663 300 outlet;
#X obj 685 195 > 16;
#X msg 683 250 16;
#X connect 0 0 5 0;
#X connect 1 0 6 0;
#X connect 1 1 0 1;
#X connect 2 0 7 0;
#X connect 2 1 3 0;
#X connect 3 0 0 0;
#X connect 4 0 1 0;
#X connect 6 0 2 0;
#X connect 7 0 5 0;
#X restore 356 254 pd 24limit;
#X connect 0 0 2 0;
#X connect 0 0 8 0;
#X connect 1 0 6 0;
#X connect 2 0 18 0;
#X connect 3 0 2 0;
#X connect 4 0 2 0;
#X connect 5 0 3 0;
#X connect 6 0 5 0;
#X connect 6 1 0 0;
#X connect 7 0 1 0;
#X connect 7 1 3 0;
#X connect 7 2 4 0;
#X connect 8 0 9 0;
#X connect 9 0 10 0;
#X connect 10 0 11 0;
#X connect 11 0 12 1;
#X connect 12 0 36 0;
#X connect 14 0 17 0;
#X connect 15 0 16 0;
#X connect 17 0 12 0;
#X connect 17 1 15 1;
#X connect 18 0 19 0;
#X connect 20 0 21 0;
#X connect 21 0 29 0;
#X connect 21 1 26 0;
#X connect 21 2 25 0;
#X connect 23 0 24 0;
#X connect 24 0 2 0;
#X connect 25 0 24 0;
#X connect 26 0 24 0;
#X connect 27 0 23 0;
#X connect 29 0 27 0;
#X connect 29 1 18 1;
#X connect 30 0 7 0;
#X connect 31 0 7 0;
#X connect 36 0 35 0;
#X connect 36 0 15 0;
#X restore 112 82 pd textpages;
#X restore 614 335 pd utils;
#X obj 1 1 cnv 15 350 25 empty empty OSC 20 12 0 14 -99865 -262144
0;
#X obj 0 27 cnv 15 350 60 empty empty empty 20 12 0 14 -1 -262144 0
;
#X symbolatom 74 234 10 0 0 0 ip - #0-OSC.ip;
#X obj 39 194 cnv 15 10 10 empty empty Ip 20 12 0 14 -1 -258113 0;
#X floatatom 148 130 5 0 0 0 - - -;
#X obj 65 52 cnv 15 10 10 empty empty Port 20 12 0 14 -1 -258113 0
;
#X obj 441 30 tgl 15 0 empty empty Connect 17 7 0 10 -128992 -262144
-258113 0 1;
#X text 411 153 port;
#X obj 442 179 s \$0-OSC.port;
#X obj 494 204 s osc-status;
#X obj 492 151 tgl 15 0 empty empty empty 17 7 0 10 -262144 -1 -1 0
1;
#X obj 607 163 declare -path utils/mediagrid;
#X obj 616 247 import py;
#X obj 608 142 declare -path utils;
#X obj 374 87 loadbang;
#X msg 377 122 symbol localhost;
#X msg 476 96 5978;
#X obj 608 101 declare -path source;
#X obj 608 122 declare -path effect;
#X obj 609 81 declare -path process;
#X obj 608 184 declare -path output;
#X obj 611 203 declare -path utils/OSCizer;
#X obj 605 53 declare -path process/sequencer;
#X obj 616 228 import gridflow;
#X obj 602 13 declare -path gui/mediagrid;
#X obj 602 32 declare -path gui/explorer;
#X obj 155 59 nbx 4 14 0 3000 0 0 empty empty empty 0 -8 0 10 -128992
-262144 -258113 3000 256;
#X obj 61 37 cnv 15 10 10 empty empty Receiving 20 12 0 14 -1 -258113
0;
#X connect 3 0 2 0;
#X connect 10 0 14 0;
#X connect 16 0 15 0;
#X connect 20 0 21 0;
#X connect 20 0 22 0;
#X connect 21 0 8 0;
#X connect 22 0 32 0;
#X coords 0 1 100 -1 351 86 1 0 0;
#X restore -55 -47 graph;
#N canvas 460 39 463 437 readme 0;
#X obj 16 112 cnv 15 400 20 empty empty How_does_it_works? 20 12 0
14 -233017 -66577 0;
#X obj 17 271 cnv 15 400 20 empty empty Modules 20 12 0 14 -233017
-66577 0;
#X text 32 154 chose your module and build your interactive system.
if you wanna save your patch save it in the root directory of pantaliQa.
If you wanna create a patch from scratch just copy gems.win object
and OSC_communication_settings from template patch in your blank patch
\, save it \, close and reopen it. Now you can start!;
#X text 30 302 There are 4 different kind of moule: source \, effect
\, process \, output. And a special one \, App \, that you can't use
directly inside this framework but they are designed to interact with
some dedicated modules. To get some video output you need at least
a source and an output. You will put every else module in the middle.
A module can have 3 different kind of inlet/outlet: orange \, green
\, blue. Orange is for video chain stuff. Green for data control messages.
Blue for audio data;
#X text 40 25 This is a very very alpha puredata collection of abstractions.
It was made as part of gemQ project - www.gemq.info. For credits see
the credits.txt file or specific credit in any patch;
#X restore 231 -243 pd readme;
#N canvas 510 198 706 568 (subpatch) 0;
#X obj 1 1 cnv 15 350 25 empty empty Record_settings 20 12 0 14 -99865
-262144 0;
#X obj 0 27 cnv 15 350 60 empty empty empty 20 12 0 14 -1 -262144 0
;
#X obj 5 57 cnv 15 10 10 empty empty Save_file_as... 20 12 0 14 -1
-258113 0;
#X obj 331 48 tgl 15 0 empty empty Record -30 23 0 10 -128992 -262144
-258113 0 1;
#X obj 55 43 bng 15 250 50 0 empty empty empty 17 7 0 10 -191407 -258113
-258113;
#X obj 395 -33 loadbang;
#X obj 197 48 nbx 4 14 0 3000 0 0 empty empty empty 0 -8 0 10 -128992
-262144 -258113 0 256;
#X obj 239 48 nbx 4 14 0 3000 0 0 empty empty empty 0 -8 0 10 -128992
-262144 -258113 0 256;
#N canvas 487 218 786 473 gemsRecors 0;
#X obj 74 140 gemhead 10000;
#X floatatom 247 228 5 0 0 0 - - -;
#X obj 242 198 route recording file;
#X symbolatom 45 350 80 0 0 0 - - -;
#X obj 312 229 symbol;
#X msg 454 126 saveas...;
#X msg 424 95 file test_myfile;
#X msg 305 116 record \$1;
#X obj 74 170 gems.record @file test_output;
#X msg 568 152 colorspace rgba;
#X msg 565 131 colorspace yuv;
#X obj 507 213 t a;
#X obj 556 10 inlet;
#X obj 305 84 inlet;
#X obj 418 55 inlet;
#X msg 555 70 offset 0 0 \, dimen \$2 \$3;
#X connect 0 0 8 0;
#X connect 2 0 1 0;
#X connect 2 1 4 0;
#X connect 4 0 3 0;
#X connect 5 0 8 1;
#X connect 6 0 8 1;
#X connect 7 0 8 1;
#X connect 8 1 2 0;
#X connect 9 0 11 0;
#X connect 10 0 11 0;
#X connect 11 0 8 1;
#X connect 12 0 15 0;
#X connect 13 0 7 0;
#X connect 14 0 5 0;
#X connect 15 0 11 0;
#X restore 103 229 pd gemsRecors;
#X obj 135 128 sel 0 1;
#X msg 323 269 \; export-label label \$1;
#X msg 322 248 symbol video;
#X obj 200 -190 t b b;
#X obj 279 -148 flow.value.changes gems.win/height;
#X obj 34 -151 flow.value.changes gems.win/width;
#X obj 112 106 bng 15 250 50 0 empty empty empty 17 7 0 10 -262144
-1 -1;
#X floatatom 164 -116 5 0 0 0 - - -;
#X obj 166 193 pack f f f;
#X obj 150 162 bng 15 250 50 0 empty empty empty 17 7 0 10 -262144
-1 -1;
#X obj 50 101 t b b;
#X connect 3 0 9 0;
#X connect 3 0 8 0;
#X connect 4 0 19 0;
#X connect 6 0 17 1;
#X connect 7 0 17 2;
#X connect 9 1 18 0;
#X connect 11 0 10 0;
#X connect 12 0 14 0;
#X connect 12 1 13 0;
#X connect 13 0 7 0;
#X connect 14 0 6 0;
#X connect 15 0 12 0;
#X connect 17 0 8 2;
#X connect 18 0 17 0;
#X connect 19 0 8 1;
#X connect 19 1 15 0;
#X coords 0 1 100 -1 351 86 1 0 0;
#X restore -55 -134 graph;
#N canvas 342 178 706 445 (subpatch) 0;
#X obj 1 1 cnv 15 350 25 empty empty Output_settings 20 12 0 14 -99865
-262144 0;
#X obj 0 27 cnv 15 350 60 empty empty empty 20 12 0 14 -1 -262144 0
;
#X obj 16 41 cnv 15 10 10 empty export-label image 20 12 0 10 -1 -258113
0;
#X obj 19 63 nbx 4 14 0 3000 0 0 empty empty empty 0 -8 0 10 -128992
-262144 -258113 320 256;
#X obj 73 63 nbx 4 14 0 3000 0 0 empty empty empty 0 -8 0 10 -128992
-262144 -258113 240 256;
#X obj 234 198 t b f;
#X obj 202 248 pack 320 240;
#X msg 464 358 dimen \$1 \$2;
#X msg 436 310 border \$1;
#X obj 133 62 tgl 15 0 empty empty Border -10 -10 0 10 -128992 -262144
-258113 1 1;
#X msg 243 370 0;
#X obj 201 311 t b b;
#X msg 211 366 1;
#X obj 196 333 del 50;
#X obj 201 270 t b;
#X obj 342 228 t f b;
#X obj 217 400 gems.win 1024 768 @border 1;
#X msg 46 -37 320;
#X msg 82 -36 240;
#X obj -27 -167 loadbang;
#X obj 274 64 tgl 15 0 empty empty FullScreen -10 -10 0 10 -128992
-262144 -258113 0 1;
#X obj 169 -59 loadbang;
#N canvas 22 458 463 445 SecondScreeninfo 0;
#X obj 140 99 t b f;
#N canvas 191 217 603 466 screenInstructions 0;
#X msg 499 51 \; win-offset 0 0;
#X msg 473 95 \; win-border 1;
#X msg 208 262 \; win-border 0;
#X obj 207 3 inlet;
#X obj 157 3 inlet;
#X obj 282 89 expr 1-$f1;
#X obj 187 110 spigot;
#X obj 252 110 spigot;
#X msg 425 141 \; win-dimen 320 240;
#X obj 456 20 t b b b;
#X obj 208 156 t b a a;
#X msg 233 341 \; win-dimen \$3 \$4;
#X obj 455 -36 inlet;
#X msg 420 229 \; win-offset 0 0;
#X msg 346 319 \; win-dimen \$1 \$2;
#X obj 377 198 t a b b;
#X msg 394 273 \; win-border 0;
#X msg 226 197 \; win-offset \$1 0;
#X obj 280 13 print hh;
#X connect 3 0 5 0;
#X connect 3 0 6 1;
#X connect 3 0 18 0;
#X connect 4 0 7 0;
#X connect 4 0 6 0;
#X connect 5 0 7 1;
#X connect 6 0 10 0;
#X connect 7 0 15 0;
#X connect 9 0 8 0;
#X connect 9 1 1 0;
#X connect 9 2 0 0;
#X connect 10 0 2 0;
#X connect 10 1 17 0;
#X connect 10 2 11 0;
#X connect 12 0 9 0;
#X connect 15 0 14 0;
#X connect 15 1 16 0;
#X connect 15 2 13 0;
#X restore 210 334 pd screenInstructions;
#X obj 202 34 sel 1;
#X obj 80 181 unpack f f f f;
#X obj 70 239 f;
#X obj 114 314 pack 0 0 0 0;
#X obj 70 58 pyext utils screeninfo;
#X obj 169 38 bng 15 250 50 0 empty empty empty 17 7 0 10 -262144 -1
-1;
#X obj 201 14 inlet;
#X obj 166 364 b;
#X obj 154 390 outlet;
#X connect 0 0 4 0;
#X connect 0 1 1 1;
#X connect 2 0 6 1;
#X connect 2 1 1 2;
#X connect 3 0 4 1;
#X connect 3 1 5 1;
#X connect 3 2 5 2;
#X connect 3 3 5 3;
#X connect 4 0 5 0;
#X connect 5 0 1 0;
#X connect 5 0 9 0;
#X connect 6 0 3 0;
#X connect 6 1 0 0;
#X connect 7 0 6 1;
#X connect 8 0 2 0;
#X connect 9 0 10 0;
#X restore 272 125 pd SecondScreeninfo;
#X obj 331 107 sel 0;
#X connect 3 0 6 0;
#X connect 4 0 5 0;
#X connect 5 0 3 0;
#X connect 5 1 6 1;
#X connect 6 0 14 0;
#X connect 6 0 7 0;
#X connect 7 0 16 1;
#X connect 8 0 16 1;
#X connect 9 0 15 0;
#X connect 10 0 16 0;
#X connect 11 0 13 0;
#X connect 11 1 10 0;
#X connect 12 0 16 0;
#X connect 13 0 12 0;
#X connect 14 0 11 0;
#X connect 15 0 8 0;
#X connect 15 1 11 0;
#X connect 17 0 3 0;
#X connect 18 0 4 0;
#X connect 19 0 18 0;
#X connect 19 0 17 0;
#X connect 20 0 22 0;
#X connect 20 0 23 0;
#X connect 21 0 9 0;
#X connect 22 0 11 0;
#X connect 23 0 3 0;
#X coords 0 1 100 -1 351 86 1 0 0;
#X restore -55 -220 graph;
#N canvas 0 0 450 300 (subpatch) 0;
#X obj 7 68 moduleList;
#X obj 0 1 cnv 15 34 39 empty empty empty 20 12 0 14 -33289 -66577
0;
#X obj 7 17 bng 20 250 50 0 empty empty Help -5 -7 0 10 -128992 -258113
-258113;
#X connect 2 0 0 0;
#X coords 0 1 100 -1 35 40 1 0 0;
#X restore -53 -261 graph;
#X restore 204 -165 pd \$0-pantaliQa;
#X obj 91 -81 prepend \$0;
#X obj 87 -103 bng 15 250 50 0 empty empty empty 17 7 0 10 -262144
-1 -1;
#X msg 39 40 \; pd-\$1-pantaliQa vis 1;
#X obj 77 -183 r \$0-settings;
#X connect 1 0 3 0;
#X connect 2 0 1 0;
#X connect 4 0 2 0;
#X restore 115 34 pd Q;
#X text 189 36 <----- start;
#X obj 101 16 tof/imagebang utils/gemQ.gif utils/gemQi.gif \$0-settings
\$0-settings.rcv;
#X obj 222 124 cam un;
#X obj 221 556 screen tre;
#X obj 221 360 videobuffer tttt;
#X obj 449 82 counter 100;
#X obj 448 103 mod 8;
#X obj 448 54 bng 15 250 50 0 empty empty empty 17 7 0 10 -262144 -1
-1;
#X obj 445 166 mrpeach/pipelist 2000;
#X obj 446 128 t f f;
#X msg 469 314 mBank \$1 \, record 1;
#X msg 448 243 mSample \$1 \, record 0 \, status 1;
#X connect 3 0 5 0;
#X connect 5 0 4 0;
#X connect 6 0 7 0;
#X connect 7 0 10 0;
#X connect 8 0 6 0;
#X connect 9 0 12 0;
#X connect 10 0 9 0;
#X connect 10 1 11 0;
#X connect 11 0 5 1;
#X connect 12 0 5 1;
