#N canvas 442 154 659 320 10;
#X declare -path .;
#N canvas 685 168 439 190 playloops 0;
#X msg 32 49 loop 1;
#X obj 32 25 loadbang;
#X obj 30 126 outlet~;
#X obj 238 87 rj/s_looper break data/sf_break.wav;
#X obj 31 89 rj/s_looper beat data/sf_beat.wav;
#X obj 237 125 outlet~;
#X connect 0 0 3 0;
#X connect 0 0 4 0;
#X connect 1 0 0 0;
#X connect 3 0 5 0;
#X connect 4 0 2 0;
#X restore 119 16 pd playloops;
#N canvas 5 82 893 299 angle 0;
#X obj 116 19 r #accelerate;
#X obj 115 44 unpack f f f;
#X obj 196 79 t f f;
#X obj 152 152 sel 1;
#X obj 264 155 sel 1;
#X obj 154 195 outlet up;
#X obj 264 198 outlet down;
#X obj 152 116 < -0.75;
#X obj 264 119 > 0.75;
#X text 351 126 this turns the data coming out of the accelerometer
z-axis into two bangs;
#X connect 0 0 1 0;
#X connect 1 2 2 0;
#X connect 2 0 7 0;
#X connect 2 1 8 0;
#X connect 3 0 5 0;
#X connect 4 0 6 0;
#X connect 7 0 3 0;
#X connect 8 0 4 0;
#X restore 219 52 pd angle;
#X msg 218 81 0;
#X msg 271 81 1;
#X obj 368 178 hsl 128 15 0 1 0 0 empty empty empty -2 -8 0 10 -262144
-1 -1 12700 1;
#X obj 365 157 netreceive 6666;
#X obj 117 118 rj/c_xfade;
#X obj 117 240 rj/soundoutput;
#X obj 331 13 declare -path .;
#X connect 0 0 6 0;
#X connect 0 1 6 1;
#X connect 1 0 2 0;
#X connect 1 1 3 0;
#X connect 2 0 6 2;
#X connect 3 0 6 2;
#X connect 4 0 6 2;
#X connect 5 0 4 0;
#X connect 6 0 7 0;
#X connect 6 0 7 1;
