#N canvas 0 0 450 300 10;
#X obj 67 -9 bang;
#X obj 51 24 f 0;
#X obj 125 130 t b b;
#X obj 38 -11 bng 15 250 50 0 empty empty empty 17 7 0 10 -262144 -1
-1;
#X obj 130 38 del 10;
#X obj 78 22 + 1;
#X msg 129 3 0;
#X obj 55 105 sel 2 4;
#X obj 123 99 del 10;
#X msg 80 148 1;
#X msg 47 150 0;
#X obj 65 -56 inlet;
#X obj 83 195 outlet;
#X connect 0 0 1 0;
#X connect 1 0 5 0;
#X connect 1 0 7 0;
#X connect 2 0 8 0;
#X connect 2 1 4 0;
#X connect 3 0 1 0;
#X connect 4 0 6 0;
#X connect 5 0 1 1;
#X connect 6 0 1 1;
#X connect 7 0 10 0;
#X connect 7 1 2 0;
#X connect 7 1 9 0;
#X connect 8 0 3 0;
#X connect 9 0 12 0;
#X connect 10 0 12 0;
#X connect 11 0 0 0;
