#N canvas 414 217 930 549 10;
#X obj 130 -145 ctlin;
#X obj 111 -2 spigot 0;
#X obj 104 102 hsl 80 15 0 1 0 0 empty empty Direction 2 8 0 10 -33289
-262144 -262144 0 1;
#X obj 104 -29 autoscale 0 1;
#X msg 101 -65 load 0 127;
#X obj 236 -54 ==;
#X obj 248 -84 f;
#X obj 190 -115 t f f;
#X obj 236 -27 spigot 1;
#X obj 207 102 bng 15 250 50 0 empty empty empty 17 7 0 10 -33289 -1
-1;
#X obj 251 30 expr 1-$f1;
#X msg 208 122 0;
#X obj 91 264 outlet;
#X obj 32 -59 inlet;
#X obj 346 320 msgfile;
#X msg 330 176 clear;
#X msg 270 260 add \$1;
#X obj 265 146 t b f b;
#X msg 403 274 flush;
#X obj 429 122 startbang;
#X obj 430 193 t b b;
#X obj 215 318 t b f;
#X obj 207 141 t b;
#X obj -27 63 r \$0-midi-myhslider;
#N canvas 1 94 450 425 color 0;
#X msg 329 93 \; \$1-midi-myhslider color 16 0 0;
#X obj 334 70 prepend \$0;
#X obj 341 24 bng 15 250 50 0 empty empty empty 17 7 0 10 -262144 -1
-1;
#X obj 132 70 prepend \$0;
#X obj 139 24 bng 15 250 50 0 empty empty empty 17 7 0 10 -262144 -1
-1;
#X msg 130 92 \; \$1-midi-myhslider color 12 0 0;
#X obj 336 -38 inlet;
#X obj 147 -13 inlet;
#X obj 121 214 prepend \$0;
#X msg 119 236 \; \$1-midi-myhslider label \$2;
#X obj 123 190 symbol \$1;
#X obj 145 159 startbang;
#X connect 1 0 0 0;
#X connect 2 0 1 0;
#X connect 3 0 5 0;
#X connect 4 0 3 0;
#X connect 6 0 2 0;
#X connect 7 0 4 0;
#X connect 8 0 9 0;
#X connect 10 0 8 0;
#X connect 11 0 10 0;
#X restore 125 213 pd color;
#X obj 128 154 sel 0 1;
#X obj 190 102 tgl 15 0 empty empty empty 17 7 0 10 -258113 -1 -1 0
1;
#N canvas 629 359 450 300 path 0;
#X obj 101 79 inlet;
#X obj 101 105 getdir;
#X obj 103 125 makefilename %s/data/;
#X msg 135 184 symbol;
#X obj 107 181 l2s;
#X obj 104 147 list append \$1-msgfile.txt;
#X obj 97 227 outlet;
#X obj 135 163 startbang;
#X connect 0 0 1 0;
#X connect 1 0 2 0;
#X connect 2 0 5 0;
#X connect 3 0 4 1;
#X connect 4 0 6 0;
#X connect 5 0 4 0;
#X connect 7 0 3 0;
#X restore 266 197 pd path;
#X obj 266 218 prepend write;
#N canvas 627 364 450 300 path 0;
#X obj 101 79 inlet;
#X obj 101 105 getdir;
#X obj 103 125 makefilename %s/data/;
#X msg 135 184 symbol;
#X obj 107 181 l2s;
#X obj 104 147 list append \$1-msgfile.txt;
#X obj 97 227 outlet;
#X obj 135 163 startbang;
#X connect 0 0 1 0;
#X connect 1 0 2 0;
#X connect 2 0 5 0;
#X connect 3 0 4 1;
#X connect 4 0 6 0;
#X connect 5 0 4 0;
#X connect 7 0 3 0;
#X restore 467 226 pd path;
#X obj 467 247 prepend read;
#X obj 446 161 del 10;
#X connect 0 0 3 0;
#X connect 0 1 7 0;
#X connect 1 0 2 0;
#X connect 2 0 12 0;
#X connect 3 0 1 0;
#X connect 4 0 3 0;
#X connect 5 0 8 0;
#X connect 6 0 5 1;
#X connect 6 0 17 0;
#X connect 7 0 5 0;
#X connect 7 1 6 1;
#X connect 8 0 1 1;
#X connect 9 0 11 0;
#X connect 9 0 22 0;
#X connect 10 0 8 1;
#X connect 11 0 26 0;
#X connect 13 0 2 0;
#X connect 14 0 21 0;
#X connect 15 0 14 0;
#X connect 16 0 14 0;
#X connect 17 0 27 0;
#X connect 17 1 16 0;
#X connect 17 2 15 0;
#X connect 18 0 14 0;
#X connect 19 0 31 0;
#X connect 20 0 18 0;
#X connect 20 1 29 0;
#X connect 21 1 5 1;
#X connect 22 0 6 0;
#X connect 23 0 2 0;
#X connect 25 0 24 0;
#X connect 25 1 24 1;
#X connect 26 0 1 1;
#X connect 26 0 25 0;
#X connect 26 0 10 0;
#X connect 27 0 28 0;
#X connect 28 0 14 0;
#X connect 29 0 30 0;
#X connect 30 0 14 0;
#X connect 31 0 20 0;
#X coords 0 -1 1 1 125 20 2 100 100;
