#N canvas 1 119 959 639 10;
#X obj 102 100 cnv 15 40 39 empty empty empty 2 12 0 14 -1 -66577 0
;
#X obj 121 8 spigot 0;
#X obj 246 -44 ==;
#X obj 258 -74 f;
#X obj 200 -105 t f f;
#X obj 246 -17 spigot 1;
#X obj 126 126 bng 10 250 50 0 empty empty empty 17 7 0 10 -33289 -1
-1;
#X obj 261 40 expr 1-$f1;
#X msg 218 132 0;
#X obj 101 274 outlet;
#X obj 42 -49 inlet;
#X obj 356 330 msgfile;
#X msg 340 186 clear;
#X msg 280 270 add \$1;
#X obj 275 156 t b f b;
#X msg 413 284 flush;
#X obj 445 179 startbang;
#X obj 440 203 t b b;
#X obj 517 253 bng 15 250 50 0 empty empty empty 17 7 0 10 -262144
-1 -1;
#X obj 225 328 t b f;
#X obj 217 151 t b;
#N canvas 508 193 450 425 color 1;
#X obj 334 70 prepend \$0;
#X obj 341 24 bng 15 250 50 0 empty empty empty 17 7 0 10 -262144 -1
-1;
#X obj 132 70 prepend \$0;
#X obj 139 24 bng 15 250 50 0 empty empty empty 17 7 0 10 -262144 -1
-1;
#X obj 336 -38 inlet;
#X obj 147 -13 inlet;
#X msg 130 92 \; \$1-midi-mytgl color 12 0 0;
#X msg 329 93 \; \$1-midi-mytgl color 16 0 0;
#X obj 125 214 prepend \$0;
#X msg 123 236 \; \$1-name label \$2;
#X obj 123 183 symbol \$1;
#X obj 122 153 startbang;
#X connect 0 0 7 0;
#X connect 1 0 0 0;
#X connect 2 0 6 0;
#X connect 3 0 2 0;
#X connect 4 0 1 0;
#X connect 5 0 3 0;
#X connect 8 0 9 0;
#X connect 10 0 8 0;
#X connect 11 0 10 0;
#X restore 135 223 pd color;
#X obj 138 164 sel 0 1;
#X obj 126 116 tgl 10 0 empty empty empty 17 7 0 10 -258113 -1 -1 0
1;
#X floatatom 275 -121 5 0 0 0 - - -;
#X floatatom 138 -144 3 0 0 0 - - -;
#X obj 93 -196 notein;
#X floatatom 93 -145 3 0 0 0 - - -;
#X obj 137 -124 2b2o;
#X obj 103 116 tgl 20 0 empty empty empty 17 7 0 10 -33289 -262144
-262144 0 1;
#X obj -18 73 r \$0-midi-mytgl;
#X obj 104 101 tgl 8 0 empty \$0-name on/off 0 7 0 10 -1 -1 -258113
0 1;
#N canvas 627 364 450 300 path 0;
#X obj 101 79 inlet;
#X obj 101 105 getdir;
#X obj 103 125 makefilename %s/data/;
#X msg 135 184 symbol;
#X obj 107 181 l2s;
#X obj 104 147 list append \$1-msgfile.txt;
#X obj 97 227 outlet;
#X obj 135 163 startbang;
#X connect 0 0 1 0;
#X connect 1 0 2 0;
#X connect 2 0 5 0;
#X connect 3 0 4 1;
#X connect 4 0 6 0;
#X connect 5 0 4 0;
#X connect 7 0 3 0;
#X restore 470 269 pd path;
#X obj 470 290 prepend read;
#N canvas 627 364 450 300 path 0;
#X obj 101 79 inlet;
#X obj 101 105 getdir;
#X obj 103 125 makefilename %s/data/;
#X msg 135 184 symbol;
#X obj 107 181 l2s;
#X obj 104 147 list append \$1-msgfile.txt;
#X obj 97 227 outlet;
#X obj 135 163 startbang;
#X connect 0 0 1 0;
#X connect 1 0 2 0;
#X connect 2 0 5 0;
#X connect 3 0 4 1;
#X connect 4 0 6 0;
#X connect 5 0 4 0;
#X connect 7 0 3 0;
#X restore 267 209 pd path;
#X obj 267 230 prepend write;
#X connect 1 0 29 0;
#X connect 2 0 5 0;
#X connect 3 0 2 1;
#X connect 3 0 14 0;
#X connect 4 0 2 0;
#X connect 4 1 3 1;
#X connect 4 1 24 0;
#X connect 5 0 1 1;
#X connect 6 0 8 0;
#X connect 6 0 20 0;
#X connect 7 0 5 1;
#X connect 8 0 23 0;
#X connect 10 0 29 0;
#X connect 11 0 19 0;
#X connect 12 0 11 0;
#X connect 13 0 11 0;
#X connect 14 0 34 0;
#X connect 14 1 13 0;
#X connect 14 2 12 0;
#X connect 15 0 11 0;
#X connect 16 0 17 0;
#X connect 17 0 15 0;
#X connect 17 1 32 0;
#X connect 19 1 2 1;
#X connect 20 0 3 0;
#X connect 22 0 21 0;
#X connect 22 1 21 1;
#X connect 23 0 1 1;
#X connect 23 0 22 0;
#X connect 23 0 7 0;
#X connect 25 0 28 0;
#X connect 26 0 27 0;
#X connect 26 1 25 0;
#X connect 27 0 4 0;
#X connect 28 0 1 0;
#X connect 29 0 9 0;
#X connect 30 0 29 0;
#X connect 32 0 33 0;
#X connect 33 0 11 0;
#X connect 34 0 35 0;
#X connect 35 0 11 0;
#X coords 0 -1 1 1 42 40 2 100 100;
