#N canvas 0 0 450 300 10;
#X obj 233 91 notein;
#X msg 231 116 set \$1;
#X msg 233 143 71;
#X obj 277 139 sel 1;
#X msg 235 189 seek \$1;
#X obj 232 209 s 2videogrid;
#X text 164 61 scena 2 del nanoPAd (default conf);
#X obj 235 168 - 60;
#X connect 0 0 1 0;
#X connect 0 2 3 0;
#X connect 1 0 2 0;
#X connect 2 0 7 0;
#X connect 3 0 2 0;
#X connect 4 0 5 0;
#X connect 7 0 4 0;
