#N canvas 98 32 649 337 10;
#X msg 68 128 set \$1;
#X msg 70 155 0;
#X obj 70 57 ctlin;
#X obj 72 176 bang;
#X obj 73 197 outlet;
#X msg 171 119 set \$1;
#X msg 173 146 0;
#X obj 175 167 bang;
#X obj 176 188 outlet;
#X msg 275 104 set \$1;
#X msg 277 131 0;
#X obj 279 152 bang;
#X obj 280 173 outlet;
#X obj 331 116 sel 48;
#X obj 124 140 sel 47;
#X obj 227 131 sel 45;
#X msg 383 97 set \$1;
#X msg 385 124 0;
#X obj 387 145 bang;
#X obj 388 166 outlet;
#X obj 439 109 sel 46;
#X connect 0 0 1 0;
#X connect 1 0 3 0;
#X connect 2 0 0 0;
#X connect 2 0 5 0;
#X connect 2 0 9 0;
#X connect 2 0 16 0;
#X connect 2 1 13 0;
#X connect 2 1 14 0;
#X connect 2 1 15 0;
#X connect 2 1 20 0;
#X connect 3 0 4 0;
#X connect 5 0 6 0;
#X connect 6 0 7 0;
#X connect 7 0 8 0;
#X connect 9 0 10 0;
#X connect 10 0 11 0;
#X connect 11 0 12 0;
#X connect 13 0 10 0;
#X connect 14 0 1 0;
#X connect 15 0 6 0;
#X connect 16 0 17 0;
#X connect 17 0 18 0;
#X connect 18 0 19 0;
#X connect 20 0 17 0;
