#N canvas -77 -31 1115 723 10;
#X declare -path abs;
#X declare -path utils/pdmtl;
#N canvas 4 109 450 300 readme 0;
#X msg 58 101 fixed;
#X msg 109 101 mobile;
#X text 74 65 methods;
#X text 160 98 + dim;
#X msg 61 180 debug \$1;
#X msg 59 198 fadeIn \$1;
#X msg 60 217 fadeOut \$1;
#X msg 59 242 fadeInOut;
#X msg 59 268 fadeOutIn;
#X msg 66 158 alpha \$1;
#X msg 62 136 colors \$1 \$2 \$3;
#X restore 1204 130 pd readme;
#X obj 618 41 inlet;
#N canvas 4 109 450 300 init 0;
#X obj 259 114 declare -path abs;
#X obj 260 134 declare -path utils/pdmtl;
#X restore 1208 158 pd init;
#X obj 101 119 cnv 15 250 200 empty empty empty 20 12 0 14 -1 -66577
0;
#X obj 100 101 cnv 15 250 20 empty empty MaskScreen 20 12 0 14 -128992
-262144 0;
#X obj 107 140 tgl 15 0 \$0-status \$0-status.rcv On/Off 17 7 0 10
-128992 -262144 -258113 0 1;
#X obj 300 172 vsl 15 70 0 1 0 0 \$0-alpha \$0-alpha.rcv Alpha 0 -9
0 10 -128992 -262144 -258113 1300 1;
#X obj 106 162 input.color.grid_;
#X obj 553 216 sel 0 1;
#X obj 178 264 nbx 8 14 0 1e+37 0 0 empty empty FadeTime 0 -8 0 10
-1 -262144 -258113 0 256;
#X obj 178 279 hradio 16 1 0 4 \$0-fadetype \$0-fadetype.rcv empty
0 8 0 10 -128992 -262144 -258113 0;
#X obj 178 295 cnv 15 80 20 empty \$0-fade FadeIn 10 12 0 10 -1 -262144
0;
#X obj 520 624 prepend \$0;
#X msg 518 649 \; \$1-fade label \$2;
#X obj 524 558 sel 0 1 2 3;
#X msg 522 588 FadeIn;
#X msg 569 589 FadeOut;
#X msg 620 589 FadeInOut;
#X msg 685 589 FadeOutIn;
#X obj 242 279 bng 16 250 50 0 \$0-fadestart \$0-fadestart.rcv empty
17 7 0 10 -128992 -262144 -258113;
#X obj 682 450 f;
#X obj 656 504 gate 4;
#X obj 657 476 + 1;
#X obj 449 508 pack f f;
#X obj 466 482 t b f;
#X msg 316 455 load 0 1;
#X obj 315 436 loadbang;
#X msg 504 402 load 0 1;
#X obj 503 383 loadbang;
#X obj 100 100 cnv 15 15 15 empty empty empty 20 12 0 14 -260097 -66577
0;
#X obj 336 100 cnv 15 15 15 empty empty empty 20 12 0 14 -4034 -66577
0;
#N canvas 10 271 450 300 osc 0;
#X obj 145 16 loadbang;
#X msg 209 115 parse \$1;
#X obj 120 186 s outcoming;
#X obj 226 52 getdir;
#X obj 235 27 bng 15 250 50 0 empty empty empty 17 7 0 10 -262144 -1
-1;
#X obj 121 121 r incoming;
#X obj 307 -93 r osc-status;
#X obj 307 -70 sel 1;
#X obj 308 -31 once;
#X obj 221 77 makefilename %s/screen.pd;
#X obj 121 148 OSCize screen\$0;
#X connect 1 0 10 0;
#X connect 3 0 9 0;
#X connect 4 0 3 0;
#X connect 5 0 10 0;
#X connect 6 0 7 0;
#X connect 7 0 8 0;
#X connect 8 0 4 0;
#X connect 9 0 1 0;
#X connect 10 0 2 0;
#X restore 1208 184 pd osc;
#X obj 418 273 hsl 128 15 0 60000 0 0 \$0-fadetime \$0-fadetime.rcv
empty -2 -8 0 10 -262144 -1 -1 0 1;
#X obj 308 482 autoscale 0 9;
#X obj 496 429 autoscale 0 9;
#X msg 232 54;
#X obj 353 47 loadbang;
#X obj 368 79 initbang;
#X msg 379 132 0;
#X obj 715 382 tgl 15 0 empty empty empty 17 7 0 10 -262144 -1 -1 0
1;
#N canvas 261 262 677 502 mousposition 0;
#X obj 493 290 translateXYZ;
#X obj 429 63 s cur_pos_x;
#X obj 535 64 s cur_pos_y;
#X obj 492 313 circle 0.04;
#X obj 375 274 circle 0.08;
#X obj 376 211 color 0 0 1;
#X obj 372 246 translateXYZ;
#X obj 389 186 gemhead 30;
#X obj 505 239 gemhead 31;
#X obj 508 262 color 0 0 0;
#X obj 46 170 t b;
#X obj 37 344 change;
#X msg 36 321 1;
#X msg 70 321 0;
#X obj 55 298 delay 3000;
#X obj 134 373 outlet;
#X obj 269 -10 gemmouse 1 1;
#X obj 220 66 pack f f;
#X obj 200 150 list append;
#X obj 219 97 t b l;
#X msg 199 127 position;
#X obj 307 150 list append;
#X msg 306 127 b1;
#X obj 321 65 t b f;
#X obj 287 13 expr ($f1*-2+1)*4;
#X obj 221 36 expr ($f1*2-1)*5.33;
#X obj 243 190 route list;
#X obj 243 433 s gmouse;
#X text 251 401 video_ext is dependent of this in case you want to
control cursor in different way;
#X obj 321 450 outlet;
#X connect 0 0 3 0;
#X connect 5 0 6 0;
#X connect 6 0 4 0;
#X connect 7 0 5 0;
#X connect 8 0 9 0;
#X connect 9 0 0 0;
#X connect 10 0 12 0;
#X connect 10 0 14 0;
#X connect 11 0 8 0;
#X connect 11 0 7 0;
#X connect 11 0 15 0;
#X connect 12 0 11 0;
#X connect 13 0 11 0;
#X connect 14 0 13 0;
#X connect 16 0 25 0;
#X connect 16 1 24 0;
#X connect 16 2 23 0;
#X connect 17 0 19 0;
#X connect 18 0 26 0;
#X connect 19 0 20 0;
#X connect 19 0 10 0;
#X connect 19 1 18 1;
#X connect 20 0 18 0;
#X connect 21 0 26 0;
#X connect 22 0 21 0;
#X connect 23 0 22 0;
#X connect 23 1 21 1;
#X connect 24 0 17 1;
#X connect 24 0 2 0;
#X connect 24 0 6 2;
#X connect 24 0 0 2;
#X connect 25 0 17 0;
#X connect 25 0 1 0;
#X connect 25 0 6 1;
#X connect 25 0 0 1;
#X connect 26 0 29 0;
#X restore 712 319 pd mousposition;
#X obj 647 402 video_ext;
#X obj 640 154 screenstatus;
#X msg 742 46 off;
#X msg 705 39 on;
#X msg 791 70 debug \$1;
#X obj 751 -57 inlet;
#X msg 936 81 fadeIn \$1;
#X msg 973 98 fadeOut \$1;
#X msg 1055 142 fadeOutIn \$1;
#X msg 1011 116 fadeInOut \$1;
#X obj 751 -25 route on off fixed mobile debug fadeIn fadeOut fadeInOut
fadeOutIn alpha colors;
#X msg 1025 43 alpha \$1;
#X msg 1087 68 colors \$1 \$2 \$3;
#X text 854 547 by Luca Carrubba - for gemq.info project - free to
share/modify/cannibalize as you want - www.estereotips.net // luca@estereotips.net
// hardly based on the work of Alexandre Quessy for PDMTL abstraction
library. this patch is originally writen by Kubriel (I don't know the
name) and shared in the puredata mailing list as mapping_video patch.
thanks for share this great patch!;
#X connect 1 0 42 0;
#X connect 5 0 8 0;
#X connect 6 0 52 0;
#X connect 7 0 53 0;
#X connect 8 0 43 0;
#X connect 8 1 44 0;
#X connect 9 0 20 1;
#X connect 10 0 14 0;
#X connect 10 0 22 0;
#X connect 12 0 13 0;
#X connect 14 0 15 0;
#X connect 14 1 16 0;
#X connect 14 2 17 0;
#X connect 14 3 18 0;
#X connect 15 0 12 0;
#X connect 16 0 12 0;
#X connect 17 0 12 0;
#X connect 18 0 12 0;
#X connect 19 0 20 0;
#X connect 20 0 21 1;
#X connect 21 0 47 0;
#X connect 21 1 48 0;
#X connect 21 2 50 0;
#X connect 21 3 49 0;
#X connect 22 0 21 0;
#X connect 24 0 23 0;
#X connect 24 1 23 1;
#X connect 25 0 33 0;
#X connect 26 0 25 0;
#X connect 27 0 34 0;
#X connect 28 0 27 0;
#X connect 32 0 9 0;
#X connect 33 0 23 0;
#X connect 34 0 24 0;
#X connect 36 0 38 0;
#X connect 37 0 38 0;
#X connect 38 0 5 0;
#X connect 39 0 41 6;
#X connect 40 0 39 0;
#X connect 40 1 41 7;
#X connect 42 0 41 0;
#X connect 43 0 42 0;
#X connect 44 0 42 0;
#X connect 45 0 42 0;
#X connect 46 0 51 0;
#X connect 47 0 42 0;
#X connect 48 0 42 0;
#X connect 49 0 42 0;
#X connect 50 0 42 0;
#X connect 51 0 44 0;
#X connect 51 1 43 0;
#X connect 51 4 45 0;
#X connect 51 5 47 0;
#X connect 51 6 48 0;
#X connect 51 7 50 0;
#X connect 51 8 49 0;
#X connect 51 9 52 0;
#X connect 51 10 53 0;
#X connect 52 0 42 0;
#X connect 53 0 42 0;
#X coords 0 -1 1 1 251 221 1 100 100;
