#N canvas 1 84 1364 682 10;
#X declare -path abs;
#X declare -path utils/pdmtl;
#X declare -path utils/midiLearn;
#X obj 638 512 rectangle;
#X obj 634 365 screentype;
#X obj 636 318 screenstatus;
#X msg 715 254 off;
#X msg 678 247 on;
#X msg 750 376 fixed;
#N canvas 4 109 450 300 readme 0;
#X msg 58 101 fixed;
#X msg 109 101 mobile;
#X text 74 65 methods;
#X text 160 98 + dim;
#X msg 61 180 debug \$1;
#X msg 59 198 fadeIn \$1;
#X msg 60 217 fadeOut \$1;
#X msg 59 242 fadeInOut;
#X msg 59 268 fadeOutIn;
#X msg 66 158 alpha \$1;
#X msg 62 136 colors \$1 \$2 \$3;
#X restore 1204 130 pd readme;
#X msg 764 278 debug \$1;
#X msg 784 414 mobile \$1 \$2;
#X obj 618 41 inlet;
#X obj 724 151 inlet;
#X obj 763 353 loadbang;
#X msg 909 289 fadeIn \$1;
#X msg 946 306 fadeOut \$1;
#X msg 1028 350 fadeOutIn \$1;
#X msg 984 324 fadeInOut \$1;
#X obj 662 473 line;
#X obj 693 467 line;
#X msg 691 440 \$1 500;
#X msg 660 444 \$1 500;
#X obj 854 422 r zoom;
#N canvas 2 114 450 300 init 0;
#X obj 259 114 declare -path abs;
#X obj 260 134 declare -path utils/pdmtl;
#X obj 258 155 declare -path utils/midiLearn;
#X restore 1208 158 pd init;
#X obj 724 183 route on off fixed mobile debug fadeIn fadeOut fadeInOut
fadeOutIn alpha colors;
#X msg 998 251 alpha \$1;
#X msg 1060 276 colors \$1 \$2 \$3;
#X obj 101 119 cnv 15 250 200 empty empty empty 20 12 0 14 -1 -66577
0;
#X obj 101 101 cnv 15 250 20 empty \$0-name SCREEN_u 20 12 0 14 -128992
-262144 0;
#X obj 136 123 input.color.grid_;
#X obj 553 216 sel 0 1;
#X obj 267 268 nbx 8 14 0 1e+37 0 0 empty empty FadeTime 0 -8 0 10
-1 -262144 -258113 0 256;
#X obj 267 283 hradio 16 1 0 4 \$0-fadetype \$0-fadetype.rcv empty
0 8 0 10 -128992 -262144 -258113 0;
#X obj 267 299 cnv 15 80 20 empty \$0-fade FadeIn 10 12 0 10 -1 -262144
0;
#X obj 520 624 prepend \$0;
#X msg 518 649 \; \$1-fade label \$2;
#X obj 524 558 sel 0 1 2 3;
#X msg 522 588 FadeIn;
#X msg 569 589 FadeOut;
#X msg 620 589 FadeInOut;
#X msg 685 589 FadeOutIn;
#X obj 331 283 bng 16 250 50 0 \$0-fadestart \$0-fadestart.rcv empty
17 7 0 10 -128992 -262144 -258113;
#X obj 815 587 f;
#X obj 789 641 gate 4;
#X obj 790 613 + 1;
#X obj 449 508 pack f f;
#X obj 466 482 t b f;
#X obj 245 284 bng 16 250 50 0 \$0-dim.reset \$0-dim.reset.rcv Reset
-6 -8 0 10 -128992 -262144 -258113;
#X msg 316 455 load 0 1;
#X obj 315 436 loadbang;
#X msg 504 402 load 0 1;
#X obj 503 383 loadbang;
#X obj 100 100 cnv 15 15 15 empty empty empty 20 12 0 14 -260097 -66577
0;
#X obj 336 100 cnv 15 15 15 empty empty empty 20 12 0 14 -4034 -66577
0;
#N canvas 10 271 450 300 osc 0;
#X obj 145 16 loadbang;
#X msg 209 115 parse \$1;
#X obj 120 186 s outcoming;
#X obj 226 52 getdir;
#X obj 235 27 bng 15 250 50 0 empty empty empty 17 7 0 10 -262144 -1
-1;
#X obj 121 121 r incoming;
#X obj 307 -93 r osc-status;
#X obj 307 -70 sel 1;
#X obj 308 -31 once;
#X obj 221 77 makefilename %s/screen.pd;
#X obj 121 148 OSCize screen\$0;
#X connect 1 0 10 0;
#X connect 3 0 9 0;
#X connect 4 0 3 0;
#X connect 5 0 10 0;
#X connect 6 0 7 0;
#X connect 7 0 8 0;
#X connect 8 0 4 0;
#X connect 9 0 1 0;
#X connect 10 0 2 0;
#X restore 1208 184 pd osc;
#X obj 418 273 hsl 128 15 0 60000 0 0 \$0-fadetime \$0-fadetime.rcv
empty -2 -8 0 10 -262144 -1 -1 0 1;
#X obj 308 482 autoscale 0 9;
#X obj 496 429 autoscale 0 9;
#X msg 232 54;
#X obj 353 47 loadbang;
#X obj 368 79 initbang;
#X msg 379 132 0;
#X text 921 624 by Luca Carrubba - for gemq.info project - free to
share/modify/cannibalize as you want - www.estereotips.net // luca@estereotips.net
// hardly based on the work of Alexandre Quessy for PDMTL abstraction
library;
#X obj 597 540 outlet;
#X obj 1197 242;
#X obj 105 243 myhslider Alpha;
#X obj 106 269 myhslider DimensionX;
#X obj 106 292 myhslider DimensionY;
#X obj 261 212 mytgl On/off;
#N canvas 835 269 450 300 visualize 0;
#X obj 68 103 tgl 15 0 empty empty empty 17 7 0 10 -262144 -1 -1 0
1;
#X obj 57 132 list prepend \$1;
#X obj 28 37 r /global/vis;
#X msg 63 168 \; \$1 donecanvasdialog 1 -1 \$2 0 -1 1 1 251 221 100
100;
#X obj 36 65 r /\$1/vis;
#X connect 0 0 1 0;
#X connect 1 0 3 0;
#X connect 2 0 1 0;
#X connect 4 0 1 0;
#X restore 1193 218 pd visualize;
#X obj 764 60 namecanvas \$1;
#X obj 1111 430 prepend \$0;
#X obj 1106 377 startbang;
#X obj 1112 402 symbol \$1;
#X msg 1111 452 \; \$1-name label SCREEN_\$2;
#X obj 809 382 unpack 0 0;
#X connect 1 0 0 0;
#X connect 1 1 19 0;
#X connect 1 2 18 0;
#X connect 2 0 1 0;
#X connect 2 0 61 0;
#X connect 3 0 2 0;
#X connect 4 0 2 0;
#X connect 5 0 1 0;
#X connect 7 0 2 0;
#X connect 8 0 1 0;
#X connect 9 0 2 0;
#X connect 10 0 22 0;
#X connect 11 0 5 0;
#X connect 12 0 2 0;
#X connect 13 0 2 0;
#X connect 14 0 2 0;
#X connect 15 0 2 0;
#X connect 16 0 0 1;
#X connect 17 0 0 2;
#X connect 18 0 17 0;
#X connect 19 0 16 0;
#X connect 22 0 4 0;
#X connect 22 1 3 0;
#X connect 22 2 5 0;
#X connect 22 3 73 0;
#X connect 22 4 7 0;
#X connect 22 5 12 0;
#X connect 22 6 13 0;
#X connect 22 7 15 0;
#X connect 22 8 14 0;
#X connect 22 9 23 0;
#X connect 22 10 24 0;
#X connect 23 0 2 0;
#X connect 24 0 2 0;
#X connect 27 0 24 0;
#X connect 28 0 3 0;
#X connect 28 1 4 0;
#X connect 29 0 40 1;
#X connect 30 0 34 0;
#X connect 30 0 42 0;
#X connect 32 0 33 0;
#X connect 34 0 35 0;
#X connect 34 1 36 0;
#X connect 34 2 37 0;
#X connect 34 3 38 0;
#X connect 35 0 32 0;
#X connect 36 0 32 0;
#X connect 37 0 32 0;
#X connect 38 0 32 0;
#X connect 39 0 40 0;
#X connect 40 0 41 1;
#X connect 41 0 12 0;
#X connect 41 1 13 0;
#X connect 41 2 15 0;
#X connect 41 3 14 0;
#X connect 42 0 41 0;
#X connect 43 0 8 0;
#X connect 44 0 43 0;
#X connect 44 1 43 1;
#X connect 45 0 5 0;
#X connect 46 0 54 0;
#X connect 47 0 46 0;
#X connect 48 0 55 0;
#X connect 49 0 48 0;
#X connect 53 0 29 0;
#X connect 54 0 43 0;
#X connect 55 0 44 0;
#X connect 57 0 59 0;
#X connect 58 0 59 0;
#X connect 59 0 66 0;
#X connect 63 0 23 0;
#X connect 64 0 55 0;
#X connect 65 0 54 0;
#X connect 66 0 28 0;
#X connect 69 0 72 0;
#X connect 70 0 71 0;
#X connect 71 0 69 0;
#X connect 73 0 64 0;
#X connect 73 1 65 0;
#X coords 0 -1 1 1 251 221 1 100 100;
