#N canvas 2 55 450 300 10;
#X obj 100 121 cnv 15 124 30 empty empty empty 20 12 0 14 -1 -66577
0;
#X obj 83 56 inlet~;
#X obj 198 55 inlet~;
#X obj 117 210 dac~;
#X obj 105 181 *~;
#X obj 154 180 *~;
#X obj 112 129 hsl 100 15 0 1 0 0 empty empty Volume 8 8 0 10 -128992
-262144 -258113 0 1;
#X obj 100 100 cnv 15 124 20 empty empty SoundSystem 20 12 0 10 -128992
-262144 0;
#X obj 101 101 cnv 15 15 15 empty empty empty 20 12 0 14 -4160 -66577
0;
#X obj 208 101 cnv 15 15 15 empty empty empty 20 12 0 14 -4160 -66577
0;
#X connect 1 0 4 0;
#X connect 2 0 5 0;
#X connect 4 0 3 0;
#X connect 5 0 3 1;
#X connect 6 0 4 1;
#X connect 6 0 5 1;
#X coords 0 -1 1 1 125 53 1 100 100;
