#N canvas 1 84 1364 682 10;
#X declare -path utils/pdmtl;
#X declare -path utils/OSCizer;
#X declare -path utils;
#N canvas 8 217 450 300 readme 0;
#X text 74 65 methods;
#X text 143 125 beetween 0 and 1;
#X msg 82 186 status \$1;
#X text 150 185 0 or 1;
#X msg 79 130 range \$1;
#X msg 77 238 effect \$1;
#X text 146 239 1 \, 2 \, 3 \, 4...24;
#X restore 833 89 pd readme;
#N canvas 11 298 450 300 init 0;
#X obj 260 134 declare -path utils/pdmtl;
#X obj 261 154 declare -path utils/OSCizer;
#X obj 259 114 declare -path utils;
#X restore 837 117 pd init;
#X obj 543 55 inlet;
#X obj 101 121 cnv 15 200 89 empty empty empty 20 12 0 14 -1 -66577
0;
#X obj 101 196 cnv 15 15 15 empty empty empty 20 12 0 14 -260097 -66577
0;
#N canvas 17 460 450 300 osc 0;
#X obj 145 16 loadbang;
#X msg 209 115 parse \$1;
#X obj 120 186 s outcoming;
#X obj 226 52 getdir;
#X obj 235 27 bng 15 250 50 0 empty empty empty 17 7 0 10 -262144 -1
-1;
#X obj 121 121 r incoming;
#X obj 307 -93 r osc-status;
#X obj 307 -70 sel 1;
#X obj 308 -31 once;
#X obj 121 149 OSCize freeframe\$0;
#X obj 221 77 makefilename %s/freeframe.pd;
#X connect 1 0 9 0;
#X connect 3 0 10 0;
#X connect 4 0 3 0;
#X connect 5 0 9 0;
#X connect 6 0 7 0;
#X connect 7 0 8 0;
#X connect 8 0 4 0;
#X connect 9 0 2 0;
#X connect 10 0 1 0;
#X restore 838 138 pd osc;
#X obj 101 100 cnv 15 200 20 empty \$0-name FREEFRAME_ii 20 12 0 14
-128992 -262144 0;
#X text 245 633 by Luca Carrubba - for gemq.info project - free to
share/modify/cannibalize as you want - www.estereotips.net // luca@estereotips.net
// hardly based on the work of Alexandre Quessy for PDMTL abstraction
library;
#X obj 444 76 inlet;
#X obj 104 399 hsl 80 15 0 1 0 0 \$0-range \$0-range.rcv Range 2 8
0 10 -128992 -262144 -258113 0 1;
#X obj 358 427 outlet;
#X obj 399 341 gate 2;
#X obj 403 308 + 1;
#X obj 122 129 popup 124 25 #005252 select_effect BackLight Bloom Burn
Chromium Overlay DirBlur Dodge Exclusion fishEye GausBlur Glow Kaleidoscope
LumaOffset PanSpinZoom Posterize RectDistort Slide Smear Solarize Squash
Noise Stretch Tile TimeSlice TimeWarp;
#X obj 34 10 r \$0-video-effect-popup;
#X obj 114 296 s \$0-video-effect-selection;
#N canvas 71 182 450 300 popup 0;
#X msg 46 207 name select_effect;
#X msg 56 236 bgcolour #005252;
#X obj 19 54 loadbang;
#X obj 19 262 s \$0-video-effect-popup;
#X msg 19 101 options BackLight Bloom Burn Chromium Overlay DirBlur
Dodge Exclusion fishEye GausBlur Glow Kaleidoscope LumaOffset PanSpinZoom
Posterize RectDistort Slide Smear Solarize Squash Noise Stretch Tile
TimeSlice TimeWarp;
#X connect 0 0 3 0;
#X connect 1 0 3 0;
#X connect 2 0 4 0;
#X connect 2 0 0 0;
#X connect 2 0 1 0;
#X connect 4 0 3 0;
#X restore 744 77 pd popup;
#X obj 285 100 cnv 15 15 15 empty empty empty 20 12 0 14 -4034 -66577
0;
#X obj 95 35 hradio 15 1 0 30 empty \$0-effect.rcv empty 0 -8 0 10
-262144 -1 -1 0;
#X obj 546 103 route range status effect;
#X obj 100 100 cnv 15 15 15 empty empty empty 20 12 0 14 -260097 -66577
0;
#N canvas 706 426 450 300 \$0-freeframe 0;
#X obj 10 10 r 1204-pix;
#X obj 10 50 pix_freeframe freeframe/BackLightVFX;
#X obj 10 100 s 1204-pix-effected;
#X obj 100 10 r 1204-range;
#X connect 0 0 1 0;
#X connect 1 0 2 0;
#X connect 3 0 1 1;
#X restore 811 451 pd \$0-freeframe;
#N canvas 674 84 682 682 dynCr 0;
#X obj -6714 323 \$0;
#X obj -6553 276 bng 15 250 50 0 empty empty empty 17 7 0 10 -262144
-1 -1;
#X obj -6501 276 bng 15 250 50 0 empty empty empty 17 7 0 10 -262144
-1 -1;
#X obj -6806 411 s pd-\$0-freeframe;
#X msg -6663 146 vis 1 \, select all \, clear \, vis 0;
#X obj -6755 96 makefilename %sVFX;
#X msg -6695 197 obj 10 10 r \$1-pix;
#X obj -6695 181 \$0;
#X msg -6714 339 obj 10 100 s \$1-pix-effected;
#X obj -6804 247 \$0;
#X obj -6811 207 bng 15 250 50 0 empty empty empty 17 7 0 10 -262144
-1 -1;
#X msg -6806 275 obj 100 10 r \$1-range;
#X obj -6757 66 r \$0-video-effect-selection;
#X msg -6744 225 obj 10 50 pix_freeframe freeframe/\$1;
#X msg -6964 259 connect 0 0 1 0;
#X msg -6991 280 connect 1 0 2 0;
#X msg -7004 301 connect 3 0 1 1;
#X obj -6999 228 t b b b;
#X obj -6756 120 t b b b a b b;
#X obj -6979 175 bng 15 250 50 0 empty empty empty 17 7 0 10 -262144
-1 -1;
#X connect 0 0 8 0;
#X connect 4 0 3 0;
#X connect 5 0 18 0;
#X connect 6 0 3 0;
#X connect 7 0 6 0;
#X connect 8 0 3 0;
#X connect 9 0 11 0;
#X connect 10 0 9 0;
#X connect 11 0 3 0;
#X connect 12 0 5 0;
#X connect 13 0 3 0;
#X connect 14 0 3 0;
#X connect 15 0 3 0;
#X connect 16 0 3 0;
#X connect 17 0 16 0;
#X connect 17 1 15 0;
#X connect 17 2 14 0;
#X connect 18 0 17 0;
#X connect 18 1 9 0;
#X connect 18 2 0 0;
#X connect 18 3 13 0;
#X connect 18 4 7 0;
#X connect 18 5 4 0;
#X connect 19 0 17 0;
#X restore 685 455 pd dynCr;
#X obj 409 368 s \$0-pix;
#X obj 403 386 r \$0-pix-effected;
#X obj 337 186 startbang;
#X msg 345 215 0;
#X obj 687 308 prepend \$0;
#X obj 682 255 startbang;
#X obj 688 280 symbol \$1;
#X msg 687 330 \; \$1-name label FREEFRAME_\$2;
#X obj 661 27 namecanvas \$1;
#N canvas 813 324 450 300 visualize 0;
#X obj 68 103 tgl 15 0 empty empty empty 17 7 0 10 -262144 -1 -1 0
1;
#X obj 57 132 list prepend \$1;
#X obj 28 37 r /global/vis;
#X obj 36 65 r /\$1/vis;
#X msg 63 168 \; \$1 donecanvasdialog 1 -1 \$2 0 -1 1 1 200 111 100
100;
#X connect 0 0 1 0;
#X connect 1 0 4 0;
#X connect 2 0 1 0;
#X connect 3 0 1 0;
#X restore 838 164 pd visualize;
#X obj 105 170 myhslider range;
#X obj 184 535 s \$0-range;
#X obj 238 157 mytgl on/off;
#X connect 2 0 19 0;
#X connect 8 0 11 1;
#X connect 11 0 10 0;
#X connect 11 1 23 0;
#X connect 12 0 11 0;
#X connect 13 1 15 0;
#X connect 14 0 13 0;
#X connect 18 0 13 0;
#X connect 19 0 33 0;
#X connect 19 1 35 0;
#X connect 19 2 18 0;
#X connect 24 0 10 0;
#X connect 25 0 26 0;
#X connect 26 0 35 0;
#X connect 27 0 30 0;
#X connect 28 0 29 0;
#X connect 29 0 27 0;
#X connect 33 0 34 0;
#X connect 35 0 12 0;
#X coords 0 -1 1 1 200 111 1 100 100;
