#N canvas 1 84 1278 682 10;
#X declare -path utils/pdmtl;
#X declare -path utils/OSCizer;
#X declare -path utils;
#N canvas 414 204 450 300 readme 0;
#X text 74 65 methods;
#X text 143 125 beetween 0 and 1;
#X msg 77 174 status \$1;
#X text 145 173 0 or 1;
#X text 141 147 beetween 0 and 1;
#X msg 77 152 scale \$1;
#X msg 79 130 speed \$1;
#X msg 77 203 columns \$1;
#X text 146 204 between 0 and 100;
#X text 149 233 between 0 and 100;
#X msg 80 231 rows \$1;
#X restore 833 90 pd readme;
#N canvas 12 325 450 300 init 0;
#X obj 260 134 declare -path utils/pdmtl;
#X obj 261 154 declare -path utils/OSCizer;
#X obj 259 114 declare -path utils;
#X restore 837 118 pd init;
#X obj 543 56 inlet;
#X obj 101 122 cnv 15 182 89 empty empty empty 20 12 0 14 -1 -66577
0;
#X obj 101 195 cnv 15 15 15 empty empty empty 20 12 0 14 -260097 -66577
0;
#N canvas 18 464 450 300 osc 0;
#X obj 145 16 loadbang;
#X msg 209 115 parse \$1;
#X obj 120 186 s outcoming;
#X obj 226 52 getdir;
#X obj 235 27 bng 15 250 50 0 empty empty empty 17 7 0 10 -262144 -1
-1;
#X obj 121 121 r incoming;
#X obj 307 -93 r osc-status;
#X obj 307 -70 sel 1;
#X obj 308 -31 once;
#X obj 222 77 makefilename %s/multicrop.pd;
#X obj 121 149 OSCize multicrop\$0;
#X connect 1 0 10 0;
#X connect 3 0 9 0;
#X connect 4 0 3 0;
#X connect 5 0 10 0;
#X connect 6 0 7 0;
#X connect 7 0 8 0;
#X connect 8 0 4 0;
#X connect 9 0 1 0;
#X connect 10 0 2 0;
#X restore 838 139 pd osc;
#X obj 101 101 cnv 15 182 20 empty \$0-name MULTICROP_kij 20 12 0 14
-128992 -262144 0;
#X text 570 671 by Luca Carrubba - for gemq.info project - free to
share/modify/cannibalize as you want - www.estereotips.net // luca@estereotips.net
// hardly based on the work of Alexandre Quessy for PDMTL abstraction
library;
#X obj 387 662 outlet;
#X obj 70 134 bng 15 250 50 0 empty empty empty 17 7 0 10 -262144 -1
-1;
#X obj 268 100 cnv 15 15 15 empty empty empty 20 12 0 14 -4034 -66577
0;
#X obj 100 101 cnv 15 15 15 empty empty empty 20 12 0 14 -260097 -66577
0;
#X obj 667 251 pix_separator;
#X obj 669 451 translateXYZ;
#X obj 669 539 rotateXYZ;
#X floatatom 1015 468 5 0 0 0 - - -;
#X floatatom 973 468 5 0 0 0 - - -;
#X floatatom 932 468 5 0 0 0 - - -;
#X floatatom 799 396 5 0 0 0 - - -;
#X floatatom 734 368 5 0 0 0 - - -;
#X obj 669 567 scaleXYZ;
#X obj 669 339 scaleXYZ;
#X obj 669 594 scaleXYZ;
#X floatatom 760 561 5 0 0 0 - - -;
#X obj 763 541 hsl 128 15 0 1 0 0 empty empty empty -2 -6 0 8 -262144
-1 -1 2894 1;
#X obj 932 443 line;
#X obj 932 378 tgl 15 0 empty empty empty 0 -6 0 8 -262144 -1 -1 1
1;
#X obj 931 401 metro 5000;
#X text 950 378 <- Rotation animation;
#X text 778 368 X elements;
#X text 843 397 Y elements;
#X obj 669 313 gems.fit fill;
#X text 759 603 <- Change the size of the individual elements here
;
#X floatatom 1020 236 5 0 0 0 - - -;
#X msg 931 422 0 \, 360 1020;
#X obj 354 75 inlet;
#X obj 365 190 gate 2;
#X obj 365 156 + 1;
#X obj 189 326 autoscale 5000 800;
#X msg 179 295 load 0 1;
#X obj 199 251 loadbang;
#X obj 202 229 initbang;
#X obj 125 183 nbx 4 14 0 100 0 0 empty empty Columns 0 -8 0 10 -128992
-262144 -258113 2 256;
#X obj 187 184 nbx 4 14 0 100 0 0 empty empty Rows 0 -8 0 10 -128992
-262144 -258113 2 256;
#X obj 669 423 gems.multi.crop 2 2;
#X msg 30 375 2;
#X obj 546 104 route status speed scale columns rows;
#X obj 302 84 loadbang;
#X obj 302 115 initbang;
#X msg 304 165 0;
#X obj 111 128 myhslider Speed;
#X obj 111 150 myhslider Scale;
#X obj 236 128 mytgl on/off;
#X obj 330 14 namecanvas \$1;
#X obj 789 213 prepend \$0;
#X obj 784 160 startbang;
#X obj 790 185 symbol \$1;
#N canvas 809 334 450 300 visualize 0;
#X obj 68 103 tgl 15 0 empty empty empty 17 7 0 10 -262144 -1 -1 0
1;
#X obj 57 132 list prepend \$1;
#X obj 28 37 r /global/vis;
#X obj 36 65 r /\$1/vis;
#X msg 63 168 \; \$1 donecanvasdialog 1 -1 \$2 0 -1 1 1 183 110 100
100;
#X connect 0 0 1 0;
#X connect 1 0 4 0;
#X connect 2 0 1 0;
#X connect 3 0 1 0;
#X restore 835 70 pd visualize;
#X msg 789 235 \; \$1-name label MULTICROP_\$2;
#X connect 2 0 46 0;
#X connect 12 0 31 0;
#X connect 13 0 14 0;
#X connect 14 0 20 0;
#X connect 15 0 14 3;
#X connect 16 0 14 2;
#X connect 17 0 14 1;
#X connect 18 0 44 2;
#X connect 19 0 44 1;
#X connect 20 0 22 0;
#X connect 21 0 44 0;
#X connect 22 0 8 0;
#X connect 23 0 22 1;
#X connect 23 0 22 2;
#X connect 23 0 22 3;
#X connect 24 0 23 0;
#X connect 25 0 17 0;
#X connect 25 0 16 0;
#X connect 26 0 27 0;
#X connect 27 0 34 0;
#X connect 31 0 21 0;
#X connect 31 1 21 1;
#X connect 31 2 21 2;
#X connect 33 0 27 1;
#X connect 34 0 25 0;
#X connect 35 0 36 1;
#X connect 36 0 8 0;
#X connect 36 1 12 0;
#X connect 37 0 36 0;
#X connect 38 0 27 1;
#X connect 39 0 38 0;
#X connect 40 0 39 0;
#X connect 40 0 45 0;
#X connect 41 0 39 0;
#X connect 41 0 45 0;
#X connect 42 0 19 0;
#X connect 43 0 18 0;
#X connect 44 0 13 0;
#X connect 44 1 13 1;
#X connect 44 2 13 2;
#X connect 44 3 20 1;
#X connect 44 4 20 2;
#X connect 44 5 20 3;
#X connect 45 0 42 0;
#X connect 45 0 43 0;
#X connect 46 0 52 0;
#X connect 46 1 50 0;
#X connect 46 2 51 0;
#X connect 47 0 49 0;
#X connect 48 0 49 0;
#X connect 49 0 37 0;
#X connect 50 0 38 0;
#X connect 51 0 24 0;
#X connect 52 0 37 0;
#X connect 52 0 26 0;
#X connect 54 0 58 0;
#X connect 55 0 56 0;
#X connect 56 0 54 0;
#X coords 0 -1 1 1 183 110 1 100 100;
