#N canvas 396 119 951 647 10;
#X declare -path abs;
#X declare -path utils/pdmtl;
#X declare -path utils/OSCizer;
#X declare -path utils/midiLearn;
#X obj 101 120 cnv 15 200 70 empty empty empty 20 12 0 14 -1 -66577
0;
#N canvas 10 271 450 300 readme 0;
#X text 74 65 methods;
#X text 148 129 beetween 0 and 1;
#X text 150 185 0 or 1;
#X msg 79 130 ammount \$1;
#X msg 82 186 status \$1;
#X text 149 159 beetween 0 and 1;
#X msg 80 160 drirection \$1;
#X restore 833 89 pd readme;
#N canvas 10 330 450 300 init 0;
#X obj 259 114 declare -path abs;
#X obj 260 134 declare -path utils/pdmtl;
#X obj 261 154 declare -path utils/OSCizer;
#X obj 260 176 declare -path utils/midiLearn;
#X restore 837 117 pd init;
#X obj 638 75 inlet;
#N canvas 103 314 450 300 osc 0;
#X obj 145 16 loadbang;
#X msg 209 115 parse \$1;
#X obj 120 186 s outcoming;
#X obj 226 52 getdir;
#X obj 235 27 bng 15 250 50 0 empty empty empty 17 7 0 10 -262144 -1
-1;
#X obj 121 121 r incoming;
#X obj 307 -93 r osc-status;
#X obj 307 -70 sel 1;
#X obj 308 -31 once;
#X obj 221 77 makefilename %s/videofeedback.pd;
#X obj 121 149 OSCize videofeedback\$0;
#X connect 1 0 10 0;
#X connect 3 0 9 0;
#X connect 4 0 3 0;
#X connect 5 0 10 0;
#X connect 6 0 7 0;
#X connect 7 0 8 0;
#X connect 8 0 4 0;
#X connect 9 0 1 0;
#X connect 10 0 2 0;
#X restore 838 138 pd osc;
#X obj 100 100 cnv 15 200 20 empty \$0-name VIDEOFEEDBACK_rrrrrrr 20
12 0 14 -128992 -262144 0;
#X text 570 298 by Luca Carrubba - for gemq.info project - free to
share/modify/cannibalize as you want - www.estereotips.net // luca@estereotips.net
// hardly based on the work of Alexandre Quessy for PDMTL abstraction
library;
#X obj 285 100 cnv 15 15 15 empty empty empty 20 12 0 14 -4034 -66577
0;
#X obj 100 176 cnv 15 15 15 empty empty empty 20 12 0 14 -260097 -66577
0;
#X obj 126 577 outlet;
#X msg 162 406 0.86;
#X obj 162 385 loadbang;
#X obj 122 544 gems.win.feedback;
#X text 109 476 feedback on/off;
#X obj 274 28 inlet;
#X obj 636 95 route ammount direction status;
#X obj 108 125 myhslider Ammount;
#X obj 109 146 myhslider Direction;
#X obj 237 126 mytgl on/off;
#X obj 383 18 namecanvas \$1;
#X obj 406 286 prepend \$0;
#X obj 401 233 startbang;
#X obj 407 258 symbol \$1;
#N canvas 811 329 450 300 visualize 0;
#X obj 68 103 tgl 15 0 empty empty empty 17 7 0 10 -262144 -1 -1 0
1;
#X obj 57 132 list prepend \$1;
#X obj 28 37 r /global/vis;
#X obj 36 65 r /\$1/vis;
#X msg 63 167 \; \$1 donecanvasdialog 1 -1 \$2 0 -1 1 1 201 91 100
100;
#X connect 0 0 1 0;
#X connect 1 0 4 0;
#X connect 2 0 1 0;
#X connect 3 0 1 0;
#X restore 800 49 pd visualize;
#X msg 406 308 \; \$1-name label VIDEOFEEDBACK_\$2;
#X connect 3 0 15 0;
#X connect 10 0 12 2;
#X connect 11 0 10 0;
#X connect 12 0 9 0;
#X connect 15 0 16 0;
#X connect 15 1 17 0;
#X connect 15 2 18 0;
#X connect 16 0 12 2;
#X connect 17 0 12 3;
#X connect 18 0 12 1;
#X connect 20 0 24 0;
#X connect 21 0 22 0;
#X connect 22 0 20 0;
#X coords 0 -1 1 1 201 91 1 100 100;
