#N canvas 1 84 1280 682 10;
#X declare -path abs;
#X declare -path utils/pdmtl;
#X declare -path utils/OSCizer;
#X obj 391 468 outlet;
#N canvas 103 405 450 300 readme 0;
#X text 74 65 methods;
#X msg 82 186 status \$1;
#X text 150 185 0 or 1;
#X msg 79 130 delay \$1;
#X text 143 125 beetween 0 and 1;
#X restore 843 99 pd readme;
#N canvas 10 271 450 300 init 0;
#X obj 259 114 declare -path abs;
#X obj 260 134 declare -path utils/pdmtl;
#X obj 261 154 declare -path utils/OSCizer;
#X restore 847 127 pd init;
#X obj 553 65 inlet;
#X obj 100 121 cnv 15 200 50 empty empty empty 20 12 0 14 -1 -66577
0;
#X obj 100 156 cnv 15 15 15 empty empty empty 20 12 0 14 -260097 -66577
0;
#N canvas 16 433 450 300 osc 0;
#X obj 145 16 loadbang;
#X msg 209 115 parse \$1;
#X obj 120 186 s outcoming;
#X obj 226 52 getdir;
#X obj 235 27 bng 15 250 50 0 empty empty empty 17 7 0 10 -262144 -1
-1;
#X obj 121 121 r incoming;
#X obj 307 -93 r osc-status;
#X obj 307 -70 sel 1;
#X obj 308 -31 once;
#X obj 221 76 makefilename %s/delay.pd;
#X obj 121 149 OSCize videodelay\$0;
#X connect 1 0 10 0;
#X connect 3 0 9 0;
#X connect 4 0 3 0;
#X connect 5 0 10 0;
#X connect 6 0 7 0;
#X connect 7 0 8 0;
#X connect 8 0 4 0;
#X connect 9 0 1 0;
#X connect 10 0 2 0;
#X restore 848 148 pd osc;
#X obj 101 101 cnv 15 200 20 empty \$0-name VIDEODELAY_uu 20 12 0 14
-128992 -262144 0;
#X text 580 308 by Luca Carrubba - for gemq.info project - free to
share/modify/cannibalize as you want - www.estereotips.net // luca@estereotips.net
// hardly based on the work of Alexandre Quessy for PDMTL abstraction
library;
#X obj 452 54 inlet;
#X obj 285 100 cnv 15 15 15 empty empty empty 20 12 0 14 -4034 -66577
0;
#X obj 100 100 cnv 15 15 15 empty empty empty 20 12 0 14 -260097 -66577
0;
#X obj 458 242 pix_delay 200;
#X obj 553 92 route delay status;
#X obj 102 133 myhslider Delay;
#X obj 187 416 autoscale 3000 10;
#X msg 164 365 load 0 1;
#X obj 213 332 startbang;
#X obj 384 150 gate 2;
#X obj 374 106 + 1;
#X msg 339 84 0;
#X obj 339 48 startbang;
#X obj 706 214 prepend \$0;
#X obj 701 161 startbang;
#X obj 707 186 symbol \$1;
#N canvas 809 334 450 300 visualize 0;
#X obj 68 103 tgl 15 0 empty empty empty 17 7 0 10 -262144 -1 -1 0
1;
#X obj 57 132 list prepend \$1;
#X obj 28 37 r /global/vis;
#X obj 36 65 r /\$1/vis;
#X msg 63 168 \; \$1 donecanvasdialog 1 -1 \$2 0 -1 1 1 201 72 100
100;
#X connect 0 0 1 0;
#X connect 1 0 4 0;
#X connect 2 0 1 0;
#X connect 3 0 1 0;
#X restore 857 70 pd visualize;
#X msg 706 236 \; \$1-name label VIDEODELAY_\$2;
#X obj 578 33 namecanvas \$1;
#X msg 235 355 2000;
#X msg 275 367 1;
#X obj 235 126 mytgl on/off;
#X connect 3 0 13 0;
#X connect 9 0 18 1;
#X connect 12 0 0 0;
#X connect 13 0 14 0;
#X connect 13 1 30 0;
#X connect 14 0 15 0;
#X connect 15 0 12 1;
#X connect 16 0 15 0;
#X connect 17 0 16 0;
#X connect 17 0 28 0;
#X connect 17 0 29 0;
#X connect 18 0 0 0;
#X connect 18 1 12 0;
#X connect 19 0 18 0;
#X connect 20 0 30 0;
#X connect 21 0 20 0;
#X connect 22 0 26 0;
#X connect 23 0 24 0;
#X connect 24 0 22 0;
#X connect 28 0 15 1;
#X connect 29 0 15 2;
#X connect 30 0 19 0;
#X coords 0 -1 1 1 201 72 1 100 100;
