#N canvas 0 0 1009 514 10;
#X obj 675 -71 f \$1;
#X obj 705 -72 f \$2;
#X obj 874 -157 initbang;
#X obj 884 -137 loadbang;
#X obj 695 -103 initbang;
#X obj 703 418 outlet;
#X obj 715 50 inlet;
#X obj 129 -18 bng 15 250 50 0 empty empty empty 17 7 0 10 -258113
-1 -1;
#X obj 152 -18 bng 15 250 50 0 empty empty empty 17 7 0 10 -4160 -1
-1;
#X obj 717 337 closebang;
#X obj 675 -213 namecanvas \$0-mediagrid;
#X text 638 321 prevent PD to crash when abstraction is deleted;
#X text 865 -171 init values;
#X obj 677 -45 s \$0-vid-rows;
#X obj 703 -23 s \$0-vid-columns;
#X obj 881 -97 s \$0-vid-reset;
#X obj 130 -60 s \$0-vid-save;
#X obj 153 -77 s \$0-vid-load;
#X obj 716 113 s \$0-vid-seek;
#X obj 718 360 s \$0-vid-destroy;
#X obj 701 395 r \$0-fromMediagrid;
#X obj 109 -128 cnv 15 137 20 empty \$0-vid-black-canvas loadDir 21
10 0 10 -1 -262144 0;
#N canvas 0 0 1009 514 loader 0;
#X obj 201 39 getdir;
#X obj 191 641 s;
#X obj 194 181 l2s;
#X obj 218 263 s2l;
#X obj 191 239 t a a;
#X obj 70 202 openpanel;
#X msg 69 265 read \$1 cr;
#X obj 69 310 textfile;
#X msg 12 263 rewind;
#X obj 70 222 t b b a;
#X obj -36 323 metro 70;
#X obj -44 264 del 2000;
#X obj -44 231 t b b;
#X obj -32 295 tgl 15 0 empty empty empty 17 7 0 10 -262144 -1 -1 0
1;
#X obj 70 177 r \$0-vid-load;
#X obj 219 322 makefilename -vid%d;
#X obj 223 419 l2s;
#X msg 297 409 symbol;
#X obj 218 286 unpack f s;
#X obj 280 175 r \$0-vid-total;
#X obj 265 199 ==;
#N canvas 0 22 450 300 counter 0;
#X obj 88 101 inlet;
#X obj 88 159 i;
#X obj 151 119 loadbang;
#X floatatom 154 236 5 0 0 0 - - -;
#X obj 38 131 bng 15 250 50 0 empty empty empty 17 7 0 10 -262144 -1
-1;
#X obj 158 90 r \$0-vid-reset;
#X obj 92 219 outlet;
#X obj 137 164 + 1;
#X obj 135 86 inlet;
#X msg 112 129 0;
#X connect 0 0 1 0;
#X connect 1 0 3 0;
#X connect 1 0 6 0;
#X connect 1 0 7 0;
#X connect 2 0 9 0;
#X connect 4 0 1 0;
#X connect 5 0 9 0;
#X connect 7 0 1 1;
#X connect 8 0 9 0;
#X connect 9 0 1 1;
#X restore 263 156 pd counter;
#X obj 266 220 sel 1;
#X msg 267 244 0;
#X obj 191 219 spigot 1;
#X msg 245 38 1;
#X obj 193 164 t a b;
#X obj 203 15 t b a b b;
#N canvas 0 22 450 300 save 0;
#X obj 125 220 textfile;
#X msg 117 142 add \$1 \$2;
#X obj 197 156 savepanel;
#X msg 196 171 write \$1.deck cr;
#X obj 195 135 r \$0-vid-save;
#X obj 124 115 inlet;
#X connect 1 0 0 0;
#X connect 2 0 3 0;
#X connect 3 0 0 0;
#X connect 4 0 2 0;
#X connect 5 0 1 0;
#X restore 354 286 pd save;
#X obj 104 366 unpack f s;
#X obj 68 347 t a a;
#X obj 272 38 \$0;
#X obj 270 10 initbang;
#X obj 294 378 iemlib/parentdollarzero;
#X obj 294 359 initbang;
#X obj 293 338 loadbang;
#X obj 223 393 prepend;
#X obj 259 473 iemlib/parentdollarzero;
#X obj 259 454 initbang;
#X obj 256 429 loadbang;
#X obj 179 437 prepend;
#X floatatom 311 209 5 0 0 0 - - -;
#X obj 182 540 l2s;
#X obj 198 499 initbang;
#X obj 195 474 loadbang;
#X msg 195 520 symbol -;
#X text 447 123 this script accept:;
#X obj 301 38 r \$0-vid-total;
#X text 411 289 right now it doesn't works;
#X text -18 142 right now it doesn't works;
#X obj 200 -39 r \$0-vid-loaddir;
#X text 442 144 opType input_dir output_dir mediagrid-Id numCell;
#X obj 214 -11 r \$0-vid-script-var;
#X obj 191 95 pack s s s f f;
#N canvas 517 170 507 387 python-class 0;
#X obj 132 208 pyext launch capture firstarg;
#X msg 240 112 /tmp/;
#X obj 129 253 outlet;
#X obj 64 -35 inlet;
#X obj 159 24 unpack s s s f f;
#X obj 218 67 t f b;
#X floatatom 302 112 5 0 0 0 - - -;
#X floatatom 254 160 5 0 0 0 - - -;
#X obj 252 255 outlet;
#X connect 0 0 2 0;
#X connect 0 1 8 0;
#X connect 1 0 0 3;
#X connect 3 0 4 0;
#X connect 4 1 0 1;
#X connect 4 2 0 2;
#X connect 4 3 5 0;
#X connect 4 4 6 0;
#X connect 5 0 7 0;
#X connect 5 1 1 0;
#X connect 6 0 0 5;
#X connect 7 0 0 4;
#X restore 198 125 pd python-class;
#X connect 0 0 53 0;
#X connect 2 0 24 0;
#X connect 3 0 18 0;
#X connect 4 0 40 0;
#X connect 4 1 3 0;
#X connect 5 0 9 0;
#X connect 6 0 7 0;
#X connect 7 0 30 0;
#X connect 8 0 7 0;
#X connect 9 0 12 0;
#X connect 9 1 8 0;
#X connect 9 2 6 0;
#X connect 10 0 7 0;
#X connect 11 0 13 0;
#X connect 12 0 11 0;
#X connect 12 1 13 0;
#X connect 13 0 10 0;
#X connect 14 0 5 0;
#X connect 15 0 36 0;
#X connect 16 0 1 1;
#X connect 17 0 16 1;
#X connect 18 0 15 0;
#X connect 19 0 20 1;
#X connect 19 0 41 0;
#X connect 20 0 22 0;
#X connect 21 0 20 0;
#X connect 22 0 23 0;
#X connect 23 0 24 1;
#X connect 24 0 4 0;
#X connect 25 0 24 1;
#X connect 26 0 2 0;
#X connect 26 1 21 0;
#X connect 27 0 0 0;
#X connect 27 1 53 2;
#X connect 27 2 25 0;
#X connect 27 3 21 1;
#X connect 30 1 29 0;
#X connect 31 0 53 3;
#X connect 32 0 31 0;
#X connect 33 0 36 1;
#X connect 34 0 33 0;
#X connect 34 0 17 0;
#X connect 35 0 33 0;
#X connect 35 0 17 0;
#X connect 36 0 16 0;
#X connect 37 0 40 1;
#X connect 38 0 37 0;
#X connect 39 0 37 0;
#X connect 40 0 42 0;
#X connect 42 0 1 0;
#X connect 43 0 45 0;
#X connect 44 0 45 0;
#X connect 45 0 42 1;
#X connect 47 0 53 4;
#X connect 50 0 27 0;
#X connect 52 0 53 1;
#X connect 53 0 54 0;
#X connect 54 0 26 0;
#X restore 771 278 pd loader;
#N canvas 377 1 1278 736 dinamycGuiCreation 0;
#N canvas 129 123 450 364 counterX 0;
#X obj 78 91 inlet;
#X obj 74 195 outlet;
#X obj 78 149 i;
#X msg 102 119 100;
#X obj 127 154 + 69;
#X msg 342 169 69;
#X obj 344 191 *;
#X obj 357 148 t b f;
#X text 353 96 limiter;
#X obj 302 268 del;
#X obj 323 312 outlet;
#X obj 301 289 t b b;
#X obj 28 121 bng 15 250 50 0 empty empty empty 17 7 0 10 -262144 -1
-1;
#X floatatom 344 248 5 0 0 0 - - -;
#X obj 297 320 bng 15 250 50 0 empty empty empty 17 7 0 10 -262144
-1 -1;
#X obj 303 219 >;
#X obj 303 246 sel 1;
#X obj 239 -12 inlet;
#X obj 228 262 outlet;
#X obj 239 46 i;
#X obj 302 6 loadbang;
#X obj 189 18 bng 15 250 50 0 empty empty empty 17 7 0 10 -262144 -1
-1;
#X obj 288 51 + 1;
#X msg 263 16 1;
#X obj 148 80 r \$0-vid-reset;
#X obj 356 117 r \$0-vid-rows;
#X obj 309 -23 r \$0-vid-reset;
#X floatatom 144 226 5 0 0 0 - - -;
#X connect 0 0 2 0;
#X connect 2 0 4 0;
#X connect 2 0 1 0;
#X connect 2 0 15 0;
#X connect 2 0 27 0;
#X connect 3 0 2 1;
#X connect 4 0 2 1;
#X connect 5 0 6 0;
#X connect 6 0 13 0;
#X connect 6 0 15 1;
#X connect 7 0 5 0;
#X connect 7 1 6 1;
#X connect 9 0 11 0;
#X connect 11 0 14 0;
#X connect 11 0 3 0;
#X connect 11 1 10 0;
#X connect 12 0 2 0;
#X connect 15 0 16 0;
#X connect 16 0 9 0;
#X connect 17 0 19 0;
#X connect 19 0 18 0;
#X connect 19 0 22 0;
#X connect 20 0 23 0;
#X connect 21 0 19 0;
#X connect 22 0 19 1;
#X connect 23 0 19 1;
#X connect 24 0 3 0;
#X connect 25 0 7 0;
#X connect 26 0 23 0;
#X restore 170 194 pd counterX;
#N canvas 155 132 450 300 counterY 0;
#X obj 219 89 inlet;
#X obj 215 193 outlet;
#X obj 219 147 i;
#X obj 282 107 loadbang;
#X obj 268 152 + 55;
#X obj 289 78 r \$0-vid-reset;
#X msg 243 117 1;
#X connect 0 0 2 0;
#X connect 2 0 1 0;
#X connect 2 0 4 0;
#X connect 3 0 6 0;
#X connect 4 0 2 1;
#X connect 5 0 6 0;
#X connect 5 0 2 0;
#X connect 6 0 2 1;
#X restore 266 310 pd counterY;
#N canvas 110 93 519 339 counterXgraph 0;
#X obj 26 95 inlet;
#X obj 20 244 outlet;
#X obj 26 153 i;
#X obj 89 113 loadbang;
#X obj 266 141 *;
#X obj 279 98 t b f;
#X text 275 46 limiter;
#X obj 224 218 del;
#X floatatom 266 198 5 0 0 0 - - -;
#X obj 225 196 sel 1;
#X obj 30 30 bng 15 250 50 0 empty empty empty 17 7 0 10 -262144 -1
-1;
#X obj 248 295 f;
#X obj 278 67 r \$0-vid-rows;
#X obj 96 84 r \$0-vid-reset;
#X msg 50 123 69;
#X obj 75 158 + 69;
#X msg 264 119 69;
#X connect 0 0 2 0;
#X connect 2 0 1 0;
#X connect 2 0 9 0;
#X connect 2 0 15 0;
#X connect 3 0 14 0;
#X connect 4 0 8 0;
#X connect 4 0 9 1;
#X connect 5 0 16 0;
#X connect 5 1 4 1;
#X connect 7 0 11 0;
#X connect 8 0 11 1;
#X connect 9 0 7 0;
#X connect 10 0 2 0;
#X connect 11 0 2 1;
#X connect 12 0 5 0;
#X connect 13 0 14 0;
#X connect 14 0 2 1;
#X connect 15 0 2 1;
#X connect 16 0 4 0;
#X restore 161 289 pd counterXgraph;
#N canvas 155 132 450 300 counterYgraph 0;
#X obj 219 89 inlet;
#X obj 215 193 outlet;
#X obj 219 147 i;
#X obj 282 107 loadbang;
#X obj 268 152 + 55;
#X obj 220 46 r \$0-vid-reset;
#X msg 243 117 60;
#X connect 0 0 2 0;
#X connect 2 0 1 0;
#X connect 2 0 4 0;
#X connect 3 0 6 0;
#X connect 4 0 2 1;
#X connect 5 0 6 0;
#X connect 5 0 2 0;
#X connect 6 0 2 1;
#X restore 235 243 pd counterYgraph;
#X obj 193 313 pack 0 0;
#X obj 231 218 t b b;
#X obj 147 95 t b f;
#X obj 187 5 *;
#X obj 182 -20 t b f;
#X obj 155 -19 f;
#X msg 225 130 0;
#X msg 107 14 1;
#X obj 186 24 t f f;
#X obj 210 101 sel;
#X msg 184 42 max \$1;
#X obj 142 75 counter 0 12;
#X obj 103 -26 initbang;
#X obj 108 -8 del 100;
#X obj 264 349 pack 0 0 0;
#X obj 265 418 prepend \$0;
#X msg 266 437 \; \$1-mediagrid obj \$2 \$3 visualizer \$4;
#X obj 194 339 prepend \$0;
#X obj 177 -42 r \$0-vid-columns;
#X obj 168 -67 r \$0-vid-rows;
#X obj 236 71 s \$0-vid-total;
#X floatatom 239 33 5 0 0 0 - - -;
#X obj 111 36 metro 30;
#N canvas 303 164 450 364 counterXCanvas 0;
#X obj 78 91 inlet;
#X obj 74 195 outlet;
#X obj 78 149 i;
#X obj 141 109 loadbang;
#X obj 344 191 *;
#X obj 357 148 t b f;
#X text 353 96 limiter;
#X obj 302 268 del;
#X obj 301 289 t b b;
#X floatatom 144 226 5 0 0 0 - - -;
#X obj 28 121 bng 15 250 50 0 empty empty empty 17 7 0 10 -262144 -1
-1;
#X floatatom 344 248 5 0 0 0 - - -;
#X obj 297 320 bng 15 250 50 0 empty empty empty 17 7 0 10 -262144
-1 -1;
#X obj 303 246 sel 1;
#X floatatom 305 123 5 0 0 0 - - -;
#X obj 148 80 r \$0-vid-reset;
#X obj 356 117 r \$0-vid-rows;
#X msg 394 190 2;
#X obj 303 219 >;
#X obj 127 154 + 68;
#X msg 342 169 68;
#X msg 102 119 69;
#X connect 0 0 2 0;
#X connect 2 0 1 0;
#X connect 2 0 9 0;
#X connect 2 0 18 0;
#X connect 2 0 19 0;
#X connect 3 0 21 0;
#X connect 4 0 11 0;
#X connect 4 0 18 1;
#X connect 5 0 20 0;
#X connect 5 1 4 1;
#X connect 7 0 8 0;
#X connect 8 0 12 0;
#X connect 8 0 21 0;
#X connect 10 0 2 0;
#X connect 13 0 7 0;
#X connect 15 0 21 0;
#X connect 16 0 5 0;
#X connect 17 0 4 1;
#X connect 18 0 13 0;
#X connect 19 0 2 1;
#X connect 20 0 4 0;
#X connect 21 0 2 1;
#X restore 385 185 pd counterXCanvas;
#X obj 385 205 pack 0 20;
#X obj 386 223 prepend \$0;
#X msg 389 240 \; \$1-vid-black-canvas vis_size \$2 \$3;
#X text 392 164 black-canvas;
#X text 370 418 visualizer abstraction position;
#X text 367 358 GOP size;
#X obj 150 158 t b b b;
#X msg 481 312 \; \$1-mediagrid donecanvasdialog 1 -1 1 0 -1 1 1 \$2
\$3 100 0;
#X obj 145 351 bng 15 250 50 0 empty empty empty 17 7 0 10 -262144
-1 -1;
#X msg 198 370 \; \$1-mediagrid coords 1 -1 0 0 \$2 \$3 100 100 0;
#X connect 0 0 18 0;
#X connect 0 1 18 2;
#X connect 0 2 5 0;
#X connect 1 0 18 1;
#X connect 2 0 4 0;
#X connect 3 0 4 1;
#X connect 4 0 21 0;
#X connect 5 0 3 0;
#X connect 5 1 1 0;
#X connect 6 0 34 0;
#X connect 6 1 13 0;
#X connect 7 0 12 0;
#X connect 8 0 9 0;
#X connect 8 1 7 1;
#X connect 9 0 7 0;
#X connect 10 0 26 0;
#X connect 11 0 26 0;
#X connect 12 0 14 0;
#X connect 12 1 13 1;
#X connect 12 1 24 0;
#X connect 13 0 10 0;
#X connect 14 0 15 0;
#X connect 15 0 6 0;
#X connect 16 0 17 0;
#X connect 17 0 11 0;
#X connect 18 0 19 0;
#X connect 19 0 20 0;
#X connect 21 0 37 0;
#X connect 22 0 8 0;
#X connect 23 0 9 1;
#X connect 25 0 24 0;
#X connect 26 0 15 0;
#X connect 27 0 28 0;
#X connect 28 0 29 0;
#X connect 29 0 30 0;
#X connect 34 0 2 0;
#X connect 34 1 0 0;
#X connect 34 2 0 1;
#X connect 36 0 21 0;
#X restore 677 -146 pd dinamycGuiCreation;
#X text 680 -171 dynamic GUI creation;
#X text 683 -122 row*columns= NumCell;
#X text 705 376 output;
#X text 683 -237 mediagrid ID;
#X obj 774 140 s \$0-vid-loaddir;
#X obj 716 82 route float symbol putvideo putdir;
#X text 665 27 control videogrid by numbers \, and define the python
script function;
#X obj 856 229 s \$0-vid-script-var;
#X text 725 258 make thumbs and create visualizators;
#X msg 851 158 symbol f;
#X msg 917 159 symbol d;
#X obj 822 200 s \$0-vid-loaddir;
#X obj 818 113 t a b;
#X obj 820 179 symbol;
#X obj 871 113 t a b;
#X obj 878 138 symbol;
#X connect 0 0 13 0;
#X connect 1 0 14 0;
#X connect 2 0 15 0;
#X connect 3 0 15 0;
#X connect 4 0 0 0;
#X connect 4 0 1 0;
#X connect 6 0 29 0;
#X connect 7 0 16 0;
#X connect 8 0 17 0;
#X connect 9 0 19 0;
#X connect 20 0 5 0;
#X connect 29 0 18 0;
#X connect 29 1 28 0;
#X connect 29 2 36 0;
#X connect 29 3 38 0;
#X connect 33 0 31 0;
#X connect 34 0 31 0;
#X connect 36 0 37 0;
#X connect 36 1 33 0;
#X connect 37 0 35 0;
#X connect 38 0 39 0;
#X connect 38 1 34 0;
#X connect 39 0 35 0;
#X coords 1 -1 0 0 200 140 1 0 100;
