#N canvas 0 24 1265 713 10;
#X msg 264 191 open \$1;
#X obj 102 333 symbol;
#X obj 260 85 iem_receive;
#X msg 102 29 color 12 12 12;
#X msg 108 66 color 28 28 28;
#X obj 101 172 t b b b;
#X obj 264 -110 f \$1;
#X obj 262 -177 initbang;
#X msg 262 45 set \$1;
#X obj 223 104 t b;
#X obj 231 125 del 150;
#X obj 101 103 vsl 66 48 0 127 0 0 empty empty empty 0 -9 0 10 -33289
-33289 -33289 0 1;
#X obj 134 127 image ;
#X obj 379 360 t b b b;
#X obj 406 55 iemlib/parentdollarzero;
#X obj 406 34 initbang;
#X obj 406 78 makefilename %s-vid-seek;
#X msg 407 99 set \$1;
#X obj 407 121 iem_receive;
#X obj 471 157 sel;
#X obj 491 130 f \$1;
#X obj 489 109 initbang;
#X obj 473 178 t b;
#X obj 177 235 iemlib/parentdollarzero;
#X obj 177 214 initbang;
#X msg 178 279 set \$1;
#X obj 134 303 iem_send;
#X text 149 335 this carry the video path correspondenting to the image
;
#X obj 177 258 makefilename %s-vid-clr;
#X obj 21 51 loadbang;
#X obj 99 -66 iemlib/parentdollarzero;
#X obj 99 -87 initbang;
#X msg 100 -22 set \$1;
#X obj 100 0 iem_receive;
#X obj 99 -43 makefilename %s-vid-clr;
#X obj 381 245 iemlib/parentdollarzero;
#X obj 381 224 initbang;
#X msg 382 289 set \$1;
#X obj 382 311 iem_receive;
#X obj 381 268 makefilename %s-vid-destroy;
#X obj 332 -21 iemlib/parentdollarzero;
#X obj 332 -40 initbang;
#X obj 329 -65 loadbang;
#X obj 262 20 l2s;
#X obj 262 -6 prepend;
#X msg 335 10 symbol;
#X text 256 -199 video path receiver;
#X text 87 -113 color selector receiver;
#X text 404 14 float chooser receiver;
#X obj 264 -134 del 10;
#X obj 262 -88 makefilename -vid%d;
#X obj 266 103 s2l;
#X obj 240 150 f;
#X obj 18 -160 namecanvas \$0-visualizer;
#X msg 432 423 \; \$1-visualizer vis 1 \, editmode 1 \, mouse 134 127
0 0 0 \, mouseup 100 100 0;
#X obj 433 397 prepend \$0;
#X msg 364 490 \; \$1-visualizer cut;
#X obj 365 458 prepend \$0;
#X obj 330 397 prepend \$0;
#X msg 309 424 \; \$1-visualizer vis 0;
#X text 341 201 delete image obj before destroy the patch prevent PD
to crash;
#X obj 143 377 iemlib/parentdollarzero;
#X obj 143 356 initbang;
#X msg 144 421 set \$1;
#X obj 100 445 iem_send;
#X obj 143 400 makefilename %s-fromMediagrid;
#X obj 619 72 unpack s s;
#X obj 266 167 makefilename /tmp/%s.ppm;
#X obj 283 119 list split 1;
#X obj 310 142 tosymbol;
#X connect 0 0 12 0;
#X connect 1 0 64 0;
#X connect 2 0 51 0;
#X connect 3 0 11 0;
#X connect 4 0 11 0;
#X connect 5 0 1 0;
#X connect 5 1 4 0;
#X connect 5 2 26 0;
#X connect 6 0 50 0;
#X connect 7 0 49 0;
#X connect 8 0 2 0;
#X connect 9 0 10 0;
#X connect 10 0 52 0;
#X connect 11 0 5 0;
#X connect 13 0 58 0;
#X connect 13 1 57 0;
#X connect 13 2 55 0;
#X connect 14 0 16 0;
#X connect 15 0 14 0;
#X connect 16 0 17 0;
#X connect 17 0 18 0;
#X connect 18 0 19 0;
#X connect 19 0 22 0;
#X connect 20 0 19 1;
#X connect 21 0 20 0;
#X connect 22 0 11 0;
#X connect 23 0 28 0;
#X connect 24 0 23 0;
#X connect 25 0 26 1;
#X connect 28 0 25 0;
#X connect 29 0 3 0;
#X connect 30 0 34 0;
#X connect 31 0 30 0;
#X connect 32 0 33 0;
#X connect 33 0 3 0;
#X connect 34 0 32 0;
#X connect 35 0 39 0;
#X connect 36 0 35 0;
#X connect 37 0 38 0;
#X connect 38 0 13 0;
#X connect 39 0 37 0;
#X connect 40 0 44 1;
#X connect 41 0 40 0;
#X connect 41 0 45 0;
#X connect 42 0 40 0;
#X connect 42 0 45 0;
#X connect 43 0 8 0;
#X connect 44 0 43 0;
#X connect 45 0 43 1;
#X connect 49 0 6 0;
#X connect 50 0 44 0;
#X connect 51 0 68 0;
#X connect 52 0 67 0;
#X connect 55 0 54 0;
#X connect 57 0 56 0;
#X connect 58 0 59 0;
#X connect 61 0 65 0;
#X connect 62 0 61 0;
#X connect 63 0 64 1;
#X connect 65 0 63 0;
#X connect 66 0 67 0;
#X connect 66 1 1 1;
#X connect 67 0 0 0;
#X connect 68 0 67 0;
#X connect 68 1 69 0;
#X connect 69 0 1 1;
#X coords 0 -1 1 1 68 54 2 100 100;
