#N canvas 311 50 711 441 10;
#X obj 24 139 counter 1 8;
#X floatatom 25 168 5 0 0 0 - - counter;
#X obj 26 194 t b f;
#X obj 68 256 pack 0 0 0 0 0 0 0 0;
#X obj 24 225 zl nth;
#X floatatom 23 256 5 0 0 0 - - -;
#X obj 69 169 s sequen;
#X obj 230 78 r sequen;
#X obj 290 78 r sequen;
#X obj 348 77 r sequen;
#X obj 409 77 r sequen;
#X obj 470 76 r sequen;
#X obj 533 74 r sequen;
#X obj 595 73 r sequen;
#X obj 653 73 r sequen;
#X obj 228 100 sel 1;
#N canvas 6 179 178 282 condicionales 0;
#X obj 21 21 inlet;
#X obj 58 107 s random;
#X obj 76 134 s rewind;
#X obj 21 39 sel 0 1 2 3;
#X obj 39 86 s stop;
#X obj 21 62 s play;
#X connect 0 0 3 0;
#X connect 3 0 5 0;
#X connect 3 1 4 0;
#X connect 3 2 1 0;
#X connect 3 3 2 0;
#X restore 24 285 pd condicionales;
#X obj 228 123 s sel1;
#X obj 224 144 r act1;
#X obj 289 98 sel 2;
#X obj 285 142 r act2;
#X obj 351 101 sel 3;
#X obj 347 145 r act3;
#X obj 412 99 sel 4;
#X obj 408 143 r act4;
#X obj 473 99 sel 5;
#X obj 469 143 r act5;
#X obj 289 121 s sel2;
#X obj 351 124 s sel3;
#X obj 412 122 s sel4;
#X obj 473 122 s sel5;
#X obj 534 120 s sel6;
#X obj 530 141 r act6;
#X obj 596 123 s sel7;
#X obj 592 146 r act7;
#X obj 596 100 sel 7;
#X obj 657 98 sel 8;
#X obj 657 121 s sel8;
#X obj 653 142 r act8;
#X obj 535 98 sel 6;
#X obj 26 106 metro 300;
#X obj 31 71 tgl 15 0 empty empty empty 17 7 0 10 -262144 -1 -1 1 1
;
#X obj 53 47 r activate;
#X floatatom 127 108 5 0 0 0 - - -;
#X obj 78 78 inlet;
#X connect 0 0 1 0;
#X connect 0 0 6 0;
#X connect 0 0 2 0;
#X connect 2 0 3 0;
#X connect 2 1 4 1;
#X connect 3 0 4 0;
#X connect 4 0 5 0;
#X connect 5 0 16 0;
#X connect 7 0 15 0;
#X connect 8 0 19 0;
#X connect 9 0 21 0;
#X connect 10 0 23 0;
#X connect 11 0 25 0;
#X connect 12 0 39 0;
#X connect 13 0 35 0;
#X connect 14 0 36 0;
#X connect 15 0 17 0;
#X connect 18 0 3 0;
#X connect 19 0 27 0;
#X connect 20 0 3 1;
#X connect 21 0 28 0;
#X connect 22 0 3 2;
#X connect 23 0 29 0;
#X connect 24 0 3 3;
#X connect 25 0 30 0;
#X connect 26 0 3 4;
#X connect 32 0 3 5;
#X connect 34 0 3 6;
#X connect 35 0 33 0;
#X connect 36 0 37 0;
#X connect 38 0 3 7;
#X connect 39 0 31 0;
#X connect 40 0 0 0;
#X connect 41 0 40 0;
#X connect 42 0 41 0;
#X connect 44 0 40 1;
#X connect 44 0 43 0;
