#N canvas 0 24 1001 490 10;
#X obj 183 15 r seq_prev2;
#X obj 20 5 r seq_prev1;
#X obj 713 15 r seq_prev8;
#X obj 620 11 r seq_prev7;
#X obj 275 12 r seq_prev3;
#X obj 458 13 r seq_prev5;
#X obj 538 11 r seq_prev6;
#X obj 358 10 r seq_prev4;
#X obj 665 -116 cnv 15 150 40 empty empty empty 20 12 0 14 -260552
-66577 0;
#X obj 725 -106 core;
#X text 663 -137 application's core !!!;
#N canvas 570 87 356 255 read 0;
#X obj 130 179 outlet;
#N canvas 350 185 592 415 readnow 0;
#X floatatom 151 108 5 0 0 0 - counter -;
#X obj 152 133 t b f;
#X obj 141 161 zl nth;
#X obj 190 160 pack 0 0 0 0 0 0 0 0;
#X obj 191 9 r readbank1;
#X obj 210 28 r readbank2;
#X obj 228 45 r readbank3;
#X obj 248 64 r readbank4;
#X obj 267 83 r readbank5;
#X obj 285 100 r readbank6;
#X obj 306 118 r readbank7;
#X obj 324 135 r readbank8;
#X obj 141 191 outlet;
#X text 36 47 bank fo every step;
#X obj 208 204 s bank4replace;
#X floatatom 115 235 5 0 0 0 - - -;
#X connect 0 0 1 0;
#X connect 1 0 3 0;
#X connect 1 1 2 1;
#X connect 2 0 12 0;
#X connect 2 0 14 0;
#X connect 2 0 15 0;
#X connect 3 0 2 0;
#X connect 4 0 3 0;
#X connect 5 0 3 1;
#X connect 6 0 3 2;
#X connect 7 0 3 3;
#X connect 8 0 3 4;
#X connect 9 0 3 5;
#X connect 10 0 3 6;
#X connect 11 0 3 7;
#X restore 131 123 pd readnow;
#X obj 130 144 makefilename seq%d;
#X connect 1 0 2 0;
#X connect 2 0 0 0;
#X restore 711 -228 pd read;
#N canvas 492 152 450 300 previews 0;
#N canvas 424 25 1009 480 prev_from_bank_radio 0;
#X obj 20 52 r readbank1;
#X obj 24 498 s seq_prev1;
#X msg 143 481 clear;
#X msg 24 467 putvideo \$1;
#X obj 19 77 t f b b;
#X floatatom 105 117 5 0 0 0 - - -;
#X obj 38 143 getdir;
#X msg 38 203 /home/minibug/PD/interazioniPure-linux/pantaliQa/process/sequencer
/previews/out0.jpg;
#X msg 34 169 set \$1;
#X msg 106 168 add2 \$1;
#X obj 105 149 makefilename /previews/out%d.jpg;
#X obj -8 186 t b;
#X obj -7 206 del;
#X msg 508 479 clear;
#X msg 389 465 putvideo \$1;
#X obj 384 75 t f b b;
#X floatatom 470 115 5 0 0 0 - - -;
#X obj 403 141 getdir;
#X msg 400 198 /home/minibug/PD/interazioniPure-linux/pantaliQa/process/sequencer
/previews/out0.jpg;
#X msg 399 167 set \$1;
#X msg 471 166 add2 \$1;
#X obj 470 147 makefilename /previews/out%d.jpg;
#X obj 397 267 l2s;
#X msg 410 249 symbol;
#X obj 411 230 loadbang;
#X obj 357 184 t b;
#X obj 358 204 del;
#X obj 389 496 s seq_prev2;
#X msg 873 473 clear;
#X msg 754 459 putvideo \$1;
#X obj 749 69 t f b b;
#X floatatom 835 109 5 0 0 0 - - -;
#X obj 768 135 getdir;
#X msg 768 195 /home/minibug/PD/interazioniPure-linux/pantaliQa/process/sequencer
/previews/out0.jpg;
#X msg 764 161 set \$1;
#X msg 836 160 add2 \$1;
#X obj 835 141 makefilename /previews/out%d.jpg;
#X obj 762 261 l2s;
#X msg 775 235 symbol;
#X obj 775 216 loadbang;
#X obj 722 178 t b;
#X obj 723 198 del;
#X msg 1238 471 clear;
#X msg 1119 457 putvideo \$1;
#X obj 1114 67 t f b b;
#X floatatom 1200 107 5 0 0 0 - - -;
#X obj 1133 133 getdir;
#X msg 1133 193 /home/minibug/PD/interazioniPure-linux/pantaliQa/process/sequencer
/previews/out0.jpg;
#X msg 1129 159 set \$1;
#X msg 1201 158 add2 \$1;
#X obj 1200 139 makefilename /previews/out%d.jpg;
#X obj 1127 259 l2s;
#X msg 1140 233 symbol;
#X obj 1140 214 loadbang;
#X obj 1087 176 t b;
#X obj 1088 196 del;
#X obj 754 490 s seq_prev3;
#X obj 1115 42 r readbank4;
#X obj 1119 488 s seq_prev4;
#X obj 32 300 l2s;
#X msg 45 274 symbol;
#X obj 47 257 loadbang;
#X msg 132 974 clear;
#X msg 13 960 putvideo \$1;
#X obj 8 570 t f b b;
#X floatatom 94 610 5 0 0 0 - - -;
#X obj 27 636 getdir;
#X msg 27 696 /home/minibug/PD/interazioniPure-linux/pantaliQa/process/sequencer
/previews/out0.jpg;
#X msg 23 662 set \$1;
#X msg 95 661 add2 \$1;
#X obj 94 642 makefilename /previews/out%d.jpg;
#X obj -19 679 t b;
#X obj -18 699 del;
#X msg 497 972 clear;
#X msg 378 958 putvideo \$1;
#X obj 373 568 t f b b;
#X floatatom 459 608 5 0 0 0 - - -;
#X obj 392 634 getdir;
#X msg 389 691 /home/minibug/PD/interazioniPure-linux/pantaliQa/process/sequencer
/previews/out0.jpg;
#X msg 388 660 set \$1;
#X msg 460 659 add2 \$1;
#X obj 459 640 makefilename /previews/out%d.jpg;
#X obj 386 760 l2s;
#X msg 399 742 symbol;
#X obj 400 723 loadbang;
#X obj 346 677 t b;
#X obj 347 697 del;
#X msg 862 966 clear;
#X msg 743 952 putvideo \$1;
#X obj 738 562 t f b b;
#X floatatom 824 602 5 0 0 0 - - -;
#X obj 757 628 getdir;
#X msg 757 688 /home/minibug/PD/interazioniPure-linux/pantaliQa/process/sequencer
/previews/out0.jpg;
#X msg 753 654 set \$1;
#X msg 825 653 add2 \$1;
#X obj 824 634 makefilename /previews/out%d.jpg;
#X obj 751 754 l2s;
#X msg 764 728 symbol;
#X obj 764 709 loadbang;
#X obj 711 671 t b;
#X obj 712 691 del;
#X msg 1227 964 clear;
#X msg 1108 950 putvideo \$1;
#X obj 1103 560 t f b b;
#X floatatom 1189 600 5 0 0 0 - - -;
#X obj 1122 626 getdir;
#X msg 1122 686 /home/minibug/PD/interazioniPure-linux/pantaliQa/process/sequencer
/previews/out0.jpg;
#X msg 1118 652 set \$1;
#X msg 1190 651 add2 \$1;
#X obj 1189 632 makefilename /previews/out%d.jpg;
#X obj 1116 752 l2s;
#X msg 1129 726 symbol;
#X obj 1129 707 loadbang;
#X obj 1076 669 t b;
#X obj 1077 689 del;
#X obj 21 793 l2s;
#X msg 34 767 symbol;
#X obj 36 750 loadbang;
#X obj 9 545 r readbank5;
#X obj 13 991 s seq_prev5;
#X obj 385 50 r readbank2;
#X obj 750 44 r readbank3;
#X obj 374 543 r readbank6;
#X obj 378 989 s seq_prev6;
#X obj 739 537 r readbank7;
#X obj 743 983 s seq_prev7;
#X obj 1104 535 r readbank8;
#X obj 1108 981 s seq_prev8;
#X floatatom 137 50 5 0 0 0 - - -;
#X connect 0 0 4 0;
#X connect 2 0 1 0;
#X connect 3 0 1 0;
#X connect 4 0 5 0;
#X connect 4 1 6 0;
#X connect 4 2 2 0;
#X connect 5 0 10 0;
#X connect 6 0 8 0;
#X connect 7 0 59 0;
#X connect 8 0 7 0;
#X connect 8 0 11 0;
#X connect 9 0 7 0;
#X connect 10 0 9 0;
#X connect 11 0 12 0;
#X connect 12 0 7 0;
#X connect 13 0 27 0;
#X connect 14 0 27 0;
#X connect 15 0 16 0;
#X connect 15 1 17 0;
#X connect 15 2 13 0;
#X connect 16 0 21 0;
#X connect 17 0 19 0;
#X connect 18 0 22 0;
#X connect 19 0 18 0;
#X connect 19 0 25 0;
#X connect 20 0 18 0;
#X connect 21 0 20 0;
#X connect 22 0 14 0;
#X connect 23 0 22 1;
#X connect 24 0 23 0;
#X connect 25 0 26 0;
#X connect 26 0 18 0;
#X connect 28 0 56 0;
#X connect 29 0 56 0;
#X connect 30 0 31 0;
#X connect 30 1 32 0;
#X connect 30 2 28 0;
#X connect 31 0 36 0;
#X connect 32 0 34 0;
#X connect 33 0 37 0;
#X connect 34 0 33 0;
#X connect 34 0 40 0;
#X connect 35 0 33 0;
#X connect 36 0 35 0;
#X connect 37 0 29 0;
#X connect 38 0 37 1;
#X connect 39 0 38 0;
#X connect 40 0 41 0;
#X connect 41 0 33 0;
#X connect 42 0 58 0;
#X connect 43 0 58 0;
#X connect 44 0 45 0;
#X connect 44 1 46 0;
#X connect 44 2 42 0;
#X connect 45 0 50 0;
#X connect 46 0 48 0;
#X connect 47 0 51 0;
#X connect 48 0 47 0;
#X connect 48 0 54 0;
#X connect 49 0 47 0;
#X connect 50 0 49 0;
#X connect 51 0 43 0;
#X connect 52 0 51 1;
#X connect 53 0 52 0;
#X connect 54 0 55 0;
#X connect 55 0 47 0;
#X connect 57 0 44 0;
#X connect 59 0 3 0;
#X connect 60 0 59 1;
#X connect 61 0 60 0;
#X connect 62 0 119 0;
#X connect 63 0 119 0;
#X connect 64 0 65 0;
#X connect 64 1 66 0;
#X connect 64 2 62 0;
#X connect 65 0 70 0;
#X connect 66 0 68 0;
#X connect 67 0 115 0;
#X connect 68 0 67 0;
#X connect 68 0 71 0;
#X connect 69 0 67 0;
#X connect 70 0 69 0;
#X connect 71 0 72 0;
#X connect 72 0 67 0;
#X connect 73 0 123 0;
#X connect 74 0 123 0;
#X connect 75 0 76 0;
#X connect 75 1 77 0;
#X connect 75 2 73 0;
#X connect 76 0 81 0;
#X connect 77 0 79 0;
#X connect 78 0 82 0;
#X connect 79 0 78 0;
#X connect 79 0 85 0;
#X connect 80 0 78 0;
#X connect 81 0 80 0;
#X connect 82 0 74 0;
#X connect 83 0 82 1;
#X connect 84 0 83 0;
#X connect 85 0 86 0;
#X connect 86 0 78 0;
#X connect 87 0 125 0;
#X connect 88 0 125 0;
#X connect 89 0 90 0;
#X connect 89 1 91 0;
#X connect 89 2 87 0;
#X connect 90 0 95 0;
#X connect 91 0 93 0;
#X connect 92 0 96 0;
#X connect 93 0 92 0;
#X connect 93 0 99 0;
#X connect 94 0 92 0;
#X connect 95 0 94 0;
#X connect 96 0 88 0;
#X connect 97 0 96 1;
#X connect 98 0 97 0;
#X connect 99 0 100 0;
#X connect 100 0 92 0;
#X connect 101 0 127 0;
#X connect 102 0 127 0;
#X connect 103 0 104 0;
#X connect 103 1 105 0;
#X connect 103 2 101 0;
#X connect 104 0 109 0;
#X connect 105 0 107 0;
#X connect 106 0 110 0;
#X connect 107 0 106 0;
#X connect 107 0 113 0;
#X connect 108 0 106 0;
#X connect 109 0 108 0;
#X connect 110 0 102 0;
#X connect 111 0 110 1;
#X connect 112 0 111 0;
#X connect 113 0 114 0;
#X connect 114 0 106 0;
#X connect 115 0 63 0;
#X connect 116 0 115 1;
#X connect 117 0 116 0;
#X connect 118 0 64 0;
#X connect 120 0 15 0;
#X connect 121 0 30 0;
#X connect 122 0 75 0;
#X connect 124 0 89 0;
#X connect 126 0 103 0;
#X connect 128 0 4 0;
#X restore -139 97 pd prev_from_bank_radio;
#N canvas 0 0 450 300 clear 0;
#X obj 281 178 shell;
#X obj 280 109 getdir;
#X obj 250 69 bng 15 250 50 0 empty empty empty 17 7 0 10 -262144 -1
-1;
#X msg 282 130 ls \$1/previews;
#X obj 283 202 count;
#X msg 346 182 8;
#X obj 343 48 loadbang;
#X obj 284 222 > 1;
#X obj 283 242 sel 1;
#X msg 81 207 rm \$1/previews/*;
#X obj 281 282 getdir;
#X floatatom 347 252 5 0 0 0 - - -;
#X obj 283 261 once;
#X connect 0 0 4 0;
#X connect 1 0 3 0;
#X connect 2 0 1 0;
#X connect 3 0 0 0;
#X connect 4 0 7 0;
#X connect 5 0 4 1;
#X connect 6 0 5 0;
#X connect 6 0 1 0;
#X connect 7 0 8 0;
#X connect 7 0 11 0;
#X connect 8 0 12 0;
#X connect 9 0 0 0;
#X connect 10 0 9 0;
#X connect 12 0 10 0;
#X restore 12 197 pd clear;
#X restore 715 -184 pd previews;
#N canvas 287 95 594 505 player 0;
#X floatatom 310 231 3 0 9 2 index - -;
#X obj 249 117 tgl 15 0 empty empty empty 17 7 0 10 -262144 -1 -1 1
1;
#X obj 247 136 t f f;
#X obj 300 174 metro 70;
#X obj 214 258 inlet;
#X obj 180 52 loadbang;
#X msg 184 101 0;
#X msg 215 130 1;
#X obj 301 196 counter 1 100;
#X msg 214 283 set \$1;
#N canvas 0 0 463 402 frame4bank 0;
#X obj 161 232 list-fifo;
#X obj 221 126 hradio 15 1 0 8 empty empty empty 0 -6 0 8 -262144 -1
-1 0;
#X obj 181 188 list-replace 2;
#X msg 264 166 0 0 0 0 0 0 0 0;
#X obj 302 193 t l;
#X obj 106 119 r bank4replace;
#X obj 184 48 r recorded_frames;
#X obj 185 69 unpack;
#X obj 265 145 loadbang;
#X obj 112 275 list-seek;
#X obj 106 152 t f b;
#X obj 111 305 outlet;
#X obj 206 339 s sequencer-total-frame;
#X connect 0 0 9 1;
#X connect 1 0 2 1;
#X connect 2 0 0 1;
#X connect 2 0 4 0;
#X connect 3 0 2 2;
#X connect 4 0 2 2;
#X connect 5 0 10 0;
#X connect 6 0 7 0;
#X connect 7 0 2 0;
#X connect 7 1 1 0;
#X connect 8 0 3 0;
#X connect 9 0 11 0;
#X connect 9 0 12 0;
#X connect 10 0 9 0;
#X connect 10 1 0 0;
#X restore 367 156 pd frame4bank;
#X obj 198 338 pix_texture;
#X obj 198 390 square;
#X obj 198 364 gems.fit.scale window;
#X obj 336 271 s sequencer-current-frame;
#N canvas 54 25 750 392 reciver 0;
#X msg 145 80 stop;
#X obj 49 35 r play;
#X obj 73 294 outlet;
#X obj 144 32 r stop;
#X floatatom 339 115 5 0 0 0 - - -;
#X obj 305 134 random;
#X obj 305 47 r random;
#X obj 558 44 r rewind;
#X floatatom 63 85 5 0 0 0 - - -;
#X obj 219 170 outlet;
#X obj 339 92 r sequencer-total-frame;
#X msg 557 92 jam 1;
#X obj 20 60 r sequencer-current-frame;
#X msg 61 128 jam 93;
#X msg 315 194 jam \$1;
#X msg 62 104 set jam \$1;
#X msg 184 190 1;
#X connect 0 0 9 0;
#X connect 1 0 13 0;
#X connect 1 0 16 0;
#X connect 3 0 0 0;
#X connect 4 0 5 1;
#X connect 5 0 14 0;
#X connect 6 0 5 0;
#X connect 7 0 11 0;
#X connect 8 0 15 0;
#X connect 10 0 4 0;
#X connect 11 0 2 0;
#X connect 12 0 8 0;
#X connect 13 0 2 0;
#X connect 14 0 2 0;
#X connect 15 0 13 0;
#X connect 16 0 9 0;
#X restore 362 54 pd reciver;
#X obj 266 64 r sequencer-play;
#X obj 201 313 pix_buffer_read;
#X obj 201 199 gemhead 104;
#X connect 0 0 14 0;
#X connect 0 0 17 1;
#X connect 1 0 2 0;
#X connect 2 0 3 0;
#X connect 2 1 18 0;
#X connect 3 0 8 0;
#X connect 4 0 9 0;
#X connect 5 0 6 0;
#X connect 6 0 18 0;
#X connect 7 0 18 0;
#X connect 8 0 0 0;
#X connect 9 0 17 0;
#X connect 10 0 8 4;
#X connect 11 0 13 0;
#X connect 13 0 12 0;
#X connect 15 0 8 0;
#X connect 15 1 3 0;
#X connect 16 0 1 0;
#X connect 17 0 11 0;
#X connect 18 0 17 0;
#X restore 711 -207 pd player;
#X floatatom 497 -185 3 0 9 2 index - -;
#X obj 392 -358 tgl 15 1 empty empty texture_on/off 20 7 0 8 -262144
-1 -1 1 1;
#X obj 409 -408 spigot;
#X obj 456 -410 t b f;
#X obj 442 -429 tgl 15 0 empty empty empty 0 -6 0 8 -262144 -1 -1 0
1;
#X obj 382 -469 t a b;
#X obj 351 -695 tgl 15 0 empty empty empty 17 7 0 10 -262144 -1 -1
0 1;
#X obj 371 -487 gemhead 101;
#X obj 386 -322 pix_snap;
#X obj 402 -525 t b f;
#X obj 354 -636 metro 70;
#X obj 430 -380 loadbang;
#X obj 836 -65;
#X obj 709 -324 makefilename seq%d;
#X obj 708 -347 r bank;
#X obj 713 -294 s buffer_name;
#X obj 401 -222 r buffer_name;
#X msg 401 -189 set \$1;
#N canvas 0 0 769 516 memory_buffer 0;
#X floatatom -256 -70 5 0 0 0 - - -;
#X text -340 -90 dimension;
#X msg -227 -111 allocate 640 480 4;
#X obj -226 -131 loadbang;
#X floatatom -259 53 5 0 0 0 - - -;
#X text -343 33 dimension;
#X msg -223 9 allocate 640 480 4;
#X obj -259 30 pix_buffer seq1 10;
#X floatatom -275 189 5 0 0 0 - - -;
#X text -359 169 dimension;
#X msg -226 145 allocate 640 480 4;
#X obj -225 125 loadbang;
#X floatatom -278 312 5 0 0 0 - - -;
#X text -362 292 dimension;
#X msg -249 267 allocate 640 480 4;
#X obj -248 247 loadbang;
#X obj -259 -91 pix_buffer seq0 1;
#X obj -253 -156 r seq0;
#X obj -253 -36 r seq1;
#X obj -272 120 r seq2;
#X floatatom -41 -72 5 0 0 0 - - -;
#X text -125 -92 dimension;
#X msg -12 -113 allocate 640 480 4;
#X obj -11 -133 loadbang;
#X floatatom -44 51 5 0 0 0 - - -;
#X text -128 31 dimension;
#X msg -8 7 allocate 640 480 4;
#X obj -7 -13 loadbang;
#X floatatom -60 187 5 0 0 0 - - -;
#X text -144 167 dimension;
#X msg -11 144 allocate 640 480 4;
#X obj -10 123 loadbang;
#X floatatom -63 310 5 0 0 0 - - -;
#X text -147 290 dimension;
#X msg -34 265 allocate 640 480 4;
#X obj -33 245 loadbang;
#X obj -44 28 pix_buffer seq5 10;
#X obj -38 -38 r seq5;
#X obj -57 118 r seq6;
#X obj -278 221 r seq3;
#X obj -277 290 pix_buffer seq3 10;
#X obj -275 166 pix_buffer seq2 10;
#X obj -38 -158 r seq4;
#X obj -44 -91 pix_buffer seq4 1;
#X obj -60 164 pix_buffer seq6 10;
#X obj -62 288 pix_buffer seq7 10;
#X obj -63 219 r seq7;
#X obj -185 -191 r record-stop;
#X obj -187 -169 getdir;
#X msg -187 -149 save \$1/previews/out0.jpg 2;
#X obj 50 -187 r record-stop;
#X obj 48 -165 getdir;
#X msg 48 -145 save \$1/previews/out4.jpg 2;
#X obj 200 -91 r record-stop;
#X obj 198 -69 getdir;
#X msg 198 -48 save \$1/previews/out5.jpg 2;
#X obj 182 29 r record-stop;
#X obj 180 51 getdir;
#X msg 180 72 save \$1/previews/out6.jpg 2;
#X obj 57 198 r record-stop;
#X obj 55 220 getdir;
#X msg 55 241 save \$1/previews/out7.jpg 2;
#X obj -200 180 r record-stop;
#X obj -202 202 getdir;
#X msg -202 223 save \$1/previews/out3.jpg 2;
#X obj -206 60 r record-stop;
#X obj -208 82 getdir;
#X msg -208 103 save \$1/previews/out2.jpg 2;
#X obj -181 -58 r record-stop;
#X obj -183 -36 getdir;
#X msg -183 -15 save \$1/previews/out1.jpg 2;
#X connect 2 0 16 0;
#X connect 3 0 2 0;
#X connect 6 0 7 0;
#X connect 7 0 4 0;
#X connect 10 0 41 0;
#X connect 11 0 10 0;
#X connect 14 0 40 0;
#X connect 15 0 14 0;
#X connect 16 0 0 0;
#X connect 17 0 16 0;
#X connect 18 0 7 0;
#X connect 19 0 41 0;
#X connect 22 0 43 0;
#X connect 23 0 22 0;
#X connect 26 0 36 0;
#X connect 27 0 26 0;
#X connect 30 0 44 0;
#X connect 31 0 30 0;
#X connect 34 0 45 0;
#X connect 35 0 34 0;
#X connect 36 0 24 0;
#X connect 37 0 36 0;
#X connect 38 0 44 0;
#X connect 39 0 40 0;
#X connect 40 0 12 0;
#X connect 41 0 8 0;
#X connect 42 0 43 0;
#X connect 43 0 20 0;
#X connect 44 0 28 0;
#X connect 45 0 32 0;
#X connect 46 0 45 0;
#X connect 47 0 48 0;
#X connect 48 0 49 0;
#X connect 49 0 16 0;
#X connect 50 0 51 0;
#X connect 51 0 52 0;
#X connect 52 0 43 0;
#X connect 53 0 54 0;
#X connect 54 0 55 0;
#X connect 55 0 36 0;
#X connect 56 0 57 0;
#X connect 57 0 58 0;
#X connect 58 0 44 0;
#X connect 59 0 60 0;
#X connect 60 0 61 0;
#X connect 61 0 45 0;
#X connect 62 0 63 0;
#X connect 63 0 64 0;
#X connect 64 0 40 0;
#X connect 65 0 66 0;
#X connect 66 0 67 0;
#X connect 67 0 41 0;
#X connect 68 0 69 0;
#X connect 69 0 70 0;
#X connect 70 0 7 0;
#X restore 709 -253 pd memory_buffer;
#X obj 403 -588 i;
#X obj 429 -589 + 1;
#X msg 425 -611 0;
#X obj 353 -618 t b b;
#X obj 576 -169 s recorded_frames;
#X msg 492 -331 set \$1;
#X msg 491 -306 17;
#X obj 559 -589 s record-start;
#X obj 509 -540 s record-stop;
#X obj 547 -652 sel 0 1;
#X obj 562 -336 r record-stop;
#X obj 499 -279 i;
#X obj 554 -211 pack 0 0;
#X obj 613 -256 r bank;
#X msg 450 -520 resize \$1;
#X obj 316 -637 bng 15 250 50 0 empty empty empty 17 7 0 10 -262144
-1 -1;
#X obj 388 -159 pix_buffer_write seq0;
#X obj 353 -669 t f f b;
#X obj 445 -543 + 1;
#X obj 403 -564 t f f f;
#X obj 458 -455 s;
#X obj 470 -488 r buffer_name;
#X obj 359 -746 r record-start;
#X msg 424 -360 640 480;
#X floatatom 688 -480 5 0 0 0 - - -;
#X obj 688 -508 flow.value.changes gems.win/width;
#X floatatom 688 -425 5 0 0 0 - - -;
#X obj 688 -453 flow.value.changes gems.win/height;
#X obj 673 -393 pack 800 600;
#X msg 673 -367 \$1 \$2;
#X obj 689 -568 bng 15 250 50 0 empty empty empty 17 7 0 10 -262144
-1 -1;
#X obj 688 -542 t b b;
#X obj 827 194 s activate;
#X obj 830 162 s sequencer-play;
#X obj 101 122 cnv 15 698 182 empty empty empty 20 12 0 14 -1 -66577
0;
#X obj 144 159 cnv 15 64 35 empty empty empty 20 12 0 14 -1 -66577
0;
#X obj 158 166 bng 30 250 50 0 empty sel1 empty 0 -6 0 8 -1 -62783
-260818;
#X obj 222 158 cnv 15 64 35 empty empty empty 20 12 0 14 -1 -66577
0;
#X obj 243 169 bng 30 250 50 0 empty sel2 empty 0 -6 0 8 -1 -62783
-1;
#X obj 300 158 cnv 15 64 35 empty empty empty 20 12 0 14 -1 -66577
0;
#X obj 326 169 bng 30 250 50 0 empty sel3 empty 0 -6 0 8 -1 -62783
-1;
#X obj 410 169 bng 30 250 50 0 empty sel4 empty 0 -6 0 8 -1 -62783
-1;
#X obj 491 169 bng 30 250 50 0 empty sel5 empty 0 -6 0 8 -1 -62783
-1;
#X obj 575 169 bng 30 250 50 0 empty sel6 empty 0 -6 0 8 -1 -62783
-1;
#X obj 659 168 bng 30 250 50 0 empty sel7 empty 0 -6 0 8 -1 -62783
-1;
#X obj 746 168 bng 30 250 50 0 empty sel8 empty 0 -6 0 8 -1 -62783
-1;
#X obj 143 148 hradio 16 1 0 4 act1 empty empty 0 -6 0 8 -99865 -262144
-1 0;
#X obj 129 165 vradio 12 1 0 8 readbank1 preset empty 0 -6 0 8 -99865
-262144 -1 0;
#X obj 211 166 vradio 12 1 0 8 readbank2 preset empty 0 -6 0 8 -99865
-262144 -1 0;
#X obj 294 167 vradio 12 1 0 8 readbank3 preset empty 0 -6 0 8 -99865
-262144 -1 0;
#X obj 378 167 vradio 12 1 0 8 readbank4 preset empty 0 -6 0 8 -99865
-262144 -1 0;
#X obj 462 166 vradio 12 1 0 8 readbank5 preset empty 0 -6 0 8 -99865
-262144 -1 0;
#X obj 546 167 vradio 12 1 0 8 readbank6 preset empty 0 -6 0 8 -99865
-262144 -1 0;
#X obj 630 166 vradio 12 1 0 8 readbank7 preset empty 0 -6 0 8 -99865
-262144 -1 0;
#X obj 714 165 vradio 12 1 0 8 readbank8 preset empty 0 -6 0 8 -99865
-262144 -1 0;
#X obj 477 285 hradio 14 1 0 8 bank keybank empty 20 -6 0 10 -99865
-262144 -1 0;
#X obj 140 285 hradio 14 1 0 8 preset empty empty 20 -6 0 10 -99865
-262144 -1 0;
#X obj 225 148 hradio 16 1 0 4 act2 empty empty 0 -6 0 8 -99865 -262144
-1 0;
#X obj 308 148 hradio 16 1 0 4 act3 empty empty 0 -6 0 8 -99865 -262144
-1 0;
#X obj 391 149 hradio 16 1 0 4 act4 empty empty 0 -6 0 8 -99865 -262144
-1 0;
#X obj 477 148 hradio 16 1 0 4 act5 empty empty 0 -6 0 8 -99865 -262144
-1 0;
#X obj 562 148 hradio 16 1 0 4 act6 empty empty 0 -6 0 8 -99865 -262144
-1 0;
#X obj 644 148 hradio 16 1 0 4 act7 empty empty 0 -6 0 8 -99865 -262144
-1 0;
#X obj 730 147 hradio 16 1 0 4 act8 empty empty 0 -6 0 8 -99865 -262144
-1 0;
#X obj 10 154 loadbang;
#X obj 322 285 hradio 14 1 0 4 empty empty empty 0 -6 0 8 -99865 -262144
-1 0;
#X obj 101 101 cnv 15 698 20 empty empty Sequencer 20 12 0 14 -128992
-262144 0;
#X obj 142 202 mg 1 1;
#X obj 224 203 mg 1 1;
#X obj 307 203 mg 1 1;
#X obj 392 202 mg 1 1;
#X obj 475 202 mg 1 1;
#X obj 559 202 mg 1 1;
#X obj 643 200 mg 1 1;
#X obj 727 200 mg 1 1;
#X text 633 377 by Luca Carrubba - for gemq.info project - free to
share/modify/cannibalize as you want - www.estereotips.net // luca@estereotips.net
;
#X obj 161 125 cnv 15 1 1 empty empty Play-Stop-Random-Rewind 20 12
0 14 -1 -258113 0;
#X obj 101 140 cnv 15 1 1 empty empty |__ 20 12 0 14 -1 -258113 0;
#X obj 103 125 cnv 15 1 1 empty empty Actions: 20 12 0 14 -1 -258113
0;
#X obj 101 165 cnv 15 1 1 empty empty M 20 12 0 14 -1 -258113 0;
#X obj 101 178 cnv 15 1 1 empty empty E 20 12 0 14 -1 -258113 0;
#X obj 101 191 cnv 15 1 1 empty empty M 20 12 0 14 -1 -258113 0;
#X obj 101 204 cnv 15 1 1 empty empty O 20 12 0 14 -1 -258113 0;
#X obj 101 218 cnv 15 1 1 empty empty R 20 12 0 14 -1 -258113 0;
#X obj 101 232 cnv 15 1 1 empty empty Y 20 12 0 14 -1 -258113 0;
#X obj 131 264 cnv 15 1 1 empty empty Memory_Preset 20 12 0 14 -1 -258113
0;
#X obj 290 265 cnv 15 1 1 empty empty Action_Preset 20 12 0 14 -1 -258113
0;
#X obj 425 263 cnv 15 1 1 empty empty Memory_bank(where_record) 20
12 0 14 -1 -258113 0;
#X obj 670 284 tgl 14 0 empty empty empty -50 10 0 10 -258113 -1 -1
0 1;
#X obj 770 284 tgl 15 0 empty empty empty 17 7 0 10 -99865 -262144
-1 1 1;
#X obj 741 263 cnv 15 1 1 empty empty Start 20 12 0 14 -1 -258113 0
;
#X obj 735 -575 initbang;
#X obj 793 -565 loadbang;
#X obj 697 -723 inlet;
#X obj 637 264 cnv 15 1 1 empty empty Record_sample 20 12 0 14 -1 -258113
0;
#X obj 833 -25 route status record mPreset aPreset mBank step;
#X obj 537 -718 inlet;
#X obj 993 29 unpack f f f;
#X obj 978 140 gate 8;
#X obj 1006 92 pack f f f;
#X obj 991 60 t b f;
#X obj 978 160 unpack 0 0 0;
#X obj 1012 181 - 1;
#X obj 1048 180 - 1;
#X obj 991 200 unpack 0 0 0;
#X obj 1025 221 - 1;
#X obj 1061 220 - 1;
#X obj 1020 247 unpack 0 0 0;
#X obj 1054 268 - 1;
#X obj 1090 267 - 1;
#X obj 1066 293 unpack 0 0 0;
#X obj 1100 314 - 1;
#X obj 1136 313 - 1;
#X obj 1127 342 unpack 0 0 0;
#X obj 1161 363 - 1;
#X obj 1197 362 - 1;
#X obj 1140 382 unpack 0 0 0;
#X obj 1174 403 - 1;
#X obj 1210 402 - 1;
#X obj 1169 429 unpack 0 0 0;
#X obj 1203 450 - 1;
#X obj 1239 449 - 1;
#X obj 1215 475 unpack 0 0 0;
#X obj 1249 496 - 1;
#X obj 1285 495 - 1;
#X obj 785 100 cnv 15 15 15 empty empty empty 20 12 0 14 -4034 -66577
0;
#N canvas 0 0 693 300 readme 0;
#X msg 172 144 status \$1;
#X msg 172 124 record \$1;
#X msg 172 185 aPreset \$1;
#X msg 172 165 mPreset \$1;
#X msg 171 206 mBank \$1;
#X msg 170 227 step \$1 \$2 \$3;
#X text 180 89 Methods;
#X text 241 123 0 | 1 start and stop video sample recording;
#X text 239 143 0 | 1 start and stop video sequencer;
#X text 248 166 1...8 memory preset for all steps;
#X text 248 182 1...4 action preset for all steps;
#X text 244 205 1...8 set the memory where record;
#X text 266 225 step + memory + action \; set the memory to read and
the action for selected step;
#X restore 838 -690 pd readme;
#X obj 918 0 - 1;
#X obj 958 1 - 1;
#X obj 923 49 - 1;
#X obj 655 126 hsl 80 15 20 280 0 0 \$0-bpm \$0-bpm.rcv BPM 2 8 0 10
-128992 -262144 -258113 0 1;
#X obj 744 127 nbx 4 14 0 1e+37 0 0 empty empty empty 0 -8 0 10 -1
-262144 -258113 20 256;
#X obj 432 352 i;
#X obj 670 58 startbang;
#X msg 659 87 121;
#N canvas 262 46 739 200 bpm 0;
#X floatatom 287 12 5 0 0 0 - - -;
#N canvas 343 157 463 273 bpm 0;
#X obj 55 89 expr (60000/$f1);
#X obj 55 113 / 1;
#X text 96 49 input in BPM;
#X obj 55 52 inlet;
#X floatatom 85 139 5 0 0 0 - - metro;
#X floatatom 322 50 5 0 0 0 - - -;
#X floatatom 34 140 5 0 0 0 - - -;
#X obj 53 167 outlet;
#X connect 0 0 1 0;
#X connect 1 0 4 0;
#X connect 1 0 7 0;
#X connect 3 0 0 0;
#X connect 5 0 0 0;
#X connect 6 0 7 0;
#X restore 285 29 pd bpm converter;
#X obj 215 55 metro 100;
#X msg 234 29 1;
#X obj 287 -10 r \$0-bpm;
#X obj 223 -9 startbang;
#X floatatom 331 91 5 0 0 0 - - -;
#X obj 232 100 outlet;
#X connect 0 0 1 0;
#X connect 1 0 2 1;
#X connect 1 0 6 0;
#X connect 3 0 2 0;
#X connect 4 0 0 0;
#X connect 5 0 3 0;
#X connect 6 0 7 0;
#X restore 714 -150 pd bpm;
#X connect 0 0 101 0;
#X connect 1 0 100 0;
#X connect 2 0 107 0;
#X connect 3 0 106 0;
#X connect 4 0 102 0;
#X connect 5 0 104 0;
#X connect 6 0 105 0;
#X connect 7 0 103 0;
#X connect 11 0 13 0;
#X connect 14 0 49 1;
#X connect 15 0 22 0;
#X connect 16 0 17 0;
#X connect 17 0 22 0;
#X connect 17 1 18 0;
#X connect 18 0 16 1;
#X connect 19 0 22 0;
#X connect 19 1 16 0;
#X connect 20 0 50 0;
#X connect 21 0 19 0;
#X connect 22 0 49 0;
#X connect 23 0 18 0;
#X connect 23 1 14 0;
#X connect 24 0 36 0;
#X connect 25 0 56 0;
#X connect 27 0 29 0;
#X connect 28 0 27 0;
#X connect 30 0 31 0;
#X connect 31 0 49 0;
#X connect 33 0 34 0;
#X connect 33 0 52 0;
#X connect 34 0 33 1;
#X connect 35 0 33 1;
#X connect 36 0 33 0;
#X connect 38 0 39 0;
#X connect 39 0 44 0;
#X connect 42 0 41 0;
#X connect 43 0 39 0;
#X connect 44 0 45 0;
#X connect 45 0 37 0;
#X connect 46 0 45 1;
#X connect 47 0 53 0;
#X connect 48 0 36 0;
#X connect 50 0 24 0;
#X connect 50 1 21 0;
#X connect 50 2 35 0;
#X connect 51 0 47 0;
#X connect 52 0 23 0;
#X connect 52 1 38 0;
#X connect 52 2 51 0;
#X connect 54 0 53 1;
#X connect 55 0 20 0;
#X connect 56 0 22 2;
#X connect 57 0 61 0;
#X connect 58 0 57 0;
#X connect 58 1 57 0;
#X connect 59 0 61 1;
#X connect 60 0 59 0;
#X connect 60 1 59 0;
#X connect 61 0 62 0;
#X connect 62 0 22 2;
#X connect 63 0 64 0;
#X connect 64 0 58 0;
#X connect 64 1 60 0;
#X connect 69 0 80 0;
#X connect 71 0 81 0;
#X connect 73 0 82 0;
#X connect 74 0 83 0;
#X connect 75 0 84 0;
#X connect 76 0 85 0;
#X connect 77 0 86 0;
#X connect 78 0 87 0;
#X connect 97 0 88 0;
#X connect 98 0 79 0;
#X connect 98 0 90 0;
#X connect 98 0 91 0;
#X connect 98 0 92 0;
#X connect 98 0 93 0;
#X connect 98 0 94 0;
#X connect 98 0 95 0;
#X connect 98 0 96 0;
#X connect 121 0 42 0;
#X connect 121 0 20 0;
#X connect 122 0 65 0;
#X connect 122 0 66 0;
#X connect 124 0 63 0;
#X connect 125 0 63 0;
#X connect 126 0 128 0;
#X connect 128 0 122 0;
#X connect 128 1 121 0;
#X connect 128 2 160 0;
#X connect 128 3 161 0;
#X connect 128 4 162 0;
#X connect 128 5 130 0;
#X connect 130 0 133 0;
#X connect 130 1 132 1;
#X connect 130 2 132 2;
#X connect 131 0 134 0;
#X connect 131 1 137 0;
#X connect 131 2 140 0;
#X connect 131 3 143 0;
#X connect 131 4 146 0;
#X connect 131 5 149 0;
#X connect 131 6 152 0;
#X connect 131 7 155 0;
#X connect 132 0 131 1;
#X connect 133 0 132 0;
#X connect 133 1 131 0;
#X connect 134 1 135 0;
#X connect 134 2 136 0;
#X connect 135 0 80 0;
#X connect 136 0 79 0;
#X connect 137 1 138 0;
#X connect 137 2 139 0;
#X connect 138 0 81 0;
#X connect 139 0 90 0;
#X connect 140 1 141 0;
#X connect 140 2 142 0;
#X connect 141 0 82 0;
#X connect 142 0 91 0;
#X connect 143 1 144 0;
#X connect 143 2 145 0;
#X connect 144 0 83 0;
#X connect 145 0 92 0;
#X connect 146 1 147 0;
#X connect 146 2 148 0;
#X connect 147 0 84 0;
#X connect 148 0 93 0;
#X connect 149 1 150 0;
#X connect 149 2 151 0;
#X connect 150 0 85 0;
#X connect 151 0 94 0;
#X connect 152 1 153 0;
#X connect 152 2 154 0;
#X connect 153 0 86 0;
#X connect 154 0 95 0;
#X connect 155 1 156 0;
#X connect 155 2 157 0;
#X connect 156 0 87 0;
#X connect 157 0 96 0;
#X connect 160 0 89 0;
#X connect 161 0 98 0;
#X connect 162 0 88 0;
#X connect 163 0 165 0;
#X connect 165 0 164 0;
#X connect 166 0 167 0;
#X connect 167 0 163 0;
#X connect 168 0 9 0;
#X coords 0 -1 1 1 700 205 2 100 100;
