#N canvas 0 0 618 555 10;
#X obj -18 24 cnv 15 600 25 empty empty PantaliQa_module_info 20 12
0 14 -233017 -66577 0;
#X text -1 84 Description:;
#X text 0 147 Methods:;
#X text 1 332 Outlets:;
#X text -1 274 Inlets:;
#X text -2 67 Category:;
#X text 73 295 method message;
#X text 75 333 1 video stream;
#X obj -16 448 cnv 15 600 25 empty empty Credits 20 12 0 14 -233017
-66577 0;
#X text 60 68 Effect \;;
#X obj 419 90 cnv 15 158 89 empty empty empty 20 12 0 14 -1 -66577
0;
#X obj 419 165 cnv 15 15 15 empty empty empty 20 12 0 14 -260097 -66577
0;
#X obj 419 69 cnv 15 158 20 empty empty Freeframe 20 12 0 14 -128992
-262144 0;
#X obj 541 141 tgl 15 0 \$0-status \$0-status.rcv On/Off -10 23 0 10
-128992 -262144 -258113 0 1;
#X obj 444 141 hsl 80 15 0 1 0 0 \$0-range \$0-range.rcv Range 2 8
0 10 -128992 -262144 -258113 0 1;
#X obj 440 109 popup 124 25 #005252 select_effect BackLight Bloom Burn
Chromium Overlay DirBlur Dodge Exclusion fishEye GausBlur Glow Kaleidoscope
LumaOffset PanSpinZoom Posterize RectDistort Slide Smear Solarize Squash
Noise Stretch Tile TimeSlice TimeWarp;
#X obj 562 70 cnv 15 15 15 empty empty empty 20 12 0 14 -4034 -66577
0;
#X obj 418 69 cnv 15 15 15 empty empty empty 20 12 0 14 -260097 -66577
0;
#X text 78 84 Collection of 25 freeframe effect by Pete Warden;
#X msg 80 150 status \$1;
#X msg 78 182 range \$1;
#X msg 79 211 effect \$1;
#X text 72 276 Video stream;
#X text 143 149 turn on/off the effect \; [0 | 1];
#X text 146 179 param for range slider \; [0 - 1];
#X text 150 208 choose effect \; [0 - 24];
#X text -2 476 by Luca Carrubba and Luca Franceschini for pantaliQa
project. hardly based on pix_freeframe object from Gem and pete warden
freeframe free plugins - free to share/modify/cannibalize as you want
- www.estereotips.net // info@estereotips.net;
