#N canvas 0 0 600 551 10;
#X obj 2 44 cnv 15 600 25 empty empty PantaliQa_module_info 20 12 0
14 -233017 -66577 0;
#X text 19 104 Description:;
#X text 20 167 Methods:;
#X text 21 352 Outlets:;
#X text 19 294 Inlets:;
#X text 18 87 Category:;
#X text 93 315 method message;
#X text 95 353 1 video stream;
#X obj 4 468 cnv 15 600 25 empty empty Credits 20 12 0 14 -233017 -66577
0;
#X text 80 88 Effect \;;
#X msg 100 170 status \$1;
#X text 92 296 Video stream;
#X text 163 169 turn on/off the effect \; [0 | 1];
#X obj 447 98 cnv 15 148 50 empty empty empty 20 12 0 14 -1 -66577
0;
#X obj 447 133 cnv 15 15 15 empty empty empty 20 12 0 14 -260097 -66577
0;
#X obj 447 77 cnv 15 148 20 empty empty VideoDelay 20 12 0 14 -128992
-262144 0;
#X obj 581 77 cnv 15 15 15 empty empty empty 20 12 0 14 -4034 -66577
0;
#X obj 447 77 cnv 15 10 10 empty empty VideoDelay 20 12 0 14 -128992
-262144 0;
#X obj 447 77 cnv 15 15 15 empty empty empty 20 12 0 14 -260097 -66577
0;
#X obj 471 108 hsl 80 15 3000 10 0 0 \$0-delay \$0-delay.rcv Delay
2 8 0 10 -128992 -262144 -258113 0 1;
#X obj 557 108 tgl 15 0 \$0-status \$0-status.rcv On/Off -10 23 0 10
-128992 -262144 -258113 0 1;
#X text 98 104 Video delay effect;
#X text 166 199 param for delay slider \; [0 - 1];
#X text 18 496 by Luca Carrubba and Luca Franceschini for pantaliQa
project. hardly based on pix_delay object from Gem - free to share/modify/cannibalize
as you want - www.estereotips.net // info@estereotips.net;
#X msg 98 202 delay \$1;
