#N canvas 430 78 478 167 10;
#N canvas 131 82 542 372 (subpatch) 0;
#X obj 2 2 cnv 15 465 75 empty empty empty 20 12 0 14 -159808 -66577
0;
#X obj 27 331 s;
#X obj 74 286 symbol;
#X msg 76 265 \$1-sizeX;
#X obj 5 55 hsl 128 15 0 1 0 0 empty empty sizeY -2 -8 0 10 -1 -262144
-1 0 1;
#X obj 145 284 symbol;
#X msg 147 263 \$1-sizeY;
#X obj 5 26 hsl 128 15 0 1 0 0 empty empty sizeX -2 -8 0 10 -1 -262144
-1 0 1;
#X obj 146 25 hsl 128 15 0 1 0 0 empty empty positionX -2 -8 0 10 -1
-262144 -1 0 1;
#X obj 143 56 hsl 128 15 0 1 0 0 empty empty positionY -2 -8 0 10 -1
-262144 -1 0 1;
#X obj 283 31 nbx 3 30 0 1e+37 0 0 empty empty Selected_Area_Number
0 -8 0 10 -1 -258113 -1 0 256;
#X obj 211 282 symbol;
#X obj 282 280 symbol;
#X msg 213 261 \$1-posX;
#X msg 284 259 \$1-posY;
#X obj 3 82 t f b;
#X obj 67 79 t f b;
#X obj 145 78 t f b;
#X obj 212 82 t f b;
#X obj 108 343 print;
#X obj 33 105 f;
#X obj 94 104 f;
#X obj 177 106 f;
#X obj 238 105 f;
#X connect 2 0 1 1;
#X connect 3 0 2 0;
#X connect 4 0 16 0;
#X connect 5 0 1 1;
#X connect 6 0 5 0;
#X connect 7 0 15 0;
#X connect 8 0 17 0;
#X connect 9 0 18 0;
#X connect 10 0 20 1;
#X connect 10 0 21 1;
#X connect 10 0 22 1;
#X connect 10 0 23 1;
#X connect 11 0 1 1;
#X connect 12 0 1 1;
#X connect 13 0 11 0;
#X connect 14 0 12 0;
#X connect 15 0 1 0;
#X connect 15 1 20 0;
#X connect 16 0 1 0;
#X connect 16 1 21 0;
#X connect 17 0 1 0;
#X connect 17 1 22 0;
#X connect 18 0 1 0;
#X connect 18 1 23 0;
#X connect 20 0 3 0;
#X connect 21 0 6 0;
#X connect 22 0 13 0;
#X connect 23 0 14 0;
#X coords 0 1 100 -1 470 80 1 0 0;
#X restore -67 34 graph;
#N canvas 344 274 735 373 (subpatch) 0;
#X obj 2 2 cnv 15 465 75 empty empty empty 20 12 0 14 -159808 -66577
0;
#X obj 19 30 tgl 30 0 empty empty ON/OFF 0 -7 0 10 -1 -258113 -258113
0 1;
#X obj 143 40 cnv 20 140 20 empty empty Connection_settings 0 -25 0
16 -1 -258113 0;
#X obj 113 131 bng 15 250 50 0 clear empty Clear 17 7 0 10 -262144
-1 -1;
#X obj 63 105 tgl 15 0 visualizza empty visualizza_rect 17 7 0 10 -262144
-1 -1 0 1;
#X obj 57 39 tgl 20 0 empty empty vis 0 -7 0 10 -1 -258113 -258113
0 1;
#X obj 96 38 bng 20 250 50 0 empty empty clear -5 -5 0 10 -1 -258113
-258113;
#X obj 49 220 gemwin;
#X msg 34 196 create \, 1;
#X msg 53 167 destroy;
#X msg 118 200 reset;
#X obj 10 164 sel 0 1;
#N canvas 559 142 450 300 mouse 0;
#X floatatom 101 213 5 0 0 0 - - -;
#X floatatom 141 211 5 0 0 0 - - -;
#X obj 213 134 sel 1;
#X obj 97 237 s Xmouse;
#X obj 150 238 s Ymouse;
#X obj 212 159 s Pmouse;
#X obj 240 179 s Rmouse;
#X obj 119 -21 loadbang;
#X msg 111 10 load 0 1;
#X obj 87 31 autoscale 60 640;
#X obj 266 -32 loadbang;
#X msg 258 -1 load 0 1;
#X obj 231 20 autoscale 3.61 -3.5;
#X obj 173 -27 gemmouse 1 1;
#X connect 0 0 3 0;
#X connect 1 0 4 0;
#X connect 2 0 5 0;
#X connect 2 1 6 0;
#X connect 7 0 8 0;
#X connect 8 0 9 0;
#X connect 9 0 0 0;
#X connect 10 0 11 0;
#X connect 11 0 12 0;
#X connect 12 0 1 0;
#X connect 13 0 9 0;
#X connect 13 1 12 0;
#X connect 13 2 2 0;
#X restore 487 -67 pd mouse;
#N canvas 572 212 450 300 seg 0;
#X restore 502 -25 pd seg;
#N canvas 480 119 450 300 cam 0;
#X obj 130 26 pix_video;
#X obj 129 89 pix_rgba;
#X obj 110 186 s data1;
#X msg 214 19 dialog;
#X obj 129 5 gemhead 10;
#X obj 126 117 separator;
#X floatatom 233 243 4 0 0 1 width - -;
#X floatatom 243 225 4 0 0 1 height - -;
#X floatatom 253 207 4 0 0 1 bytes/pixel - -;
#X floatatom 263 190 5 0 0 1 coulorspace - -;
#X obj 213 158 pix_info . . . .;
#X obj 88 236 pix_texture;
#X obj 212 270 s camW;
#X obj 250 265 s camH;
#X obj 89 256 rectangle 4 4;
#X obj 128 148 t a a;
#X connect 0 0 10 0;
#X connect 1 0 5 0;
#X connect 3 0 0 0;
#X connect 4 0 0 0;
#X connect 5 0 15 0;
#X connect 6 0 12 0;
#X connect 7 0 13 0;
#X connect 10 0 1 0;
#X connect 10 1 6 0;
#X connect 10 2 7 0;
#X connect 10 3 8 0;
#X connect 10 4 9 0;
#X connect 11 0 14 0;
#X connect 15 0 2 0;
#X connect 15 1 11 0;
#X restore 487 -84 pd cam;
#N canvas 434 24 602 431 dyn-Seg-creation 0;
#X obj 156 341 s pd-seg;
#X obj 163 110 i;
#X obj 195 110 + 20;
#X msg 185 83 0;
#X obj 187 60 loadbang;
#X obj 138 54 t b b;
#X obj 251 121 i;
#X obj 283 121 + 1;
#X msg 264 94 1;
#X obj 224 202 r Xmouse;
#X obj 279 199 r Ymouse;
#X obj 156 239 pack 0 0 0 0 0;
#X msg 180 320 vis 1 \, selectall \, clear \, vis 0;
#X obj 180 298 loadbang;
#X obj 236 280 r clear;
#X obj 235 33 r clear;
#X obj 134 25 r Rmouse;
#X msg 156 260 obj 10 \$2 segmentM \$3 \$4 \$5;
#X connect 1 0 2 0;
#X connect 1 0 11 1;
#X connect 2 0 1 1;
#X connect 3 0 1 1;
#X connect 4 0 3 0;
#X connect 4 0 8 0;
#X connect 5 0 11 0;
#X connect 5 1 1 0;
#X connect 5 1 6 0;
#X connect 6 0 7 0;
#X connect 6 0 11 2;
#X connect 7 0 6 1;
#X connect 8 0 6 1;
#X connect 9 0 11 3;
#X connect 10 0 11 4;
#X connect 11 0 17 0;
#X connect 12 0 0 0;
#X connect 13 0 12 0;
#X connect 14 0 12 0;
#X connect 15 0 3 0;
#X connect 15 0 8 0;
#X connect 16 0 5 0;
#X connect 17 0 0 0;
#X restore 424 -44 pd dyn-Seg-creation;
#N canvas 0 233 697 477 sender 0;
#X msg 289 121 disconnect;
#X obj 172 211 tgl 15 0 empty empty 1=connected 20 8 0 8 -4034 -257985
-1 0 1;
#X floatatom 222 98 5 0 0 0 - - -;
#X text 229 189 see:;
#X obj 175 48 r oscMsg;
#X obj 176 69 mrpeach/packOSC;
#X obj 176 170 mrpeach/udpsend;
#X msg 423 199 connect \$1 \$2;
#X obj 294 58 inlet;
#X obj 183 250 outlet;
#X obj 95 151 print;
#X msg 294 270 connect 127.0.0.1 5978;
#X obj 419 81 bng 15 250 50 0 empty empty empty 17 7 0 10 -262144 -1
-1;
#X msg 419 153 connect \$2 \$3;
#X obj 423 127 pack f s f;
#X obj 447 80 r \$0-ip;
#X obj 481 105 r \$0-port;
#X obj 418 4 inlet;
#X connect 0 0 6 0;
#X connect 1 0 9 0;
#X connect 4 0 5 0;
#X connect 5 0 6 0;
#X connect 5 1 2 0;
#X connect 6 0 1 0;
#X connect 7 0 6 0;
#X connect 7 0 10 0;
#X connect 8 0 0 0;
#X connect 11 0 6 0;
#X connect 12 0 14 0;
#X connect 13 0 6 0;
#X connect 14 0 13 0;
#X connect 15 0 14 1;
#X connect 16 0 14 2;
#X connect 17 0 12 0;
#X restore 338 166 pd sender;
#X symbolatom 150 42 20 0 0 2 - - #0-ip;
#X obj 302 -69 loadbang;
#X obj 287 40 nbx 6 21 0 9999 0 0 empty empty PORT 0 -8 0 10 -1 -258113
-258113 9997 256;
#X obj 172 59 cnv 15 1 1 empty empty IP 0 -25 0 10 -1 -258113 0;
#X obj 368 42 tgl 20 0 empty empty connect -15 -7 0 10 -1 -258113 -258113
0 1;
#X obj 428 35 tgl 30 0 empty empty STATE 0 -7 0 10 -1 -4034 -4034 0
1;
#X msg 140 -30 symbol 127.0.0.1;
#X obj 226 -3 bng 15 250 50 0 empty empty empty 17 7 0 10 -262144 -1
-1;
#X obj 389 102 sel 0;
#X msg 301 -36 9997;
#X obj 278 75 s \$0-port;
#X connect 1 0 11 0;
#X connect 5 0 4 0;
#X connect 6 0 3 0;
#X connect 8 0 7 0;
#X connect 9 0 7 0;
#X connect 10 0 7 0;
#X connect 11 0 9 0;
#X connect 11 1 8 0;
#X connect 16 0 22 0;
#X connect 18 0 26 0;
#X connect 18 0 23 0;
#X connect 19 0 27 0;
#X connect 21 0 25 0;
#X connect 23 0 17 0;
#X connect 24 0 17 0;
#X connect 25 0 16 0;
#X connect 25 1 16 1;
#X connect 26 0 19 0;
#X coords 0 1 100 -1 470 80 1 0 0;
#X restore -67 -47 graph;
