#N canvas 0 24 1009 501 10;
#X floatatom 569 -68 5 0 0 1 grandezzaX - -;
#X floatatom 731 -64 5 0 0 1 grandezzaY - -;
#X floatatom 467 -68 5 0 0 1 posizioneX - -;
#X obj 455 317 translateXYZ;
#X obj 552 633 r camW;
#X msg 550 653 load 0 \$1;
#X obj 623 146 r camW;
#X msg 584 168 load 0 \$1;
#X obj 596 51 / 2;
#X obj 583 73 -;
#X obj 572 -49 t b f;
#X obj 570 -30 s \$0-offx-bang;
#X obj 474 -94 r \$0-offx-bang;
#N canvas 455 49 450 300 control 0;
#X obj 195 99 sel 1;
#X obj 193 79 > 0;
#X obj 218 39 r camW;
#X msg 233 150 set \$1;
#X msg 199 149 640;
#X obj 219 57 t f f;
#X obj 197 121 t b;
#X obj 191 14 inlet;
#X obj 198 193 outlet;
#X connect 0 0 6 0;
#X connect 1 0 0 0;
#X connect 2 0 5 0;
#X connect 3 0 4 0;
#X connect 4 0 8 0;
#X connect 5 0 1 1;
#X connect 5 1 3 0;
#X connect 6 0 4 0;
#X connect 7 0 1 0;
#X restore 393 -68 pd control;
#X text 386 -84 posizioneX;
#X obj 583 -1 s \$0-dimeX;
#N canvas 529 130 450 300 adaptacion 0;
#X floatatom 69 153 5 0 0 0 - - -;
#X obj 109 129 < 0;
#X obj 111 149 sel 1;
#X obj 72 128 f;
#X obj 113 171 t b b;
#X obj 85 82 inlet;
#X obj 123 99 / 2;
#X msg 106 201 30;
#X msg 141 198 set \$1;
#X obj 167 153 bng 15 250 50 0 empty empty empty 17 7 0 10 -262144
-1 -1;
#X obj 123 77 r \$0-dimeX;
#X obj 58 192 outlet;
#X connect 0 0 11 0;
#X connect 1 0 2 0;
#X connect 2 0 4 0;
#X connect 2 1 9 0;
#X connect 3 0 0 0;
#X connect 4 0 3 0;
#X connect 4 1 7 0;
#X connect 5 0 3 1;
#X connect 5 0 1 0;
#X connect 6 0 1 1;
#X connect 6 0 8 0;
#X connect 7 0 3 1;
#X connect 8 0 7 0;
#X connect 9 0 3 0;
#X connect 10 0 6 0;
#X restore 588 130 pd adaptacion;
#X obj 601 107 -;
#X obj 427 132 r \$0-dimeX;
#X obj 530 616 r \$0-dimeX;
#X obj 488 123 r \$0-dimeY;
#X floatatom 674 123 5 0 0 0 - - -;
#X obj 871 701 -;
#X obj 853 649 last_n 2;
#X obj 856 678 unpack 0 0;
#X obj 883 746 -;
#X obj 785 745 f;
#X obj 871 724 t b f;
#X floatatom 855 -65 5 0 0 1 posizioneY - -;
#X obj 774 314 t f f;
#X obj 879 774 s \$0-Ytranslate;
#X obj 849 -94 r \$0-Ytranslate;
#X msg 662 623 load 0 \$1;
#X obj 760 -30 s \$0-dimeY;
#X obj 625 579 r \$0-dimeY;
#X obj 667 599 r camH;
#X floatatom 930 -12 5 0 0 0 - - -;
#X obj 755 29 / 2;
#X obj 742 56 -;
#X msg 856 -3 load 4 -4;
#X floatatom 675 222 5 0 0 0 - - -;
#X msg 668 -107 60;
#X obj 553 -238 f \$1;
#X obj 671 -284 initbang;
#X msg 772 569 send /segment/\$1 bang;
#X obj 771 545 f;
#X obj 778 592 s oscMsg;
#X obj 606 -167 t b b;
#X obj 481 551 alpha;
#X obj 530 540 tgl 15 0 empty empty empty 17 7 0 10 -262144 -1 -1 0
1;
#X msg 576 548 0;
#X obj 579 520 initbang;
#X obj 480 575 pix_texture;
#X obj 523 768 pix_mean_color;
#X obj 523 845 +;
#X obj 538 824 +;
#X obj 523 800 unpack f f f;
#X floatatom 523 888 5 0 0 0 - - -;
#X obj 523 866 / 3;
#X obj 484 517 colorRGB 1 0 0;
#X obj 523 747 pix_movement 0.9;
#X obj 498 1017 sel 1;
#X obj 499 1046 bng 15 250 50 0 empty empty empty 17 7 0 10 -262144
-1 -1;
#X obj 525 911 last_n 2;
#X obj 493 958 distance;
#X obj 526 931 unpack 0 0;
#X obj 496 978 * 10;
#X obj 496 998 > 0.3;
#X obj 543 1041 s \$0-m_detect;
#X obj 732 440 r \$0-m_detect;
#X obj 575 -124 f \$2;
#X obj 434 56 r data1;
#X obj 415 80 separator;
#X obj 678 -162 initbang;
#X obj 610 -125 f \$3;
#X obj 674 -129 del 50;
#X obj 588 -203 del 150;
#X obj 855 -28 initbang;
#X obj 461 206 pix_crop;
#X obj 487 724 rectangle 4 0.6;
#X obj 531 674 autoscaleMod 0 4;
#X obj 634 645 autoscaleMod 0 4;
#X obj 584 190 autoscaleMod -4 4;
#X obj 853 26 autoscaleMod 480 0;
#N canvas 0 0 450 300 localReciver 0;
#X obj 207 -29 iem_receive;
#X msg 203 -67 set \$1-posX;
#X obj 209 -3 autoscaleMod 0 640;
#X msg 276 -27 load 0 1;
#X obj 276 -47 initbang;
#X obj 224 -114 inlet;
#X obj 226 23 outlet;
#X connect 0 0 2 0;
#X connect 1 0 0 0;
#X connect 2 0 6 0;
#X connect 3 0 2 0;
#X connect 4 0 3 0;
#X connect 5 0 1 0;
#X restore 387 -127 pd localReciver;
#N canvas 572 24 450 300 localReciver 0;
#X obj 207 -29 iem_receive;
#X obj 209 -3 autoscaleMod 0 640;
#X msg 276 -27 load 0 1;
#X obj 276 -47 initbang;
#X obj 224 -114 inlet;
#X obj 226 23 outlet;
#X msg 203 -67 set \$1-sizeX;
#X connect 0 0 1 0;
#X connect 1 0 5 0;
#X connect 2 0 1 0;
#X connect 3 0 2 0;
#X connect 4 0 6 0;
#X connect 6 0 0 0;
#X restore 664 -199 pd localReciver;
#X floatatom 614 703 5 0 0 0 - - -;
#N canvas 572 24 450 300 localReciver 0;
#X obj 207 -29 iem_receive;
#X msg 276 -27 load 0 1;
#X obj 276 -47 initbang;
#X obj 224 -114 inlet;
#X obj 226 23 outlet;
#X obj 209 -3 autoscaleMod 0 480;
#X msg 203 -67 set \$1-sizeY;
#X connect 0 0 5 0;
#X connect 1 0 5 0;
#X connect 2 0 1 0;
#X connect 3 0 6 0;
#X connect 5 0 4 0;
#X connect 6 0 0 0;
#X restore 747 -155 pd localReciver;
#N canvas 572 24 450 300 localReciver 0;
#X obj 207 -29 iem_receive;
#X msg 276 -27 load 0 1;
#X obj 276 -47 initbang;
#X obj 224 -114 inlet;
#X obj 226 23 outlet;
#X obj 209 -3 autoscaleMod 4 -4;
#X msg 203 -65 set \$1-posY;
#X connect 0 0 5 0;
#X connect 1 0 5 0;
#X connect 2 0 1 0;
#X connect 3 0 6 0;
#X connect 5 0 4 0;
#X connect 6 0 0 0;
#X restore 844 -155 pd localReciver;
#X obj 248 -51 gemhead;
#X obj 248 -1 alpha;
#X obj 247 -28 colorRGB 1 1 1 0.7;
#X obj 246 68 text3d;
#X obj 249 -74 r visualizza;
#X msg 292 67 7;
#X obj 248 32 translateXYZ;
#X msg 339 52 text \$1;
#X obj 309 143 initbang;
#X floatatom 568 1001 5 0 0 0 - - -;
#X connect 0 0 10 0;
#X connect 1 0 37 0;
#X connect 1 0 78 2;
#X connect 1 0 33 0;
#X connect 2 0 9 0;
#X connect 2 0 13 0;
#X connect 3 0 59 0;
#X connect 4 0 5 0;
#X connect 5 0 80 0;
#X connect 6 0 7 0;
#X connect 7 0 82 0;
#X connect 8 0 9 1;
#X connect 8 0 17 1;
#X connect 9 0 16 0;
#X connect 9 0 17 0;
#X connect 10 0 11 0;
#X connect 10 1 8 0;
#X connect 10 1 15 0;
#X connect 12 0 2 0;
#X connect 13 0 2 0;
#X connect 16 0 82 0;
#X connect 17 0 21 0;
#X connect 17 0 78 3;
#X connect 18 0 78 1;
#X connect 19 0 80 0;
#X connect 20 0 78 2;
#X connect 22 0 27 0;
#X connect 23 0 24 0;
#X connect 24 0 22 0;
#X connect 24 1 22 1;
#X connect 25 0 30 0;
#X connect 26 0 25 0;
#X connect 27 0 26 0;
#X connect 27 1 25 1;
#X connect 28 0 29 0;
#X connect 28 0 83 0;
#X connect 29 0 3 2;
#X connect 29 0 95 2;
#X connect 29 1 26 1;
#X connect 31 0 28 0;
#X connect 32 0 81 0;
#X connect 34 0 81 0;
#X connect 35 0 32 0;
#X connect 36 0 83 0;
#X connect 37 0 38 1;
#X connect 38 0 40 0;
#X connect 39 0 83 0;
#X connect 40 0 78 4;
#X connect 41 0 0 0;
#X connect 41 0 1 0;
#X connect 42 0 45 1;
#X connect 42 0 84 0;
#X connect 42 0 85 0;
#X connect 42 0 87 0;
#X connect 42 0 88 0;
#X connect 42 0 96 0;
#X connect 43 0 42 0;
#X connect 43 0 76 0;
#X connect 44 0 46 0;
#X connect 45 0 44 0;
#X connect 47 0 70 0;
#X connect 47 1 74 0;
#X connect 48 0 52 0;
#X connect 49 0 48 0;
#X connect 50 0 49 0;
#X connect 51 0 50 0;
#X connect 52 0 79 0;
#X connect 53 1 56 0;
#X connect 54 0 58 0;
#X connect 55 0 54 1;
#X connect 56 0 54 0;
#X connect 56 1 55 0;
#X connect 56 2 55 1;
#X connect 57 0 63 0;
#X connect 58 0 57 0;
#X connect 59 0 48 0;
#X connect 60 0 53 0;
#X connect 61 0 62 0;
#X connect 62 0 68 0;
#X connect 63 0 65 0;
#X connect 64 0 66 0;
#X connect 65 0 64 0;
#X connect 65 1 64 1;
#X connect 66 0 67 0;
#X connect 67 0 61 0;
#X connect 67 0 98 0;
#X connect 69 0 45 0;
#X connect 70 0 2 0;
#X connect 71 0 72 0;
#X connect 72 0 78 0;
#X connect 73 0 75 0;
#X connect 74 0 28 0;
#X connect 75 0 41 0;
#X connect 76 0 47 0;
#X connect 77 0 39 0;
#X connect 78 0 3 0;
#X connect 79 0 60 0;
#X connect 80 0 79 1;
#X connect 81 0 86 0;
#X connect 82 0 3 1;
#X connect 82 0 95 1;
#X connect 83 0 38 0;
#X connect 84 0 2 0;
#X connect 85 0 0 0;
#X connect 86 0 79 2;
#X connect 86 0 23 0;
#X connect 87 0 1 0;
#X connect 88 0 28 0;
#X connect 89 0 91 0;
#X connect 90 0 95 0;
#X connect 91 0 90 0;
#X connect 93 0 89 0;
#X connect 94 0 92 1;
#X connect 95 0 92 0;
#X connect 96 0 92 0;
#X connect 97 0 94 0;
