#N canvas 237 125 450 300 10;
#X obj 54 45 pack f s s;
#X obj 153 4 symbol \$1;
#X obj 142 28 symbol \$2;
#X msg 54 74 /\$2/\$3 \$1;
#X obj 142 -25 initbang;
#X obj 54 -7 r \$4-\$2;
#X obj 54 105 s \$3-OSCout;
#X text 216 1 osc prefix;
#X text 209 26 var name;
#X connect 0 0 3 0;
#X connect 1 0 0 1;
#X connect 2 0 0 2;
#X connect 3 0 6 0;
#X connect 4 0 1 0;
#X connect 4 0 2 0;
#X connect 5 0 0 0;
