#N canvas 117 117 410 570 10;
#X obj -181 -176 textfile;
#X msg -121 -241 rewind;
#X obj -181 -150 list split 4;
#X obj -147 -119 list trim;
#X obj -113 -35 list split 2;
#X obj -147 -65 list split 4;
#X obj -147 -89 route bng tgl vsl hsl vradio hradio;
#X obj -44 -64 list split 6;
#X obj -9 -35 list split 4;
#X obj -79 2 route empty;
#X obj -16 55 list trim;
#X obj -16 29 list split 2;
#X obj -16 78 unpack s s;
#X obj -140 -324 inlet;
#X obj -140 -270 t b b a;
#X obj -181 -223 metro 10;
#X msg -222 -241 0;
#X msg -181 -253 1;
#X obj -140 -298 symbol;
#X obj -79 215 print NOT_PARSED;
#N canvas 948 374 558 154 cutdollarzero 0;
#X obj 30 32 inlet;
#X obj 30 59 iemlib/splitfilename $;
#X obj 466 130 outlet;
#X text 174 59 cut the dollar;
#X text 303 83 cut the zero;
#X text 29 10 sanity check (MANDATORY: var names have to start with
'\$0-');
#X obj 337 102 iemlib/splitfilename -;
#X text 478 100 cut the '-';
#X obj 159 85 iemlib/splitfilename 0;
#X connect 0 0 1 0;
#X connect 1 1 8 0;
#X connect 6 1 2 0;
#X connect 8 1 6 0;
#X restore 41 108 pd cutdollarzero;
#X obj -16 190 outlet;
#X obj 41 191 outlet;
#N canvas 948 374 558 154 cutdollarzero 0;
#X obj 30 32 inlet;
#X obj 30 59 iemlib/splitfilename $;
#X obj 466 130 outlet;
#X text 174 59 cut the dollar;
#X text 303 83 cut the zero;
#X text 29 10 sanity check (MANDATORY: var names have to start with
'\$0-');
#X obj 337 102 iemlib/splitfilename -;
#X text 478 100 cut the '-';
#X obj 159 85 iemlib/splitfilename 0;
#X connect 0 0 1 0;
#X connect 1 1 8 0;
#X connect 6 1 2 0;
#X connect 8 1 6 0;
#X restore -16 154 pd cutdollarzero;
#X text 49 130 sanity check (\$0-...);
#X msg -101 -217 read \$1;
#X connect 0 0 2 0;
#X connect 0 1 16 0;
#X connect 1 0 0 0;
#X connect 2 1 3 0;
#X connect 3 0 6 0;
#X connect 4 1 9 0;
#X connect 5 1 9 0;
#X connect 6 0 5 0;
#X connect 6 1 4 0;
#X connect 6 2 7 0;
#X connect 6 3 7 0;
#X connect 6 4 8 0;
#X connect 6 5 8 0;
#X connect 7 1 9 0;
#X connect 8 1 9 0;
#X connect 9 0 19 0;
#X connect 9 1 11 0;
#X connect 10 0 12 0;
#X connect 11 0 10 0;
#X connect 12 0 23 0;
#X connect 12 1 20 0;
#X connect 13 0 18 0;
#X connect 14 0 17 0;
#X connect 14 1 1 0;
#X connect 14 2 25 0;
#X connect 15 0 0 0;
#X connect 16 0 15 0;
#X connect 17 0 15 0;
#X connect 18 0 14 0;
#X connect 20 0 22 0;
#X connect 23 0 21 0;
#X connect 25 0 0 0;
