#N canvas 344 225 482 252 10;
#X obj 66 -47 r \$3-OSCin;
#X obj 61 201 s \$4-\$2;
#X obj 187 13 initbang;
#X obj 89 43 symbol \$1;
#X obj 61 90 mrpeach/routeOSC /;
#X obj 61 166 mrpeach/routeOSC /;
#X msg 89 64 set /\$1;
#X obj 89 117 symbol \$2;
#X msg 89 138 set /\$1;
#X msg 95 -3 0;
#X obj 95 20 s \$3-OSCclose;
#X obj 66 -26 t a b;
#X connect 0 0 11 0;
#X connect 2 0 3 0;
#X connect 2 0 7 0;
#X connect 3 0 6 0;
#X connect 4 0 5 0;
#X connect 5 0 1 0;
#X connect 6 0 4 0;
#X connect 7 0 8 0;
#X connect 8 0 5 0;
#X connect 9 0 10 0;
#X connect 11 0 4 0;
#X connect 11 1 9 0;
