#N canvas 362 6 647 537 10;
#X obj 79 50 inlet;
#X obj 74 635 outlet;
#X obj 79 160 list trim;
#X obj 86 269 list.substitute 32 95;
#X obj 383 40 inlet;
#X obj 83 586 symbol;
#X obj 86 401 convert.int2ascii;
#X obj 214 87 dollarg;
#X obj 86 194 convert.ascii2int;
#X obj 345 149 convert.ascii2int;
#X obj 214 62 initbang;
#X connect 0 0 2 0;
#X connect 2 0 8 0;
#X connect 3 0 6 0;
#X connect 4 0 9 0;
#X connect 5 0 1 0;
#X connect 6 0 5 0;
#X connect 7 0 9 0;
#X connect 8 0 3 0;
#X connect 9 0 3 2;
#X connect 10 0 7 0;
