#N canvas 48 107 670 685 10;
#X obj 71 249 scaleXYZ 1.02 1.02 1.02;
#X obj 365 480 unpack f f f;
#X obj 365 417 / 360;
#X obj 365 397 % 360;
#X obj 441 127 tgl 15 0 empty empty empty 0 -6 0 8 -262144 -1 -1 1
1;
#X msg 474 121 FSAA 6;
#X obj 474 98 loadbang;
#X obj 366 377 count.iter 0 137.5;
#X obj 254 203 t b;
#X obj 282 204 t b;
#X msg 365 437 \$1 0.5 1;
#X msg 523 121 frame 60;
#X floatatom 200 134 5 0 0 0 - - -;
#X text 245 133 Number of iterations;
#X obj 71 323 rotateXYZ;
#X obj 71 389 translateXYZ;
#X obj 333 506 colorRGB;
#X obj 114 472 + 1;
#X obj 112 511 *;
#X obj 397 202 bng 15 250 50 0 empty empty empty 0 -6 0 8 -262144 -1
-1;
#X msg 112 492 0.333 \$1;
#X text 73 16 You can change the number of iteration using the right
inlet.;
#X text 419 201 Start over the animation;
#X text 73 -27 Description: Repeats a Gem chain and separates it.;
#X obj 81 154 gems.duplicate 220;
#X obj 192 505 loadbang;
#X obj 105 356 count.iter 0 0.02;
#X obj 365 457 convert.hsv2rgb;
#X text 74 -12 Outlet 2 bangs on each repetition \, and then outlet
3 bang once.;
#X obj 441 151 gems.win 320 240;
#X obj 70 538 square;
#X obj 132 107 r f;
#X msg 192 529 draw fill;
#X obj 20 458 pix_texture;
#X obj 253 335 count.iter 0 1e-05;
#X obj 449 274 hsl 128 15 0 100 0 0 empty empty empty -2 -8 0 10 -262144
-1 -1 4400 1;
#X floatatom 473 349 5 0 0 0 - - -;
#X obj 465 308 / 100000;
#X obj 462 20 lorenz;
#X floatatom 580 547 5 0 0 0 - - -;
#X text 567 403 Reset To Initial Conditions;
#X text 568 469 Modify Parameters;
#X floatatom 533 523 5 0 0 0 - - -;
#X text 527 502 Output;
#X msg 570 450 param 0.4 0.9 6 1;
#X msg 570 428 param 0.2 1.8 20 1;
#X floatatom 349 208 5 0 0 0 - - -;
#X obj 328 614 rotateXYZ;
#X obj 535 490 henon;
#X msg 568 378 reset 0.1 0.1;
#X obj 550 603 line;
#X msg 555 576 \$1 150;
#X obj 536 548 * 40;
#X obj 629 579 line;
#X msg 634 552 \$1 150;
#X obj 615 524 * 10;
#X obj 300 587 gate 2;
#X obj 298 565 + 1;
#X obj 298 540 hradio 15 1 0 2 empty empty empty 0 -8 0 10 -262144
-1 -1 0;
#X obj 284 453 gate 2;
#X obj 282 431 + 1;
#X obj 282 406 hradio 15 1 0 2 empty empty empty 0 -8 0 10 -262144
-1 -1 1;
#X obj 129 287 count.iter 0 137.5;
#X connect 0 0 14 0;
#X connect 1 0 16 1;
#X connect 1 1 16 2;
#X connect 1 2 16 3;
#X connect 2 0 10 0;
#X connect 3 0 2 0;
#X connect 4 0 29 0;
#X connect 5 0 29 0;
#X connect 6 0 5 0;
#X connect 6 0 11 0;
#X connect 7 0 3 0;
#X connect 8 0 7 0;
#X connect 8 0 26 0;
#X connect 8 0 34 0;
#X connect 8 0 48 0;
#X connect 8 0 62 0;
#X connect 9 0 7 1;
#X connect 9 0 26 1;
#X connect 9 0 62 1;
#X connect 10 0 27 0;
#X connect 11 0 29 0;
#X connect 12 0 24 1;
#X connect 14 0 15 0;
#X connect 15 0 59 1;
#X connect 16 0 56 1;
#X connect 17 0 20 0;
#X connect 18 0 30 1;
#X connect 19 0 34 1;
#X connect 20 0 18 0;
#X connect 24 0 0 0;
#X connect 24 1 8 0;
#X connect 24 2 9 0;
#X connect 25 0 32 0;
#X connect 26 0 15 1;
#X connect 27 0 1 0;
#X connect 31 0 24 0;
#X connect 32 0 30 0;
#X connect 33 0 30 0;
#X connect 34 0 26 2;
#X connect 34 0 17 0;
#X connect 35 0 37 0;
#X connect 37 0 34 2;
#X connect 37 0 36 0;
#X connect 39 0 55 0;
#X connect 42 0 52 0;
#X connect 44 0 48 0;
#X connect 45 0 48 0;
#X connect 46 0 62 2;
#X connect 47 0 33 0;
#X connect 48 0 42 0;
#X connect 48 1 39 0;
#X connect 49 0 48 0;
#X connect 50 0 47 2;
#X connect 51 0 50 0;
#X connect 52 0 51 0;
#X connect 53 0 47 3;
#X connect 54 0 53 0;
#X connect 55 0 54 0;
#X connect 56 0 33 0;
#X connect 56 1 47 0;
#X connect 57 0 56 0;
#X connect 58 0 57 0;
#X connect 59 0 56 1;
#X connect 59 1 16 0;
#X connect 60 0 59 0;
#X connect 61 0 60 0;
#X connect 62 0 14 3;
