#N canvas 8 6 1001 537 10;
#X text 278 809 frames \, width \, height \, name;
#X obj 65 -101 inlet file_manage;
#X obj -62 -95 inlet gemlist;
#X obj -52 809 outlet gemlist;
#X obj 53 810 outlet current_frame;
#X obj 191 809 outlet info;
#X obj 464 807 outlet eof;
#X obj -53 337 gems.movies;
#X obj 118 596 t l l;
#X obj 253 457 unpack f f f s f;
#X obj 683 346 data.index.samples;
#X msg 683 308 \$1.wav;
#X obj 33 532 t f f;
#X obj 339 573 * 1000;
#X obj 193 32 convert.ms2freq;
#X obj 141 241 tabread4~;
#X obj 214 240 tabread4~;
#X msg 680 376 set \$1;
#X msg 747 376 set \$1;
#X obj 613 796 outlet~;
#X obj 738 793 outlet~;
#X obj -48 156 t a b;
#X obj 41 208 snapshot~;
#X msg 64 291 rel \$1;
#X obj 683 275 file.path.split.extension;
#X obj 318 539 /;
#X obj 239 -101 inlet~;
#X obj 186 -9 *~;
#X obj 164 146 +~ 0;
#X obj 165 199 *~ 0;
#X obj 164 168 wrap~;
#X obj 165 122 *~ 1;
#X obj 346 80 expr ($f2-$f1);
#X obj 400 146 t b f;
#X obj 410 214 * 1;
#X obj 395 116 abs;
#X obj 59 -67 route load frame loop;
#X obj 238 -38 unpack f f;
#X obj 241 -6 clip 0 1;
#X obj 323 -5 clip 0 1;
#X floatatom 813 442 5 0 0 0 - - -;
#X obj 66 72 phasorshot~ 1;
#X msg 141 49 1;
#X obj 460 765 r \$0EOF;
#X obj 151 95 s \$0EOF;
#X msg 19 268 1;
#X msg 277 195 0;
#X obj 270 138 r stop;
#X obj 17 243 initbang;
#X obj 117 0 initbang;
#X connect 1 0 36 0;
#X connect 2 0 21 0;
#X connect 7 0 3 0;
#X connect 7 1 12 0;
#X connect 7 2 8 0;
#X connect 8 0 5 0;
#X connect 8 1 9 0;
#X connect 9 0 25 0;
#X connect 9 3 24 0;
#X connect 9 4 25 1;
#X connect 10 1 17 0;
#X connect 10 2 18 0;
#X connect 10 3 29 1;
#X connect 10 3 40 0;
#X connect 11 0 10 0;
#X connect 12 0 4 0;
#X connect 13 0 34 0;
#X connect 14 0 27 1;
#X connect 15 0 19 0;
#X connect 16 0 20 0;
#X connect 17 0 15 0;
#X connect 18 0 16 0;
#X connect 21 0 7 0;
#X connect 21 1 22 0;
#X connect 22 0 23 0;
#X connect 23 0 7 3;
#X connect 24 0 11 0;
#X connect 25 0 13 0;
#X connect 26 0 27 0;
#X connect 27 0 41 0;
#X connect 28 0 30 0;
#X connect 29 0 15 0;
#X connect 29 0 16 0;
#X connect 30 0 29 0;
#X connect 30 0 22 0;
#X connect 31 0 28 0;
#X connect 32 0 31 1;
#X connect 32 0 35 0;
#X connect 33 0 34 0;
#X connect 33 1 34 1;
#X connect 34 0 14 0;
#X connect 35 0 33 0;
#X connect 36 0 7 1;
#X connect 36 1 41 1;
#X connect 36 2 37 0;
#X connect 37 0 38 0;
#X connect 37 1 39 0;
#X connect 38 0 32 0;
#X connect 38 0 28 1;
#X connect 39 0 32 1;
#X connect 41 0 31 0;
#X connect 41 1 44 0;
#X connect 41 2 44 0;
#X connect 42 0 41 2;
#X connect 43 0 6 0;
#X connect 45 0 7 2;
#X connect 46 0 29 1;
#X connect 47 0 46 0;
#X connect 48 0 45 0;
#X connect 49 0 42 0;
