#N canvas -397 34 876 525 10;
#X obj 54 120 gemhead 10000;
#X obj 116 327 gemhead 100;
#X obj 323 330 gemhead 200;
#X obj 305 454 square;
#X obj 304 431 colorRGB 1 0 0;
#X obj 103 421 rectangle 5.333 4;
#X obj 101 391 pix_texture;
#X obj 289 37 tgl 50 0 empty empty empty 0 -6 0 10 -258113 -1 -1 0
1;
#X obj 53 -25 tgl 50 0 empty empty empty 0 -6 0 10 -258113 -1 -1 0
1;
#X text 169 -20 Description: Records the current frame buffer to a
sequence of frames in a Quicktime movie.;
#X floatatom 227 208 5 0 0 0 - - -;
#X obj 222 178 route recording file;
#X symbolatom 293 232 60 0 0 0 - - -;
#X obj 292 209 symbol;
#X msg 434 106 saveas...;
#X obj 193 232 print FRAME;
#X msg 404 75 file test_myfile;
#X msg 285 96 record \$1;
#X obj 54 150 gems.record @file test_output;
#X msg 548 132 colorspace rgba;
#X msg 545 111 colorspace yuv;
#X obj 487 193 t a;
#X obj 53 30 gems.win @dimen 320 240 @offset 50 0;
#X obj 323 355 t a b;
#X obj 347 384 count.iter;
#X obj 303 410 rotateXYZ 0 0 0;
#X obj 122 295 tgl 15 0 empty empty empty 17 7 0 10 -262144 -1 -1 0
1;
#X msg 192 366 open \$1;
#X obj 111 360 pix_movie;
#X obj 224 328 openpanel;
#X obj 218 297 bng 15 250 50 0 empty empty empty 17 7 0 10 -262144
-1 -1;
#X obj 332 305 tgl 15 0 empty empty empty 17 7 0 10 -262144 -1 -1 0
1;
#X msg 241 373 auto 1;
#X msg 543 81 offset 0 0 \, dimen 640 480 \, quality 0;
#X connect 0 0 18 0;
#X connect 1 0 28 0;
#X connect 2 0 23 0;
#X connect 4 0 3 0;
#X connect 6 0 5 0;
#X connect 7 0 17 0;
#X connect 8 0 22 0;
#X connect 10 0 15 0;
#X connect 11 0 10 0;
#X connect 11 1 13 0;
#X connect 13 0 12 0;
#X connect 14 0 18 1;
#X connect 16 0 18 1;
#X connect 17 0 18 1;
#X connect 18 1 11 0;
#X connect 19 0 21 0;
#X connect 20 0 21 0;
#X connect 21 0 18 1;
#X connect 23 0 25 0;
#X connect 23 1 24 0;
#X connect 24 0 25 3;
#X connect 25 0 4 0;
#X connect 26 0 1 0;
#X connect 27 0 28 0;
#X connect 28 0 6 0;
#X connect 29 0 27 0;
#X connect 30 0 29 0;
#X connect 31 0 2 0;
#X connect 32 0 28 0;
#X connect 33 0 21 0;
