#N canvas 79 13 945 687 10;
#X obj 135 371 outlet cue_number;
#X obj 390 -259 inlet reset;
#X obj 574 237 textfile;
#X obj 112 142 spigot;
#X msg 685 202 read \$1 cr \, rewind \, bang;
#X msg 184 82 1;
#X msg 224 83 0;
#X msg 648 307 0;
#X obj 112 186 t b b b;
#X obj 135 227 count.iter;
#X obj 381 7 t b b b;
#X obj 135 264 t a b;
#X obj 204 336 outlet cue_time;
#X msg 681 245 print;
#X obj 92 17 t b a a b;
#X obj 490 -78 route read;
#X obj 693 39 symbol;
#X obj 747 -61 loadbang;
#X msg 381 107 rewind \, bang;
#X obj 204 301 list;
#X obj 80 108 moses;
#X obj 80 -128 inlet;
#X obj 112 81 unpack f;
#X obj 748 -25 dollarg;
#X obj 404 -116 relay add clear;
#X text 804 128 write one;
#X msg 587 130 write /tmp/textfile.txt;
#X connect 1 0 24 0;
#X connect 2 0 14 0;
#X connect 2 1 7 0;
#X connect 3 0 8 0;
#X connect 4 0 2 0;
#X connect 5 0 3 1;
#X connect 6 0 3 1;
#X connect 7 0 3 1;
#X connect 8 0 2 0;
#X connect 8 1 9 0;
#X connect 8 2 6 0;
#X connect 9 0 11 0;
#X connect 10 0 18 0;
#X connect 10 1 9 1;
#X connect 10 2 6 0;
#X connect 11 0 0 0;
#X connect 11 1 19 0;
#X connect 13 0 2 0;
#X connect 14 1 22 0;
#X connect 14 2 19 1;
#X connect 14 3 5 0;
#X connect 15 0 16 0;
#X connect 15 1 10 0;
#X connect 16 0 4 0;
#X connect 17 0 23 0;
#X connect 18 0 2 0;
#X connect 19 0 12 0;
#X connect 20 1 3 0;
#X connect 21 0 20 0;
#X connect 22 0 20 1;
#X connect 23 0 16 0;
#X connect 24 0 2 0;
#X connect 24 1 2 0;
#X connect 24 2 15 0;
#X connect 26 0 2 0;
