#N canvas 815 69 450 300 10;
#X obj 63 136 folder_list;
#X obj 61 96 getdir;
#X obj 62 65 bng 15 250 50 0 empty empty empty 17 7 0 10 -262144 -1
-1;
#X obj 64 158 splitfilename /;
#X obj 117 280 symbol;
#X obj 223 325 b;
#X obj 151 224 t a a;
#X obj 68 33 inlet;
#X obj 106 399 outlet;
#X obj 62 117 makefilename %s/../*;
#X obj 174 248 select \$1 \$2 \$3 \$4;
#X connect 0 0 3 0;
#X connect 1 0 9 0;
#X connect 2 0 1 0;
#X connect 3 1 6 0;
#X connect 4 0 8 0;
#X connect 5 0 4 0;
#X connect 6 0 10 0;
#X connect 6 1 4 1;
#X connect 7 0 2 0;
#X connect 9 0 0 0;
#X connect 10 4 5 0;
