#N canvas 334 270 815 218 10;
#N canvas 0 0 450 309 credits 0;
#X text 44 59 This patch is hardly based on the browser.pd from mtl
abstraction collection. More infos on the original project:;
#X obj 47 94 cnv 10 10 10 empty empty http://puredata.info/Members/mtl/
0 6 0 7 -16645 -99865 0;
#X text 43 128 This is a modified version to navigate through pantaliQa
dir tree.;
#X text 47 169 by Luca Carrubba - for PantaliQa/gemq.info project -
free to share/modify/cannibalize as you want - www.estereotips.net
// luca@estereotips.net;
#X restore 86 56 pd credits;
#N canvas 0 1 1280 741 navigator 0;
#N canvas 339 1 900 736 coll 0;
#X obj 23 -42 inlet;
#X obj 247 -40 inlet;
#X obj 141 321 zexy/demultiplex 0 1;
#X obj 114 224 cyclone/coll;
#C restore;
#X obj 32 99 unpack f f;
#X obj 32 53 zexy/demultiplex 0 1;
#X obj 36 507 maxlib/remote;
#X obj 36 451 list prepend \$0;
#X msg 36 480 \$1_hr_\$2_r label \$3;
#X msg 678 40 clear;
#X msg 635 83 0;
#X obj 573 148 value \$0count;
#X obj 532 50 t f f;
#X obj 450 134 list prepend;
#X obj 452 176 list trim;
#X msg 270 75 open;
#X obj 36 426 list append;
#X msg 70 357 symbol;
#X obj 33 77 t a b;
#X obj 133 371 cyclone/tosymbol;
#X obj 653 4 t b b b;
#X obj 405 -85 inlet add;
#X obj 694 -43 inlet;
#X obj 522 11 tof/increment;
#X obj 393 -62 route bang;
#X obj 322 -35 t s s;
#X obj 442 -37 t s b;
#X obj 104 251 unpack s s;
#X obj 434 63 list split 1;
#X obj 358 127 list;
#X obj 376 26 route symbol;
#X obj 377 59 t s s;
#X text 178 251 long name \, short name;
#X msg 381 256 sort -1 2 \, renumber;
#X obj 796 -48 inlet tag;
#X obj 425 227 print add;
#X obj 366 -11 splitfilename /;
#X obj 143 291 splitfilename .;
#X obj 287 427 symbol;
#X obj 268 352 b;
#N canvas 707 27 450 300 helpPath 0;
#X obj 196 27 splitfilename /;
#X obj 286 52 splitfilename .;
#X obj 286 93 makefilename %s-help.pd;
#X obj 196 75 getdir;
#X obj 197 112 makefilename %s/../help/;
#X obj 194 54 b;
#X obj 210 142 pack s s;
#X obj 203 9 inlet;
#X obj 214 264 outlet;
#X connect 0 0 5 0;
#X connect 0 1 1 0;
#X connect 1 0 2 0;
#X connect 2 0 6 1;
#X connect 3 0 4 0;
#X connect 4 0 6 0;
#X connect 5 0 3 0;
#X connect 6 0 8 0;
#X connect 7 0 0 0;
#X restore 286 467 pd helpPath;
#X msg 287 497 \; pd open \$2 \$1;
#X obj 269 5 bng 15 250 50 0 empty empty empty 17 7 0 10 -262144 -1
-1;
#X obj 277 382 del;
#X connect 0 0 5 0;
#X connect 1 0 5 1;
#X connect 1 0 2 1;
#X connect 1 0 42 0;
#X connect 2 0 19 0;
#X connect 2 1 39 0;
#X connect 3 0 27 0;
#X connect 4 0 16 0;
#X connect 4 1 3 0;
#X connect 5 0 18 0;
#X connect 5 1 3 0;
#X connect 7 0 8 0;
#X connect 8 0 6 0;
#X connect 9 0 3 0;
#X connect 10 0 11 0;
#X connect 12 0 13 1;
#X connect 12 1 11 0;
#X connect 13 0 14 0;
#X connect 14 0 3 0;
#X connect 15 0 3 0;
#X connect 16 0 7 0;
#X connect 17 0 16 1;
#X connect 18 0 4 0;
#X connect 18 1 17 0;
#X connect 19 0 16 1;
#X connect 20 0 23 1;
#X connect 20 1 10 0;
#X connect 20 2 9 0;
#X connect 21 0 24 0;
#X connect 22 0 20 0;
#X connect 23 0 12 0;
#X connect 24 0 33 0;
#X connect 24 1 26 0;
#X connect 25 0 29 0;
#X connect 25 1 36 0;
#X connect 26 0 25 0;
#X connect 26 1 23 0;
#X connect 27 0 38 1;
#X connect 27 1 37 0;
#X connect 28 1 29 1;
#X connect 29 0 13 0;
#X connect 30 0 31 0;
#X connect 30 1 28 0;
#X connect 31 0 29 0;
#X connect 31 1 29 1;
#X connect 33 0 3 0;
#X connect 36 1 30 0;
#X connect 37 0 2 0;
#X connect 38 0 40 0;
#X connect 39 0 43 0;
#X connect 40 0 41 0;
#X connect 43 0 38 0;
#X restore 259 269 pd coll;
#N canvas 334 52 946 631 scroll 0;
#X obj 147 75 int;
#X msg 178 155 8;
#X obj 125 389 pack;
#X obj 151 310 + 0;
#X obj 138 541 outlet;
#X obj 100 275 t f f;
#X obj 306 542 outlet;
#X msg 232 359 0;
#X obj 130 4 r \$0_slider_s;
#X obj 235 201 value \$0off;
#X obj 413 82 value \$0count;
#X obj 134 27 t f b;
#X msg 515 43 12;
#X obj 421 142 max 0;
#X obj 416 108 - 7;
#X obj 137 50 expr (175-$f1)/175 * $f2;
#X obj 98 250 tof/iterate;
#X obj 580 261 f -1;
#X text 616 271 previous;
#X obj 614 472 list prepend \$0;
#X msg 614 498 \; \$1_hr_\$2_r color -1 -1 \$3;
#X obj 428 410 list append -1.67177e+07;
#X obj 638 351 list append -1.67772e+07;
#X obj 789 130 r \$0reset;
#X obj 771 273 tof/iterate;
#X msg 768 252 8;
#X obj 410 179 r \$0query;
#X obj 354 328 -;
#X obj 473 296 t f f f b;
#X obj 353 272 pack;
#X msg 355 298 \$2 \$1;
#X obj 412 205 +;
#X obj 184 122 t b f b f f f;
#X obj 582 303 maxlib/split 0 7;
#X obj 427 375 maxlib/split 0 7;
#X msg 698 233 -1;
#X obj 410 228 t b f;
#X obj 686 23 inlet;
#X obj 712 174 t b b b;
#X msg 652 195 -1;
#X connect 0 0 32 0;
#X connect 1 0 16 0;
#X connect 2 0 4 0;
#X connect 3 0 2 1;
#X connect 5 0 2 0;
#X connect 5 1 3 0;
#X connect 7 0 6 0;
#X connect 8 0 11 0;
#X connect 10 0 14 0;
#X connect 11 0 15 0;
#X connect 11 1 10 0;
#X connect 12 0 10 0;
#X connect 13 0 15 1;
#X connect 14 0 13 0;
#X connect 15 0 0 0;
#X connect 16 0 5 0;
#X connect 17 0 33 0;
#X connect 19 0 20 0;
#X connect 21 0 19 0;
#X connect 22 0 19 0;
#X connect 23 0 38 0;
#X connect 24 0 22 0;
#X connect 25 0 24 0;
#X connect 26 0 31 0;
#X connect 27 0 28 0;
#X connect 28 1 34 0;
#X connect 28 2 17 1;
#X connect 28 3 17 0;
#X connect 29 0 30 0;
#X connect 30 0 27 0;
#X connect 31 0 36 0;
#X connect 32 0 1 0;
#X connect 32 1 3 1;
#X connect 32 2 7 0;
#X connect 32 3 9 0;
#X connect 32 4 29 0;
#X connect 32 5 31 1;
#X connect 33 0 22 0;
#X connect 34 0 21 0;
#X connect 35 0 17 1;
#X connect 36 0 29 0;
#X connect 36 1 29 1;
#X connect 37 0 38 0;
#X connect 38 0 39 0;
#X connect 38 1 35 0;
#X connect 38 2 25 0;
#X connect 39 0 29 1;
#X restore 131 203 pd scroll;
#N canvas 1173 127 770 510 query 0;
#X obj 23 285 outlet;
#X obj 107 310 outlet;
#X obj 71 59 r \$0_hr_0_s;
#X obj 153 61 r \$0_hr_1_s;
#X obj 232 56 r \$0_hr_2_s;
#X obj 304 60 r \$0_hr_3_s;
#X obj 382 63 r \$0_hr_4_s;
#X obj 460 62 r \$0_hr_5_s;
#X obj 545 60 r \$0_hr_6_s;
#X obj 630 63 r \$0_hr_7_s;
#X msg 107 255 1;
#X msg 77 112 0;
#X msg 154 107 1;
#X msg 221 112 2;
#X msg 265 100 3;
#X msg 315 101 4;
#X msg 369 106 5;
#X msg 415 106 6;
#X msg 479 109 7;
#X obj 33 229 +;
#X obj 83 201 value \$0off;
#X obj 211 242 s \$0query;
#X obj 97 150 t f b b f;
#X connect 2 0 11 0;
#X connect 3 0 12 0;
#X connect 4 0 13 0;
#X connect 5 0 14 0;
#X connect 6 0 15 0;
#X connect 7 0 16 0;
#X connect 8 0 17 0;
#X connect 9 0 18 0;
#X connect 10 0 1 0;
#X connect 11 0 22 0;
#X connect 12 0 22 0;
#X connect 13 0 22 0;
#X connect 14 0 22 0;
#X connect 15 0 22 0;
#X connect 16 0 22 0;
#X connect 17 0 22 0;
#X connect 18 0 22 0;
#X connect 19 0 0 0;
#X connect 20 0 19 1;
#X connect 22 0 19 0;
#X connect 22 1 20 0;
#X connect 22 2 10 0;
#X connect 22 3 21 0;
#X restore 229 202 pd query;
#N canvas 178 252 827 449 coll 0;
#X obj 23 -42 inlet;
#X obj 247 -40 inlet;
#X obj 129 177 zexy/demultiplex 0 1;
#X obj 93 130 cyclone/coll;
#C restore;
#X obj 32 99 unpack f f;
#X obj 32 53 zexy/demultiplex 0 1;
#X obj 66 364 maxlib/remote;
#X obj 55 293 list prepend \$0;
#X obj 259 348 outlet;
#X msg 678 40 clear;
#X msg 635 83 0;
#X obj 494 46 t f f;
#X obj 441 101 list prepend;
#X obj 411 142 list trim;
#X msg 270 75 open;
#X obj 52 265 list append;
#X msg 66 197 symbol;
#X obj 33 77 t a b;
#X obj 129 211 cyclone/tosymbol;
#X obj 653 4 t b b b;
#X obj 459 -25 t a b;
#X msg 555 -16 0;
#X obj 435 -55 inlet add;
#X obj 521 11 tof/increment;
#X msg 61 327 \$1_hr_\$2_r0 label \$3;
#X obj 573 148 value \$0count0;
#X obj 670 -29 bng 15 250 50 0 empty empty empty 17 7 0 10 -262144
-1 -1;
#X obj 221 33 r \$0reset;
#X msg 224 54 clear;
#X obj 666 -49 r \$0reset;
#X connect 0 0 5 0;
#X connect 1 0 5 1;
#X connect 1 0 2 1;
#X connect 2 0 18 0;
#X connect 2 1 8 0;
#X connect 3 0 2 0;
#X connect 4 0 15 0;
#X connect 4 1 3 0;
#X connect 5 0 17 0;
#X connect 5 1 3 0;
#X connect 7 0 24 0;
#X connect 9 0 3 0;
#X connect 10 0 25 0;
#X connect 11 0 12 1;
#X connect 11 1 25 0;
#X connect 12 0 13 0;
#X connect 13 0 3 0;
#X connect 14 0 3 0;
#X connect 15 0 7 0;
#X connect 16 0 15 1;
#X connect 17 0 4 0;
#X connect 17 1 16 0;
#X connect 18 0 15 1;
#X connect 19 0 21 0;
#X connect 19 1 10 0;
#X connect 19 2 9 0;
#X connect 20 0 12 0;
#X connect 20 1 23 0;
#X connect 21 0 23 1;
#X connect 22 0 20 0;
#X connect 23 0 11 0;
#X connect 24 0 6 0;
#X connect 26 0 19 0;
#X connect 27 0 28 0;
#X connect 28 0 3 0;
#X connect 29 0 26 0;
#X restore 240 54 pd coll;
#N canvas 12 100 1010 606 scroll 0;
#X obj 147 75 int;
#X msg 178 155 8;
#X obj 194 306 pack;
#X obj 231 269 + 0;
#X obj 174 521 outlet;
#X obj 180 234 t f f;
#X obj 342 522 outlet;
#X msg 311 319 0;
#X obj 134 27 t f b;
#X msg 515 43 12;
#X obj 421 142 max 0;
#X obj 416 108 - 7;
#X obj 137 50 expr (175-$f1)/175 * $f2;
#X obj 130 4 r \$0_slider_s0;
#X obj 413 82 value \$0count0;
#X obj 307 285 value \$0off0;
#X obj 178 209 tof/iterate;
#X obj 651 352 f -1;
#X text 687 362 previous;
#X obj 587 508 list prepend \$0;
#X obj 513 444 list append -1.67177e+07;
#X obj 734 469 list append -1.67772e+07;
#X obj 874 164 r \$0reset;
#X obj 856 307 tof/iterate;
#X msg 853 286 8;
#X obj 547 278 -;
#X obj 587 306 t f f f b;
#X obj 549 216 pack;
#X msg 548 248 \$2 \$1;
#X obj 573 150 +;
#X obj 653 394 maxlib/split 0 7;
#X obj 512 409 maxlib/split 0 7;
#X msg 783 267 -1;
#X obj 571 173 t b f;
#X obj 829 41 inlet;
#X obj 786 184 t b b b;
#X msg 737 229 -1;
#X obj 571 124 r \$0query0;
#X obj 183 122 t b f b f f f;
#X msg 588 534 \; \$1_hr_\$2_r0 color -1 -1 \$3;
#X connect 0 0 38 0;
#X connect 1 0 16 0;
#X connect 2 0 4 0;
#X connect 3 0 2 1;
#X connect 5 0 2 0;
#X connect 5 1 3 0;
#X connect 7 0 6 0;
#X connect 8 0 12 0;
#X connect 8 1 14 0;
#X connect 9 0 14 0;
#X connect 10 0 12 1;
#X connect 11 0 10 0;
#X connect 12 0 0 0;
#X connect 13 0 8 0;
#X connect 14 0 11 0;
#X connect 16 0 5 0;
#X connect 17 0 30 0;
#X connect 19 0 39 0;
#X connect 20 0 19 0;
#X connect 21 0 19 0;
#X connect 22 0 35 0;
#X connect 23 0 21 0;
#X connect 24 0 23 0;
#X connect 25 0 26 0;
#X connect 26 1 31 0;
#X connect 26 2 17 1;
#X connect 26 3 17 0;
#X connect 27 0 28 0;
#X connect 28 0 25 0;
#X connect 29 0 33 0;
#X connect 30 0 21 0;
#X connect 31 0 20 0;
#X connect 32 0 17 1;
#X connect 33 0 27 0;
#X connect 33 1 27 1;
#X connect 34 0 35 0;
#X connect 35 0 36 0;
#X connect 35 1 32 0;
#X connect 35 2 24 0;
#X connect 36 0 27 1;
#X connect 37 0 29 0;
#X connect 38 0 1 0;
#X connect 38 1 3 1;
#X connect 38 2 7 0;
#X connect 38 3 15 0;
#X connect 38 4 27 0;
#X connect 38 5 29 1;
#X restore 196 -33 pd scroll;
#N canvas 277 192 744 361 query 0;
#X obj 39 239 outlet;
#X obj 235 243 outlet;
#X msg 241 200 1;
#X msg 77 112 0;
#X msg 154 107 1;
#X msg 221 112 2;
#X msg 265 100 3;
#X msg 315 101 4;
#X msg 369 106 5;
#X msg 415 106 6;
#X msg 479 109 7;
#X obj 96 211 +;
#X obj 116 180 value \$0off0;
#X obj 71 59 r \$0_hr_0_s0;
#X obj 153 61 r \$0_hr_1_s0;
#X obj 232 56 r \$0_hr_2_s0;
#X obj 304 60 r \$0_hr_3_s0;
#X obj 382 63 r \$0_hr_4_s0;
#X obj 460 62 r \$0_hr_5_s0;
#X obj 545 60 r \$0_hr_6_s0;
#X obj 630 63 r \$0_hr_7_s0;
#X obj 324 193 s \$0query0;
#X obj 97 150 t f b b f;
#X connect 2 0 1 0;
#X connect 3 0 22 0;
#X connect 4 0 22 0;
#X connect 5 0 22 0;
#X connect 6 0 22 0;
#X connect 7 0 22 0;
#X connect 8 0 22 0;
#X connect 9 0 22 0;
#X connect 10 0 22 0;
#X connect 11 0 0 0;
#X connect 12 0 11 1;
#X connect 13 0 3 0;
#X connect 14 0 4 0;
#X connect 15 0 5 0;
#X connect 16 0 6 0;
#X connect 17 0 7 0;
#X connect 18 0 8 0;
#X connect 19 0 9 0;
#X connect 20 0 10 0;
#X connect 22 0 11 0;
#X connect 22 1 12 0;
#X connect 22 2 2 0;
#X connect 22 3 21 0;
#X restore 263 -36 pd query;
#X obj 399 -64 loadbang;
#X msg 437 154 175;
#X msg 256 115 175;
#X msg 459 43 175;
#X obj 461 65 s \$0_slider_r;
#X obj 405 182 s \$0_slider_r0;
#X obj 524 293 outlet;
#X obj 490 31 s \$0reset;
#X obj 254 82 t b a b a;
#X obj 473 -69 r \$0love;
#X obj 605 -25 loadbang;
#X msg 605 2 set 1;
#X obj 604 33 s \$0lover;
#X obj 412 -34 f 1;
#X obj 411 -9 t b f b b;
#X obj 258 137 s \$0_slider_r;
#X obj 435 97 t b b b;
#X obj 369 -61 bng 15 250 50 0 empty empty empty 17 7 0 10 -262144
-1 -1;
#N canvas 101 228 450 300 \$0info 0;
#X obj 69 14 cnv 13 300 13 empty empty http://wiki.dataflow.ws/PdMtlAbstractions
0 7 0 8 -16645 -262144 0;
#X restore 583 183 pd \$0info;
#X obj 590 93 r \$0info;
#X obj 590 151 s pd-\$0info;
#X msg 595 123 vis 1;
#N canvas 0 0 864 561 font 0;
#X msg 73 349 \; \$2_hr_\$1_r0 label_font \$3 \$4;
#X obj 82 38 r \$0font;
#X obj 86 254 tof/iterate;
#X msg 92 223 8;
#X obj 74 290 pack f \$0 1 f;
#X obj 87 116 + 9;
#X msg 286 350 \; \$2_hr_\$1_r label_font \$3 \$4;
#X obj 298 67 loadbang;
#X msg 294 99 11;
#X obj 96 166 t b f f;
#X msg 177 184 set \$1;
#X connect 1 0 5 0;
#X connect 2 0 4 0;
#X connect 3 0 2 0;
#X connect 4 0 0 0;
#X connect 4 0 6 0;
#X connect 5 0 9 0;
#X connect 7 0 8 0;
#X connect 8 0 9 0;
#X connect 9 0 3 0;
#X connect 9 1 4 3;
#X connect 9 2 10 0;
#X connect 10 0 8 0;
#X restore 700 226 pd font;
#N canvas 247 1 1018 673 readDir 0;
#X msg 390 384 clear;
#X obj 310 -25 inlet read;
#X msg 388 405 open;
#X obj 19 212 t b b b;
#X msg 330 472 0;
#X msg 291 465 1;
#X obj 374 636 outlet patches;
#X msg 48 417 dump;
#X obj 320 524 == 0;
#X obj 100 623 outlet tags;
#X obj 96 -14 inlet select_tag;
#X obj 115 37 list trim;
#X obj 405 -26 bng 15 250 50 0 empty empty empty 17 7 0 10 -262144
-1 -1;
#X msg 327 206 sort -1 -1;
#X obj 185 467 cyclone/coll;
#C restore;
#X obj 149 582 tof/listUnfold;
#X obj 488 583 tof/listUnfold;
#X obj 164 506 zexy/multiplex 0 1;
#X obj 169 543 zexy/demultiplex 0 1;
#X obj 96 207 t b a b;
#X obj 473 542 t b a;
#X floatatom 130 426 5 0 0 0 - - -;
#X msg 450 431 1;
#X obj 381 -2 t b b f b b b;
#X obj 444 402 loadbang;
#N canvas 0 0 450 300 categoryLoop 0;
#X obj 160 251 folder_list;
#X obj 145 71 getdir;
#X msg 158 137 \$1 \$2;
#X obj 150 117 pack s s;
#X msg 178 181 symbol;
#X obj 177 160 loadbang;
#X obj 159 208 l2s;
#X obj 161 230 makefilename %s/*;
#X obj 147 96 makefilename %s/../;
#X obj 180 291 symbol;
#X obj 142 48 t b a b a;
#X obj 159 318 pack s s;
#X obj 163 337 outlet;
#X obj 142 24 inlet;
#X connect 0 0 11 0;
#X connect 1 0 8 0;
#X connect 2 0 6 0;
#X connect 3 0 2 0;
#X connect 4 0 6 1;
#X connect 5 0 4 0;
#X connect 6 0 7 0;
#X connect 7 0 0 0;
#X connect 8 0 3 0;
#X connect 9 0 11 1;
#X connect 10 0 1 0;
#X connect 10 1 3 1;
#X connect 10 2 9 0;
#X connect 10 3 9 1;
#X connect 11 0 12 0;
#X connect 13 0 10 0;
#X restore 506 156 pd categoryLoop;
#X msg 234 324 merge \$2 \$1;
#X obj 506 128 exclude abs utils template.pd help;
#X connect 0 0 14 0;
#X connect 1 0 23 0;
#X connect 2 0 14 0;
#X connect 3 0 7 0;
#X connect 3 1 5 0;
#X connect 4 0 8 0;
#X connect 4 0 17 2;
#X connect 5 0 8 0;
#X connect 5 0 17 2;
#X connect 7 0 14 0;
#X connect 8 0 18 1;
#X connect 10 0 11 0;
#X connect 11 0 19 0;
#X connect 12 0 23 0;
#X connect 13 0 14 0;
#X connect 14 0 17 0;
#X connect 14 1 17 1;
#X connect 15 0 9 0;
#X connect 16 0 6 0;
#X connect 17 0 18 0;
#X connect 18 0 15 0;
#X connect 18 1 20 0;
#X connect 19 1 14 0;
#X connect 19 2 4 0;
#X connect 20 0 6 0;
#X connect 20 1 16 0;
#X connect 21 0 14 0;
#X connect 23 0 3 0;
#X connect 23 1 13 0;
#X connect 23 3 27 0;
#X connect 23 4 0 0;
#X connect 24 0 22 0;
#X connect 25 0 26 0;
#X connect 26 0 14 0;
#X connect 27 0 25 0;
#X restore 321 63 pd readDir;
#X text 207 269 modules;
#X text 186 53 CATEGORY->;
#X connect 1 0 0 0;
#X connect 1 1 0 1;
#X connect 2 0 0 0;
#X connect 2 1 0 1;
#X connect 3 0 14 0;
#X connect 4 0 3 0;
#X connect 4 1 3 1;
#X connect 5 0 3 0;
#X connect 5 1 3 1;
#X connect 6 0 19 0;
#X connect 7 0 11 0;
#X connect 8 0 21 0;
#X connect 9 0 10 0;
#X connect 14 0 8 0;
#X connect 14 1 29 0;
#X connect 14 2 0 3;
#X connect 14 2 1 0;
#X connect 14 3 0 4;
#X connect 15 0 19 0;
#X connect 16 0 17 0;
#X connect 17 0 18 0;
#X connect 19 0 20 0;
#X connect 20 0 22 0;
#X connect 20 1 29 1;
#X connect 20 2 9 0;
#X connect 20 3 0 3;
#X connect 20 3 13 0;
#X connect 22 0 7 0;
#X connect 22 1 4 0;
#X connect 22 2 12 0;
#X connect 23 0 19 0;
#X connect 25 0 27 0;
#X connect 27 0 26 0;
#X connect 29 0 3 2;
#X connect 29 1 0 2;
#X restore 84 28 pd navigator;
#X obj 273 43 inlet;
#X msg 283 123 \; pd-modulExplorer vis 1;
#N canvas 4 81 394 189 modulExplorer 1;
#X obj 184 26 vsl 15 115 0 175 0 0 \$0_slider_s0 \$0_slider_r0 empty
0 -8 0 8 -1 -228856 -228856 11400 0;
#X obj 2 54 hradio 15 1 0 12 \$0_hr_2_s0 \$0_hr_2_r0 gui 2 8 1 11 -1
-1 -262140 0;
#X obj 2 69 hradio 15 1 0 12 \$0_hr_3_s0 \$0_hr_3_r0 output 2 8 1 11
-1 -1 -262140 0;
#X obj 2 84 hradio 15 1 0 12 \$0_hr_4_s0 \$0_hr_4_r0 process 2 8 1
11 -1 -1 -262140 1;
#X obj 2 99 hradio 15 1 0 12 \$0_hr_5_s0 \$0_hr_5_r0 source 2 8 1 11
-1 -1 -258401 0;
#X obj 2 114 hradio 15 1 0 12 \$0_hr_6_s0 \$0_hr_6_r0 empty 2 8 1 11
-1 -1 -262140 0;
#X obj 2 129 hradio 15 1 0 12 \$0_hr_7_s0 \$0_hr_7_r0 empty 2 8 1 11
-1 -1 -262140 0;
#X obj 383 26 vsl 15 115 0 175 0 0 \$0_slider_s \$0_slider_r empty
0 -8 0 8 -1 -228856 -1 11400 0;
#X obj 201 24 hradio 15 1 0 12 \$0_hr_0_s \$0_hr_0_r cam 2 8 1 11 -1
-1 -262140 0;
#X obj 201 39 hradio 15 1 0 12 \$0_hr_1_s \$0_hr_1_r form2d 2 8 1 11
-1 -1 -262140 0;
#X obj 201 54 hradio 15 1 0 12 \$0_hr_2_s \$0_hr_2_r get_audio 2 8
1 11 -1 -1 -262140 0;
#X obj 201 69 hradio 15 1 0 12 \$0_hr_3_s \$0_hr_3_r img 2 8 1 11 -1
-1 -262140 0;
#X obj 201 84 hradio 15 1 0 12 \$0_hr_4_s \$0_hr_4_r keyboard 2 8 1
11 -1 -1 -262140 0;
#X obj 201 99 hradio 15 1 0 12 \$0_hr_5_s \$0_hr_5_r mouse 2 8 1 11
-1 -1 -262140 0;
#X obj 201 114 hradio 15 1 0 12 \$0_hr_6_s \$0_hr_6_r text 2 8 1 11
-1 -1 -262140 0;
#X obj 201 129 hradio 15 1 0 12 \$0_hr_7_s \$0_hr_7_r video 2 8 1 11
-1 -1 -262140 2;
#X obj 2 24 hradio 15 1 0 12 \$0_hr_0_s0 \$0_hr_0_r0 app 2 8 1 11 -1
-1 -262140 0;
#X obj 2 40 hradio 15 1 0 12 \$0_hr_1_s0 \$0_hr_1_r0 effect 2 8 1 11
-1 -1 -262140 1;
#X obj 2 0 cnv 15 198 22 empty empty CATEGORY 1 12 1 12 -16645 -228856
0;
#X obj 201 0 cnv 15 197 22 empty empty MODULE 0 12 1 12 -16645 -228856
0;
#X obj 2 146 cnv 15 396 20 empty empty empty 18 12 0 14 -16645 -258401
0;
#X obj 182 150 cnv 10 10 10 empty empty PantaliQa_Module_Explorer 0
6 0 7 -16645 -99865 0;
#X obj 9 153 hradio 8 1 1 3 \$0font \$0 font 34 4 0 8 -162280 -262144
-258401 2;
#X restore 80 82 pd modulExplorer;
#X connect 2 0 3 0;
#X coords 0 0 1 1 399 170 0;
