#N canvas 36 279 660 321 10;
#X obj 317 270 gemhead;
#X obj 318 340 translateXYZ;
#X obj 319 301 colorRGB 1 0 0;
#X obj 328 44 dollarg;
#X obj 321 386 circle 0.07;
#X obj 327 21 initbang;
#X obj 426 184 ==;
#X obj 418 135 unpack;
#X obj 429 222 spigot 0;
#X obj 454 183 pipe 50;
#X obj 417 43 iemlib/parentdollarzero;
#X obj 417 22 initbang;
#X obj 419 106 iem_receive;
#X obj 415 63 makefilename %s-point-visibility;
#X msg 418 85 set \$1;
#X obj 544 15 bng 15 250 50 0 empty empty empty 17 7 0 10 -262144 -1
-1;
#X obj 549 142 print;
#X obj 328 67 unpack 0 0;
#X connect 0 0 2 0;
#X connect 1 0 4 0;
#X connect 2 0 1 0;
#X connect 3 0 17 0;
#X connect 5 0 3 0;
#X connect 6 0 8 1;
#X connect 6 0 16 0;
#X connect 7 0 6 0;
#X connect 7 1 9 0;
#X connect 8 0 0 0;
#X connect 9 0 8 0;
#X connect 10 0 13 0;
#X connect 11 0 10 0;
#X connect 12 0 0 0;
#X connect 13 0 14 0;
#X connect 14 0 12 0;
#X connect 15 0 10 0;
#X connect 17 0 1 1;
#X connect 17 1 1 2;
