#N canvas 403 116 205 168 10;
#N canvas 147 317 618 317 (subpatch) 0;
#X obj 1 1 cnv 15 198 50 empty empty OSC_setings 20 12 0 15 -128992
-262144 0;
#X symbolatom 20 28 10 0 0 0 ip - #0-OSC.ip;
#X floatatom 114 28 5 0 0 0 - - -;
#X text 87 27 port;
#X obj 196 128 s \$0-OSC.port;
#X obj 239 102 s osc-status;
#X obj 165 30 tgl 15 0 empty empty empty 17 7 0 10 -262144 -1 -1 0
1;
#N canvas 296 437 450 300 network 0;
#X msg 163 -74 disconnect;
#X msg 155 -43 connect localhost 5978;
#X obj 150 -132 r osc-status;
#X obj 148 -110 sel 1;
#X obj 309 -74 bng 15 250 50 0 empty empty empty 17 7 0 10 -262144
-1 -1;
#X msg 309 -2 connect \$2 \$3;
#X obj 313 -28 pack f s f;
#X obj 337 -75 r \$0-OSC.ip;
#X obj 371 -50 r \$0-OSC.port;
#X obj 58 -39 inlet;
#X obj 61 53 mrpeach/packOSC;
#X msg 215 102 disconnect;
#X msg 193 80 connect 127.0.0.1 7000;
#X obj 56 115 mrpeach/udpsend;
#X connect 0 0 13 0;
#X connect 2 0 3 0;
#X connect 3 0 4 0;
#X connect 3 1 0 0;
#X connect 4 0 6 0;
#X connect 5 0 13 0;
#X connect 6 0 5 0;
#X connect 7 0 6 1;
#X connect 8 0 6 2;
#X connect 9 0 10 0;
#X connect 10 0 13 0;
#X connect 11 0 13 0;
#X connect 12 0 13 0;
#X restore 285 176 pd network;
#X obj 47 -53 loadbang;
#X msg 50 -18 symbol localhost;
#X msg 149 -44 7000;
#X text 152 12 connect;
#X obj 307 138 r \$0-reactOSC-msg;
#X connect 2 0 4 0;
#X connect 6 0 5 0;
#X connect 8 0 9 0;
#X connect 8 0 10 0;
#X connect 9 0 1 0;
#X connect 10 0 2 0;
#X connect 12 0 7 0;
#X coords 0 1 100 -1 200 51 1 0 0;
#X restore -24 46 graph;
#X obj -24 17 cnv 15 200 30 empty empty ReactOSC 20 12 0 20 -1 -258113
0;
#N canvas 458 267 823 497 (subpatch) 0;
#X obj 37 257 cnv 15 100 60 empty empty empty 20 12 0 14 -195568 -66577
0;
#N canvas 0 22 450 300 gemwin 0;
#X obj 132 136 gemwin;
#X obj 67 89 outlet;
#X obj 67 10 inlet;
#X msg 67 70 set destroy;
#X msg 132 112 create \, 1;
#X msg 198 112 destroy;
#X msg 156 71 set create;
#X obj 67 41 route create;
#X obj 287 109 loadbang;
#X obj 302 148 r \$0-dialog;
#X obj 307 181 del 150;
#X connect 2 0 7 0;
#X connect 3 0 1 0;
#X connect 4 0 0 0;
#X connect 5 0 0 0;
#X connect 6 0 1 0;
#X connect 7 0 3 0;
#X connect 7 0 4 0;
#X connect 7 1 6 0;
#X connect 7 1 5 0;
#X connect 8 0 4 0;
#X connect 9 0 10 0;
#X connect 10 0 4 0;
#X restore 42 296 pd gemwin;
#X msg 42 277 destroy;
#X text 38 256 Create window:;
#X obj 224 73 gemhead;
#X obj 224 290 pix_texture;
#X obj 224 312 square 4;
#X floatatom 313 319 5 0 0 0 ID - -;
#X floatatom 336 332 5 0 0 0 x - -;
#X floatatom 365 342 5 0 0 0 y - -;
#X floatatom 405 385 5 0 0 0 angle - -;
#X obj 224 94 pix_video;
#X msg 236 218 open \$1;
#X obj 236 197 openpanel;
#X obj 236 178 bng 15 250 50 0 empty empty TreeIdMap 20 7 0 12 -262144
-1 -1;
#X obj 314 291 unpack 0 0 0 0;
#X obj 224 117 pix_grey;
#X obj 224 137 pix_threshold_bernsen 16 16;
#X obj 224 252 pix_fiducialtrack fiducials.trees;
#X msg 293 94 dialog;
#X obj 293 72 r \$0-dialog;
#X obj 402 497 s \$0-reactOSC-msg;
#X obj 248 387 pack f f;
#X msg 397 438 send /reactOSC/\$2/X \$1;
#X obj 323 401 pack f f;
#X msg 398 456 send /reactOSC/\$2/Y \$1;
#X obj 465 393 pack f f;
#X msg 399 474 send /reactOSC/\$2/angle \$1;
#X obj 0 1 cnv 15 200 60 empty empty empty 20 12 0 14 -1 -66577 0;
#X obj 10 16 nbx 3 14 -1e+37 1e+37 0 0 empty empty ID 0 -8 0 10 -1
-258113 -258113 0 256;
#X obj 52 16 nbx 3 14 -1e+37 1e+37 0 0 empty empty X 0 -8 0 10 -1 -258113
-258113 0 256;
#X obj 94 16 nbx 3 14 -1e+37 1e+37 0 0 empty empty Y 0 -8 0 10 -1 -258113
-258113 0 256;
#X obj 138 16 nbx 3 14 -1e+37 1e+37 0 0 empty empty ANGLE 0 -8 0 10
-1 -258113 -258113 0 256;
#X obj 77 41 bng 15 250 50 0 empty empty CAM 17 7 0 10 -258113 -1 -258113
;
#X obj 95 80 s \$0-dialog;
#X connect 1 0 2 0;
#X connect 2 0 1 0;
#X connect 4 0 11 0;
#X connect 5 0 6 0;
#X connect 7 0 22 1;
#X connect 7 0 24 1;
#X connect 7 0 26 1;
#X connect 7 0 29 0;
#X connect 8 0 22 0;
#X connect 8 0 30 0;
#X connect 9 0 24 0;
#X connect 9 0 31 0;
#X connect 10 0 26 0;
#X connect 10 0 32 0;
#X connect 11 0 16 0;
#X connect 12 0 18 0;
#X connect 13 0 12 0;
#X connect 14 0 13 0;
#X connect 15 0 7 0;
#X connect 15 1 8 0;
#X connect 15 2 9 0;
#X connect 15 3 10 0;
#X connect 16 0 17 0;
#X connect 17 0 18 0;
#X connect 18 0 5 0;
#X connect 18 1 15 0;
#X connect 19 0 11 0;
#X connect 20 0 19 0;
#X connect 22 0 23 0;
#X connect 23 0 21 0;
#X connect 24 0 25 0;
#X connect 25 0 21 0;
#X connect 26 0 27 0;
#X connect 27 0 21 0;
#X connect 33 0 34 0;
#X coords 0 1 100 -1 200 61 1 0 0;
#X restore -24 95 graph;
