#N canvas 344 104 578 496 10;
#X obj -6 -104 inlet;
#X obj -5 100 abs/parser;
#N canvas 20 226 308 280 \$0-sub-sender 0;
#X obj 10 10 abs/sender gemQ slider.alpha 1003 1002;
#X restore 201 -87 pd \$0-sub-sender;
#X obj 234 114 iemlib/parentdollarzero;
#X text 261 81 restore running;
#X text 261 97 instance \$0 value;
#X obj 188 52 symbol \$1;
#X obj -5 149 pack s s f s;
#X obj -5 -10 t a b;
#X obj 211 11 loadbang;
#X obj 211 82 f \$0;
#N canvas 1045 12 381 241 clear 0;
#X obj 106 3 loadbang;
#X obj 61 52 f \$0;
#X obj 8 23 inlet;
#X obj 106 80 symbol \$1;
#X obj 61 109 pack f s;
#X msg 61 138 \; pd-\$1-sub-sender clear \; pd-\$1-sub-receiver clear
;
#X connect 0 0 1 0;
#X connect 0 0 3 0;
#X connect 1 0 4 0;
#X connect 2 0 1 0;
#X connect 2 0 3 0;
#X connect 3 0 4 1;
#X connect 4 0 5 0;
#X restore 86 48 pd clear;
#X obj 67 49 bng 15 250 50 0 empty empty empty 17 7 0 10 -262144 -1
-1;
#X obj 165 150 pack s s f s;
#N canvas 4 109 450 300 \$0-sub-receiver 0;
#X obj 10 10 abs/receiver gemQ slider.alpha.r 1003 1002;
#X restore 202 -59 pd \$0-sub-receiver;
#X obj -5 175 list prepend sender;
#X obj 165 175 list prepend receiver;
#X text -1 212 [sender/receiver] [varname] [oscname] [dollarzero];
#X text 305 212 [parentdollarzero];
#X obj 90 291 r \$0-OSCout;
#X msg -5 237 \; pd-\$4-sub-\$1 obj 10 10 abs/\$1 \$3 \$2 \$4 \$5;
#N canvas 474 273 362 327 \$0-export 0;
#X obj 125 266 qlist;
#X obj 13 5 inlet;
#X obj 309 5 inlet;
#X msg 309 41 clear;
#X msg 186 249 print;
#X text 51 2 data;
#X text 136 60 (match import command);
#X msg 13 197 add 10 \$4-OSCout /\$3/EXPORT/\$1 \$2;
#X obj 125 42 mrpeach/routeOSC /\$1;
#X obj 125 81 mrpeach/routeOSC /IMPORT;
#X obj 125 13 r \$0-OSCin;
#X obj 125 104 t b a;
#X obj 152 144 outlet;
#X obj 125 164 del 1500;
#X connect 1 0 7 0;
#X connect 2 0 3 0;
#X connect 3 0 0 0;
#X connect 4 0 0 0;
#X connect 7 0 0 0;
#X connect 8 0 9 0;
#X connect 9 0 11 0;
#X connect 10 0 8 0;
#X connect 11 0 13 0;
#X connect 11 1 12 0;
#X connect 13 0 0 0;
#X restore -109 248 pd \$0-export;
#X obj 37 -44 s \$0-OSCin;
#X obj -4 355 outlet;
#X obj -6 -76 route parse incoming;
#X obj -109 273 prepend connect;
#X obj -110 293 list append 5978;
#X obj 165 292 r \$0-OSCclose;
#X obj 110 344 spigot 1;
#X floatatom 183 324 5 0 0 0 - - -;
#X connect 0 0 24 0;
#X connect 1 0 7 0;
#X connect 1 1 13 0;
#X connect 3 0 7 3;
#X connect 3 0 13 3;
#X connect 6 0 7 1;
#X connect 6 0 13 1;
#X connect 7 0 15 0;
#X connect 8 0 1 0;
#X connect 8 1 11 0;
#X connect 8 1 21 1;
#X connect 9 0 3 0;
#X connect 9 0 6 0;
#X connect 9 0 10 0;
#X connect 9 0 11 0;
#X connect 10 0 7 2;
#X connect 10 0 13 2;
#X connect 12 0 11 0;
#X connect 13 0 16 0;
#X connect 15 0 20 0;
#X connect 15 0 21 0;
#X connect 16 0 20 0;
#X connect 16 0 21 0;
#X connect 19 0 28 0;
#X connect 21 0 25 0;
#X connect 24 0 8 0;
#X connect 24 1 22 0;
#X connect 25 0 26 0;
#X connect 26 0 23 0;
#X connect 27 0 28 1;
#X connect 27 0 29 0;
#X connect 28 0 23 0;
