#N canvas 1 28 1278 736 10;
#X declare -path abs;
#X declare -path utils/pdmtl;
#X text 559 422 by Luca Carrubba - for gemq.info project - free to
share/modify/cannibalize as you want - www.estereotips.net // luca@estereotips.net
// this patch is originally from Mark Edward Green released in puredata
mailing list as green-screen-pd for what concern the color picker part
\, and is originally from Max Neupert tutorial the tracking part. Thnaks
both for share your great work!;
#N canvas 5 136 450 300 readme 0;
#X text 126 134 this is a OSC reciver for ColorTrack application;
#X text 122 166 check in the app dir!;
#X restore 912 113 pd readme;
#N canvas 4 109 450 300 init 0;
#X obj 259 114 declare -path abs;
#X obj 260 134 declare -path utils/pdmtl;
#X restore 916 141 pd init;
#N canvas 14 379 450 300 osc 0;
#X obj 145 16 loadbang;
#X msg 209 115 parse \$1;
#X obj 120 186 s outcoming;
#X obj 226 52 getdir;
#X obj 235 27 bng 15 250 50 0 empty empty empty 17 7 0 10 -262144 -1
-1;
#X obj 121 121 r incoming;
#X obj 307 -93 r osc-status;
#X obj 307 -70 sel 1;
#X obj 308 -31 once;
#X obj 121 148 OSCize colorTrack;
#X obj 221 78 makefilename %s/colorTrackReciver.pd;
#X obj 225 186 print gg;
#X connect 1 0 9 0;
#X connect 3 0 10 0;
#X connect 4 0 3 0;
#X connect 5 0 9 0;
#X connect 6 0 7 0;
#X connect 7 0 8 0;
#X connect 8 0 4 0;
#X connect 9 0 2 0;
#X connect 10 0 1 0;
#X restore 916 167 pd osc;
#X obj 101 121 cnv 15 230 89 empty empty empty 20 12 0 14 -1 -66577
0;
#X obj 113 288 cnv 15 15 15 empty empty empty 20 12 0 14 -260097 -66577
0;
#X obj 101 102 cnv 15 230 20 empty empty ColortrackReciver 20 12 0
14 -128992 -262144 0;
#X obj 101 195 cnv 15 15 15 empty empty empty 20 12 0 14 -4034 -66577
0;
#X obj 177 133 hsl 80 15 0 1 0 0 empty \$0-posX.rcv PositionX 2 8 0
10 -128992 -262144 -258113 0 1;
#X obj 177 155 hsl 80 15 0 1 0 0 empty \$0-posY.rcv PositionY 2 8 0
10 -128992 -262144 -258113 0 1;
#X obj 177 177 hsl 80 15 0 1 0 0 empty \$0-size.rcv Size 2 8 0 10 -128992
-262144 -258113 0 1;
#X obj 200 195 cnv 15 15 15 empty empty empty 20 12 0 14 -4034 -66577
0;
#X obj 316 195 cnv 15 15 15 empty empty empty 20 12 0 14 -4034 -66577
0;
#X obj 145 328 outlet;
#X obj 205 331 outlet;
#X obj 288 317 outlet;
#X connect 8 0 13 0;
#X connect 9 0 14 0;
#X connect 10 0 15 0;
#X coords 0 -1 1 1 231 111 1 100 100;
