#N canvas -271 144 951 647 10;
#X declare -path abs;
#X declare -path utils/pdmtl;
#X declare -path utils/OSCizer;
#N canvas 8 217 450 300 readme 0;
#X text 74 65 methods;
#X text 143 125 beetween 0 and 1;
#X text 150 185 0 or 1;
#X msg 79 124 sizeX \$1;
#X text 144 152 beetween 0 and 1;
#X msg 80 151 sizeY \$1;
#X msg 82 186 crop \$1;
#X restore 833 89 pd readme;
#N canvas 11 298 450 300 init 0;
#X obj 259 114 declare -path abs;
#X obj 260 134 declare -path utils/pdmtl;
#X obj 261 154 declare -path utils/OSCizer;
#X restore 837 117 pd init;
#X obj 543 55 inlet;
#X obj 101 121 cnv 15 158 69 empty empty empty 20 12 0 14 -1 -66577
0;
#N canvas 17 460 450 300 osc 0;
#X obj 145 16 loadbang;
#X msg 209 115 parse \$1;
#X obj 120 186 s outcoming;
#X obj 226 52 getdir;
#X obj 235 27 bng 15 250 50 0 empty empty empty 17 7 0 10 -262144 -1
-1;
#X obj 121 121 r incoming;
#X obj 307 -93 r osc-status;
#X obj 307 -70 sel 1;
#X obj 308 -31 once;
#X obj 221 77 makefilename %s/crop.pd;
#X obj 121 149 OSCize crop\$0;
#X connect 1 0 10 0;
#X connect 3 0 9 0;
#X connect 4 0 3 0;
#X connect 5 0 10 0;
#X connect 6 0 7 0;
#X connect 7 0 8 0;
#X connect 8 0 4 0;
#X connect 9 0 1 0;
#X connect 10 0 2 0;
#X restore 838 138 pd osc;
#X obj 101 100 cnv 15 158 20 empty empty Crop 20 12 0 14 -128992 -262144
0;
#X text 499 870 by Luca Carrubba - for gemq.info project - free to
share/modify/cannibalize as you want - www.estereotips.net // luca@estereotips.net
// hardly based on the work of Alexandre Quessy for PDMTL abstraction
library;
#X obj 245 100 cnv 15 15 15 empty empty empty 20 12 0 14 -4034 -66577
0;
#X obj 124 131 hsl 80 15 0 1 0 0 \$0-sizeX \$0-sizeX.rcv sizeX 2 8
0 10 -128992 -262144 -258113 0 1;
#X obj 223 141 tgl 15 0 \$0-crop \$0-crop.rcv Crop -10 23 0 10 -128992
-262144 -258113 0 1;
#X obj 126 160 hsl 80 15 0 1 0 0 \$0-sizeY \$0-sizeY.rcv sizeY 2 8
0 10 -128992 -262144 -258113 0 1;
#X msg 1025 453 1;
#X obj 350 379 loadbang;
#X obj 513 386 gemhead 800;
#X obj 968 490;
#X obj 459 342 pix_crop;
#X floatatom 471 306 5 0 0 1 dimX - -;
#X floatatom 484 323 5 0 0 1 dimY - -;
#X floatatom 551 306 5 0 0 1 offX - -;
#X floatatom 638 349 5 0 0 1 offY - -;
#X obj 414 436 pix_info;
#X obj 514 433 alpha;
#X msg 576 430 1;
#X floatatom 422 483 5 0 0 0 - - -;
#X floatatom 432 467 5 0 0 0 - - -;
#X obj 382 566 autoscale;
#X floatatom 396 599 5 0 0 0 - - -;
#X floatatom 226 464 5 0 0 0 - - -;
#X obj 223 424 gemmouse 1 1;
#X msg 377 543 load 0 1;
#X obj 275 513 tgl 15 0 empty empty empty 17 7 0 10 -262144 -1 -1 0
1;
#X obj 229 496 f;
#X obj 275 562 sel 1;
#X floatatom 451 600 5 0 0 0 - - -;
#X msg 450 540 load 0 1;
#X floatatom 302 464 5 0 0 0 - - -;
#X obj 305 496 f;
#X text 512 598 offset;
#X floatatom 675 392 5 0 0 0 - - -;
#X obj 545 684 gems.fit window;
#X floatatom 574 743 5 0 0 0 - - -;
#X floatatom 632 743 5 0 0 0 - - -;
#X msg 654 645 fill;
#X obj 515 404 t a a;
#X obj 666 583 loadbang;
#X obj 670 608 initbang;
#X obj 354 404 initbang;
#X obj 453 820 autoscale;
#X msg 448 797 load 0 1;
#X obj 448 747 loadbang;
#X obj 452 772 initbang;
#X obj 532 741 * -1;
#X obj 582 845 autoscale;
#X msg 577 822 load 0 1;
#X obj 577 772 loadbang;
#X obj 581 797 initbang;
#X obj 661 766 * -1;
#X msg 683 475 load 0 1;
#X obj 683 425 loadbang;
#X obj 687 450 initbang;
#X floatatom 778 377 5 0 0 0 - - -;
#X msg 779 473 load 0 1;
#X obj 779 423 loadbang;
#X obj 783 448 initbang;
#X obj 825 741 autoscale;
#X msg 820 718 load 0 1;
#X obj 820 668 loadbang;
#X obj 824 693 initbang;
#X obj 892 743 autoscale;
#X msg 887 720 load 0 1;
#X obj 887 670 loadbang;
#X obj 891 695 initbang;
#X obj 804 804 f;
#X obj 884 801 f;
#X obj 390 670 f;
#X obj 445 670 f;
#X obj 518 563 rectangle 1 1;
#X floatatom 156 261 5 0 0 0 - - -;
#X floatatom 242 248 5 0 0 0 - - -;
#X obj 511 455 colorRGB 0 1 0 0.3;
#X obj 784 496 autoscale;
#X obj 688 498 autoscale;
#X obj 222 313 -;
#X obj 683 298 unpack f f f f;
#X obj 897 602 t b b b b f;
#X obj 974 412 sel 1;
#X msg 986 451 0;
#X obj 1042 433 del 10;
#X obj 466 226 inlet;
#X obj 454 262 t a a;
#X obj 931 916 outlet;
#X obj 101 100 cnv 15 15 15 empty empty empty 20 12 0 14 -260097 -66577
0;
#X obj 703 213 f;
#X obj 733 213 f;
#X obj 711 257 pack f f 0 0;
#X obj 719 156 t b b;
#X obj 546 103 route crop sizeY sizeX;
#X obj 100 176 cnv 15 15 15 empty empty empty 20 12 0 14 -260097 -66577
0;
#X obj 517 487 translateXYZ 0 0 0;
#X obj 146 309 +;
#X obj 446 575 autoscale;
#X obj 158 683 autoscale;
#X msg 153 660 load 0 \$1;
#X floatatom 153 730 5 0 0 0 - - -;
#X obj 284 767 autoscale;
#X msg 279 744 load 0 \$1;
#X floatatom 279 814 5 0 0 0 - - -;
#X obj 264 861 -;
#X obj 138 777 -;
#X floatatom 413 705 5 0 0 0 - - -;
#X msg 485 510 0;
#X obj 368 197;
#X msg 377 318 1;
#X msg 674 700 draw line;
#X obj 733 674 startbang;
#X connect 2 0 96 0;
#X connect 8 0 38 0;
#X connect 9 0 84 0;
#X connect 10 0 60 0;
#X connect 11 0 13 0;
#X connect 12 0 29 0;
#X connect 12 0 34 0;
#X connect 12 0 112 0;
#X connect 13 0 43 0;
#X connect 15 0 90 0;
#X connect 16 0 15 1;
#X connect 17 0 15 2;
#X connect 18 0 15 3;
#X connect 19 0 15 4;
#X connect 20 1 23 0;
#X connect 20 2 24 0;
#X connect 21 0 79 0;
#X connect 22 0 21 0;
#X connect 23 0 25 2;
#X connect 23 0 64 2;
#X connect 23 0 92 1;
#X connect 23 0 104 2;
#X connect 24 0 68 2;
#X connect 24 0 93 1;
#X connect 24 0 101 2;
#X connect 24 0 100 1;
#X connect 25 0 26 0;
#X connect 26 0 74 1;
#X connect 27 0 31 1;
#X connect 28 0 27 0;
#X connect 28 1 35 0;
#X connect 28 2 30 0;
#X connect 29 0 25 0;
#X connect 30 0 32 0;
#X connect 31 0 25 0;
#X connect 31 0 47 0;
#X connect 32 0 31 0;
#X connect 32 0 36 0;
#X connect 33 0 75 1;
#X connect 34 0 100 0;
#X connect 35 0 36 1;
#X connect 36 0 52 0;
#X connect 36 0 100 0;
#X connect 38 0 64 0;
#X connect 38 0 81 0;
#X connect 39 1 40 0;
#X connect 39 2 41 0;
#X connect 39 2 102 0;
#X connect 39 2 105 0;
#X connect 40 0 51 0;
#X connect 40 0 47 2;
#X connect 40 0 81 2;
#X connect 41 0 56 0;
#X connect 41 0 52 1;
#X connect 41 0 80 2;
#X connect 42 0 39 2;
#X connect 43 0 21 0;
#X connect 43 1 39 0;
#X connect 44 0 42 0;
#X connect 45 0 42 0;
#X connect 46 0 29 0;
#X connect 46 0 34 0;
#X connect 46 0 112 0;
#X connect 47 0 99 0;
#X connect 48 0 47 0;
#X connect 49 0 48 0;
#X connect 50 0 48 0;
#X connect 51 0 47 1;
#X connect 52 0 82 0;
#X connect 53 0 52 0;
#X connect 54 0 53 0;
#X connect 55 0 53 0;
#X connect 56 0 52 2;
#X connect 57 0 81 0;
#X connect 58 0 57 0;
#X connect 59 0 57 0;
#X connect 60 0 68 0;
#X connect 60 0 80 0;
#X connect 61 0 80 0;
#X connect 62 0 61 0;
#X connect 63 0 61 0;
#X connect 64 0 72 1;
#X connect 65 0 64 0;
#X connect 66 0 65 0;
#X connect 67 0 65 0;
#X connect 68 0 73 1;
#X connect 69 0 68 0;
#X connect 70 0 69 0;
#X connect 71 0 69 0;
#X connect 72 0 16 0;
#X connect 73 0 17 0;
#X connect 74 0 18 0;
#X connect 75 0 108 0;
#X connect 75 0 109 0;
#X connect 77 0 99 1;
#X connect 77 0 104 0;
#X connect 78 0 82 1;
#X connect 78 0 101 0;
#X connect 79 0 98 0;
#X connect 80 0 76 2;
#X connect 80 0 78 0;
#X connect 81 0 76 1;
#X connect 81 0 77 0;
#X connect 82 0 98 2;
#X connect 83 0 16 0;
#X connect 83 1 17 0;
#X connect 83 2 18 0;
#X connect 83 3 19 0;
#X connect 84 0 74 0;
#X connect 84 1 75 0;
#X connect 84 2 72 0;
#X connect 84 3 73 0;
#X connect 84 4 85 0;
#X connect 85 0 86 0;
#X connect 85 1 87 0;
#X connect 85 1 11 0;
#X connect 86 0 13 0;
#X connect 87 0 95 0;
#X connect 88 0 89 0;
#X connect 89 0 20 0;
#X connect 89 1 15 0;
#X connect 92 0 94 0;
#X connect 93 0 94 1;
#X connect 94 0 83 0;
#X connect 95 0 92 0;
#X connect 95 1 93 0;
#X connect 96 0 9 0;
#X connect 96 1 10 0;
#X connect 96 2 8 0;
#X connect 98 0 76 0;
#X connect 99 0 98 1;
#X connect 100 0 33 0;
#X connect 101 0 103 0;
#X connect 102 0 101 0;
#X connect 103 0 108 1;
#X connect 104 0 106 0;
#X connect 105 0 104 0;
#X connect 106 0 107 1;
#X connect 108 0 19 0;
#X connect 110 0 100 2;
#X connect 112 0 13 0;
#X connect 113 0 76 0;
#X connect 114 0 113 0;
#X coords 0 -1 1 1 160 91 1 100 100;
