#N canvas 1 55 1265 695 10;
#X declare -path abs;
#X declare -path utils/pdmtl;
#X declare -path utils/OSCizer;
#X obj 101 122 cnv 15 240 200 empty empty empty 20 12 0 14 -1 -66577
0;
#X floatatom 395 586 5 0 0 1 num_of_z_repetitions - -;
#X obj 581 718 gems.multi.circle;
#X floatatom 622 656 5 0 0 1 repetitions - -;
#X obj 670 677 tgl 15 0 empty empty keep_orientation 17 7 0 10 -262144
-1 -1 1 1;
#N canvas 314 267 450 446 readme 0;
#X text 74 65 methods;
#X msg 77 110 number \$1;
#X text 161 108 between 1 and 50;
#X msg 77 141 type \$1;
#X text 155 170 between 0 and 359;
#X msg 75 171 rotX \$1;
#X text 158 196 between 0 and 359;
#X text 158 221 between 0 and 359;
#X msg 78 197 rotY \$1;
#X msg 78 222 rotZ \$1;
#X msg 75 258 animation \$1;
#X text 160 259 0 or 1;
#X msg 74 295 keep \$1;
#X text 141 296 0 or 1;
#X msg 79 347 fract \$1;
#X text 149 342 between 0 and 7;
#X msg 78 399 velocity \$1;
#X text 166 399 between 10 and 1000;
#X text 169 142 between 0 and 3;
#X restore 896 295 pd readme;
#N canvas 8 217 450 300 init 0;
#X obj 259 114 declare -path abs;
#X obj 260 134 declare -path utils/pdmtl;
#X obj 261 154 declare -path utils/OSCizer;
#X restore 900 323 pd init;
#N canvas 13 352 450 300 osc 0;
#X obj 145 16 loadbang;
#X msg 209 115 parse \$1;
#X obj 120 186 s outcoming;
#X obj 226 52 getdir;
#X obj 235 27 bng 15 250 50 0 empty empty empty 17 7 0 10 -262144 -1
-1;
#X obj 121 121 r incoming;
#X obj 307 -93 r osc-status;
#X obj 307 -70 sel 1;
#X obj 308 -31 once;
#X obj 221 77 makefilename %s/iterator.pd;
#X obj 121 148 OSCize iterator\$0;
#X connect 1 0 10 0;
#X connect 3 0 9 0;
#X connect 4 0 3 0;
#X connect 5 0 10 0;
#X connect 6 0 7 0;
#X connect 7 0 8 0;
#X connect 8 0 4 0;
#X connect 9 0 1 0;
#X connect 10 0 2 0;
#X restore 901 344 pd osc;
#X obj 180 134 popup 124 25 #ffffff type grid circle flow fibonacci
;
#X msg 410 34 name type;
#X obj 578 413 + 1;
#X text 543 1047 by Luca Carrubba - for gemq.info project - free to
share/modify/cannibalize as you want - www.estereotips.net // luca@estereotips.net
// hardly based on the work of Alexandre Quessy for PDMTL abstraction
library;
#X obj 726 1029 outlet;
#X obj 791 609 gemlist;
#X obj 791 588 until;
#X obj 791 707 scaleXYZ 0.9 0.9 0.9;
#X obj 805 526 route gem_state;
#X obj 805 546 route float;
#X obj 805 505 t a a;
#X floatatom 928 655 5 0 0 0 - - -;
#X floatatom 966 682 5 0 0 0 - - -;
#X obj 792 685 rotateXYZ 0 0 30;
#X obj 1040 669 line;
#X msg 1044 643 1 \, 360 3000;
#X obj 791 662 translateXYZ 0.5 0 0;
#X obj 1099 700 tgl 15 0 empty empty empty 0 -6 0 8 -262144 -1 -1 0
1;
#X floatatom 1150 701 5 0 0 0 - - -;
#X text 1188 757 Reset To Initial Conditions;
#X floatatom 1144 967 10 0 0 0 Y - -;
#X floatatom 1099 945 10 0 0 0 X - -;
#X obj 1099 717 metro 50;
#X obj 1074 716 bng 15 250 50 0 empty empty empty 0 -6 0 8 -262144
-1 -1;
#X msg 1154 787 param 0.02 10 28 2.66667;
#X floatatom 1189 994 10 0 0 0 Z - -;
#X obj 1099 913 lorenz 0.1 0 0 0.02 10 28 2.66667;
#X text 1331 789 Modify parameters;
#X msg 1144 757 reset;
#X obj 1240 940 search-tools;
#X floatatom 1056 1048 5 0 0 0 - - -;
#X obj 1161 1037 * 1;
#X obj 1055 1019 * 1;
#X obj 1000 1011 * 1;
#X msg 940 909 1;
#X msg 791 568 29;
#X obj 459 715 tgl 15 0 empty empty empty 0 -6 0 8 -262144 -1 -1 0
1;
#X floatatom 510 716 5 0 0 0 - - -;
#X floatatom 501 979 10 0 0 0 Y - -;
#X floatatom 459 952 10 0 0 0 X - -;
#X obj 459 732 metro 50;
#X obj 434 731 bng 15 250 50 0 empty empty empty 0 -6 0 8 -262144 -1
-1;
#X msg 507 815 param 0.4 0.9 6 1;
#X msg 507 793 param 0.4 0.8 20 1;
#X obj 459 916 ikeda 0.1 0.1 0.4 0.9 6 1;
#X msg 491 756 reset;
#X text 535 756 Reset to initial state from creation arguments;
#X text 641 793 Modify parameters;
#X obj 571 949 search-tools;
#X obj 287 747 rotateXYZ;
#X obj 380 972 * 1;
#X obj 378 1034 * 1;
#X msg 402 944 50;
#X msg 399 1006 50;
#X obj 708 910;
#X obj 746 856 rotateXYZ;
#X obj 1020 406 metro 50;
#X obj 1020 382 tgl 15 0 empty empty empty 20 8 0 8 -262144 -1 -1 0
1;
#X floatatom 1071 381 5 0 0 0 - - -;
#X floatatom 1065 597 5 0 0 0 - - -;
#X text 1052 446 Reset To Initial Conditions;
#X text 1053 519 Modify Parameters;
#X floatatom 1020 597 5 0 0 0 - - -;
#X text 1014 576 Output;
#X msg 1055 478 param 0.4 0.8 20 1;
#X msg 1053 428 reset 0.1 0.1;
#X msg 1055 500 param 0.4;
#X obj 944 869 * 1;
#X obj 889 861 * 1;
#X msg 829 759 22;
#X obj 791 922 scaleXYZ 4 4 1;
#X floatatom 809 875 5 0 0 0 - - -;
#X obj 276 643 gems.multi.cube 5 5 3;
#X obj 118 187 nbx 5 14 -1e+37 1e+37 0 0 empty empty N 0 -8 0 10 -1
-262144 -258113 20 256;
#X obj 299 463 + 1;
#X msg 413 468 set \$1;
#X obj 116 143 tgl 15 0 \$0-keep \$0-keep.rcv Keep -4 -7 0 10 -128992
-262144 -258113 1 1;
#X obj 252 284 nbx 5 14 10 1000 0 0 empty empty empty 0 -8 0 10 -128992
-262144 -258113 10 256;
#X obj 253 264 hsl 80 15 10 1000 0 0 \$0-velocity \$0-velocity.rcv
VELOCITY 2 8 0 10 -128992 -262144 -258113 0 1;
#X obj 119 537 + 1;
#X obj 121 228 tgl 15 0 \$0-animation \$0-animation.rcv Animation -17
-7 0 10 -128992 -262144 -258113 1 1;
#X obj 214 541 f;
#X msg 189 685 1 0 0;
#X obj 171 779 unpack f f f;
#X msg 206 725 0 1 0;
#X msg 244 748 0 0 1;
#X obj 156 484 sel 1 0;
#X obj 155 510 t b;
#X msg 246 508 0 0 0;
#X obj 185 181 cnv 15 45 40 empty empty RotX 0 -6 0 14 -233017 -258113
0;
#X obj 192 185 knob 32 32 0 360 0 0 empty empty Xrot 0 -8 0 8 -128992
-262144 -1 0 1;
#X obj 428 307 + 1;
#X obj 429 338 gate 3;
#X obj 119 272 hradio 15 1 0 8 \$0-fract \$0-fract.rcv (fract)* 0 -8
0 10 -128992 -262144 -258113 0;
#X obj 1020 540 popcorn 0.4;
#X msg 65 477 2;
#X msg 74 505 4;
#X msg 84 571 10;
#X msg 84 631 15;
#X msg 97 669 20;
#X msg 126 695 30;
#X obj 66 439 sel 0 1 2 3 4 5 6 7;
#X msg 134 730 40;
#X msg 144 763 50;
#X obj 100 893 s \$0-fract-multy;
#X obj 318 912 r \$0-fract-multy;
#X obj 851 948 r \$0-fract-multy;
#X obj 840 829 r \$0-fract-multy;
#X obj 232 181 cnv 15 45 40 empty empty RotY 0 -6 0 14 -233017 -258113
0;
#X obj 488 308 + 1;
#X obj 489 339 gate 3;
#X obj 238 184 knob 32 32 0 360 0 0 empty empty empty 0 -8 0 8 -128992
-262144 -1 0 1;
#X obj 282 181 cnv 15 45 40 empty empty RotZ 0 -6 0 14 -233017 -258113
0;
#X obj 552 308 + 1;
#X obj 288 184 knob 32 32 0 360 0 0 empty empty empty 0 -8 0 8 -128992
-262144 -1 900 1;
#X obj 100 307 cnv 15 15 15 empty empty empty 20 12 0 14 -260097 -66577
0;
#X obj 442 100 cnv 15 15 15 empty empty empty 20 12 0 14 -4034 -66577
0;
#X obj 101 101 cnv 15 240 20 empty empty Iterator 20 12 0 14 -128992
-262144 0;
#X obj 327 100 cnv 15 15 15 empty empty empty 20 12 0 14 -4034 -66577
0;
#X obj 100 100 cnv 15 15 15 empty empty empty 20 12 0 14 -260097 -66577
0;
#X obj 611 75 inlet gemlist;
#X obj 849 73 inlet data;
#X obj 131 20 hradio 15 1 0 50 empty \$0-number.rcv empty 0 -8 0 10
-262144 -1 -1 0;
#X obj 47 385 hradio 15 1 0 50 \$0-number empty empty 0 -8 0 10 -262144
-1 -1 20;
#X obj 547 120 route number type rotX rotY rotZ animation keep fract
velocity;
#X msg 467 145 load 10 1000;
#X obj 495 105 initbang;
#X obj 495 87 loadbang;
#X obj 450 187 autoscale 1000 10;
#X obj 1125 375 t b;
#X obj 1192 698 t b;
#X obj 525 686 t b;
#X floatatom 860 893 5 0 0 0 - - -;
#X floatatom 906 902 5 0 0 0 - - -;
#X floatatom 162 602 5 0 0 0 - - -;
#X obj 648 233 scaleXYZ 2 2 1;
#X obj 1209 204 scaleXYZ 1.02 1.02 1.02;
#X obj 1392 158 t b;
#X obj 1420 159 t b;
#X floatatom 1338 89 5 0 0 0 - - -;
#X text 1383 88 Number of iterations;
#X obj 1209 278 rotateXYZ;
#X obj 1209 344 translateXYZ;
#X obj 1535 157 bng 15 250 50 0 empty empty empty 0 -6 0 8 -262144
-1 -1;
#X text 1557 156 Start over the animation;
#X obj 1219 109 gems.duplicate 220;
#X obj 1243 311 count.iter 0 0.02;
#X obj 1391 290 count.iter 0 1e-05;
#X obj 1587 229 hsl 128 15 0 100 0 0 empty empty empty -2 -8 0 10 -262144
-1 -1 0 1;
#X floatatom 1611 304 5 0 0 0 - - -;
#X obj 1603 263 / 100000;
#X floatatom 1718 502 5 0 0 0 - - -;
#X text 1705 358 Reset To Initial Conditions;
#X text 1706 424 Modify Parameters;
#X floatatom 1671 478 5 0 0 0 - - -;
#X text 1665 457 Output;
#X msg 1708 405 param 0.4 0.9 6 1;
#X msg 1708 383 param 0.2 1.8 20 1;
#X floatatom 1476 134 5 0 0 0 - - -;
#X obj 1466 569 rotateXYZ;
#X obj 1673 445 henon;
#X msg 1706 333 reset 0.1 0.1;
#X obj 1688 558 line;
#X msg 1693 531 \$1 150;
#X obj 1674 503 * 40;
#X obj 1767 534 line;
#X msg 1772 507 \$1 150;
#X obj 1753 479 * 10;
#X obj 1438 542 gate 2;
#X obj 1436 520 + 1;
#X obj 1225 464 hradio 15 1 0 2 empty empty empty 0 -8 0 10 -262144
-1 -1 1;
#X obj 1267 242 count.iter 0 137.5;
#X msg 10 57 options grid circle flow fibonacci;
#X obj 308 483 gate 4;
#X obj 120 568 gate 4;
#X obj 1018 159 startbang;
#X msg 1018 181 load 1000 10;
#X obj 1062 229 autoscale 0 100;
#X obj 189 649 sel 0 1 2 3;
#X obj 1066 316 bng 15 250 50 0 empty empty empty 17 7 0 10 -262144
-1 -1;
#X obj 553 339 gate 4;
#X obj 1696 295 startbang;
#X obj 1373 347 startbang;
#X obj 579 444 gate 4;
#X obj 1551 496 r \$0-fract-multy;
#X connect 1 0 80 3;
#X connect 2 0 63 0;
#X connect 3 0 2 1;
#X connect 4 0 2 2;
#X connect 8 0 10 0;
#X connect 8 0 82 0;
#X connect 8 0 87 0;
#X connect 8 0 89 1;
#X connect 8 0 99 0;
#X connect 8 0 117 0;
#X connect 8 0 121 0;
#X connect 9 0 8 0;
#X connect 10 0 191 0;
#X connect 13 0 24 0;
#X connect 14 0 13 0;
#X connect 15 0 12 0;
#X connect 16 0 17 0;
#X connect 17 1 43 0;
#X connect 18 0 16 0;
#X connect 18 1 13 1;
#X connect 19 0 21 3;
#X connect 20 0 21 2;
#X connect 21 0 15 0;
#X connect 22 0 19 0;
#X connect 23 0 22 0;
#X connect 24 0 21 0;
#X connect 25 0 30 0;
#X connect 25 0 138 0;
#X connect 26 0 30 1;
#X connect 28 0 40 0;
#X connect 29 0 41 0;
#X connect 30 0 34 0;
#X connect 31 0 34 0;
#X connect 32 0 34 0;
#X connect 33 0 39 0;
#X connect 34 0 29 0;
#X connect 34 1 28 0;
#X connect 34 2 33 0;
#X connect 34 3 37 0;
#X connect 34 4 37 1;
#X connect 34 5 37 2;
#X connect 36 0 34 0;
#X connect 37 0 34 0;
#X connect 39 0 21 1;
#X connect 40 0 20 0;
#X connect 41 0 19 0;
#X connect 42 0 41 1;
#X connect 42 0 40 1;
#X connect 42 0 39 1;
#X connect 43 0 14 0;
#X connect 44 0 48 0;
#X connect 44 0 139 0;
#X connect 45 0 48 1;
#X connect 46 0 59 0;
#X connect 47 0 58 0;
#X connect 48 0 52 0;
#X connect 49 0 52 0;
#X connect 50 0 52 0;
#X connect 51 0 52 0;
#X connect 52 0 47 0;
#X connect 52 1 46 0;
#X connect 52 2 56 0;
#X connect 52 3 56 1;
#X connect 52 4 56 2;
#X connect 53 0 52 0;
#X connect 56 0 52 0;
#X connect 57 0 12 0;
#X connect 58 0 57 3;
#X connect 59 0 57 1;
#X connect 60 0 58 1;
#X connect 61 0 59 1;
#X connect 63 0 78 0;
#X connect 64 0 102 0;
#X connect 65 0 64 0;
#X connect 65 0 137 0;
#X connect 66 0 64 1;
#X connect 67 0 75 0;
#X connect 70 0 76 0;
#X connect 72 0 102 0;
#X connect 73 0 102 0;
#X connect 74 0 102 0;
#X connect 75 0 63 3;
#X connect 76 0 63 1;
#X connect 76 0 141 0;
#X connect 77 0 76 1;
#X connect 77 0 75 1;
#X connect 78 0 12 0;
#X connect 79 0 78 1;
#X connect 79 0 78 2;
#X connect 80 0 57 0;
#X connect 81 0 131 0;
#X connect 81 0 181 1;
#X connect 82 0 181 0;
#X connect 83 0 43 0;
#X connect 84 0 4 0;
#X connect 84 0 178 0;
#X connect 85 0 136 0;
#X connect 86 0 85 0;
#X connect 87 0 182 0;
#X connect 88 0 94 0;
#X connect 89 0 186 0;
#X connect 90 0 91 0;
#X connect 91 0 44 0;
#X connect 91 1 65 0;
#X connect 91 2 25 0;
#X connect 92 0 91 0;
#X connect 93 0 91 0;
#X connect 94 0 95 0;
#X connect 94 1 96 0;
#X connect 95 0 89 0;
#X connect 96 0 91 0;
#X connect 98 0 100 1;
#X connect 99 0 100 0;
#X connect 100 0 57 1;
#X connect 100 1 63 1;
#X connect 100 2 21 1;
#X connect 101 0 109 0;
#X connect 102 0 70 0;
#X connect 102 1 67 0;
#X connect 103 0 112 0;
#X connect 104 0 112 0;
#X connect 105 0 112 0;
#X connect 106 0 112 0;
#X connect 107 0 112 0;
#X connect 108 0 112 0;
#X connect 109 0 103 0;
#X connect 109 1 104 0;
#X connect 109 2 105 0;
#X connect 109 3 106 0;
#X connect 109 4 107 0;
#X connect 109 5 108 0;
#X connect 109 6 110 0;
#X connect 109 7 111 0;
#X connect 110 0 112 0;
#X connect 111 0 112 0;
#X connect 113 0 58 1;
#X connect 113 0 59 1;
#X connect 114 0 41 1;
#X connect 114 0 40 1;
#X connect 115 0 76 1;
#X connect 115 0 75 1;
#X connect 115 0 140 0;
#X connect 117 0 118 0;
#X connect 118 0 57 2;
#X connect 118 1 63 2;
#X connect 118 2 21 2;
#X connect 119 0 118 1;
#X connect 121 0 188 0;
#X connect 122 0 188 1;
#X connect 128 0 143 0;
#X connect 129 0 132 0;
#X connect 130 0 81 0;
#X connect 132 0 130 0;
#X connect 132 1 8 0;
#X connect 132 2 98 0;
#X connect 132 3 119 0;
#X connect 132 4 119 0;
#X connect 132 5 88 0;
#X connect 132 6 84 0;
#X connect 132 7 101 0;
#X connect 132 8 86 0;
#X connect 133 0 136 0;
#X connect 134 0 133 0;
#X connect 135 0 133 0;
#X connect 136 0 182 1;
#X connect 137 0 73 0;
#X connect 137 0 74 0;
#X connect 138 0 36 0;
#X connect 138 0 32 0;
#X connect 139 0 51 0;
#X connect 139 0 53 0;
#X connect 143 0 191 1;
#X connect 144 0 149 0;
#X connect 145 0 154 0;
#X connect 145 0 155 0;
#X connect 145 0 168 0;
#X connect 145 0 179 0;
#X connect 146 0 154 1;
#X connect 146 0 179 1;
#X connect 147 0 153 1;
#X connect 149 0 150 0;
#X connect 150 0 176 1;
#X connect 151 0 155 1;
#X connect 153 0 144 0;
#X connect 153 1 145 0;
#X connect 153 2 146 0;
#X connect 154 0 150 1;
#X connect 155 0 154 2;
#X connect 156 0 158 0;
#X connect 158 0 155 2;
#X connect 158 0 157 0;
#X connect 159 0 175 0;
#X connect 162 0 172 0;
#X connect 164 0 168 0;
#X connect 165 0 168 0;
#X connect 166 0 179 2;
#X connect 167 0 12 0;
#X connect 168 0 162 0;
#X connect 168 1 159 0;
#X connect 169 0 168 0;
#X connect 170 0 167 2;
#X connect 171 0 170 0;
#X connect 172 0 171 0;
#X connect 173 0 167 3;
#X connect 174 0 173 0;
#X connect 175 0 174 0;
#X connect 176 0 12 0;
#X connect 176 1 167 0;
#X connect 177 0 176 0;
#X connect 178 0 177 0;
#X connect 179 0 149 3;
#X connect 180 0 8 0;
#X connect 181 0 1 0;
#X connect 181 1 3 0;
#X connect 181 2 83 0;
#X connect 181 3 147 0;
#X connect 182 0 48 1;
#X connect 182 1 64 1;
#X connect 182 1 142 0;
#X connect 182 2 30 1;
#X connect 182 3 185 0;
#X connect 183 0 184 0;
#X connect 184 0 185 0;
#X connect 185 0 156 0;
#X connect 186 0 90 0;
#X connect 186 1 92 0;
#X connect 186 2 93 0;
#X connect 186 3 187 0;
#X connect 187 0 151 0;
#X connect 188 0 57 3;
#X connect 188 1 63 3;
#X connect 188 2 21 3;
#X connect 188 3 166 0;
#X connect 189 0 169 0;
#X connect 190 0 178 0;
#X connect 191 0 80 0;
#X connect 191 1 2 0;
#X connect 191 2 18 0;
#X connect 191 3 153 0;
#X connect 192 0 175 1;
#X connect 192 0 172 1;
#X coords 0 -1 1 1 242 222 1 100 100;
