#N canvas 1 84 1364 682 10;
#X declare -path abs;
#X declare -path utils/pdmtl;
#X declare -path utils/midiLearn;
#X obj 100 120 cnv 15 179 85 empty empty empty 20 12 0 14 -1 -66577
0;
#X obj 100 101 cnv 15 179 20 empty \$0-name RAMP_rotX 20 12 0 14 -128992
-262144 0;
#X obj 101 189 cnv 15 15 15 empty empty empty 20 12 0 14 -4034 -66577
0;
#X obj 102 371 line;
#X obj -30 191 startbang;
#X obj 93 839 outlet;
#X obj 186 10 startbang;
#X obj 176 264 t b b;
#X obj 162 357 pack 0 0;
#X obj 145 519 t b b;
#X obj 135 601 pack 0 0;
#X obj 226 530 t b b;
#X obj 216 612 pack 0 0;
#X obj 148 497 del 250;
#X obj 229 484 del 250;
#X obj 229 433 bng 15 250 50 0 empty empty empty 17 7 0 10 -262144
-1 -1;
#X obj 222 680 bng 15 250 50 0 empty empty empty 17 7 0 10 -262144
-1 -1;
#X obj 271 665;
#X obj 151 428 spigot 0;
#X obj 219 640 spigot 0;
#X obj 148 632 spigot 0;
#X obj 315 283 tgl 15 0 empty empty empty 17 7 0 10 -262144 -1 -1 0
1;
#X obj 161 448 bng 15 250 50 0 empty empty empty 17 7 0 10 -262144
-1 -1;
#X obj 47 284 bng 15 250 50 0 empty empty empty 17 7 0 10 -262144 -1
-1;
#X obj 1 243 del 100;
#X obj 212 326 t b b b;
#N canvas 675 275 450 300 readme 0;
#X msg 138 71 min \$1;
#X msg 138 94 max \$1;
#X msg 139 114 time \$1;
#X msg 142 135 start;
#X msg 143 164 loop \$1;
#X text 204 72 min number ramp;
#X text 206 92 max number ramp;
#X text 206 114 ramp time;
#X text 199 132 start ramp;
#X text 214 158 loop ramp palindrome (1 | 0);
#X restore 947 239 pd readme;
#N canvas 506 250 450 300 init 0;
#X obj 259 114 declare -path abs;
#X obj 260 134 declare -path utils/pdmtl;
#X obj 258 155 declare -path utils/midiLearn;
#X restore 951 267 pd init;
#N canvas 6 281 450 300 osc 0;
#X obj 145 16 loadbang;
#X msg 209 115 parse \$1;
#X obj 120 186 s outcoming;
#X obj 226 52 getdir;
#X obj 235 27 bng 15 250 50 0 empty empty empty 17 7 0 10 -262144 -1
-1;
#X obj 121 121 r incoming;
#X obj 307 -93 r osc-status;
#X obj 307 -70 sel 1;
#X obj 308 -31 once;
#X obj 220 77 makefilename %s/ramp.pd;
#X obj 121 148 OSCize ramp\$0;
#X connect 1 0 10 0;
#X connect 3 0 9 0;
#X connect 4 0 3 0;
#X connect 5 0 10 0;
#X connect 6 0 7 0;
#X connect 7 0 8 0;
#X connect 8 0 4 0;
#X connect 9 0 1 0;
#X connect 10 0 2 0;
#X restore 951 293 pd osc;
#N canvas 819 309 450 300 visualize 0;
#X obj 68 103 tgl 15 0 empty empty empty 17 7 0 10 -262144 -1 -1 0
1;
#X obj 57 132 list prepend \$1;
#X obj 28 37 r /global/vis;
#X obj 36 65 r /\$1/vis;
#X obj 243 294 prepend \$0;
#X obj 238 241 startbang;
#X obj 244 266 symbol \$1;
#X obj 51 218 r \$0-form;
#X msg 41 460 \; \$1-form.rcv label \$2;
#X obj 44 432 prepend \$0;
#X obj 49 240 sel 0 1 2 3 4;
#X msg 63 265 symbol rectangle;
#X msg 80 304 symbol trinagle;
#X msg 97 324 symbol circle;
#X msg 117 355 symbol trapezoid;
#X msg 49 287 symbol square;
#X obj 251 487 prepend \$0;
#X msg 248 515 \; \$1-draw.rcv label \$2;
#X obj 242 396 sel 0 1 2;
#X obj 239 374 r \$0-draw;
#X msg 241 424 symbol fill;
#X msg 256 445 symbol line;
#X msg 277 466 symbol point;
#X msg 243 316 \; \$1-name label FORM2D_\$2;
#X msg 63 168 \; \$1 donecanvasdialog 1 -1 \$2 0 -1 1 1 179 105 100
100;
#X connect 0 0 1 0;
#X connect 1 0 24 0;
#X connect 2 0 1 0;
#X connect 3 0 1 0;
#X connect 4 0 23 0;
#X connect 5 0 6 0;
#X connect 6 0 4 0;
#X connect 7 0 10 0;
#X connect 9 0 8 0;
#X connect 10 0 15 0;
#X connect 10 1 11 0;
#X connect 10 2 12 0;
#X connect 10 3 13 0;
#X connect 10 4 14 0;
#X connect 11 0 9 0;
#X connect 12 0 9 0;
#X connect 13 0 9 0;
#X connect 14 0 9 0;
#X connect 15 0 9 0;
#X connect 16 0 17 0;
#X connect 18 0 20 0;
#X connect 18 1 21 0;
#X connect 18 2 22 0;
#X connect 19 0 18 0;
#X connect 20 0 16 0;
#X connect 21 0 16 0;
#X connect 22 0 16 0;
#X restore 942 327 pd visualize;
#X obj 948 203 namecanvas \$1;
#X obj 887 614 prepend \$0;
#X obj 882 561 startbang;
#X obj 888 586 symbol \$1;
#X obj 968 550 bng 15 250 50 0 empty empty empty 17 7 0 10 -262144
-1 -1;
#X obj 179 174 nbx 5 14 -1e+37 1e+37 0 0 empty empty max 0 -8 0 10
-1 -262144 -258113 4000 256;
#X obj 119 175 nbx 5 14 -1e+37 1e+37 0 0 empty empty min 0 -8 0 10
-1 -262144 -258113 0 256;
#X obj 142 144 nbx 5 14 -1e+37 1e+37 0 0 empty empty time(ms) 0 -8
0 10 -1 -262144 -258113 4000 256;
#X obj 6 51 startbang;
#X obj 369 68 startbang;
#X obj 237 138 bng 15 250 50 0 empty empty start -7 -7 0 10 -33289
-258113 -258113;
#X obj 236 172 tgl 20 0 empty empty Loop -3 -7 0 10 -33289 -262144
-258113 0 1;
#X floatatom 40 441 5 0 0 0 - - -;
#X obj 92 296 f;
#X obj 156 303 f;
#X obj 190 302 f;
#X obj 286 50 sel 0;
#X msg 287 74 1000;
#X obj -1 118 sel 0;
#X msg 2 143 0;
#X obj 397 156 sel 0;
#X msg 363 170 1;
#X obj 129 547 f;
#X obj 163 546 f;
#X obj 210 558 f;
#X obj 244 557 f;
#X obj 8 91 f \$2;
#X obj 188 50 f \$4;
#X msg 887 636 \; \$1-name label RAMP_\$2;
#X obj 165 469 del;
#X obj 228 459 del;
#X obj 263 101 cnv 15 15 15 empty empty empty 20 12 0 14 -4034 -66577
0;
#X obj 112 12 inlet;
#X obj 658 186 inlet;
#X obj 657 219 route min max time start loop;
#X obj 371 108 f \$3;
#X connect 3 0 5 0;
#X connect 3 0 42 0;
#X connect 4 0 24 0;
#X connect 6 0 57 0;
#X connect 7 0 44 0;
#X connect 7 1 45 0;
#X connect 8 0 3 0;
#X connect 9 0 52 0;
#X connect 9 1 53 0;
#X connect 10 0 3 0;
#X connect 11 0 54 0;
#X connect 11 1 55 0;
#X connect 12 0 3 0;
#X connect 12 0 19 0;
#X connect 13 0 9 0;
#X connect 14 0 11 0;
#X connect 15 0 60 0;
#X connect 16 0 18 0;
#X connect 18 0 22 0;
#X connect 19 0 16 0;
#X connect 20 0 15 0;
#X connect 21 0 18 1;
#X connect 21 0 20 1;
#X connect 21 0 19 1;
#X connect 22 0 59 0;
#X connect 23 0 43 0;
#X connect 25 0 18 0;
#X connect 25 1 7 0;
#X connect 25 2 23 0;
#X connect 31 0 58 0;
#X connect 32 0 33 0;
#X connect 33 0 31 0;
#X connect 34 0 33 0;
#X connect 35 0 44 1;
#X connect 35 0 54 1;
#X connect 36 0 43 1;
#X connect 36 0 52 1;
#X connect 37 0 45 1;
#X connect 37 0 53 1;
#X connect 37 0 55 1;
#X connect 37 0 59 1;
#X connect 37 0 60 1;
#X connect 38 0 56 0;
#X connect 39 0 65 0;
#X connect 40 0 23 0;
#X connect 40 0 25 0;
#X connect 41 0 21 0;
#X connect 43 0 3 0;
#X connect 44 0 8 0;
#X connect 45 0 8 1;
#X connect 46 0 47 0;
#X connect 47 0 37 0;
#X connect 48 0 49 0;
#X connect 49 0 36 0;
#X connect 50 0 51 0;
#X connect 51 0 35 0;
#X connect 52 0 10 0;
#X connect 53 0 10 1;
#X connect 54 0 12 0;
#X connect 55 0 12 1;
#X connect 56 0 36 0;
#X connect 56 0 48 0;
#X connect 57 0 37 0;
#X connect 57 0 46 0;
#X connect 59 0 13 0;
#X connect 59 0 20 0;
#X connect 60 0 14 0;
#X connect 63 0 64 0;
#X connect 64 0 36 0;
#X connect 64 1 35 0;
#X connect 64 2 37 0;
#X connect 64 3 40 0;
#X connect 64 4 41 0;
#X connect 65 0 35 0;
#X connect 65 0 50 0;
#X coords 0 -1 1 1 179 105 1 100 100;
