#N canvas 107 206 901 560 10;
#X declare -path abs;
#X declare -path utils/pdmtl;
#X declare -path utils/midiLearn;
#X obj 101 121 cnv 15 230 90 empty empty empty 20 12 0 14 -1 -66577
0;
#X obj 109 157 nbx 5 14 -1e+37 1e+37 0 0 empty empty N 0 -8 0 10 -1
-262144 -258113 15 256;
#X obj 101 196 cnv 15 15 15 empty empty empty 20 12 0 14 -260097 -66577
0;
#X obj 100 100 cnv 15 230 20 empty \$0-name REPETITION_uno 20 12 0
14 -128992 -262144 0;
#X obj 315 100 cnv 15 15 15 empty empty empty 20 12 0 14 -4034 -66577
0;
#X obj 101 101 cnv 15 15 15 empty empty empty 20 12 0 14 -260097 -66577
0;
#X obj 504 350 gemlist;
#X obj 504 329 until;
#X obj 504 448 scaleXYZ 0.9 0.9 0.9;
#X obj 520 248 route gem_state;
#X obj 520 227 t a a;
#X obj 504 403 translateXYZ 0.5 0 0;
#X msg 504 309 15;
#X floatatom 567 359 5 0 0 0 - - -;
#X obj 520 268 route float;
#X obj 519 202 inlet;
#X obj 505 475 outlet;
#X msg 379 423 set \$1;
#X obj 505 426 rotateXYZ 0 0 31;
#N canvas 677 270 450 300 readme 0;
#X msg 138 71 repetition \$1;
#X msg 138 94 rotX \$1;
#X msg 139 114 rotY \$1;
#X msg 142 135 rotZ \$1;
#X text 229 72 number of repetition;
#X text 206 92 X rotation (0...1);
#X text 206 114 y rotation (0...1);
#X text 200 131 Z rotation (0...1);
#X restore 768 73 pd readme;
#N canvas 506 250 450 300 init 0;
#X obj 259 114 declare -path abs;
#X obj 260 134 declare -path utils/pdmtl;
#X obj 258 155 declare -path utils/midiLearn;
#X restore 772 101 pd init;
#N canvas 8 276 450 300 osc 0;
#X obj 145 16 loadbang;
#X msg 209 115 parse \$1;
#X obj 120 186 s outcoming;
#X obj 226 52 getdir;
#X obj 235 27 bng 15 250 50 0 empty empty empty 17 7 0 10 -262144 -1
-1;
#X obj 121 121 r incoming;
#X obj 307 -93 r osc-status;
#X obj 307 -70 sel 1;
#X obj 308 -31 once;
#X obj 221 77 makefilename %s/repetition.pd;
#X obj 121 148 OSCize repetition\$0;
#X connect 1 0 10 0;
#X connect 3 0 9 0;
#X connect 4 0 3 0;
#X connect 5 0 10 0;
#X connect 6 0 7 0;
#X connect 7 0 8 0;
#X connect 8 0 4 0;
#X connect 9 0 1 0;
#X connect 10 0 2 0;
#X restore 772 127 pd osc;
#N canvas 821 304 450 300 visualize 0;
#X obj 68 103 tgl 15 0 empty empty empty 17 7 0 10 -262144 -1 -1 0
1;
#X obj 57 132 list prepend \$1;
#X obj 28 37 r /global/vis;
#X obj 36 65 r /\$1/vis;
#X obj 243 294 prepend \$0;
#X obj 238 241 startbang;
#X obj 244 266 symbol \$1;
#X obj 51 218 r \$0-form;
#X msg 41 460 \; \$1-form.rcv label \$2;
#X obj 44 432 prepend \$0;
#X obj 49 240 sel 0 1 2 3 4;
#X msg 63 265 symbol rectangle;
#X msg 80 304 symbol trinagle;
#X msg 97 324 symbol circle;
#X msg 117 355 symbol trapezoid;
#X msg 49 287 symbol square;
#X obj 251 487 prepend \$0;
#X msg 248 515 \; \$1-draw.rcv label \$2;
#X obj 242 396 sel 0 1 2;
#X obj 239 374 r \$0-draw;
#X msg 241 424 symbol fill;
#X msg 256 445 symbol line;
#X msg 277 466 symbol point;
#X msg 243 316 \; \$1-name label FORM2D_\$2;
#X msg 63 168 \; \$1 donecanvasdialog 1 -1 \$2 0 -1 1 1 230 112 100
100;
#X connect 0 0 1 0;
#X connect 1 0 24 0;
#X connect 2 0 1 0;
#X connect 3 0 1 0;
#X connect 4 0 23 0;
#X connect 5 0 6 0;
#X connect 6 0 4 0;
#X connect 7 0 10 0;
#X connect 9 0 8 0;
#X connect 10 0 15 0;
#X connect 10 1 11 0;
#X connect 10 2 12 0;
#X connect 10 3 13 0;
#X connect 10 4 14 0;
#X connect 11 0 9 0;
#X connect 12 0 9 0;
#X connect 13 0 9 0;
#X connect 14 0 9 0;
#X connect 15 0 9 0;
#X connect 16 0 17 0;
#X connect 18 0 20 0;
#X connect 18 1 21 0;
#X connect 18 2 22 0;
#X connect 19 0 18 0;
#X connect 20 0 16 0;
#X connect 21 0 16 0;
#X connect 22 0 16 0;
#X restore 757 161 pd visualize;
#X obj 769 37 namecanvas \$1;
#X obj 708 448 prepend \$0;
#X obj 703 395 startbang;
#X obj 709 420 symbol \$1;
#X msg 708 470 \; \$1-name label REPETITION_\$2;
#X obj 182 131 myhslider rotX;
#X obj 182 151 myhslider rotY;
#X obj 182 170 myhslider rotZ;
#X obj 618 85 autoscale 0 360;
#X msg 619 63 load 0 1;
#X obj 618 41 loadbang;
#X obj 616 150 autoscale 0 360;
#X msg 617 128 load 0 1;
#X obj 616 106 loadbang;
#X obj 619 218 autoscale 0 360;
#X msg 620 196 load 0 1;
#X obj 619 174 loadbang;
#X obj 742 229 route repetition rotX rotY rotZ;
#X obj 743 200 inlet;
#X obj 789 384 bng 15 250 50 0 empty empty empty 17 7 0 10 -262144
-1 -1;
#X obj 103 17 startbang;
#X msg 103 43 1;
#X connect 1 0 17 0;
#X connect 6 0 11 0;
#X connect 7 0 6 0;
#X connect 8 0 16 0;
#X connect 9 0 14 0;
#X connect 10 0 9 0;
#X connect 10 1 6 1;
#X connect 11 0 18 0;
#X connect 12 0 7 0;
#X connect 13 0 18 2;
#X connect 14 1 12 0;
#X connect 15 0 10 0;
#X connect 17 0 12 0;
#X connect 18 0 8 0;
#X connect 24 0 27 0;
#X connect 25 0 26 0;
#X connect 26 0 24 0;
#X connect 28 0 31 0;
#X connect 29 0 34 0;
#X connect 30 0 37 0;
#X connect 31 0 18 1;
#X connect 32 0 31 0;
#X connect 33 0 32 0;
#X connect 34 0 18 2;
#X connect 35 0 34 0;
#X connect 36 0 35 0;
#X connect 37 0 18 3;
#X connect 38 0 37 0;
#X connect 39 0 38 0;
#X connect 40 0 1 0;
#X connect 40 1 28 0;
#X connect 40 2 29 0;
#X connect 40 3 30 0;
#X connect 41 0 40 0;
#X connect 42 0 26 0;
#X connect 43 0 44 0;
#X connect 44 0 1 0;
#X coords 0 -1 1 1 230 112 1 100 100;
