#N canvas 0 0 450 300 10;
#X obj 137 191 syn-wind /key;
#X obj 130 250 s~ wind;
#X obj 340 232 outlet;
#X obj 333 132 initbang;
#X obj 355 198 metro 100;
#X msg 74 108 \; pd dsp 0 \; pd dsp 1;
#X obj 70 57 delay 1000;
#X connect 0 0 1 0;
#X connect 3 0 4 0;
#X connect 3 0 6 0;
#X connect 4 0 2 0;
#X connect 6 0 5 0;
