#N canvas 0 0 450 300 10;
#X obj 146 158 route /cursor;
#X obj 147 209 unpack 0 0;
#X obj 145 132 inlet;
#X obj 146 181 route \$1;
#X obj 145 240 outlet;
#X obj 204 241 outlet;
#X connect 0 0 3 0;
#X connect 1 0 4 0;
#X connect 1 1 5 0;
#X connect 2 0 0 0;
#X connect 3 0 1 0;
