#N canvas 1 84 1363 682 10;
#X declare -path abs;
#X declare -path utils/pdmtl;
#X declare -path utils/midiLearn;
#N canvas 1 119 450 300 readme 0;
#X restore 1203 132 pd readme;
#X obj 723 153 inlet;
#N canvas 2 114 450 300 init 0;
#X obj 259 114 declare -path abs;
#X obj 260 134 declare -path utils/pdmtl;
#X obj 258 155 declare -path utils/midiLearn;
#X restore 1207 160 pd init;
#X obj 100 121 cnv 15 250 200 empty empty empty 20 12 0 14 -1 -66577
0;
#X obj 100 101 cnv 15 250 20 empty \$0-name FORM2D_test 20 12 0 14
-128992 -262144 0;
#X obj 137 230 input.color.grid_;
#X obj 335 101 cnv 15 15 15 empty empty empty 20 12 0 14 -4034 -66577
0;
#N canvas 10 271 450 300 osc 0;
#X obj 145 16 loadbang;
#X msg 209 115 parse \$1;
#X obj 120 186 s outcoming;
#X obj 226 52 getdir;
#X obj 235 27 bng 15 250 50 0 empty empty empty 17 7 0 10 -262144 -1
-1;
#X obj 121 121 r incoming;
#X obj 307 -93 r osc-status;
#X obj 307 -70 sel 1;
#X obj 308 -31 once;
#X obj 221 77 makefilename %s/screen.pd;
#X obj 121 148 OSCize screen\$0;
#X connect 1 0 10 0;
#X connect 3 0 9 0;
#X connect 4 0 3 0;
#X connect 5 0 10 0;
#X connect 6 0 7 0;
#X connect 7 0 8 0;
#X connect 8 0 4 0;
#X connect 9 0 1 0;
#X connect 10 0 2 0;
#X restore 1207 186 pd osc;
#X msg 231 56;
#X obj 352 49 loadbang;
#X obj 367 81 initbang;
#X msg 378 134 0;
#X text 935 659 by Luca Carrubba - for gemq.info project - free to
share/modify/cannibalize as you want - www.estereotips.net // luca@estereotips.net
// hardly based on the work of Alexandre Quessy for PDMTL abstraction
library;
#N canvas 825 294 450 300 visualize 0;
#X obj 68 103 tgl 15 0 empty empty empty 17 7 0 10 -262144 -1 -1 0
1;
#X obj 57 132 list prepend \$1;
#X obj 28 37 r /global/vis;
#X obj 36 65 r /\$1/vis;
#X obj 243 294 prepend \$0;
#X obj 238 241 startbang;
#X obj 244 266 symbol \$1;
#X obj 51 218 r \$0-form;
#X msg 41 460 \; \$1-form.rcv label \$2;
#X obj 44 432 prepend \$0;
#X obj 49 240 sel 0 1 2 3 4;
#X msg 63 265 symbol rectangle;
#X msg 80 304 symbol trinagle;
#X msg 97 324 symbol circle;
#X msg 117 355 symbol trapezoid;
#X msg 49 287 symbol square;
#X obj 251 487 prepend \$0;
#X msg 248 515 \; \$1-draw.rcv label \$2;
#X obj 242 396 sel 0 1 2;
#X obj 239 374 r \$0-draw;
#X msg 241 424 symbol fill;
#X msg 256 445 symbol line;
#X msg 277 466 symbol point;
#X msg 63 168 \; \$1 donecanvasdialog 1 -1 \$2 0 -1 1 1 251 221 100
100;
#X msg 243 316 \; \$1-name label FORM2D_\$2;
#X connect 0 0 1 0;
#X connect 1 0 23 0;
#X connect 2 0 1 0;
#X connect 3 0 1 0;
#X connect 4 0 24 0;
#X connect 5 0 6 0;
#X connect 6 0 4 0;
#X connect 7 0 10 0;
#X connect 9 0 8 0;
#X connect 10 0 15 0;
#X connect 10 1 11 0;
#X connect 10 2 12 0;
#X connect 10 3 13 0;
#X connect 10 4 14 0;
#X connect 11 0 9 0;
#X connect 12 0 9 0;
#X connect 13 0 9 0;
#X connect 14 0 9 0;
#X connect 15 0 9 0;
#X connect 16 0 17 0;
#X connect 18 0 20 0;
#X connect 18 1 21 0;
#X connect 18 2 22 0;
#X connect 19 0 18 0;
#X connect 20 0 16 0;
#X connect 21 0 16 0;
#X connect 22 0 16 0;
#X restore 1192 220 pd visualize;
#X obj 763 62 namecanvas \$1;
#X obj 662 73 inlet;
#X obj 535 293 gemhead 20;
#X obj 552 533 gemhead;
#X obj 535 314 gemframebuffer;
#X obj 552 558 pix_texture;
#X obj 535 418 color 1 0 0;
#X obj 536 336 translateXYZ 0 0 -4;
#X obj 554 606 outlet;
#X obj 199 489;
#X obj 881 636 triangle;
#X obj 948 637 circle;
#X obj 747 639 square;
#X obj 792 446 hradio 15 1 0 5 empty empty empty 0 -8 0 10 -262144
-1 -1 0;
#X obj 791 478 + 1;
#X obj 792 638 rectangle 2 1;
#X floatatom 829 340 5 0 0 0 - - -;
#X floatatom 982 553 5 0 0 0 - - -;
#X obj 1000 636 trapezoid 1 2;
#X obj 791 519 gate 5;
#X obj 182 143 hradio 16 1 0 5 \$0-form \$0-form.rcv square 10 25 0
10 -128992 -262144 -258113 0;
#X obj 165 208 myhslider Size;
#X obj 181 124 cnv 15 10 10 empty empty Forms 20 12 0 14 -1 -258113
0;
#X msg 193 358 load 0 1;
#X obj 819 594 t f f;
#X obj 870 608 / 1.3333;
#X obj 723 185 route forms size colors;
#X obj 100 306 cnv 15 15 15 empty empty empty 20 12 0 14 -260097 -66577
0;
#X msg 1004 305 draw fill;
#X msg 1006 329 draw line;
#X msg 1008 350 draw point;
#X obj 203 181 hradio 11 1 0 3 \$0-draw \$0-draw.rcv fill 0 17 0 10
-128992 -262144 -258113 0;
#X obj 1079 222;
#X obj 972 221 r \$0-draw;
#X obj 976 245 sel 0 1 2;
#X obj 186 406 autoscale 0 5;
#X obj 823 246 print;
#X connect 1 0 40 0;
#X connect 5 0 20 1;
#X connect 9 0 11 0;
#X connect 10 0 11 0;
#X connect 11 0 34 0;
#X connect 11 0 45 0;
#X connect 16 0 18 0;
#X connect 17 0 19 0;
#X connect 18 0 21 0;
#X connect 18 1 19 1;
#X connect 19 0 22 0;
#X connect 20 0 33 1;
#X connect 21 0 20 0;
#X connect 27 0 28 0;
#X connect 28 0 33 0;
#X connect 30 0 26 1;
#X connect 30 0 24 1;
#X connect 30 0 25 1;
#X connect 30 0 31 0;
#X connect 30 0 38 0;
#X connect 31 0 32 1;
#X connect 33 0 26 0;
#X connect 33 1 29 0;
#X connect 33 2 24 0;
#X connect 33 3 25 0;
#X connect 33 4 32 0;
#X connect 34 0 27 0;
#X connect 35 0 49 0;
#X connect 37 0 49 0;
#X connect 38 0 29 1;
#X connect 38 1 39 0;
#X connect 39 0 29 2;
#X connect 40 0 34 0;
#X connect 40 1 35 0;
#X connect 40 2 20 1;
#X connect 40 2 50 0;
#X connect 42 0 26 0;
#X connect 42 0 29 0;
#X connect 42 0 24 0;
#X connect 42 0 25 0;
#X connect 42 0 32 0;
#X connect 43 0 26 0;
#X connect 43 0 29 0;
#X connect 43 0 24 0;
#X connect 43 0 25 0;
#X connect 43 0 32 0;
#X connect 44 0 26 0;
#X connect 44 0 29 0;
#X connect 44 0 24 0;
#X connect 44 0 32 0;
#X connect 44 0 25 0;
#X connect 47 0 48 0;
#X connect 48 0 42 0;
#X connect 48 1 43 0;
#X connect 48 2 44 0;
#X connect 49 0 30 0;
#X coords 0 -1 1 1 251 221 1 100 100;
