#N canvas 3 84 1114 682 10;
#X declare -path abs;
#X declare -path utils/pdmtl;
#X declare -path utils/OSCizer;
#X obj 366 489 outlet;
#N canvas 312 213 450 300 readme 0;
#X text 74 65 methods;
#X msg 84 158 xscale \$1;
#X text 168 156 from 1 to 20;
#X msg 84 189 scale \$1;
#X text 176 190 from 0 to 200;
#X msg 82 230 rotate \$1;
#X text 162 229 from 0 to 359;
#X msg 83 267 reset \$1;
#X restore 833 89 pd readme;
#N canvas 7 190 450 300 init 0;
#X obj 259 114 declare -path abs;
#X obj 260 134 declare -path utils/pdmtl;
#X obj 261 154 declare -path utils/OSCizer;
#X restore 837 117 pd init;
#X text 722 503 by Luca Carrubba - for gemq.info project - free to
share/modify/cannibalize as you want - www.estereotips.net // luca@estereotips.net
;
#X obj 343 -16 inlet;
#X obj 392 181 openpanel;
#X obj 101 121 cnv 15 200 90 empty empty empty 20 12 0 14 -1 -66577
0;
#X obj 129 152 bng 30 250 50 0 empty empty OpenFile -20 -8 0 10 -128992
-262144 -258113;
#X obj 101 196 cnv 15 15 15 empty empty empty 20 12 0 14 -260097 -66577
0;
#X obj 100 101 cnv 15 200 20 empty \$0-name IMG_lll 20 12 0 14 -128992
-262144 0;
#X obj 100 100 cnv 15 15 15 empty empty empty 20 12 0 14 -4034 -66577
0;
#N canvas 11 298 450 300 osc 0;
#X obj 145 16 loadbang;
#X msg 209 115 parse \$1;
#X obj 120 186 s outcoming;
#X obj 226 52 getdir;
#X obj 235 27 bng 15 250 50 0 empty empty empty 17 7 0 10 -262144 -1
-1;
#X obj 121 121 r incoming;
#X obj 307 -93 r osc-status;
#X obj 307 -70 sel 1;
#X obj 308 -31 once;
#X obj 121 148 OSCize image\$0;
#X obj 221 77 makefilename %s/img.pd;
#X connect 1 0 9 0;
#X connect 3 0 10 0;
#X connect 4 0 3 0;
#X connect 5 0 9 0;
#X connect 6 0 7 0;
#X connect 7 0 8 0;
#X connect 8 0 4 0;
#X connect 9 0 2 0;
#X connect 10 0 1 0;
#X restore 838 138 pd osc;
#X obj 234 191 bng 15 250 50 0 \$0-reset \$0-reset.rcv empty 17 7 0
10 -128992 -1 -1;
#N canvas 585 255 432 485 move-img 0;
#X obj 158 261 scaleXYZ;
#X obj 172 146 * 100;
#X obj 185 199 line;
#X obj 185 222 / 100;
#X msg 172 169 \$1 1000;
#X obj 172 115 int;
#X obj 79 169 scaleXYZ;
#X obj 77 47 inlet;
#X obj 164 366 outlet;
#X obj 170 335 rotateXYZ;
#X obj 303 275 line;
#X msg 303 249 \$1 1000;
#X obj 303 301 / 10;
#X obj 303 224 * 10;
#X obj 98 88 inlet;
#X obj 172 88 inlet;
#X obj 303 197 inlet;
#X connect 0 0 9 0;
#X connect 1 0 4 0;
#X connect 2 0 3 0;
#X connect 3 0 0 1;
#X connect 3 0 0 2;
#X connect 4 0 2 0;
#X connect 5 0 1 0;
#X connect 6 0 0 0;
#X connect 7 0 6 0;
#X connect 9 0 8 0;
#X connect 10 0 12 0;
#X connect 11 0 10 0;
#X connect 12 0 9 3;
#X connect 13 0 11 0;
#X connect 14 0 6 1;
#X connect 15 0 5 0;
#X connect 16 0 13 0;
#X restore 497 385 pd move-img;
#X obj 502 355 alpha;
#X obj 501 329 pix_image;
#X obj 501 229 gemhead;
#X msg 435 145 open \$1;
#X obj 218 355 unpack 0 0 0;
#X obj 341 50 route xscale scale rotate reset load;
#X obj 544 146 symbol;
#X floatatom 165 247 5 0 0 0 - - -;
#X msg 219 323 0 1.01 0;
#N canvas 657 334 450 300 visualize 0;
#X obj 68 103 tgl 15 0 empty empty empty 17 7 0 10 -262144 -1 -1 0
1;
#X obj 57 132 list prepend \$1;
#X obj 28 37 r /global/vis;
#X msg 63 170 \; \$1 donecanvasdialog 1 -1 \$2 0 -1 1 1 201 111 100
100;
#X obj 36 65 r /\$1/vis;
#X connect 0 0 1 0;
#X connect 1 0 3 0;
#X connect 2 0 1 0;
#X connect 4 0 1 0;
#X restore 824 269 pd visualize;
#X obj 667 13 namecanvas \$1;
#X obj 172 125 myhslider xScale;
#X obj 172 144 myhslider Scale;
#X obj 172 165 myhslider Rotate;
#X obj 827 388 prepend \$0;
#X obj 822 335 startbang;
#X obj 828 360 symbol \$1;
#X msg 827 410 \; \$1-name label IMG_\$2;
#X connect 4 0 19 0;
#X connect 5 0 17 0;
#X connect 7 0 5 0;
#X connect 12 0 22 0;
#X connect 13 0 0 0;
#X connect 14 0 13 0;
#X connect 15 0 14 0;
#X connect 16 0 15 0;
#X connect 17 0 15 0;
#X connect 18 0 25 0;
#X connect 18 1 26 0;
#X connect 18 2 27 0;
#X connect 19 0 25 0;
#X connect 19 1 26 0;
#X connect 19 2 27 0;
#X connect 19 3 12 0;
#X connect 19 4 20 0;
#X connect 20 0 17 0;
#X connect 22 0 18 0;
#X connect 25 0 13 1;
#X connect 26 0 13 2;
#X connect 27 0 13 3;
#X connect 28 0 31 0;
#X connect 29 0 30 0;
#X connect 30 0 28 0;
#X coords 0 -1 1 1 201 111 1 100 100;
