#N canvas 151 101 617 531 10;
#X obj 130 240 outlet;
#X obj 535 97 s pd-keyboard.pd;
#X floatatom 512 -26 5 0 0 0 - - -;
#X msg 511 21 connect \$1 0 0 0;
#X msg 506 56 obj 10 10 tecla \$1;
#X obj 457 11 t b s;
#X obj 444 -21 keyname;
#X obj 463 -70 counter 6 100;
#X obj 82 90 tecla q;
#X obj 9 41 tecla q;
#X obj 10 10 tecla w;
#X obj 10 10 tecla w;
#X obj 10 10 tecla e;
#X obj 10 10 tecla e;
#X obj 10 10 tecla r;
#X obj 10 10 tecla r;
#X obj 10 10 tecla t;
#X obj 10 10 tecla t;
#X obj 10 10 tecla y;
#X obj 10 10 tecla y;
#X obj 10 10 tecla u;
#X obj 10 10 tecla u;
#X obj 10 10 tecla i;
#X obj 10 10 tecla i;
#X obj 10 10 tecla o;
#X obj 10 10 tecla o;
#X obj 10 10 tecla p;
#X obj 10 10 tecla p;
#X obj 10 10 tecla a;
#X obj 10 10 tecla a;
#X obj 10 10 tecla s;
#X obj 10 10 tecla s;
#X obj 10 10 tecla d;
#X obj 10 10 tecla d;
#X obj 10 10 tecla h;
#X obj 10 10 tecla h;
#X obj 10 10 tecla j;
#X obj 10 10 tecla j;
#X obj 10 10 tecla k;
#X obj 10 10 tecla k;
#X obj 10 10 tecla l;
#X obj 10 10 tecla l;
#X obj 10 10 tecla z;
#X obj 10 10 tecla z;
#X obj 10 10 tecla x;
#X obj 10 10 tecla x;
#X obj 10 10 tecla c;
#X obj 10 10 tecla c;
#X obj 10 10 tecla v;
#X obj 10 10 tecla v;
#X obj 10 10 tecla b;
#X obj 10 10 tecla b;
#X obj 10 10 tecla n;
#X obj 10 10 tecla n;
#X obj 10 10 tecla m;
#X obj 10 10 tecla m;
#X obj 10 10 tecla F1;
#X obj 10 10 tecla F1;
#X obj 10 10 tecla F2;
#X obj 10 10 tecla F2;
#X obj 10 10 tecla F3;
#X obj 10 10 tecla F3;
#X obj 10 10 tecla F4;
#X obj 10 10 tecla F4;
#X obj 10 10 tecla F5;
#X obj 10 10 tecla F5;
#X obj 10 10 tecla F6;
#X obj 10 10 tecla F6;
#X obj 10 10 tecla F7;
#X obj 10 10 tecla F7;
#X obj 10 10 tecla F8;
#X obj 10 10 tecla F8;
#X obj 10 10 tecla F9;
#X obj 10 10 tecla F9;
#X obj 10 10 tecla F10;
#X obj 10 10 tecla Escape;
#X obj 10 10 tecla 1;
#X obj 10 10 tecla 1;
#X obj 10 10 tecla 2;
#X obj 10 10 tecla 2;
#X obj 10 10 tecla 3;
#X obj 10 10 tecla 3;
#X obj 10 10 tecla 4;
#X obj 10 10 tecla 4;
#X obj 10 10 tecla 5;
#X obj 10 10 tecla 5;
#X obj 10 10 tecla 6;
#X obj 10 10 tecla 6;
#X obj 10 10 tecla 7;
#X obj 10 10 tecla 7;
#X obj 10 10 tecla 8;
#X obj 10 10 tecla 8;
#X obj 10 10 tecla 9;
#X obj 10 10 tecla 9;
#X obj 10 10 tecla 0;
#X obj 10 10 tecla 0;
#X obj 49 58 tecla BackSpace;
#X obj 158 121 tecla f;
#X obj 162 159 tecla g;
#X obj 224 230 teclan 1;
#X obj 280 244 teclan 2;
#X obj 346 238 teclan 3;
#X obj 346 266 teclan 4;
#X obj 293 275 teclan 5;
#X obj 213 263 teclan 6;
#X obj 472 313 teclan 7;
#X obj 471 271 teclan 8;
#X obj 489 209 teclan 9;
#X obj 492 235 teclan 0;
#X connect 2 0 3 0;
#X connect 3 0 1 0;
#X connect 4 0 1 0;
#X connect 5 0 7 0;
#X connect 5 1 4 0;
#X connect 7 0 2 0;
#X connect 8 0 0 0;
#X connect 9 0 0 0;
#X connect 10 0 0 0;
#X connect 11 0 0 0;
#X connect 12 0 0 0;
#X connect 13 0 0 0;
#X connect 14 0 0 0;
#X connect 15 0 0 0;
#X connect 16 0 0 0;
#X connect 17 0 0 0;
#X connect 18 0 0 0;
#X connect 19 0 0 0;
#X connect 20 0 0 0;
#X connect 21 0 0 0;
#X connect 22 0 0 0;
#X connect 23 0 0 0;
#X connect 24 0 0 0;
#X connect 25 0 0 0;
#X connect 26 0 0 0;
#X connect 27 0 0 0;
#X connect 28 0 0 0;
#X connect 29 0 0 0;
#X connect 30 0 0 0;
#X connect 31 0 0 0;
#X connect 32 0 0 0;
#X connect 33 0 0 0;
#X connect 34 0 0 0;
#X connect 35 0 0 0;
#X connect 36 0 0 0;
#X connect 37 0 0 0;
#X connect 38 0 0 0;
#X connect 39 0 0 0;
#X connect 40 0 0 0;
#X connect 41 0 0 0;
#X connect 42 0 0 0;
#X connect 43 0 0 0;
#X connect 44 0 0 0;
#X connect 45 0 0 0;
#X connect 46 0 0 0;
#X connect 47 0 0 0;
#X connect 48 0 0 0;
#X connect 49 0 0 0;
#X connect 50 0 0 0;
#X connect 51 0 0 0;
#X connect 52 0 0 0;
#X connect 53 0 0 0;
#X connect 54 0 0 0;
#X connect 55 0 0 0;
#X connect 56 0 0 0;
#X connect 57 0 0 0;
#X connect 58 0 0 0;
#X connect 59 0 0 0;
#X connect 60 0 0 0;
#X connect 61 0 0 0;
#X connect 62 0 0 0;
#X connect 63 0 0 0;
#X connect 64 0 0 0;
#X connect 65 0 0 0;
#X connect 66 0 0 0;
#X connect 67 0 0 0;
#X connect 68 0 0 0;
#X connect 69 0 0 0;
#X connect 70 0 0 0;
#X connect 71 0 0 0;
#X connect 72 0 0 0;
#X connect 73 0 0 0;
#X connect 74 0 0 0;
#X connect 75 0 0 0;
#X connect 76 0 0 0;
#X connect 77 0 0 0;
#X connect 78 0 0 0;
#X connect 79 0 0 0;
#X connect 80 0 0 0;
#X connect 81 0 0 0;
#X connect 82 0 0 0;
#X connect 83 0 0 0;
#X connect 84 0 0 0;
#X connect 85 0 0 0;
#X connect 86 0 0 0;
#X connect 87 0 0 0;
#X connect 88 0 0 0;
#X connect 89 0 0 0;
#X connect 90 0 0 0;
#X connect 91 0 0 0;
#X connect 92 0 0 0;
#X connect 93 0 0 0;
#X connect 94 0 0 0;
#X connect 95 0 0 0;
#X connect 97 0 0 0;
#X connect 98 0 0 0;
#X connect 99 0 0 0;
#X connect 100 0 0 0;
#X connect 101 0 0 0;
#X connect 102 0 0 0;
#X connect 103 0 0 0;
#X connect 104 0 0 0;
#X connect 105 0 0 0;
#X connect 106 0 0 0;
#X connect 107 0 0 0;
#X connect 108 0 0 0;
