#N canvas 2 28 1265 736 10;
#X declare -path abs;
#X declare -path utils/pdmtl;
#X declare -path utils/OSCizer;
#N canvas 7 190 450 300 readme 0;
#X text 74 65 methods;
#X msg 76 100 text;
#X msg 75 126 velocity;
#X msg 75 150 size;
#X msg 74 176 load;
#X msg 70 207 colors \$1 \$2 \$3;
#X text 180 203 tree values between 0 and 1;
#X msg 70 241 status \$1;
#X text 151 239 betwen 0 and 1;
#X restore 833 89 pd readme;
#N canvas 7 190 450 300 init 0;
#X obj 259 114 declare -path abs;
#X obj 260 134 declare -path utils/pdmtl;
#X obj 261 154 declare -path utils/OSCizer;
#X restore 837 117 pd init;
#X msg 435 145 load \$1;
#X obj 343 -16 inlet;
#X obj 437 99 symbol;
#X obj 100 121 cnv 15 200 340 empty empty empty 20 12 0 14 -1 -66577
0;
#X obj 127 152 bng 20 250 50 0 empty empty OpenText -20 -8 0 10 -128992
-262144 -258113;
#X obj 120 312 nbx 5 14 0 10 0 0 empty empty empty 0 -8 0 10 -128992
-262144 -258113 3.00076 256;
#X obj -2 697 initbang;
#X obj 20 776 loadbang;
#X obj 100 101 cnv 15 200 20 empty empty Text_Player 20 12 0 14 -128992
-262144 0;
#X obj 100 101 cnv 15 15 15 empty empty empty 20 12 0 14 -4034 -66577
0;
#N canvas 10 271 450 300 osc 0;
#X obj 145 16 loadbang;
#X msg 209 115 parse \$1;
#X obj 120 186 s outcoming;
#X obj 226 52 getdir;
#X obj 235 27 bng 15 250 50 0 empty empty empty 17 7 0 10 -262144 -1
-1;
#X obj 121 121 r incoming;
#X obj 307 -93 r osc-status;
#X obj 307 -70 sel 1;
#X obj 308 -31 once;
#X obj 221 77 makefilename %s/text.pd;
#X obj 121 148 OSCize text\$0;
#X connect 1 0 10 0;
#X connect 3 0 9 0;
#X connect 4 0 3 0;
#X connect 5 0 10 0;
#X connect 6 0 7 0;
#X connect 7 0 8 0;
#X connect 8 0 4 0;
#X connect 9 0 1 0;
#X connect 10 0 2 0;
#X restore 838 138 pd osc;
#X obj 124 292 hsl 80 15 1 15 0 0 \$0-velocity \$0-velocity.rcv VELOCITY
2 8 0 10 -128992 -262144 -258113 1129 1;
#X obj 183 312 bng 15 250 50 0 empty empty empty 17 7 0 10 -128992
-1 -1;
#X msg 298 590 1;
#N canvas 219 196 434 568 text 1;
#X obj 148 69 inlet;
#X obj 148 169 text3d;
#X obj 189 70 inlet font;
#X obj 262 68 inlet text;
#X obj 338 68 inlet size;
#X floatatom 256 143 5 0 0 0 - - -;
#X msg 329 153 0;
#X obj 185 278 outlet;
#X msg 288 264 text gemQlib;
#X obj 300 201 loadbang;
#X obj 236 361 gems.record;
#X msg 86 304 snap;
#X obj 86 278 spigot 1;
#X obj 46 253 t a b;
#X obj 53 99 tgl 15 0 empty empty empty 17 7 0 10 -262144 -1 -1 1 1
;
#X obj 97 421 pix_texture;
#X obj 46 191 gemhead 1000;
#X obj 104 399 pix_snap 0 0 800 600;
#X obj 46 144 t f f;
#X obj 43 62 r \$0-snap;
#X obj 102 448 outlet;
#X obj 99 169 del 100;
#X obj 91 146 t b f;
#X msg 120 236 0;
#X connect 0 0 1 0;
#X connect 1 0 7 0;
#X connect 2 0 1 0;
#X connect 3 0 1 0;
#X connect 4 0 1 1;
#X connect 8 0 1 0;
#X connect 9 0 8 0;
#X connect 11 0 17 0;
#X connect 12 0 11 0;
#X connect 13 0 17 0;
#X connect 13 1 12 0;
#X connect 14 0 18 0;
#X connect 15 0 20 0;
#X connect 16 0 13 0;
#X connect 17 0 15 0;
#X connect 18 0 16 0;
#X connect 18 1 22 0;
#X connect 19 0 14 0;
#X connect 21 0 23 0;
#X connect 22 0 21 0;
#X connect 22 1 12 1;
#X connect 23 0 12 1;
#X restore 443 685 pd text player;
#N canvas 718 130 743 514 txtpanel 0;
#X obj 55 64 keyname Shift_L;
#X msg 140 85 \$1;
#X obj 139 103 route Shift_L;
#X obj 142 124 tgl 15 0 empty empty empty 0 -6 0 10 -262144 -1 -1 1
1;
#X obj 94 143 spigot 0;
#X obj 153 442 outlet;
#X text 250 110 shift_L+return for send text to render chain;
#X obj 95 116 sel 10;
#X obj 95 95 key;
#X msg 125 202 2;
#X text 423 213 clear reander chain;
#X obj 303 209 s text1_clear_only;
#X msg 153 378 text \$1;
#X obj 96 179 t b b;
#X text 153 180 this variable is for text render order;
#X obj 261 329 initbang;
#X msg 249 350 symbol gemQ;
#X obj 125 224 s \$0-text-state;
#X obj 157 265 r \$0-tetxpanel-text;
#X obj 460 199 list;
#X obj 92 294 s \$0-text-send2panel;
#X obj 156 324 t a b;
#X msg 238 375 2;
#X obj 238 397 s \$0-text-state;
#X connect 0 1 1 0;
#X connect 1 0 2 0;
#X connect 2 0 3 0;
#X connect 3 0 4 1;
#X connect 4 0 13 0;
#X connect 7 0 4 0;
#X connect 8 0 7 0;
#X connect 9 0 17 0;
#X connect 12 0 5 0;
#X connect 13 0 20 0;
#X connect 13 1 9 0;
#X connect 15 0 16 0;
#X connect 16 0 12 0;
#X connect 18 0 21 0;
#X connect 21 0 12 0;
#X connect 21 1 22 0;
#X connect 22 0 23 0;
#X restore 587 355 pd txtpanel;
#X obj 569 427 r \$0-text-size;
#N canvas 487 159 540 486 font 0;
#N canvas 330 490 986 491 load_font 0;
#X msg 129 166 name font;
#X obj 40 40 bng 15 250 50 0 empty empty empty 0 -6 0 10 -262144 -1
-1;
#X obj 83 223 s \$0-text-font-popup-rcv;
#X msg 67 31 options;
#X obj 81 -22 t b b;
#X obj 80 -45 initbang;
#X obj 263 -38 initbang;
#X obj 262 47 \$0;
#X obj 265 84 s text-pages;
#X obj 263 27 t b b;
#X obj 569 -33 r \$0-text-hradio-page;
#X obj 597 20 * 30;
#X obj 598 47 t f f;
#X obj 630 73 + 30;
#X obj 593 105 f;
#X obj 626 105 f;
#X obj 566 48 \$0;
#X obj 562 84 t f b b;
#X obj 571 155 pack f f f;
#X text 657 106 min/max for load font from fonts.coll;
#X msg 569 203 \; text-font-list \$1 \$2 \$3;
#X obj 570 -4 t b f b;
#X msg 632 -8 0;
#X obj 659 -12 initbang;
#X obj 266 3 del 500;
#X msg 335 48 \; \$1-text-hradio-number number 1;
#X obj 340 19 prepend \$0;
#X obj 340 -1 bng 15 250 50 0 empty empty empty 17 7 0 10 -262144 -1
-1;
#X obj 171 4 bng 15 250 50 0 empty empty empty 17 7 0 10 -262144 -1
-1;
#X obj 330 -34 loadbang;
#X obj 191 -35 loadbang;
#X obj 689 6 loadbang;
#X connect 0 0 2 0;
#X connect 3 0 2 0;
#X connect 4 0 3 0;
#X connect 4 1 0 0;
#X connect 5 0 4 0;
#X connect 6 0 24 0;
#X connect 7 0 8 0;
#X connect 9 0 7 0;
#X connect 9 1 26 0;
#X connect 10 0 21 0;
#X connect 11 0 12 0;
#X connect 12 0 14 1;
#X connect 12 1 13 0;
#X connect 13 0 15 1;
#X connect 14 0 18 1;
#X connect 15 0 18 2;
#X connect 16 0 17 0;
#X connect 17 0 18 0;
#X connect 17 1 14 0;
#X connect 17 2 15 0;
#X connect 18 0 20 0;
#X connect 21 0 16 0;
#X connect 21 1 11 0;
#X connect 21 2 4 0;
#X connect 22 0 21 0;
#X connect 23 0 22 0;
#X connect 24 0 9 0;
#X connect 26 0 25 0;
#X connect 27 0 9 0;
#X connect 28 0 4 0;
#X connect 29 0 24 0;
#X connect 30 0 4 0;
#X connect 31 0 22 0;
#X restore 27 38 pd load_font;
#X obj 168 281 l2s;
#X msg 194 266 symbol;
#X text 143 65 with a symbolic element in /tmp/fonts/;
#X obj 178 176 symbol;
#X msg 179 133 set \$1;
#X msg 180 153 LucidaTypewriterBold.ttf;
#X obj 160 146 bng 15 250 50 0 empty empty empty 0 -6 0 10 -262144
-1 -1;
#X obj 160 366 outlet;
#X msg 159 315 font \$1;
#X obj 179 114 r \$0-text-font-popup;
#X obj 175 238 makefilename /tmp/fonts/%s;
#X obj 252 265 initbang;
#X text 138 39 this script links all fonts present in /usr/share/font
;
#X msg 248 341 font utils/vera.ttf;
#X obj 251 308 loadbang;
#X connect 1 0 9 0;
#X connect 2 0 1 1;
#X connect 4 0 11 0;
#X connect 5 0 6 0;
#X connect 5 0 7 0;
#X connect 6 0 4 0;
#X connect 7 0 6 0;
#X connect 9 0 8 0;
#X connect 10 0 5 0;
#X connect 11 0 1 0;
#X connect 12 0 2 0;
#X connect 14 0 8 0;
#X connect 15 0 14 0;
#X restore 516 408 pd font;
#N canvas 257 135 1009 514 load_text 0;
#X obj 132 395 textfile;
#X msg 116 166 rewind;
#X obj 133 417 symbol;
#X obj 120 -106 openpanel;
#X obj 112 129 t b a;
#X obj 126 501 outlet;
#X text 151 176 it change word every beat;
#X obj 87 396 t b b;
#X msg 230 -87 1;
#X text 349 -62 this variable is for to know wich text to render;
#X text 247 87 this is a bash script just to format text;
#X obj 230 -63 s \$0-text-state;
#X msg 125 473 text \$1;
#X obj 121 -144 t b b b;
#X obj 166 -71 \$0;
#X obj 126 9 pack s f;
#X obj 126 30 s text-formattext;
#X obj 112 61 r \$0-text-formatted;
#X obj 113 83 symbol;
#X obj 96 363 bng 15 250 50 0 empty empty empty 17 7 0 10 -262144 -1
-1;
#X msg 242 158 read /tmp/textplayer-1652.txt cr;
#X msg 243 130 set read \$1 cr;
#X obj 123 100 t b s;
#X obj 187 137 del 20;
#X obj 120 -168 r \$0-openpanel;
#X obj -33 203 metro 1000;
#X obj -29 147 r \$0-text-state;
#X obj 28 176 r \$0-text-velocity;
#X connect 0 0 2 0;
#X connect 0 1 1 0;
#X connect 1 0 0 0;
#X connect 2 0 12 0;
#X connect 3 0 15 0;
#X connect 4 0 1 0;
#X connect 4 1 0 0;
#X connect 7 0 0 0;
#X connect 8 0 11 0;
#X connect 12 0 5 0;
#X connect 13 0 3 0;
#X connect 13 1 14 0;
#X connect 13 2 8 0;
#X connect 14 0 15 1;
#X connect 15 0 16 0;
#X connect 17 0 18 0;
#X connect 18 0 22 0;
#X connect 19 0 0 0;
#X connect 20 0 4 0;
#X connect 21 0 20 0;
#X connect 22 0 23 0;
#X connect 22 1 21 0;
#X connect 23 0 20 0;
#X connect 24 0 13 0;
#X connect 25 0 7 0;
#X connect 26 0 25 0;
#X connect 27 0 25 1;
#X restore 567 322 pd load_text;
#X obj 545 381 switch 2;
#X obj 545 297 r \$0-text-state;
#X obj -59 230 s \$0-openpanel;
#X obj 230 657 r \$0-text-font-popup-rcv;
#X obj 343 755 s \$0-text-font-popup;
#X obj 120 248 popup 124 25 #ffffff font KhmerOS.ttf KhmerOSsys.ttf
summersby.ttf jsMath-cmex10.ttf jsMath-cmbx10.ttf jsMath-cmti10.ttf
jsMath-cmr10.ttf jsMath-cmsy10.ttf jsMath-cmmi10.ttf Euterpe.ttf Phetsarath_OT.ttf
UnBatangBold.ttf UnDotumBold.ttf UnBatang.ttf UnDotum.ttf Times_New_Roman_Bold.ttf
;
#X obj 120 276 hradio 10 1 0 16 \$0-text-hradio-page \$0-text-hradio-number
empty 0 -8 0 10 -99865 -258113 -1 3;
#X obj 240 623 s \$0-tetxpanel-text;
#X obj 184 144 entry 108 89 grey70 black;
#X obj 180 48 r \$0-text-send2panel;
#X obj 127 197 bng 20 250 50 0 empty empty SendText -20 -8 0 10 -128992
-262144 -258113;
#X obj 94 619 autoscale 3000 100;
#X msg 42 278 3;
#X msg 101 597 load 1 10;
#X floatatom 100 658 5 0 0 0 - - -;
#X obj 128 752 s \$0-text-velocity;
#X obj 125 334 hsl 80 15 1 100 0 0 \$0-size \$0-size.rcv SIZE 2 8 0
10 -128992 -262144 -258113 0 1;
#X obj 327 216 s \$0-tetxpanel-text;
#X obj 260 297 tgl 20 0 \$0-status \$0-status.rcv On/Off -4 -3 0 10
-128992 -262144 -258113 1 1;
#X text 732 558 by Luca Carrubba - for gemq.info project - free to
share/modify/cannibalize as you want - www.estereotips.net // luca@estereotips.net.
Hardly based on the work of Alexandre Quessy on PDMTL abstractions
;
#X obj 357 307 loadbang;
#X msg 356 578 1;
#X obj 593 113;
#X obj 111 360 input.color.grid_;
#X obj 463 520 alpha;
#X obj 459 554 colorRGB 1 1 1;
#X obj 510 513 unpack f f f;
#X obj -57 324 s \$0-text-send2panel;
#X obj 57 367 i;
#X obj 490 190 gemhead 999;
#X obj 260 331 tgl 20 0 \$0-snap \$0-snap.rcv Snap -4 -3 0 10 -128992
-262144 -258113 1 1;
#X obj 341 52 route text velocity size load status colors snap;
#X obj 447 721 outlet;
#X obj 100 448 cnv 15 15 15 empty empty empty 20 12 0 14 -260097 -66577
0;
#X connect 2 0 23 0;
#X connect 3 0 52 0;
#X connect 4 0 2 0;
#X connect 6 0 23 0;
#X connect 7 0 32 0;
#X connect 8 0 33 0;
#X connect 8 0 34 0;
#X connect 9 0 33 0;
#X connect 9 0 34 0;
#X connect 13 0 7 0;
#X connect 14 0 15 0;
#X connect 15 0 13 0;
#X connect 16 0 53 0;
#X connect 17 0 21 2;
#X connect 18 0 16 3;
#X connect 19 0 16 1;
#X connect 20 0 21 1;
#X connect 21 0 16 2;
#X connect 22 0 21 0;
#X connect 24 0 26 0;
#X connect 26 1 25 0;
#X connect 29 0 28 0;
#X connect 30 0 29 0;
#X connect 31 0 48 0;
#X connect 32 0 35 0;
#X connect 33 0 13 0;
#X connect 34 0 32 0;
#X connect 35 0 36 0;
#X connect 37 0 16 3;
#X connect 39 0 50 0;
#X connect 41 0 42 0;
#X connect 42 0 39 0;
#X connect 44 0 47 0;
#X connect 45 0 46 0;
#X connect 46 0 16 0;
#X connect 47 0 46 1;
#X connect 47 1 46 2;
#X connect 47 2 46 3;
#X connect 50 0 45 0;
#X connect 52 0 38 0;
#X connect 52 1 13 0;
#X connect 52 2 37 0;
#X connect 52 3 4 0;
#X connect 52 4 39 0;
#X connect 52 5 47 0;
#X connect 52 6 51 0;
#X coords 0 -1 1 1 201 363 1 100 100;
