#N canvas 147 35 221 209 10;
#X declare -path ./abs;
#X declare -path ./abs/OSCizer;
#N canvas 0 22 868 639 __main__ 0;
#N canvas 61 76 450 300 gemwin 0;
#X obj 132 136 gemwin;
#X obj 67 89 outlet;
#X obj 67 10 inlet;
#X obj 67 41 route create;
#X msg 67 70 set destroy;
#X msg 142 68 set create;
#X msg 132 112 create \, 1;
#X msg 198 112 destroy;
#X msg 298 155 dimen 640 480;
#X obj 306 -3 loadbang;
#X obj 291 101 r \$0-dialog;
#X obj 286 122 del 150;
#X connect 2 0 3 0;
#X connect 3 0 4 0;
#X connect 3 0 6 0;
#X connect 3 1 5 0;
#X connect 3 1 7 0;
#X connect 4 0 1 0;
#X connect 5 0 1 0;
#X connect 6 0 0 0;
#X connect 7 0 0 0;
#X connect 8 0 0 0;
#X connect 9 0 6 0;
#X connect 10 0 11 0;
#X connect 11 0 6 0;
#X restore 224 176 pd gemwin;
#X msg 224 157 destroy;
#X obj 63 182 pix_texture;
#X obj 63 210 rectangle 4 5;
#N canvas 59 24 450 300 cam 0;
#X obj 30 115 pix_video;
#X obj 29 -22 gemhead;
#X obj 30 138 pix_rgba;
#X floatatom 103 31 5 0 0 0 - - -;
#X obj 30 54 rotateXYZ 0 180 0;
#X obj 42 8 alpha;
#X msg 126 108 dialog;
#X msg 123 130 device 2;
#X obj 41 180 outlet;
#X obj 168 80 r \$0-dialog;
#X connect 0 0 2 0;
#X connect 1 0 5 0;
#X connect 2 0 8 0;
#X connect 3 0 4 2;
#X connect 4 0 0 0;
#X connect 5 0 4 0;
#X connect 6 0 0 0;
#X connect 7 0 0 0;
#X connect 9 0 6 0;
#X restore 66 123 pd cam;
#N canvas 59 24 446 588 ColortTracking 0;
#X obj 28 364 pix_alpha;
#N canvas 0 22 649 575 color 0;
#N canvas 1 49 490 300 color-selection 0;
#X obj 165 89 nbx 3 14 0 255 0 0 empty empty empty 0 -6 0 10 -262144
-1 -1 0 256;
#X obj 207 89 nbx 3 14 0 255 0 0 empty empty empty 0 -6 0 10 -262144
-1 -1 0 256;
#X obj 250 88 nbx 3 14 0 255 0 0 empty empty empty 0 -6 0 10 -262144
-1 -1 0 256;
#X obj 206 128 t b f;
#X obj 249 128 t b f;
#X obj 206 152 pack f f f;
#X obj 165 109 / 255;
#X obj 206 106 / 255;
#X obj 249 106 / 255;
#X obj 29 90 nbx 3 14 0 255 0 0 empty empty empty 0 -6 0 10 -262144
-1 -1 0 256;
#X obj 70 90 nbx 3 14 0 255 0 0 empty empty empty 0 -6 0 10 -262144
-1 -1 0 256;
#X obj 113 89 nbx 3 14 0 255 0 0 empty empty empty 0 -6 0 10 -262144
-1 -1 0 256;
#X obj 69 129 t b f;
#X obj 112 129 t b f;
#X obj 69 153 pack f f f;
#X obj 29 110 / 255;
#X obj 69 107 / 255;
#X obj 112 107 / 255;
#X floatatom 29 132 5 0 0 0 - - -;
#X floatatom 166 129 5 0 0 0 - - -;
#X text 26 73 high-threshold (RGB);
#X text 164 72 low-threshold (RGB);
#X obj 299 46 color-select-02;
#X obj 301 89 unpack f f f;
#X obj 293 131 + 0.1;
#X obj 338 131 + 0.1;
#X obj 385 133 + 0.1;
#X obj 291 168 - 0.1;
#X obj 339 167 - 0.1;
#X obj 389 167 - 0.1;
#X obj 58 219 outlet;
#X obj 216 229 outlet;
#X connect 0 0 6 0;
#X connect 1 0 7 0;
#X connect 2 0 8 0;
#X connect 3 0 5 0;
#X connect 3 1 5 1;
#X connect 4 0 5 0;
#X connect 4 1 5 2;
#X connect 5 0 31 0;
#X connect 6 0 5 0;
#X connect 6 0 19 0;
#X connect 7 0 3 0;
#X connect 8 0 4 0;
#X connect 9 0 15 0;
#X connect 10 0 16 0;
#X connect 11 0 17 0;
#X connect 12 0 14 0;
#X connect 12 1 14 1;
#X connect 13 0 14 0;
#X connect 13 1 14 2;
#X connect 14 0 30 0;
#X connect 15 0 14 0;
#X connect 15 0 18 0;
#X connect 16 0 12 0;
#X connect 17 0 13 0;
#X connect 22 0 23 0;
#X connect 23 0 24 0;
#X connect 23 0 27 0;
#X connect 23 1 25 0;
#X connect 23 1 28 0;
#X connect 23 2 26 0;
#X connect 23 2 29 0;
#X connect 24 0 14 0;
#X connect 25 0 14 1;
#X connect 26 0 14 2;
#X connect 27 0 5 0;
#X connect 28 0 5 1;
#X connect 29 0 5 2;
#X restore 229 167 pd color-selection;
#X obj 244 387 hsl 128 15 0 0.8 0 0 empty empty empty -2 -8 0 10 -262144
-1 -1 4800 1;
#X obj 256 412 + 0;
#X obj 238 295 unpack 0 0 0;
#X obj 287 412 + 0;
#X obj 239 441 pack f f f;
#X obj 236 326 f;
#X obj 266 328 f;
#X obj 296 322 f;
#X obj 397 336 t b;
#X obj 405 226 t b;
#X obj 305 554 hsl 128 15 0 0.8 0 0 empty empty empty -2 -8 0 10 -262144
-1 -1 2100 1;
#X obj 299 462 unpack 0 0 0;
#X obj 300 608 pack f f f;
#X obj 297 493 f;
#X obj 327 495 f;
#X obj 357 489 f;
#X obj 289 579 - 0;
#X obj 317 579 - 0;
#X obj 348 579 - 0;
#X obj 227 469 outlet;
#X obj 306 642 outlet;
#X obj 223 361 inlet high;
#X obj 359 525 inlet low;
#X obj 434 255 outlet;
#X obj 374 254 bng 15 250 50 0 empty empty empty 17 7 0 10 -262144
-1 -1;
#X obj 230 414 + 0;
#X connect 0 0 3 0;
#X connect 0 0 10 0;
#X connect 0 1 12 0;
#X connect 1 0 2 1;
#X connect 1 0 4 1;
#X connect 1 0 9 0;
#X connect 1 0 26 1;
#X connect 2 0 5 1;
#X connect 3 0 6 1;
#X connect 3 1 7 1;
#X connect 3 2 8 1;
#X connect 4 0 5 2;
#X connect 5 0 20 0;
#X connect 6 0 26 0;
#X connect 7 0 2 0;
#X connect 8 0 4 0;
#X connect 9 0 8 0;
#X connect 9 0 7 0;
#X connect 9 0 6 0;
#X connect 9 0 16 0;
#X connect 9 0 15 0;
#X connect 9 0 14 0;
#X connect 10 0 9 0;
#X connect 10 0 24 0;
#X connect 10 0 25 0;
#X connect 11 0 9 0;
#X connect 11 0 17 1;
#X connect 11 0 18 1;
#X connect 11 0 19 1;
#X connect 12 0 14 1;
#X connect 12 1 15 1;
#X connect 12 2 16 1;
#X connect 13 0 21 0;
#X connect 14 0 17 0;
#X connect 15 0 18 0;
#X connect 16 0 19 0;
#X connect 17 0 13 0;
#X connect 18 0 13 1;
#X connect 19 0 13 2;
#X connect 22 0 1 0;
#X connect 23 0 11 0;
#X connect 26 0 5 0;
#X restore 73 316 pd color;
#X obj 80 272 hsl 128 15 0 0.8 0 0 empty empty empty -2 -8 0 10 -262144
-1 -1 4800 1;
#X obj 117 293 hsl 128 15 0 0.8 0 0 empty empty empty -2 -8 0 10 -262144
-1 -1 2100 1;
#X obj 275 270 bng 15 250 50 0 empty empty empty 17 7 0 10 -262144
-1 -1;
#X obj 65 207 expr 1-$f1;
#X obj 65 159 tgl 15 0 empty empty empty 17 7 0 10 -262144 -1 -1 0
1;
#X obj 65 181 t f f;
#N canvas 0 22 450 300 pointer 0;
#X obj 172 233 rectangle 0.01 1;
#X obj 172 254 rectangle 1 0.01;
#X obj 172 211 translateXYZ 0 0 0.01;
#X obj 172 150 gemhead;
#X obj 171 183 colorRGB 1 0 0;
#X obj 234 135 * -8;
#X obj 272 174 + 3;
#X obj 234 156 + 4;
#X obj 272 152 * -6;
#X obj 351 120 inlet;
#X obj 238 106 inlet;
#X obj 274 119 inlet;
#X connect 0 0 1 0;
#X connect 2 0 0 0;
#X connect 3 0 4 0;
#X connect 4 0 2 0;
#X connect 5 0 7 0;
#X connect 6 0 2 2;
#X connect 7 0 2 1;
#X connect 8 0 6 0;
#X connect 9 0 3 0;
#X connect 10 0 5 0;
#X connect 11 0 8 0;
#X restore 34 562 pd pointer;
#N canvas 59 24 450 300 tracking 0;
#X obj 138 -118 pix_rgba;
#X obj 143 15 pix_blob 4;
#X msg 148 -93 reset;
#X obj 222 -74 hsl 100 15 0 1 0 0 empty empty empty -2 -8 0 10 -262144
-1 -1 1980 1;
#X text 186 -94 set reference frame;
#X obj 138 -29 alpha;
#X obj 185 -28 tgl 15 0 empty empty empty 17 7 0 10 -262144 -1 -1 0
1;
#X obj 249 -145 loadbang;
#X msg 249 -124 0.2;
#X obj 138 -56 pix_background;
#X obj 135 -182 pix_separator;
#X obj 139 -8 rotateXYZ 0 180 0;
#X obj 134 -208 inlet;
#X obj 140 60 outlet;
#X obj 194 53 outlet;
#X obj 249 48 outlet;
#X obj 252 -172 inlet;
#X connect 0 0 9 0;
#X connect 1 1 13 0;
#X connect 1 2 14 0;
#X connect 1 3 15 0;
#X connect 2 0 9 0;
#X connect 3 0 9 1;
#X connect 5 0 11 0;
#X connect 6 0 5 1;
#X connect 7 0 8 0;
#X connect 8 0 3 0;
#X connect 9 0 5 0;
#X connect 10 0 0 0;
#X connect 11 0 1 0;
#X connect 12 0 10 0;
#X connect 16 0 2 0;
#X restore 26 487 pd tracking;
#X obj 26 384 t a a;
#N canvas 0 22 450 300 Data 0;
#X floatatom 205 -32 5 0 0 0 - - -;
#X floatatom 147 -54 5 0 0 0 - - -;
#X floatatom 255 -181 5 0 0 0 - - -;
#X obj 154 -13 hsl 128 15 0 1 0 0 \$0-X empty empty -2 -8 0 10 -262144
-1 -1 2896 1;
#X obj 209 10 hsl 128 15 0 1 0 0 \$0-Y empty empty -2 -8 0 10 -262144
-1 -1 6614 1;
#X obj 200 -126 * 1;
#X obj 102 -121 * 1;
#X obj 258 -142 > 0.01;
#X obj 201 -82 spigot 0;
#X obj 121 -88 spigot 0;
#X obj 247 -219 inlet;
#X obj 186 -163 inlet;
#X obj 95 -151 inlet;
#X obj 118 26 outlet;
#X obj 197 53 outlet;
#X obj 255 51 outlet;
#X connect 0 0 4 0;
#X connect 0 0 14 0;
#X connect 1 0 3 0;
#X connect 1 0 13 0;
#X connect 2 0 7 0;
#X connect 5 0 8 0;
#X connect 6 0 9 0;
#X connect 7 0 8 1;
#X connect 7 0 9 1;
#X connect 7 0 15 0;
#X connect 8 0 0 0;
#X connect 9 0 1 0;
#X connect 10 0 2 0;
#X connect 11 0 5 0;
#X connect 12 0 6 0;
#X restore 30 511 pd Data;
#X obj 53 447 outlet;
#X obj 23 125 inlet;
#X obj 67 138 r \$0-view;
#X obj 80 245 r \$0-h-tresh;
#X obj 162 250 r \$0-l-tresh;
#X obj 279 243 r \$0-reset;
#X connect 0 0 10 0;
#X connect 1 0 0 3;
#X connect 1 1 0 4;
#X connect 2 0 1 0;
#X connect 3 0 1 1;
#X connect 4 0 9 1;
#X connect 5 0 0 1;
#X connect 6 0 7 0;
#X connect 7 0 5 0;
#X connect 7 1 0 2;
#X connect 9 0 11 0;
#X connect 9 1 11 1;
#X connect 9 2 11 2;
#X connect 10 0 9 0;
#X connect 10 1 12 0;
#X connect 11 0 8 0;
#X connect 11 1 8 1;
#X connect 11 2 8 2;
#X connect 13 0 0 0;
#X connect 14 0 6 0;
#X connect 15 0 2 0;
#X connect 16 0 3 0;
#X connect 17 0 4 0;
#X restore 64 154 pd ColortTracking;
#X connect 0 0 1 0;
#X connect 1 0 0 0;
#X connect 2 0 3 0;
#X connect 4 0 5 0;
#X connect 5 0 2 0;
#X restore 6 -19 pd __main__;
#N canvas 2 22 618 317 (subpatch) 0;
#X obj 1 1 cnv 15 198 140 empty empty OSC_setings 20 12 0 15 -128992
-262144 0;
#X symbolatom 20 28 10 0 0 0 ip - #0-OSC.ip;
#X floatatom 114 28 5 0 0 0 - - -;
#X text 87 27 port;
#X obj 196 128 s \$0-OSC.port;
#X obj 239 102 s osc-status;
#X obj 165 30 tgl 15 0 empty empty empty 17 7 0 10 -262144 -1 -1 1
1;
#N canvas 296 437 450 300 network 0;
#X msg 163 -74 disconnect;
#X obj 82 25 s incoming;
#X obj 83 -34 r outcoming;
#X obj 150 -132 r osc-status;
#X obj 148 -110 sel 1;
#X obj 309 -74 bng 15 250 50 0 empty empty empty 17 7 0 10 -262144
-1 -1;
#X msg 309 -2 connect \$2 \$3;
#X obj 313 -28 pack f s f;
#X obj 337 -75 r \$0-OSC.ip;
#X obj 371 -50 r \$0-OSC.port;
#X obj 82 5 OSCnetwork 99999 0;
#X msg 155 -42 connect localhost 7000;
#X connect 0 0 10 0;
#X connect 2 0 10 0;
#X connect 3 0 4 0;
#X connect 4 0 5 0;
#X connect 4 1 0 0;
#X connect 5 0 7 0;
#X connect 6 0 10 0;
#X connect 7 0 6 0;
#X connect 8 0 7 1;
#X connect 9 0 7 2;
#X connect 10 0 1 0;
#X connect 11 0 10 0;
#X restore 285 176 pd network;
#X obj 47 -53 loadbang;
#X msg 50 -18 symbol localhost;
#N canvas 59 379 450 300 osc 0;
#X obj 145 16 loadbang;
#X msg 209 115 parse \$1;
#X obj 120 186 s outcoming;
#X obj 226 52 getdir;
#X obj 235 27 bng 15 250 50 0 empty empty empty 17 7 0 10 -262144 -1
-1;
#X obj 120 103 r incoming;
#X obj 307 -93 r osc-status;
#X obj 307 -70 sel 1;
#X obj 308 -31 once;
#X obj 121 148 OSCize qolorTrack;
#X obj 221 77 makefilename %s/qolorTrack.pd;
#X connect 1 0 9 0;
#X connect 3 0 10 0;
#X connect 4 0 3 0;
#X connect 5 0 9 0;
#X connect 6 0 7 0;
#X connect 7 0 8 0;
#X connect 8 0 4 0;
#X connect 9 0 2 0;
#X connect 10 0 1 0;
#X restore 287 198 pd osc;
#X obj 257 -39 declare -path ./abs;
#X obj 260 -19 declare -path ./abs/OSCizer;
#X msg 149 -44 7000;
#X text 152 12 connect;
#X obj 76 119 bng 15 250 50 0 empty empty Reset_Background -30 -7 0
12 -228856 -1 -258113;
#X obj 2 50 cnv 15 198 30 empty empty Controls 20 12 0 15 -128992 -262144
0;
#X obj 29 72 hsl 128 15 0 0.8 0 0 empty empty High_Treshold 4 8 0 10
-228856 -1 -258113 4800 1;
#X obj 29 88 hsl 128 15 0 0.8 0 0 empty empty Low_Treshold 4 8 0 10
-228856 -1 -258113 2100 1;
#X obj 173 80 tgl 15 0 empty empty View -3 -8 0 10 -228856 -1 -258113
0 1;
#X obj 79 162 s \$0-reset;
#X obj 178 202 s \$0-view;
#X obj 48 184 s \$0-l-tresh;
#X obj 50 208 s \$0-h-tresh;
#X obj 171 119 bng 15 250 50 0 empty empty empty 17 7 0 10 -262144
-1 -1;
#X text 159 103 dialog;
#X obj 182 152 s \$0-dialog;
#X connect 2 0 4 0;
#X connect 6 0 5 0;
#X connect 8 0 9 0;
#X connect 8 0 13 0;
#X connect 9 0 1 0;
#X connect 13 0 2 0;
#X connect 15 0 20 0;
#X connect 17 0 23 0;
#X connect 18 0 22 0;
#X connect 19 0 21 0;
#X connect 24 0 26 0;
#X coords 0 1 100 -1 200 140 1 0 0;
#X restore -119 -15 graph;
#X obj -119 -69 cnv 15 200 60 empty empty QolorTrack 20 12 0 30 -1
-258113 0;
#N canvas 0 22 450 300 credits 0;
#X text 28 110 by Luca Carrubba - for gemq.info project - free to share/modify/cannibalize
as you want - www.estereotips.net // luca@estereotips.net // this patch
is originally from Mark Edward Green released in puredata mailing list
as green-screen-pd for what concern the color picker part \, and is
originally from Max Neupert tutorial the tracking part. Thnaks both
for share your great work!;
#X restore -68 -31 pd credits;
