#N canvas 17 560 450 300 10;
#X obj -72 -56 inlet;
#N canvas 1 138 1022 188 \$0-network 0;
#X obj 151 41 mrpeach/packOSC;
#X obj 420 35 mrpeach/unpackOSC;
#X obj 306 52 print OSCDATA_IN;
#X obj 292 3 print OSCDATA_OUT;
#X obj 151 -13 inlet;
#X obj -70 29 list prepend connect;
#X obj -70 52 list trim;
#X msg 63 31 disconnect;
#X obj -70 -18 inlet;
#X obj 63 -12 inlet;
#X text 151 -35 data in;
#X text 412 128 data out;
#X obj 151 66 list prepend send;
#X obj 151 91 list trim;
#X obj 420 68 mrpeach/pipelist;
#X obj 152 133 mrpeach/tcpsend;
#X obj 420 108 outlet;
#X obj 151 13 spigot 0;
#X obj -70 9 t a b;
#X msg 191 -8 1;
#X obj 63 12 t b b;
#X msg 220 -8 0;
#X obj 420 4 mrpeach/tcpreceive \$1;
#X connect 0 0 12 0;
#X connect 1 0 14 0;
#X connect 1 1 14 1;
#X connect 4 0 17 0;
#X connect 5 0 6 0;
#X connect 6 0 15 0;
#X connect 7 0 15 0;
#X connect 8 0 18 0;
#X connect 9 0 20 0;
#X connect 12 0 13 0;
#X connect 13 0 15 0;
#X connect 14 0 16 0;
#X connect 17 0 0 0;
#X connect 18 0 5 0;
#X connect 18 1 19 0;
#X connect 19 0 17 1;
#X connect 20 0 7 0;
#X connect 20 1 21 0;
#X connect 21 0 17 1;
#X connect 22 0 1 0;
#X restore -50 31 pd \$0-network;
#X obj -52 78 outlet;
#X obj -51 57 prepend incoming;
#X obj -72 -28 route connect disconnect list;
#X obj 44 -1 route connect;
#X connect 0 0 4 0;
#X connect 1 0 3 0;
#X connect 3 0 2 0;
#X connect 4 0 1 0;
#X connect 4 1 1 1;
#X connect 4 2 5 0;
#X connect 4 3 1 2;
#X connect 5 0 1 0;
